<?xml version="1.0" encoding="UTF-8"?>
<svg width="67px" height="67px" viewBox="0 0 67 67" version="1.1" xmlns="http://www.w3.org/2000/svg" xmlns:xlink="http://www.w3.org/1999/xlink">
    <title>编组 4</title>
    <defs>
        <linearGradient x1="50%" y1="0%" x2="50%" y2="98.3091128%" id="linearGradient-1">
            <stop stop-color="#F6E49E" offset="0%"></stop>
            <stop stop-color="#F4B64B" offset="100%"></stop>
        </linearGradient>
        <filter x="-30.8%" y="-30.8%" width="161.5%" height="161.5%" filterUnits="objectBoundingBox" id="filter-2">
            <feOffset dx="0" dy="0" in="SourceAlpha" result="shadowOffsetOuter1"></feOffset>
            <feGaussianBlur stdDeviation="2" in="shadowOffsetOuter1" result="shadowBlurOuter1"></feGaussianBlur>
            <feColorMatrix values="0 0 0 0 0.849637681   0 0 0 0 0.659261321   0 0 0 0 0.326968038  0 0 0 1 0" type="matrix" in="shadowBlurOuter1" result="shadowMatrixOuter1"></feColorMatrix>
            <feMerge>
                <feMergeNode in="shadowMatrixOuter1"></feMergeNode>
                <feMergeNode in="SourceGraphic"></feMergeNode>
            </feMerge>
        </filter>
    </defs>
    <g id="页面-1" stroke="none" stroke-width="1" fill="none" fill-rule="evenodd">
        <g id="我的-消息中心" transform="translate(-154.000000, -96.000000)">
            <g id="编组-5" transform="translate(10.000000, 80.000000)">
                <g id="编组-8" transform="translate(16.000000, 16.000000)">
                    <g id="编组-4" transform="translate(128.000000, 0.000000)">
                        <rect id="矩形" fill-opacity="0.15" fill="#E2A943" transform="translate(33.500000, 33.500000) rotate(-345.000000) translate(-33.500000, -33.500000) " x="6.5" y="6.5" width="54" height="54" rx="16"></rect>
                        <rect id="矩形" fill="url(#linearGradient-1)" x="8.5" y="8.5" width="50" height="50" rx="16"></rect>
                        <g id="找活动" filter="url(#filter-2)" transform="translate(20.000000, 21.000000)" fill-rule="nonzero">
                            <rect id="矩形" fill="#000000" opacity="0" x="0" y="0" width="25.6" height="25.6"></rect>
                            <path d="M7.585,2.4125 C8.145,1.9575 8.86,1.7025 9.58,1.6975 C10.2825,1.685 10.9875,1.91 11.5575,2.3225 C11.79,2.49 11.995,2.69 12.1875,2.9 C12.5275,3.2775 12.8025,3.7125 12.995,4.1825 C13.1875,3.71 13.4675,3.27 13.81,2.8925 C14.0175,2.6675 14.2375,2.4525 14.4925,2.28 C14.845,2.0375 15.245,1.8625 15.665,1.7725 C16.4325,1.6025 17.2625,1.72 17.9475,2.105 C18.58,2.455 19.0875,3.0225 19.36,3.6925 C19.7,4.51 19.6825,5.4625 19.3225,6.27 C19.945,6.27 20.565,6.2675 21.1875,6.2725 C21.8275,6.2825 22.4625,6.51 22.96,6.915 C23.4475,7.3075 23.805,7.86 23.955,8.4675 C24.03,8.7575 24.05,9.0575 24.045,9.355 L24.045,11.535 C24.0425,11.8575 23.9875,12.1775 23.88,12.48 C23.6675,13.085 23.2475,13.615 22.7075,13.96 C22.245,14.26 21.6975,14.4175 21.1475,14.4225 L13.57,14.4225 L13.57,7.4425 C13.1825,7.4375 12.7975,7.4375 12.41,7.4425 C12.4075,9.7675 12.41,12.095 12.41,14.42 L4.8475,14.42 C4.5425,14.4175 4.235,14.3725 3.945,14.2775 C3.2675,14.06 2.68,13.58 2.325,12.96 C2.075,12.53 1.945,12.035 1.9375,11.5375 L1.9375,9.1725 C1.945,8.92 1.9725,8.665 2.04,8.42 C2.2125,7.7775 2.615,7.2025 3.155,6.8175 C3.6325,6.4725 4.2175,6.2825 4.8075,6.275 C5.425,6.2725 6.0425,6.275 6.66,6.275 C6.345,5.56 6.29,4.7325 6.5225,3.985 C6.7125,3.365 7.0875,2.8125 7.585,2.4125 M3.69,15.57 L12.415,15.57 L12.415,23.9025 L7.1225,23.9025 C6.8775,23.9 6.6325,23.91 6.3875,23.895 C5.6375,23.845 4.9175,23.49 4.4225,22.9275 C4.0125,22.47 3.755,21.88 3.7025,21.2675 C3.685,21.115 3.6925,20.9625 3.69,20.81 C3.69,19.065 3.6875,17.3175 3.69,15.57 Z M13.575,15.57 L22.305,15.57 L22.305,20.9625 C22.305,21.3775 22.225,21.79 22.055,22.17 C21.7325,22.905 21.09,23.495 20.3275,23.7475 C20.05,23.8425 19.76,23.8925 19.4675,23.9 L13.575,23.9 L13.575,15.57 Z" id="形状" fill="#FFFFFF"></path>
                        </g>
                    </g>
                </g>
            </g>
        </g>
    </g>
</svg>