<?xml version="1.0" encoding="UTF-8"?>
<svg width="24px" height="24px" viewBox="0 0 24 24" version="1.1" xmlns="http://www.w3.org/2000/svg" xmlns:xlink="http://www.w3.org/1999/xlink">
    <title>矩形</title>
    <g id="页面-1" stroke="none" stroke-width="1" fill="none" fill-rule="evenodd">
        <g id="我的-消息中心" transform="translate(-336.000000, -30.000000)" fill-rule="nonzero">
            <g id="已读信息" transform="translate(336.000000, 30.000000)">
                <rect id="矩形" fill="#000000" opacity="0" x="0" y="0" width="24" height="24"></rect>
                <path d="M11.999988,1.36371539 L1.47119885,7.94394202 C1.47119885,9.44506027 1.47119885,9.12247896 1.47119885,10.5760375 L1.47119885,19.7883595 C1.47119885,21.241918 2.6497841,22.420431 4.10340213,22.420431 L19.8965979,22.420431 C21.3502159,22.420431 22.5287772,21.241918 22.5287772,19.7883595 L22.5287772,10.5760135 C22.5287772,9.12245498 22.5287772,9.38335008 22.5287772,7.94391802 L11.999988,1.36371539 Z M2.78731249,19.7883355 L2.78731249,10.1647643 L8.75281648,14.2658398 L2.84964877,20.1687656 C2.81302411,20.0479355 2.78731249,19.9219969 2.78731249,19.7883355 Z M19.8965979,21.1043712 L4.10340213,21.1043712 C4.0024984,21.1043712 3.9054802,21.0908684 3.81100439,21.0696907 L9.85618561,15.0241097 L11.999988,16.4982462 L14.1437904,15.0241097 L20.1889716,21.0696907 C20.0945198,21.0908924 19.9974776,21.1043712 19.8965979,21.1043712 Z M21.2126875,19.7883355 C21.2126875,19.9219969 21.1869999,20.0479355 21.1503512,20.1687416 L15.2471835,14.2658398 L21.2126875,10.1647643 L21.2126875,19.7883355 Z M11.999988,14.9559958 L2.78731249,8.60195988 L11.9871562,2.89728366 L21.2126875,8.60195988 L11.999988,14.9559958 Z" id="形状" fill="#333333"></path>
            </g>
        </g>
    </g>
</svg>