<?xml version="1.0" encoding="UTF-8"?>
<svg width="29px" height="28px" viewBox="0 0 29 28" version="1.1" xmlns="http://www.w3.org/2000/svg" xmlns:xlink="http://www.w3.org/1999/xlink">
    <title>dianfei</title>
    <defs>
        <linearGradient x1="10.0517756%" y1="31.7888759%" x2="93.1167905%" y2="82.581018%" id="linearGradient-1">
            <stop stop-color="#6D95E3" offset="0%"></stop>
            <stop stop-color="#3B5CC3" offset="100%"></stop>
        </linearGradient>
    </defs>
    <g id="页面-1" stroke="none" stroke-width="1" fill="none" fill-rule="evenodd">
        <g id="智享生活-找师傅" transform="translate(-216.000000, -224.000000)" fill-rule="nonzero">
            <g id="图标" transform="translate(28.000000, 224.000000)">
                <g id="编组-17" transform="translate(174.500000, 0.000000)">
                    <g id="baoji" transform="translate(17.000000, 3.000000)">
                        <path d="M13.0597269,9.54970735 C13.0597269,9.94698603 12.7373313,10.2696856 12.3400831,10.2696856 L1.08037786,10.2696856 C0.683159979,10.2696856 0.360764416,9.94698603 0.360764416,9.54970735 C0.360764416,9.15248947 0.6831904,8.83006349 1.08037786,8.83006349 L12.3400831,8.83006349 C12.7373313,8.83006349 13.0597269,9.15248949 13.0597269,9.54970735 L13.0597269,9.54970735 Z M11.1373403,8.51140751 C11.1419536,6.05762569 9.15689794,4.06420917 6.70320732,4.05954822 C4.24957749,4.05460177 2.25640422,6.03990061 2.25117487,8.49346963 L11.1373403,8.51140751 L11.1373403,8.51140751 Z M19.2884314,18.0842213 C19.9999576,13.0857825 18.0717864,13.3588945 18.0717864,13.3588945 L17.6531039,13.3615091 C18.3646605,13.8204455 18.3907768,14.8567387 18.3907768,14.8567387 C18.3634443,13.8918018 17.3341438,13.3638198 17.3329885,13.3638198 L16.9809802,13.3661608 C16.9815579,13.3661608 17.441984,13.7326715 17.441984,14.1066613 C17.441984,14.1066613 17.0627648,13.3655832 16.6290023,13.3684715 L14.8944995,13.3797815 C14.8944995,13.3797815 14.1632416,13.4516547 13.5937896,14.7332713 C13.5937896,14.7332713 14.0867168,13.5354763 14.6283194,13.3815145 L14.5256782,13.3820921 C13.5473639,13.3548204 13.1983047,14.3226761 13.1983047,14.3226761 C13.1983047,14.3226761 12.7940941,15.893336 12.92574,17.6011144 L12.9245543,17.6005975 C12.9245543,17.6005975 12.8979515,20.5760376 14.6503618,21.61981 C14.6503618,21.61981 14.148192,21.1443039 13.9254582,20.4849496 C14.3035524,20.9541014 14.8080936,21.3402829 15.4830751,21.5826877 C15.4830751,21.5826877 19.0552388,22.9489165 22.3936931,19.4475314 C22.3936931,19.4475618 18.9056855,20.7696756 19.2884314,18.0842213 L19.2884314,18.0842213 Z M5.18031081,13.0480521 C5.18031081,12.7569718 4.94489879,12.5212558 4.65378812,12.5212558 C4.36380235,12.5212558 4.12720461,12.7569718 4.12720461,13.0480521 C4.12720461,13.3389196 4.36380235,13.5749092 4.65378812,13.5749092 C4.94489879,13.5749092 5.18031081,13.3388891 5.18031081,13.0480521 L5.18031081,13.0480521 Z M8.73639123,12.5215598 C8.44531095,12.5215598 8.20989894,12.7572454 8.20989894,13.0483257 C8.20989894,13.3385851 8.44528055,13.5743316 8.73639123,13.5743316 C9.02759313,13.5743316 9.26297474,13.3385851 9.26297474,13.0483257 C9.26300514,12.7572454 9.02759313,12.5215598 8.73639123,12.5215598 L8.73639123,12.5215598 Z M0.757951893,10.6637112 L3.21787518,21.61981 L10.2819077,21.61981 L12.5036219,10.6637112 L0.757951893,10.6637112 Z M8.9591251,13.8924099 C8.89187322,15.0805975 7.91526148,16.0264108 6.71016966,16.0264108 C5.50857421,16.0264108 4.53433393,15.0858573 4.46236954,13.9016828 C4.07150594,13.8143952 3.77808461,13.4659137 3.77808461,13.047748 C3.77808461,12.5638506 4.17010353,12.1721661 4.65378812,12.1721661 C5.13801995,12.1721661 5.52946121,12.5638506 5.52946121,13.047748 C5.52946121,13.4737273 5.22670609,13.8280463 4.82368122,13.9071554 C4.89792585,14.8892397 5.70920495,15.6654335 6.71016966,15.6654335 C7.71052629,15.6654335 8.52074129,14.8903951 8.59608045,13.9101349 C8.17970857,13.8425486 7.86077894,13.4838516 7.86077894,13.0477784 C7.86077894,12.563881 8.25276747,12.1721661 8.73639123,12.1721661 C9.22065348,12.1721661 9.61212514,12.5638506 9.61212514,13.0477784 C9.61212514,13.4546037 9.33493911,13.7938427 8.9591251,13.8924099 L8.9591251,13.8924099 Z" id="形状" fill="url(#linearGradient-1)"></path>
                        <path d="M17.7198085,11.9831494 C17.8989746,11.9831494 18.0439675,12.2217234 18.0439675,12.515692 C18.0439675,12.8097518 17.8989746,13.0483257 17.7198085,13.0483257 L14.5680603,13.0483257 C14.3894111,13.0483257 14.244479,12.8097518 14.244479,12.515692 C14.244479,12.221693 14.3894111,11.9831494 14.5680603,11.9831494 L17.7198085,11.9831494 Z M16.020087,0 C16.3564376,0 16.6290023,0.327320896 16.6290023,0.731227477 L16.6290023,0.731227477 L16.6290023,11.618311 L15.411202,11.618311 L15.411202,0.731227477 C15.411202,0.327320896 15.6837667,0 16.020087,0 Z M13.4650928,6.21128348 L13.6198756,6.75522722 L11.6210169,7.32464883 L11.4655653,6.78073551 L13.4650928,6.21128348 Z M0.193121152,5.92217941 L2.14737835,6.63112132 L1.95431799,7.16317741 L0,6.4542659 L0.193121152,5.92217941 Z M2.85251985,2.58834641 L4.05356804,4.28481483 L3.59134814,4.6118925 L2.39090801,2.91542409 L2.85251985,2.58834641 Z M10.4367817,2.45934562 L10.9053558,2.77711991 L9.73738635,4.49678596 L9.2693898,4.17898127 L10.4367817,2.45934562 Z M6.97753545,1.45236109 L6.97753545,3.53069374 L6.41206624,3.53069374 L6.41206624,1.45236109 L6.97753545,1.45236109 Z" id="形状结合" fill="#3B5CC3" opacity="0.400000006"></path>
                    </g>
                </g>
            </g>
        </g>
    </g>
</svg>