<?xml version="1.0" encoding="UTF-8"?>
<svg width="28px" height="28px" viewBox="0 0 28 28" version="1.1" xmlns="http://www.w3.org/2000/svg" xmlns:xlink="http://www.w3.org/1999/xlink">
    <title>形状结合备份 6</title>
    <defs>
        <linearGradient x1="16.2506062%" y1="26.3671875%" x2="77.0711468%" y2="61.9767497%" id="linearGradient-1">
            <stop stop-color="#88C5FA" offset="0%"></stop>
            <stop stop-color="#3B9EF2" offset="100%"></stop>
        </linearGradient>
    </defs>
    <g id="页面-1" stroke="none" stroke-width="1" fill="none" fill-rule="evenodd">
        <g id="智享生活-找师傅" transform="translate(-304.000000, -296.000000)" fill-rule="nonzero">
            <g id="图标" transform="translate(29.000000, 296.000000)">
                <g id="diannao1" transform="translate(278.000000, 6.500000)">
                    <path d="M19.7116329,0.008476875 C20.4965296,0.008476875 21.1350769,0.633284841 21.1350769,1.4012932 L21.1350769,13.1356605 C21.1350769,13.9036892 20.4965503,14.5284769 19.7116537,14.5284769 L1.43852082,14.5284769 C0.653624184,14.5284769 0.015076875,13.9036689 0.015076875,13.1356605 L0.015076875,1.4012932 C0.015076875,0.633284841 0.653624184,0.008476875 1.43852082,0.008476875 L19.7116329,0.008476875 Z M10.5750769,12.2184769 C10.2105615,12.2184769 9.91507687,12.5139847 9.91507687,12.8784769 C9.91507687,13.2429923 10.2105615,13.5384769 10.5750769,13.5384769 C10.9395923,13.5384769 11.2350769,13.2429923 11.2350769,12.8784769 C11.2350769,12.5139847 10.9395923,12.2184769 10.5750769,12.2184769 Z M19.8,10.23 L1.32,10.23 L1.32,10.23 L1.32,11.22 L19.8,11.22 L19.8,10.23 Z M9.10547394,2.81820417 L10.3135833,4.02631354 C10.5982289,4.31095917 10.5632283,4.61802417 10.2787477,4.90248417 L10.2568233,4.92440854 C9.97234269,5.20888917 9.54994269,5.35924542 9.26529707,5.07459979 L8.08373207,3.89303479 C7.77870894,4.63066729 7.95117519,5.44642729 8.52679832,6.02205042 C9.10244207,6.59769417 9.91816082,6.77013979 10.6558346,6.46513729 L12.2467233,8.05602604 C12.5313689,8.34067167 12.9602246,8.19677104 13.2447052,7.91229042 L13.2666296,7.89036604 C13.5511102,7.60588542 13.5796552,7.29238542 13.2950096,7.00773979 L11.7306446,5.44337479 C12.0634908,4.71112542 11.9301914,3.82130104 11.3288489,3.21997917 C10.7273827,2.61849229 9.83772332,2.48535792 9.10547394,2.81820417 Z M12.9457046,7.24061667 C13.0426421,7.33753354 13.0426627,7.49442792 12.9457046,7.59136542 C12.8487671,7.68830292 12.6918933,7.68830292 12.5949558,7.59136542 C12.4980183,7.49442792 12.4980183,7.33755417 12.5949558,7.24061667 C12.6918933,7.14367917 12.8487671,7.14367917 12.9457046,7.24061667 Z" id="形状结合" fill="url(#linearGradient-1)"></path>
                    <polygon id="路径" fill="#A0D2FB" points="14.5350769 17.1684769 6.61507687 17.1684769 6.61507687 15.8484769 14.5350769 15.8484769"></polygon>
                </g>
            </g>
        </g>
    </g>
</svg>