<?xml version="1.0" encoding="UTF-8"?>
<svg width="28px" height="28px" viewBox="0 0 28 28" version="1.1" xmlns="http://www.w3.org/2000/svg" xmlns:xlink="http://www.w3.org/1999/xlink">
    <title>形状</title>
    <defs>
        <linearGradient x1="19.0388379%" y1="3.66730513%" x2="89.8379745%" y2="96.3326949%" id="linearGradient-1">
            <stop stop-color="#779FEC" offset="0%"></stop>
            <stop stop-color="#3470E2" offset="100%"></stop>
        </linearGradient>
    </defs>
    <g id="页面-1" stroke="none" stroke-width="1" fill="none" fill-rule="evenodd">
        <g id="智享生活-找师傅" transform="translate(-130.000000, -296.000000)" fill-rule="nonzero">
            <g id="图标" transform="translate(29.000000, 296.000000)">
                <g id="编组-6" transform="translate(101.000000, 0.000000)">
                    <g id="fangwuweixiu" transform="translate(4.000000, 4.000000)">
                        <path d="M19.2784375,7.8684375 L16.7978125,5.6459375 C16.80875,5.578125 16.7978125,5.508125 16.7978125,5.4359375 L16.7978125,2.358125 C16.7978125,1.649375 16.23125,1.07625 15.5334375,1.07625 C14.835625,1.07625 14.2690625,1.649375 14.2690625,2.358125 L14.2690625,3.4125 L11.0096875,0.511875 C10.699998,0.196022271 10.2762529,0.0180506678 9.83390625,0.0180506678 C9.39155964,0.0180506678 8.96781448,0.196022271 8.658125,0.511875 L0.49,7.665 C-0.1596875,8.3234375 -0.1596875,9.288125 0.49,9.9465625 L2.734375,10.8478125 L2.734375,14.459375 L5.7815625,11.458125 C5.753125,11.256875 5.7378125,11.221875 5.7378125,11.011875 C5.7378125,10.723125 5.76625,10.443125 5.8209375,10.1696875 C6.2125,8.203125 7.9078125,6.72 9.970625,6.72 C10.6728125,6.72 11.40125,6.838125 11.40125,6.838125 L11.5784375,8.903125 L11.983125,9.3078125 L14.048125,9.655625 C14.048125,9.655625 14.1071875,10.626875 14.1071875,10.7953125 C14.1071875,15.264375 9.5725,15.1375 9.3909375,15.115625 L5.455625,19.0421875 L15.2796875,19.0421875 C16.174375,19.0421875 16.8984375,18.3071875 16.8984375,17.399375 L16.8984375,11.165 L19.27625,10.15 C19.928125,9.4915625 19.928125,8.526875 19.2784375,7.8684375 Z" id="形状" fill="url(#linearGradient-1)"></path>
                        <path d="M1.973125,16.751875 C1.81125,16.9925 1.7171875,17.2834375 1.7171875,17.59625 C1.7171875,18.4340625 2.3975,19.114375 3.2353125,19.114375 C3.530625,19.114375 3.80625,19.0290625 4.0403125,18.8825 L4.5215625,18.40125 L4.9065625,18.01625 L7.7065625,15.220625 L8.9359375,13.9934375 C8.938125,13.9934375 8.9403125,13.9934375 8.9425,13.995625 C9.2203125,14.0765625 9.515625,14.1203125 9.8196875,14.1203125 C10.1434375,14.1203125 10.4540625,14.0721875 10.7471875,13.9803125 C12.03125,13.584375 12.9653125,12.3878125 12.9653125,10.9746875 C12.9653125,10.85 12.95875,10.7275 12.9434375,10.6071875 L12.2128125,10.460625 L10.696875,11.974375 L8.9075,10.2003125 L10.338125,8.7346875 L10.276875,7.8640625 C10.128125,7.8421875 9.975,7.83125 9.8196875,7.83125 C8.2928125,7.83125 7.021875,8.9184375 6.7353125,10.36 C6.6959375,10.5590625 6.6740625,10.7646875 6.6740625,10.976875 C6.6740625,11.2175 6.7003125,11.45375 6.7528125,11.6790625 C6.7725,11.764375 6.794375,11.8475 6.820625,11.9284375 L6.4903125,12.25875 L4.7534375,13.9890625 L2.3975,16.3296875 L1.973125,16.751875 L1.973125,16.751875 Z" id="路径" fill="#9EBBF1"></path>
                    </g>
                </g>
            </g>
        </g>
    </g>
</svg>