<?xml version="1.0" encoding="UTF-8"?>
<svg width="29px" height="28px" viewBox="0 0 29 28" version="1.1" xmlns="http://www.w3.org/2000/svg" xmlns:xlink="http://www.w3.org/1999/xlink">
    <title>dianfei备份 2</title>
    <defs>
        <linearGradient x1="7.04688493%" y1="31.1782352%" x2="100%" y2="68.8217648%" id="linearGradient-1">
            <stop stop-color="#FECE72" offset="0%"></stop>
            <stop stop-color="#F5A716" offset="100%"></stop>
        </linearGradient>
        <linearGradient x1="7.04688493%" y1="0.302040911%" x2="100%" y2="99.6979591%" id="linearGradient-2">
            <stop stop-color="#FECE72" offset="0%"></stop>
            <stop stop-color="#F5A716" offset="100%"></stop>
        </linearGradient>
        <linearGradient x1="7.04688493%" y1="0.299397543%" x2="100%" y2="99.7006025%" id="linearGradient-3">
            <stop stop-color="#FECE72" offset="0%"></stop>
            <stop stop-color="#F5A716" offset="100%"></stop>
        </linearGradient>
    </defs>
    <g id="页面-1" stroke="none" stroke-width="1" fill="none" fill-rule="evenodd">
        <g id="智享生活-找师傅" transform="translate(-129.000000, -224.000000)" fill-rule="nonzero">
            <g id="图标" transform="translate(28.000000, 224.000000)">
                <g id="编组-14" transform="translate(87.500000, 0.000000)">
                    <g id="banjiapeisong" transform="translate(16.000000, 5.000000)">
                        <path d="M23.0939719,7.2939375 L21.0503813,4.5759375 C20.6323313,4.07354062 20.3501531,3.6640125 19.678275,3.6640125 L15.5622375,3.6640125 C15.058575,3.6640125 14.6476688,4.07356875 14.6476688,4.5759375 L14.6476688,13.6952156 C14.6476688,14.1956437 15.0558188,14.6026687 15.5569219,14.606325 C15.7820625,13.0353187 17.1273938,11.8197844 18.7637344,11.8197844 C20.400975,11.8197844 21.7462219,13.0361625 21.9704063,14.6071125 L22.8797438,14.6071125 C23.3836313,14.6071125 23.7943688,14.1974719 23.7943688,13.6952719 L23.7943688,9.13545 C23.7943688,8.27170312 23.0939719,7.2939375 23.0939719,7.2939375 L23.0939719,7.2939375 Z M17.3915438,9.13545 L17.3915438,5.48783437 L19.6291969,5.48783437 C19.7767125,5.48783437 19.9811813,5.70327187 19.9811813,5.70327187 L21.9070406,8.360775 C22.0776469,8.6110875 22.2625688,8.90744062 22.2625688,9.13539375 L17.3915438,9.13545 Z M12.8183344,0.016228125 L0.927759375,0.016228125 C0.4239,0.016228125 0.013021875,0.425896875 0.013021875,0.928096875 L0.013021875,13.6951875 C0.013021875,14.1973875 0.4239,14.6070281 0.927759375,14.6070281 L2.75160938,14.6070281 C2.97593438,13.0361062 4.32106875,11.8197 5.95825313,11.8197 C7.59560625,11.8197 8.94085313,13.0361062 9.16506563,14.6070281 L12.8183625,14.6070281 C13.3221938,14.6070281 13.7331563,14.1974156 13.7331563,13.6951875 L13.7331563,0.928096875 C13.7329313,0.425896875 13.3221375,0.016228125 12.8183344,0.016228125 L12.8183344,0.016228125 Z" id="形状" fill="url(#linearGradient-1)"></path>
                        <path d="M8.07353438,15.0631594 C8.07353438,16.2278156 7.12673438,17.1719437 5.95825313,17.1719437 C4.78999688,17.1719437 3.84314063,16.2280687 3.84314063,15.0631594 C3.84314063,13.89825 4.790025,12.9543469 5.95825313,12.9543469 C7.12673438,12.9543469 8.07353438,13.89825 8.07353438,15.0631594 Z" id="路径" fill="url(#linearGradient-2)" opacity="0.4"></path>
                        <path d="M20.8789313,15.0631594 C20.8789313,16.2278156 19.9321031,17.1719437 18.7637625,17.1719437 C17.5953375,17.1719437 16.64865,16.2280687 16.64865,15.0631594 C16.64865,13.89825 17.5953375,12.9543469 18.7637625,12.9543469 C19.9321031,12.9543469 20.8789313,13.89825 20.8789313,15.0631594 Z" id="路径" fill="url(#linearGradient-3)" opacity="0.4"></path>
                    </g>
                </g>
            </g>
        </g>
    </g>
</svg>