<?xml version="1.0" encoding="UTF-8"?>
<svg width="29px" height="28px" viewBox="0 0 29 28" version="1.1" xmlns="http://www.w3.org/2000/svg" xmlns:xlink="http://www.w3.org/1999/xlink">
    <title>dianfei备份 3</title>
    <defs>
        <linearGradient x1="28.9731145%" y1="15.822823%" x2="69.9380658%" y2="100%" id="linearGradient-1">
            <stop stop-color="#6391E9" offset="0%"></stop>
            <stop stop-color="#3772E3" offset="100%"></stop>
        </linearGradient>
    </defs>
    <g id="页面-1" stroke="none" stroke-width="1" fill="none" fill-rule="evenodd">
        <g id="智享生活-找师傅" transform="translate(-42.000000, -224.000000)" fill="url(#linearGradient-1)" fill-rule="nonzero">
            <g id="图标" transform="translate(28.000000, 224.000000)">
                <g id="编组-15" transform="translate(0.500000, 0.000000)">
                    <g id="baomu" transform="translate(19.000000, 3.000000)">
                        <path d="M1.831025,15.1508 C1.450225,15.2964 1.114225,15.4868 0.823025,15.6996 C0.531825,15.9236 0.319025,16.2148 0.218225,16.5732 C0.151025,16.786 0.095025,17.0436 0.050225,17.3684 C-0.039375,18.0964 0.083825,20.5828 0.061425,20.4484 C0.106225,20.7396 0.184625,20.9636 0.274225,21.1204 C0.341425,21.2212 0.531825,21.322 0.856625,21.4228 C1.170225,21.5236 2.682225,21.5684 3.152625,21.6692 C3.208625,21.6804 3.242225,21.6804 3.275825,21.6916 L3.925425,17.906 C3.925425,17.7156 3.981425,17.5252 4.059825,17.3684 L4.407025,14.0308 C4.104625,14.154 3.768625,14.266 3.387825,14.3668 C2.995825,14.4788 2.200625,15.0052 1.831025,15.1508 L1.831025,15.1508 Z M13.333425,10.9396 C14.184625,9.786 14.688625,8.3188 14.688625,6.7172 C14.688625,3.0212 11.978225,0.0196 8.640625,0.0196 C5.303025,0.0196 2.592625,3.01 2.592625,6.7172 C2.592625,9.4948 4.127025,11.8692 6.299825,12.8772 C6.120625,12.9668 5.549425,13.3252 5.471025,13.4036 C5.571825,13.5268 5.639025,13.6836 5.616625,13.8516 L5.179825,16.8644 L12.101425,16.8644 L11.664625,13.8516 C11.642225,13.6836 11.709425,13.5156 11.810225,13.4036 C11.731825,13.3252 11.160625,12.9668 10.981425,12.8772 C11.519025,12.6196 12.034225,12.2948 12.482225,11.8804 C12.941425,11.69 13.266225,11.2644 13.333425,10.9396 Z M11.776625,8.2628 C11.765425,8.4196 11.765425,8.5876 11.765425,8.7332 C11.776625,8.8228 11.787825,8.9124 11.787825,9.002 C11.787825,9.058 11.787825,9.1028 11.776625,9.1588 C11.776625,9.2932 11.787825,9.3828 11.787825,9.3828 C11.776625,9.4276 11.743025,9.4724 11.731825,9.5172 C11.563825,10.2116 11.059825,10.8052 10.376625,11.186 L10.376625,12.5636 C10.376625,13.2804 9.794225,13.8628 9.077425,13.8628 L8.215025,13.8628 C7.498225,13.8628 6.915825,13.2804 6.915825,12.5636 L6.915825,11.186 C6.064625,10.7044 5.493425,9.9092 5.493425,9.002 C5.493425,8.9124 5.504625,8.8116 5.515825,8.722 L5.549425,8.2516 C5.627825,7.658 5.818225,7.0756 6.199025,6.706 C6.781425,6.146 7.072625,5.2388 7.207025,4.5332 C7.330225,5.1492 7.621425,5.8996 8.282225,6.0676 C9.402225,6.3588 9.895025,6.37 10.410225,6.3812 C10.656625,6.3812 11.687025,6.3364 11.787825,7.4788 C11.787825,7.4788 11.776625,7.8036 11.754225,8.2516 L11.776625,8.2516 L11.776625,8.2628 Z M17.242225,17.3684 C17.197425,17.0436 17.141425,16.786 17.074225,16.5732 C16.962225,16.2148 16.760625,15.9236 16.469425,15.6996 C16.178225,15.4756 15.831025,15.2964 15.461425,15.1508 C15.080625,15.0052 14.296625,14.4788 13.893425,14.3668 C13.523825,14.266 13.187825,14.154 12.874225,14.0308 L13.221425,17.3684 C13.311025,17.5252 13.355825,17.7156 13.355825,17.906 L14.005425,21.6916 C14.039025,21.6916 14.083825,21.6804 14.128625,21.6692 C14.599025,21.5684 16.111025,21.5236 16.424625,21.4228 C16.738225,21.322 16.928625,21.2212 17.007025,21.1204 C17.107825,20.9636 17.175025,20.7396 17.219825,20.4484 C17.208625,20.5828 17.331825,18.0964 17.242225,17.3684 L17.242225,17.3684 Z" id="形状"></path>
                    </g>
                </g>
            </g>
        </g>
    </g>
</svg>