<?xml version="1.0" encoding="UTF-8"?>
<svg width="29px" height="28px" viewBox="0 0 29 28" version="1.1" xmlns="http://www.w3.org/2000/svg" xmlns:xlink="http://www.w3.org/1999/xlink">
    <title>dianfei备份</title>
    <defs>
        <linearGradient x1="11.5860924%" y1="31.3342798%" x2="89.9252621%" y2="68.6657202%" id="linearGradient-1">
            <stop stop-color="#8E9EED" offset="0%"></stop>
            <stop stop-color="#5068E4" offset="100%"></stop>
        </linearGradient>
        <linearGradient x1="11.5860924%" y1="44.660711%" x2="89.9252621%" y2="55.339289%" id="linearGradient-2">
            <stop stop-color="#8E9EED" offset="0%"></stop>
            <stop stop-color="#5068E4" offset="100%"></stop>
        </linearGradient>
    </defs>
    <g id="页面-1" stroke="none" stroke-width="1" fill="none" fill-rule="evenodd">
        <g id="智享生活-找师傅" transform="translate(-303.000000, -224.000000)" fill-rule="nonzero">
            <g id="图标" transform="translate(28.000000, 224.000000)">
                <g id="编组-16" transform="translate(261.500000, 0.000000)">
                    <g id="jiadianweixiu" transform="translate(18.000000, 5.000000)">
                        <path d="M6.70162662,18.0037909 C6.70162662,18.3978534 7.02403522,18.720262 7.41809764,18.720262 L18.5079419,18.720262 C18.901982,18.720262 19.224413,18.3978534 19.224413,18.0037909 L19.224413,7.05644844 L6.70162662,7.05644844 L6.70162662,18.0037909 Z M12.9630198,8.84709998 C15.0656486,8.84709998 16.770141,10.5515923 16.770141,12.6542211 C16.770141,14.7568276 15.0656486,16.4613423 12.9630198,16.4613423 C10.8604134,16.4613423 9.15589861,14.7568276 9.15589861,12.6542211 C9.15589861,10.5515923 10.8604134,8.84709998 12.9630198,8.84709998 Z M2.23542909,7.09022711 L2.23542909,15.1668056 L1.37916483,15.1668056 L1.37916485,7.09022711 L0.727721728,7.09022711 C0.333659309,7.09022711 0.0112507063,7.41261336 0.0112507063,7.80669816 L0.0112507063,18.0791159 C0.0112507063,18.4731783 0.333659309,18.7955869 0.727721728,18.7955869 L5.96294985,18.7955869 L5.96294985,7.09022711 L2.23542909,7.09022711 Z M10.2888617,12.6542211 C10.2888617,14.1311179 11.486123,15.3283793 12.9630198,15.3283793 C14.4399165,15.3283793 15.6371779,14.1311179 15.6371779,12.6542211 C15.6371779,11.1773244 14.4399165,9.98006302 12.9630198,9.98006302 C11.486123,9.98006302 10.2888617,11.1773244 10.2888617,12.6542211 Z" id="形状" fill="url(#linearGradient-1)"></path>
                        <path d="M18.5079643,3.07810576 C18.8691677,3.07810576 19.1701808,3.34901854 19.2178412,3.69768184 L19.224413,3.7945544 L19.224413,6.2879103 L6.70162662,6.2879103 L6.70162662,3.79457678 C6.70162662,3.43335289 6.9725394,3.13233812 7.32121994,3.08467749 L7.41809764,3.07810576 L18.5079643,3.07810576 Z M8.13147958,0.00941513125 C8.525542,0.00941513125 8.84795061,0.331823756 8.84795061,0.725886175 L8.84795061,0.725886175 L8.84795061,2.33284787 L6.67283973,2.33284787 C6.27877731,2.33284787 5.95636871,2.65525647 5.95636871,3.04931889 L5.95636871,3.04931889 L5.95636871,6.26140666 L2.23542911,6.26140666 L2.23542911,4.39504964 L1.37916485,4.39504964 L1.37916485,6.26140666 L0.727721728,6.26140666 C0.333659309,6.26140666 0.0112507063,5.93899806 0.0112507063,5.54493564 L0.0112507063,5.54493564 L0.0112507063,0.725886153 C0.0112507063,0.331823734 0.333659309,0.00941513125 0.727721728,0.00941513125 L0.727721728,0.00941513125 Z M16.6956219,3.69001727 C16.1472161,3.69001727 15.7026311,4.13460224 15.7026311,4.68300803 C15.7026311,5.23141382 16.1471937,5.67599878 16.6956219,5.67599878 C17.2440277,5.67599878 17.6886126,5.23141382 17.6886126,4.68300803 C17.6886126,4.13460224 17.2440277,3.69001727 16.6956219,3.69001727 Z M8.72964682,4.46860623 C8.47651925,4.46860623 8.27131758,4.67380791 8.27131758,4.92693548 C8.27131758,5.18006304 8.47651925,5.38526472 8.72964682,5.38526472 C8.98277439,5.38526472 9.18797607,5.18006304 9.18797607,4.92693548 C9.18797607,4.67380791 8.98277439,4.46860623 8.72964682,4.46860623 Z M10.1852871,4.46860623 C9.93215952,4.46860623 9.72695784,4.67380791 9.72695784,4.92693548 C9.72695784,5.18006304 9.93215952,5.38526472 10.1852871,5.38526472 C10.4384147,5.38526472 10.6436163,5.18006304 10.6436163,4.92693548 C10.6436163,4.67380791 10.4384147,4.46860623 10.1852871,4.46860623 Z M11.6409498,4.46860623 C11.3878222,4.46860623 11.1826205,4.67380791 11.1826205,4.92693548 C11.1826205,5.18006304 11.3878222,5.38526472 11.6409498,5.38526472 C11.8940773,5.38526472 12.099279,5.18006304 12.099279,4.92693548 C12.099279,4.67380791 11.8940773,4.46860623 11.6409498,4.46860623 Z M13.09659,4.46860623 C12.8434625,4.46860623 12.6382608,4.67380791 12.6382608,4.92693548 C12.6382608,5.18006304 12.8434625,5.38526472 13.09659,5.38526472 C13.3497176,5.38526472 13.5549193,5.18006304 13.5549193,4.92693548 C13.5549193,4.67380791 13.3497176,4.46860623 13.09659,4.46860623 Z" id="形状结合" fill="url(#linearGradient-2)" opacity="0.4"></path>
                    </g>
                </g>
            </g>
        </g>
    </g>
</svg>