<?xml version="1.0" encoding="UTF-8"?>
<svg width="28px" height="28px" viewBox="0 0 28 28" version="1.1" xmlns="http://www.w3.org/2000/svg" xmlns:xlink="http://www.w3.org/1999/xlink">
    <title>矩形备份 21</title>
    <defs>
        <linearGradient x1="15.221143%" y1="0%" x2="86.1471943%" y2="100%" id="linearGradient-1">
            <stop stop-color="#8E9EED" offset="0%"></stop>
            <stop stop-color="#5068E4" offset="100%"></stop>
        </linearGradient>
        <linearGradient x1="11.5860924%" y1="0.93657869%" x2="89.9252621%" y2="99.0634213%" id="linearGradient-2">
            <stop stop-color="#8E9EED" offset="0%"></stop>
            <stop stop-color="#5068E4" offset="100%"></stop>
        </linearGradient>
    </defs>
    <g id="页面-1" stroke="none" stroke-width="1" fill="none" fill-rule="evenodd">
        <g id="智享生活-找师傅" transform="translate(-43.000000, -296.000000)" fill-rule="nonzero">
            <g id="图标" transform="translate(29.000000, 296.000000)">
                <g id="编组" transform="translate(14.000000, 0.000000)">
                    <g id="guandaoshutong" transform="translate(3.000000, 3.000000)">
                        <path d="M20.1954687,20.4982812 L14.9414062,20.4982812 L14.9414062,14.0276562 C14.9414062,13.7753125 14.7342187,13.568125 14.481875,13.568125 L9.65015625,13.568125 C5.40546875,13.568125 1.95234375,10.115 1.95234375,5.8703125 L1.95234375,1.32546875 L7.20640625,1.32546875 L7.20640625,5.8703125 C7.20640625,7.21703125 8.3034375,8.3140625 9.65015625,8.3140625 L14.4792187,8.3140625 C17.6295312,8.3140625 20.1928125,10.8773437 20.1928125,14.0276562 L20.1928125,20.4982812 L20.1954687,20.4982812 Z" id="路径" fill="url(#linearGradient-1)"></path>
                        <path d="M8.489375,1.32546875 L0.67203125,1.32546875 C0.308125,1.32546875 0.0159375,1.030625 0.0159375,0.669375 C0.0159375,0.308125 0.31078125,0.01328125 0.67203125,0.01328125 L8.49203125,0.01328125 C8.8559375,0.01328125 9.148125,0.308125 9.148125,0.669375 C9.148125,1.030625 8.85328125,1.32546875 8.489375,1.32546875 Z M10.7285937,15.5842188 C10.3646875,15.5842188 10.0725,15.289375 10.0725,14.928125 L10.0725,7.11078125 C10.0725,6.746875 10.3673437,6.4546875 10.7285937,6.4546875 C11.0925,6.4546875 11.3846875,6.74953125 11.3846875,7.11078125 L11.3846875,14.928125 C11.3846875,15.289375 11.0898437,15.5842188 10.7285937,15.5842188 L10.7285937,15.5842188 Z M21.3748437,21.82375 L13.5575,21.82375 C13.1935937,21.82375 12.9014062,21.5289063 12.9014062,21.1676563 C12.9014062,20.8064063 13.19625,20.5115625 13.5575,20.5115625 L21.3775,20.5115625 C21.7414062,20.5115625 22.0335937,20.8064063 22.0335937,21.1676563 C22.0335937,21.5289063 21.73875,21.82375 21.3748437,21.82375 Z" id="形状" fill="url(#linearGradient-2)" opacity="0.5"></path>
                    </g>
                </g>
            </g>
        </g>
    </g>
</svg>