<?xml version="1.0" encoding="UTF-8"?>
<svg width="28px" height="28px" viewBox="0 0 28 28" version="1.1" xmlns="http://www.w3.org/2000/svg" xmlns:xlink="http://www.w3.org/1999/xlink">
    <title>形状结合</title>
    <defs>
        <linearGradient x1="11.5860924%" y1="21.9016366%" x2="89.9252621%" y2="78.0983634%" id="linearGradient-1">
            <stop stop-color="#8E9EED" offset="0%"></stop>
            <stop stop-color="#5068E4" offset="100%"></stop>
        </linearGradient>
    </defs>
    <g id="页面-1" stroke="none" stroke-width="1" fill="none" fill-rule="evenodd">
        <g id="智享生活-找师傅" transform="translate(-217.000000, -296.000000)" fill-rule="nonzero">
            <g id="图标" transform="translate(29.000000, 296.000000)">
                <g id="weizhangchaxun" transform="translate(188.000000, 0.000000)">
                    <g id="LUCK01" transform="translate(6.000000, 4.000000)">
                        <path d="M13.5051315,7.6287505 L11.4585775,7.63474283 L4.8857583,7.63474285 L2.83651569,7.6287505 L1.32731253,7.6287505 C0.59952836,7.6287505 0.00986416172,8.21761726 0.00986416172,8.9443989 L0.00986416172,18.5484294 C0.00986416172,19.2765097 0.59952836,19.8653993 1.32731253,19.8653993 L15.0170233,19.8653993 C15.7448075,19.8653993 16.3331274,19.2765097 16.3331274,18.5484294 L16.3331274,8.94437612 C16.3331274,8.21761726 15.7434176,7.6287505 15.0156562,7.6287505 L13.5051315,7.6287505 Z M8.91203929,13.9966227 L8.91203929,13.9966227 L8.91203929,16.0938724 C8.91203929,16.1874941 8.83420725,16.2665109 8.73915011,16.2665109 L7.60653003,16.2665109 C7.51012858,16.2665109 7.43227377,16.1874941 7.43227377,16.0938724 L7.43227377,13.9966227 C6.9002317,13.7248941 6.53164601,13.1802978 6.53164601,12.5418746 C6.53164601,11.638376 7.26621997,10.9036653 8.1708806,10.9036653 C9.07695389,10.9036653 9.81130378,11.638376 9.81130378,12.5418746 C9.81266705,13.1802978 9.44408136,13.7248941 8.91203929,13.9966227 Z" id="形状" fill="url(#linearGradient-1)"></path>
                        <path d="M13.5051316,7.62875053 L13.5051316,4.91162432 C13.5051316,1.97389809 11.1141662,0.00663431016 8.1720654,0.00663431016 C5.2301696,0.00663431016 2.83651569,2.0001687 2.83651569,4.93787213 L2.83651569,6.1187271 L4.88261403,6.10997782 L4.8857811,4.73479339 C4.8857811,3.18685648 6.36151374,1.92639228 8.17347804,1.92639228 C9.98560182,1.92639228 11.4585775,3.18685648 11.4585775,4.73479339 L11.4585775,7.63474283 L13.5051316,7.62875053 Z" id="路径" fill="#B2BDF3"></path>
                    </g>
                </g>
            </g>
        </g>
    </g>
</svg>