<?xml version="1.0" encoding="UTF-8"?>
<svg width="16px" height="16px" viewBox="0 0 16 16" version="1.1" xmlns="http://www.w3.org/2000/svg" xmlns:xlink="http://www.w3.org/1999/xlink">
    <title>矩形</title>
    <g id="页面-1" stroke="none" stroke-width="1" fill="none" fill-rule="evenodd">
        <g id="智享生活-找师傅" transform="translate(-21.000000, -891.000000)" fill-rule="nonzero">
            <g id="1" transform="translate(11.000000, 649.000000)">
                <g id="内容" transform="translate(10.000000, 182.000000)">
                    <g id="积分" transform="translate(0.000000, 60.000000)">
                        <rect id="矩形" fill="#000000" opacity="0" x="0" y="0" width="16" height="16"></rect>
                        <path d="M14.4,13.3333333 L14.2933333,13.3333333 C13.7813333,14.848 11.2,16 8,16 C4.8,16 2.21866667,14.848 1.70666667,13.3333333 L1.6,13.3333333 L1.6,3.73333333 L1.70666667,3.73333333 C1.64191272,3.56266299 1.60586956,3.38244722 1.6,3.2 C1.6,1.42933333 4.46933333,0 8,0 C11.5306667,0 14.4,1.42933333 14.4,3.2 C14.393936,3.38242475 14.3578991,3.56260894 14.2933333,3.73333333 L14.4,3.73333333 L14.4,13.3333333 Z M8,1.06666667 C5.056,1.06666667 2.66666667,2.02666667 2.66666667,3.2 C2.66666667,4.37333333 5.056,5.33333333 8,5.33333333 C10.944,5.33333333 13.3333333,4.37333333 13.3333333,3.2 C13.3333333,2.02666667 10.944,1.06666667 8,1.06666667 Z M13.3333333,4.97066667 C11.743415,5.98098606 9.8820769,6.47982468 8,6.4 C6.11679951,6.47665126 4.25537344,5.97406622 2.66666667,4.96 L2.66666667,6.4 C2.66666667,7.57333333 5.056,8.53333333 8,8.53333333 C10.944,8.53333333 13.3333333,7.57333333 13.3333333,6.4 L13.3333333,4.97066667 Z M13.3333333,8.17066667 C11.743415,9.18098606 9.8820769,9.67982468 8,9.6 C6.11679951,9.67665126 4.25537344,9.17406622 2.66666667,8.16 L2.66666667,9.6 C2.66666667,10.7733333 5.056,11.7333333 8,11.7333333 C10.944,11.7333333 13.3333333,10.7733333 13.3333333,9.6 L13.3333333,8.17066667 Z M8,12.8 C6.11679951,12.8766513 4.25537344,12.3740662 2.66666667,11.36 L2.66666667,12.8 C2.66666667,13.984 5.056,14.9333333 8,14.9333333 C10.944,14.9333333 13.3333333,13.9733333 13.3333333,12.8 L13.3333333,11.36 C11.7446266,12.3740662 9.88320049,12.8766513 8,12.8 Z" id="形状" fill="#FF0000"></path>
                    </g>
                </g>
            </g>
        </g>
    </g>
</svg>