<?xml version="1.0" encoding="UTF-8"?>
<svg width="20px" height="20px" viewBox="0 0 20 20" version="1.1" xmlns="http://www.w3.org/2000/svg" xmlns:xlink="http://www.w3.org/1999/xlink">
    <title>矩形</title>
    <g id="页面-1" stroke="none" stroke-width="1" fill="none" fill-rule="evenodd">
        <g id="云上服务" transform="translate(-250.000000, -160.000000)">
            <g id="编组-4" transform="translate(235.000000, 64.000000)">
                <g id="编组" transform="translate(15.000000, 96.000000)">
                    <rect id="矩形" fill="#D8D8D8" opacity="0" x="0" y="0" width="20" height="20"></rect>
                    <g id="编组-3" transform="translate(3.008510, 2.015000)" fill="#333333" fill-rule="nonzero" stroke="#333333" stroke-width="0.3">
                        <path d="M4.57846154,16.3107692 L1.62461538,16.3107692 C0.72,16.3107692 2.48689958e-14,15.5723077 2.48689958e-14,14.6861538 L2.48689958e-14,1.62461538 C2.48689958e-14,0.72 0.738461538,1.04805054e-13 1.62461538,1.04805054e-13 L12.2030769,1.04805054e-13 C13.1076923,1.04805054e-13 13.8276923,0.738461538 13.8276923,1.62461538 L13.8276923,5.42769231 C13.8276923,5.76923077 13.6430769,6.05538462 13.2923077,6.05538462 C12.9415385,6.05538462 12.7569231,5.77846154 12.7569231,5.42769231 L12.7569231,1.44 C12.7569231,1.23692308 12.5907692,1.07076923 12.3876923,1.07076923 L1.44,1.07076923 C1.23692308,1.07076923 1.07076923,1.23692308 1.07076923,1.44 L1.07076923,14.8707692 C1.07076923,15.0738462 1.23692308,15.24 1.44,15.24 L4.56923077,15.24 C4.91076923,15.24 5.19692308,15.4246154 5.19692308,15.7753846 C5.20615385,16.1261538 4.92923077,16.3107692 4.57846154,16.3107692 Z" id="路径"></path>
                        <path d="M9.66461538,4.44 L3.24,4.44 C2.89846154,4.44 2.61230769,4.25538462 2.61230769,3.90461538 C2.61230769,3.55384615 2.88923077,3.36923077 3.24,3.36923077 L9.66461538,3.36923077 C10.0061538,3.36923077 10.2923077,3.55384615 10.2923077,3.90461538 C10.2923077,4.25538462 10.0061538,4.44 9.66461538,4.44 L9.66461538,4.44 Z M8.78769231,7.25538462 L3.24,7.25538462 C2.89846154,7.25538462 2.61230769,7.07076923 2.61230769,6.72 C2.61230769,6.37846154 2.88923077,6.18461538 3.24,6.18461538 L8.78769231,6.18461538 C9.12923077,6.18461538 9.41538462,6.36923077 9.41538462,6.72 C9.41538462,7.06153846 9.13846154,7.25538462 8.78769231,7.25538462 Z M6.97846154,10.1261538 L3.26769231,10.1261538 C2.92615385,10.1261538 2.64,9.94153846 2.64,9.59076923 C2.64,9.24 2.91692308,9.05538462 3.26769231,9.05538462 L6.98769231,9.05538462 C7.32923077,9.05538462 7.61538462,9.24 7.61538462,9.59076923 C7.61538462,9.94153846 7.32923077,10.1261538 6.97846154,10.1261538 L6.97846154,10.1261538 Z M14.4553846,8.22461538 L12.7107692,6.79384615 C12.3784615,6.51692308 11.88,6.56307692 11.6123077,6.90461538 L6.08307692,13.6338462 C6.08307692,13.6338462 6.08307692,13.6430769 6.07384615,13.6430769 C6.05538462,13.6707692 6.04615385,13.6892308 6.03692308,13.7169231 L6.03692308,13.7261538 C6.02769231,13.7538462 6.02769231,13.7723077 6.02769231,13.8 L6.04615385,16.3753846 C6.04615385,16.5230769 6.16615385,16.6338462 6.30461538,16.6338462 L6.36,16.6338462 L8.88923077,16.1538462 C8.91692308,16.1446154 8.93538462,16.1446154 8.96307692,16.1261538 L8.97230769,16.1261538 C9,16.1076923 9.01846154,16.0892308 9.03692308,16.0707692 C9.03692308,16.0707692 9.04615385,16.0707692 9.04615385,16.0615385 L13.44,10.7169231 L14.5753846,9.34153846 C14.8430769,9 14.7969231,8.50153846 14.4553846,8.22461538 L14.4553846,8.22461538 Z M10.6984615,9.59076923 L12.1015385,10.7076923 L8.73230769,14.8246154 L7.32923077,13.7076923 L10.6984615,9.59076923 L10.6984615,9.59076923 Z M6.82153846,15.7661538 L6.90461538,14.4276923 L8.14153846,15.4061538 L6.82153846,15.7661538 Z M13.5507692,9.08307692 L12.7846154,10.0153846 L11.2707692,8.80615385 L12.0369231,7.87384615 C12.1015385,7.79076923 12.24,7.77230769 12.3323077,7.84615385 L13.5230769,8.79692308 C13.6061538,8.87076923 13.6153846,9 13.5507692,9.08307692 Z" id="形状"></path>
                    </g>
                </g>
            </g>
        </g>
    </g>
</svg>