<?xml version="1.0" encoding="UTF-8"?>
<svg width="16px" height="16px" viewBox="0 0 16 16" version="1.1" xmlns="http://www.w3.org/2000/svg" xmlns:xlink="http://www.w3.org/1999/xlink">
    <!-- Generator: Sketch 63 (92445) - https://sketch.com -->
    <title>编组</title>
    <desc>Created with Sketch.</desc>
    <g id="页面-1" stroke="none" stroke-width="1" fill="none" fill-rule="evenodd">
        <g id="注册账号-密保注册" transform="translate(-334.000000, -384.000000)">
            <g id="编组-5备份" transform="translate(30.000000, 382.000000)">
                <g id="编组" transform="translate(312.000000, 10.000000) rotate(-90.000000) translate(-312.000000, -10.000000) translate(304.500000, 2.500000)">
                    <rect id="矩形" x="0.5" y="0.5" width="14" height="14"></rect>
                    <path d="M13,5.63240847 C13.0004192,5.79999647 12.9325303,5.96087058 12.8112921,6.0795786 L7.95885342,10.8143211 C7.83745498,10.9331871 7.67254971,11 7.50056755,11 C7.32858538,11 7.16368012,10.9331871 7.04228167,10.8143211 L2.18984299,6.0795786 C2.02611322,5.9198201 1.96216946,5.68696701 2.02209871,5.46873284 C2.08202797,5.25049867 2.25672556,5.08003838 2.48038459,5.02156271 C2.70404363,4.96308704 2.94268497,5.02547984 3.10641474,5.18523834 L7.50056755,9.47281075 L11.8947204,5.18523834 C12.0816401,5.02181467 12.3485585,4.97861464 12.5795425,5.07440173 C12.8105264,5.17018882 12.9638973,5.38767932 12.9730401,5.63240847 L13,5.63240847 Z" id="路径" fill="#999999" fill-rule="nonzero"></path>
                </g>
            </g>
        </g>
    </g>
</svg>