<?xml version="1.0" encoding="UTF-8"?>
<svg width="22px" height="19px" viewBox="0 0 22 19" version="1.1" xmlns="http://www.w3.org/2000/svg" xmlns:xlink="http://www.w3.org/1999/xlink">
    <title>形状</title>
    <g id="页面-1" stroke="none" stroke-width="1" fill="none" fill-rule="evenodd">
        <g id="云上服务" transform="translate(-309.000000, -1332.000000)" fill="#FFFFFF" fill-rule="nonzero">
            <g id="编组-14" transform="translate(285.000000, 1317.000000)">
                <g id="编组" transform="translate(24.000000, 15.000000)">
                    <path d="M19.4193542,18.3043056 L2.52335417,18.3043056 C1.14664306,18.3043056 0.0202430557,17.1779056 0.0202430557,15.8011944 L0.0202430557,6.10163889 C0.0202430557,4.72492778 1.14664306,3.59852778 2.52335417,3.59852778 L3.49330972,3.59852778 C4.02522083,3.59852778 4.46326528,3.28563889 4.65099861,2.81630556 L4.6822875,2.72243889 L5.37064306,1.53346111 C5.77739861,0.594794444 6.6534875,0.000305555651 7.68602083,0.000305555651 L14.1941097,0.000305555651 C15.2266431,0.000305555651 16.1027319,0.594794445 16.5094875,1.53346111 L17.2604208,2.81630556 C17.4481542,3.28563889 17.9174875,3.59852778 18.4181097,3.59852778 L19.4193542,3.59852778 C20.7960653,3.59852778 21.9224653,4.72492778 21.9224653,6.10163889 L21.9224653,15.8011944 C21.9224653,17.1779056 20.7960653,18.3043056 19.4193542,18.3043056 L19.4193542,18.3043056 Z M2.52335417,4.85008333 C1.83499861,4.85008333 1.27179861,5.41328333 1.27179861,6.10163889 L1.27179861,15.8011944 C1.27179861,16.48955 1.83499861,17.05275 2.52335417,17.05275 L19.4193542,17.05275 C20.1077097,17.05275 20.6709097,16.48955 20.6709097,15.8011944 L20.6709097,6.10163889 C20.6709097,5.41328333 20.1077097,4.85008333 19.4193542,4.85008333 L18.4493986,4.85008333 C17.4168653,4.85008333 16.5407764,4.25559444 16.1340208,3.31692778 L15.3830875,2.03408333 C15.1953542,1.56475 14.7573097,1.25186111 14.2253986,1.25186111 L7.71730972,1.25186111 C7.18539861,1.25186111 6.74735417,1.56475 6.55962083,2.03408333 L6.52833194,2.12795 L5.83997639,3.31692778 C5.43322083,4.25559444 4.55713194,4.85008333 3.52459861,4.85008333 L2.52335417,4.85008333 Z" id="形状"></path>
                    <path d="M10.9713542,15.3318611 C8.31179861,15.3318611 6.12157639,13.1416389 6.12157639,10.4820833 C6.12157639,7.82252778 8.31179861,5.63230556 10.9713542,5.63230556 C13.6309097,5.63230556 15.8211319,7.82252778 15.8211319,10.4820833 C15.8211319,13.1416389 13.6309097,15.3318611 10.9713542,15.3318611 Z M10.9713542,6.88386111 C9.00015417,6.88386111 7.37313194,8.51088333 7.37313194,10.4820833 C7.37313194,12.4532833 9.00015417,14.0803056 10.9713542,14.0803056 C12.9425542,14.0803056 14.5695764,12.4532833 14.5695764,10.4820833 C14.5695764,8.51088333 12.9425542,6.88386111 10.9713542,6.88386111 Z" id="形状"></path>
                </g>
            </g>
        </g>
    </g>
</svg>