<?xml version="1.0" encoding="UTF-8"?>
<svg width="24px" height="24px" viewBox="0 0 24 24" version="1.1" xmlns="http://www.w3.org/2000/svg" xmlns:xlink="http://www.w3.org/1999/xlink">
    <title>矩形</title>
    <g id="页面-1" stroke="none" stroke-width="1" fill="none" fill-rule="evenodd">
        <g id="云上服务-曝光台-详情-评论未输入" transform="translate(-15.000000, -279.000000)">
            <g id="编组-5" transform="translate(0.000000, 262.000000)">
                <g id="编组" transform="translate(15.000000, 17.000000)">
                    <rect id="矩形" fill="#D8D8D8" opacity="0" x="0" y="0" width="24" height="24"></rect>
                    <path d="M13.1645252,12.1699134 L19.1341848,18.1395731 C19.407703,18.4130913 19.3987515,18.8656396 19.1321956,19.1321956 C18.8576827,19.4067084 18.4160751,19.4106869 18.1395731,19.1341848 L12.1699134,13.1645252 L6.20025377,19.1341848 C5.9240364,19.4039192 5.48276532,19.4030349 5.20763126,19.1321956 C4.93311843,18.8576827 4.92913997,18.4160751 5.20564203,18.1395731 L11.1753017,12.1699134 L5.20564203,6.20025377 C4.93590766,5.9240364 4.93679197,5.48276532 5.20763126,5.20763126 C5.4821441,4.93311843 5.9237517,4.92913997 6.20025377,5.20564203 L12.1699134,11.1753017 L18.1395731,5.20564203 C18.4130913,4.93212381 18.8656396,4.94107533 19.1321956,5.20763126 C19.4067084,5.4821441 19.4106869,5.9237517 19.1341848,6.20025377 L13.1645252,12.1699134 Z" id="路径" fill="#C6C6C6" fill-rule="nonzero"></path>
                </g>
            </g>
        </g>
    </g>
</svg>