<?xml version="1.0" encoding="UTF-8"?>
<svg width="15px" height="15px" viewBox="0 0 15 15" version="1.1" xmlns="http://www.w3.org/2000/svg" xmlns:xlink="http://www.w3.org/1999/xlink">
    <title>评论-小</title>
    <g id="页面-1" stroke="none" stroke-width="1" fill="none" fill-rule="evenodd">
        <g id="云上服务-曝光台" transform="translate(-147.000000, -152.000000)">
            <g id="编组-9" transform="translate(15.000000, 79.000000)">
                <g id="编组" transform="translate(132.000000, 73.000000)">
                    <rect id="矩形" fill="#D8D8D8" opacity="0" x="0" y="0" width="15" height="15"></rect>
                    <path d="M11.2090909,3 C12.3545455,3 13.2545455,3.9 13.2545455,5.04545455 L13.2545455,10.3227273 C13.2545455,11.4681818 12.3545455,12.3681818 11.2090909,12.3681818 L9.32727273,12.3681818 L8.38636364,13.3090909 C8.14090909,13.5136364 7.85454545,13.6363636 7.52727273,13.6363636 C7.2,13.6363636 6.91363636,13.5136364 6.66818182,13.2681818 L5.72727273,12.3272727 L3.84545455,12.3272727 C2.7,12.3272727 1.8,11.4272727 1.8,10.2818182 L1.8,5.04545455 C1.8,3.9 2.7,3 3.84545455,3 L11.2090909,3 Z M11.2090909,3.81818182 L3.84545455,3.81818182 C3.15,3.81818182 2.61818182,4.35 2.61818182,5.04545455 L2.61818182,10.3227273 C2.61818182,11.0181818 3.15,11.55 3.84545455,11.55 L5.72727273,11.55 C5.93181818,11.55 6.13636364,11.6318182 6.3,11.7954545 L7.24090909,12.7363636 C7.40454545,12.9 7.65,12.9 7.81363636,12.7363636 L8.75454545,11.7954545 C8.91818182,11.6318182 9.12272727,11.55 9.32727273,11.55 L11.2090909,11.55 C11.9045455,11.55 12.4363636,11.0181818 12.4363636,10.3227273 L12.4363636,5.04545455 C12.4363636,4.35 11.9045455,3.81818182 11.2090909,3.81818182 Z M4.86818182,7.09090909 C5.19545455,7.09090909 5.48181818,7.37727273 5.48181818,7.70454545 C5.48181818,8.03181818 5.19545455,8.31818182 4.86818182,8.31818182 C4.54090909,8.31818182 4.25454545,8.03181818 4.25454545,7.70454545 C4.25454545,7.37727273 4.54090909,7.09090909 4.86818182,7.09090909 Z M10.1863636,7.09090909 C10.5136364,7.09090909 10.8,7.37727273 10.8,7.70454545 C10.8,8.03181818 10.5136364,8.31818182 10.1863636,8.31818182 C9.85909091,8.31818182 9.57272727,8.03181818 9.57272727,7.70454545 C9.57272727,7.37727273 9.85909091,7.09090909 10.1863636,7.09090909 Z M7.73181818,7.09090909 C8.05909091,7.09090909 8.34545455,7.37727273 8.34545455,7.70454545 C8.34545455,8.03181818 8.05909091,8.31818182 7.73181818,8.31818182 C7.40454545,8.31818182 7.11818182,8.03181818 7.11818182,7.70454545 C7.11818182,7.37727273 7.40454545,7.09090909 7.73181818,7.09090909 Z" id="形状结合" stroke="#868C96" stroke-width="0.09" fill="#868C96" fill-rule="nonzero"></path>
                </g>
            </g>
        </g>
    </g>
</svg>