<?xml version="1.0" encoding="UTF-8"?>
<svg width="24px" height="24px" viewBox="0 0 24 24" version="1.1" xmlns="http://www.w3.org/2000/svg" xmlns:xlink="http://www.w3.org/1999/xlink">
    <title>矩形</title>
    <g id="页面-1" stroke="none" stroke-width="1" fill="none" fill-rule="evenodd">
        <g id="云上服务-曝光台-详情" transform="translate(-123.000000, -604.000000)" fill-rule="nonzero">
            <g id="1" transform="translate(15.000000, 79.000000)">
                <g id="编组-5" transform="translate(97.000000, 525.000000)">
                    <g id="分期－添加" transform="translate(11.000000, 0.000000)">
                        <rect id="矩形" fill="#000000" opacity="0" x="0" y="0" width="24" height="24"></rect>
                        <path d="M18.4285714,3.5 C20.4285714,3.5 22,5.07142857 22,7.07142857 L22,16.2857143 C22,18.2857143 20.4285714,19.8571429 18.4285714,19.8571429 L15.1428571,19.8571429 L13.5,21.5 C13.0714286,21.8571429 12.5714286,22.0714286 12,22.0714286 C11.4285714,22.0714286 10.9285714,21.8571429 10.5,21.4285714 L8.85714286,19.7857143 L5.57142857,19.7857143 C3.57142857,19.7857143 2,18.2142857 2,16.2142857 L2,7.07142857 C2,5.07142857 3.57142857,3.5 5.57142857,3.5 L18.4285714,3.5 Z M18.4285714,4.92857143 L5.57142857,4.92857143 C4.35714286,4.92857143 3.42857143,5.85714286 3.42857143,7.07142857 L3.42857143,16.2857143 C3.42857143,17.5 4.35714286,18.4285714 5.57142857,18.4285714 L8.85714286,18.4285714 C9.21428571,18.4285714 9.57142857,18.5714286 9.85714286,18.8571429 L11.5,20.5 C11.7857143,20.7857143 12.2142857,20.7857143 12.5,20.5 L14.1428571,18.8571429 C14.4285714,18.5714286 14.7857143,18.4285714 15.1428571,18.4285714 L18.4285714,18.4285714 C19.6428571,18.4285714 20.5714286,17.5 20.5714286,16.2857143 L20.5714286,7.07142857 C20.5714286,5.85714286 19.6428571,4.92857143 18.4285714,4.92857143 Z M7.35714286,10.6428571 C7.92857143,10.6428571 8.42857143,11.1428571 8.42857143,11.7142857 C8.42857143,12.2857143 7.92857143,12.7857143 7.35714286,12.7857143 C6.78571429,12.7857143 6.28571429,12.2857143 6.28571429,11.7142857 C6.28571429,11.1428571 6.78571429,10.6428571 7.35714286,10.6428571 Z M16.6428571,10.6428571 C17.2142857,10.6428571 17.7142857,11.1428571 17.7142857,11.7142857 C17.7142857,12.2857143 17.2142857,12.7857143 16.6428571,12.7857143 C16.0714286,12.7857143 15.5714286,12.2857143 15.5714286,11.7142857 C15.5714286,11.1428571 16.0714286,10.6428571 16.6428571,10.6428571 Z M12.3571429,10.6428571 C12.9285714,10.6428571 13.4285714,11.1428571 13.4285714,11.7142857 C13.4285714,12.2857143 12.9285714,12.7857143 12.3571429,12.7857143 C11.7857143,12.7857143 11.2857143,12.2857143 11.2857143,11.7142857 C11.2857143,11.1428571 11.7857143,10.6428571 12.3571429,10.6428571 Z" id="形状结合" stroke="#333333" stroke-width="0.23" fill="#333333"></path>
                    </g>
                </g>
            </g>
        </g>
    </g>
</svg>