<?xml version="1.0" encoding="UTF-8"?>
<svg width="20px" height="20px" viewBox="0 0 20 20" version="1.1" xmlns="http://www.w3.org/2000/svg" xmlns:xlink="http://www.w3.org/1999/xlink">
    <title>矩形</title>
    <g id="页面-1" stroke="none" stroke-width="1" fill="none" fill-rule="evenodd">
        <g id="云上服务" transform="translate(-250.000000, -120.000000)">
            <g id="编组-4" transform="translate(235.000000, 64.000000)">
                <g id="编组" transform="translate(15.000000, 56.000000)">
                    <rect id="矩形" fill="#D8D8D8" opacity="0" x="0" y="0" width="20" height="20"></rect>
                    <g transform="translate(2.000000, 3.000000)" fill="#333333" fill-rule="nonzero" stroke="#333333" stroke-width="0.3">
                        <path d="M14.0359375,2.03328125 L11.6817187,2.03328125 L11.2934375,1.0196875 C11.0558145,0.406705848 10.4667997,0.00199844741 9.809375,0 L5.815625,0 C5.15791823,0.00208311984 4.56873524,0.40713092 4.33125,1.02046875 L3.94328125,2.03328125 L1.5890625,2.03328125 C0.7128125,2.03328125 0,2.74484375 0,3.61953125 L0,11.9764063 C0,12.8509375 0.7128125,13.5625 1.5890625,13.5625 L14.0359375,13.5625 C14.9121875,13.5625 15.625,12.8509375 15.625,11.9764063 L15.625,3.61953125 C15.625,2.74484375 14.9121875,2.03328125 14.0359375,2.03328125 Z M1.5890625,12.5217187 C1.28764092,12.5217187 1.0430487,12.2778266 1.0421875,11.9764063 L1.0421875,3.61953125 C1.0430487,3.3181109 1.28764092,3.07421752 1.5890625,3.07421875 L4.07,3.07421875 C4.42523203,3.07292405 4.7434475,2.85427102 4.87203125,2.523125 L5.305625,1.39140625 C5.3872133,1.18066918 5.58964657,1.04149631 5.815625,1.04078125 L9.809375,1.04078125 C10.0351447,1.04141462 10.2374995,1.18022361 10.319375,1.390625 L10.7529687,2.5225 C10.8814957,2.85362153 11.1996552,3.07227867 11.5548437,3.07359375 L14.0359375,3.07359375 C14.3373591,3.07359252 14.5819513,3.3174859 14.5828125,3.61890625 L14.5828125,11.9764063 C14.5819513,12.2778266 14.3373591,12.5217187 14.0359375,12.5217187 L1.5890625,12.5217187 Z" id="形状"></path>
                        <path d="M7.8125,4 C9.85390625,4 11.515625,5.65796875 11.515625,7.695625 C11.515625,9.73328125 9.8540625,11.3910938 7.8125,11.3910938 C5.7709375,11.3910938 4.11046875,9.7334375 4.11046875,7.695625 C4.11046875,5.6578125 5.77109375,4 7.8125,4 Z M7.8125,5.1065625 C6.38234375,5.1065625 5.21875,6.26828125 5.21875,7.695625 C5.21875,9.12296875 6.38265625,10.2845313 7.8125,10.2845313 C9.24265625,10.2845313 10.40625,9.12328125 10.40625,7.695625 C10.40625,6.26796875 9.24265625,5.1065625 7.8125,5.1065625 Z" id="形状结合"></path>
                        <path d="M12.0937487,4.9523399 C12.0944406,5.28864329 12.3674442,5.56080941 12.7037481,5.5604662 C13.040052,5.56012168 13.3125,5.28739784 13.3125,4.95109375 C13.3118964,4.61406316 13.0382808,4.34128689 12.70125,4.34171773 C12.3649475,4.34275353 12.093062,4.61603652 12.0937487,4.9523399 Z" id="路径"></path>
                    </g>
                </g>
            </g>
        </g>
    </g>
</svg>