<?xml version="1.0" encoding="UTF-8"?>
<svg width="68px" height="67px" viewBox="0 0 68 67" version="1.1" xmlns="http://www.w3.org/2000/svg" xmlns:xlink="http://www.w3.org/1999/xlink">
    <title>编组 4</title>
    <defs>
        <linearGradient x1="50%" y1="0.729348776%" x2="50%" y2="100%" id="linearGradient-1">
            <stop stop-color="#FFD193" offset="0%"></stop>
            <stop stop-color="#FF8A71" offset="100%"></stop>
        </linearGradient>
        <filter x="-28.6%" y="-38.1%" width="157.1%" height="176.2%" filterUnits="objectBoundingBox" id="filter-2">
            <feOffset dx="0" dy="0" in="SourceAlpha" result="shadowOffsetOuter1"></feOffset>
            <feGaussianBlur stdDeviation="2" in="shadowOffsetOuter1" result="shadowBlurOuter1"></feGaussianBlur>
            <feColorMatrix values="0 0 0 0 0.882133152   0 0 0 0 0.574067728   0 0 0 0 0.472348013  0 0 0 1 0" type="matrix" in="shadowBlurOuter1" result="shadowMatrixOuter1"></feColorMatrix>
            <feMerge>
                <feMergeNode in="shadowMatrixOuter1"></feMergeNode>
                <feMergeNode in="SourceGraphic"></feMergeNode>
            </feMerge>
        </filter>
    </defs>
    <g id="页面-1" stroke="none" stroke-width="1" fill="none" fill-rule="evenodd">
        <g id="云上服务" transform="translate(-23.000000, -606.000000)">
            <g id="编组-11" transform="translate(12.000000, 591.000000)">
                <g id="编组" transform="translate(10.500000, 15.000000)">
                    <g id="编组-4" transform="translate(1.000000, 0.000000)">
                        <rect id="矩形" fill-opacity="0.146279502" fill="#FF9D1A" transform="translate(33.500000, 33.500000) rotate(-345.000000) translate(-33.500000, -33.500000) " x="6.5" y="6.5" width="54" height="54" rx="16"></rect>
                        <rect id="矩形" fill="url(#linearGradient-1)" x="8.5" y="8.5" width="50" height="50" rx="16"></rect>
                        <g id="编组" filter="url(#filter-2)" transform="translate(19.500000, 23.000000)" fill="#FFFFFF" fill-rule="nonzero">
                            <path d="M27.9962472,10.4095137 C27.9962472,6.36278347 23.9813309,2.99050823 18.8402018,2.58965286 C20.7655528,3.87056066 21.9511969,6.00472002 22.0215936,8.31615799 C22.0215936,12.6555763 17.4658406,16.1741956 11.84114,16.1741956 C11.4657358,16.1741956 11.1157827,16.1232933 10.7594668,16.0914794 C12.8200911,17.5492294 15.2920521,18.3115474 17.8157937,18.2675513 C18.4012491,18.2645846 18.9858352,18.2220692 19.5655591,18.1402957 C21.1618675,19.5508243 23.2256471,20.3173711 25.3556921,20.2909165 C27.4872246,20.2909165 24.0513215,18.3820814 24.0831354,16.6005021 C26.4564537,15.1561502 27.9962472,12.929176 27.9962472,10.4095137 L27.9962472,10.4095137 Z" id="路径"></path>
                            <path d="M10.1804535,4.61852778e-14 C4.55575296,4.61852778e-14 2.84217094e-14,3.51225647 2.84217094e-14,7.85803759 C2.84217094e-14,10.403151 1.54615637,12.6173996 3.93856297,14.0617515 C3.93856297,15.8242425 2.66600627,17.7330775 2.66600627,17.7330775 C4.79221098,17.7594175 6.85196515,16.9926808 8.44341365,15.5824567 C9.02718766,15.6662642 9.61614631,15.7087883 10.2059047,15.7097124 C15.8306053,15.7097124 20.3863582,12.1974559 20.3863582,7.85803759 C20.3863582,3.51861927 15.7987913,4.61852778e-14 10.1804535,4.61852778e-14 Z M6.22916501,8.22071624 C5.92429935,8.52515645 5.45634157,8.59474062 5.07608558,8.39217631 C4.69582959,8.189612 4.49250148,7.7624304 4.57507144,7.33957212 C4.6576414,6.91671385 5.0067346,6.59740151 5.43526057,6.55276504 C5.86378654,6.50812857 6.27119275,6.7486418 6.43913687,7.14540582 C6.59479412,7.51314237 6.51172654,7.93854904 6.22916501,8.22071624 Z M10.460416,8.22071624 C10.1478067,8.53262746 9.66518409,8.59689228 9.28184784,8.37765143 C8.89851159,8.15841059 8.70919228,7.7098432 8.81952855,7.28224626 C8.92986482,6.85464933 9.31259023,6.55369124 9.75414706,6.54730418 C10.1532057,6.54153186 10.5158913,6.77836503 10.6710775,7.14605832 C10.8262636,7.51375161 10.7429379,7.93882532 10.460416,8.22071624 L10.460416,8.22071624 Z M14.6980298,8.22071624 C14.3931642,8.52515646 13.9252064,8.59474064 13.5449504,8.39217633 C13.1646944,8.18961203 12.9613663,7.76243043 13.0439362,7.33957216 C13.1265062,6.91671388 13.4755994,6.59740153 13.9041253,6.55276505 C14.3326513,6.50812857 14.7400575,6.7486418 14.9080017,7.14540582 C15.0636589,7.51314237 14.9805913,7.93854903 14.6980298,8.22071624 L14.6980298,8.22071624 Z" id="形状"></path>
                        </g>
                    </g>
                </g>
            </g>
        </g>
    </g>
</svg>