<?xml version="1.0" encoding="UTF-8"?>
<svg width="68px" height="67px" viewBox="0 0 68 67" version="1.1" xmlns="http://www.w3.org/2000/svg" xmlns:xlink="http://www.w3.org/1999/xlink">
    <title>编组 4</title>
    <defs>
        <linearGradient x1="50%" y1="0%" x2="50%" y2="100%" id="linearGradient-1">
            <stop stop-color="#A5F5FF" offset="0%"></stop>
            <stop stop-color="#5BCDD7" offset="100%"></stop>
        </linearGradient>
        <filter x="-30.8%" y="-30.8%" width="161.5%" height="161.5%" filterUnits="objectBoundingBox" id="filter-2">
            <feOffset dx="0" dy="0" in="SourceAlpha" result="shadowOffsetOuter1"></feOffset>
            <feGaussianBlur stdDeviation="2" in="shadowOffsetOuter1" result="shadowBlurOuter1"></feGaussianBlur>
            <feColorMatrix values="0 0 0 0 0.271439346   0 0 0 0 0.734665485   0 0 0 0 0.773267663  0 0 0 1 0" type="matrix" in="shadowBlurOuter1" result="shadowMatrixOuter1"></feColorMatrix>
            <feMerge>
                <feMergeNode in="shadowMatrixOuter1"></feMergeNode>
                <feMergeNode in="SourceGraphic"></feMergeNode>
            </feMerge>
        </filter>
    </defs>
    <g id="页面-1" stroke="none" stroke-width="1" fill="none" fill-rule="evenodd">
        <g id="云上服务" transform="translate(-197.000000, -606.000000)">
            <g id="编组-11" transform="translate(12.000000, 591.000000)">
                <g id="编组" transform="translate(10.500000, 15.000000)">
                    <g id="编组-4" transform="translate(175.000000, 0.000000)">
                        <rect id="矩形" fill-opacity="0.15" fill="#4FF1FF" transform="translate(33.500000, 33.500000) rotate(-345.000000) translate(-33.500000, -33.500000) " x="6.5" y="6.5" width="54" height="54" rx="16"></rect>
                        <rect id="矩形" fill="url(#linearGradient-1)" x="8.5" y="8.5" width="50" height="50" rx="16"></rect>
                        <g id="编组" filter="url(#filter-2)" transform="translate(20.500000, 20.500000)" fill="#FFFFFF" fill-rule="nonzero">
                            <path d="M9.48439788,18.245564 C10.0669051,17.6446213 10.0669051,16.6897022 9.48439788,16.0887596 C8.91122181,15.4942029 7.96468247,15.4765812 7.3697735,16.0493916 L7.32759347,16.0887596 C7.93016716,15.4947275 7.93709152,14.5246869 7.34305947,13.9221132 C6.74902742,13.3195395 5.7789868,13.3126152 5.17641309,13.9066472 L4.05161287,15.0483194 C3.45214525,15.6423515 3.44773884,16.6098741 4.04177089,17.2093418 C4.63580294,17.8088094 5.6033256,17.8132158 6.20279326,17.2191838 C5.91688187,17.5041042 5.75617496,17.8911344 5.75617496,18.294774 C5.75617496,18.6984136 5.91688187,19.0854438 6.20279326,19.3703642 C6.76911569,19.9622881 7.70784736,19.9836801 8.30054567,19.4181682 L8.34553765,19.3703642 L9.48720989,18.245564 M11.6299543,20.4136164 C12.2258339,19.8137634 12.2258339,18.8454169 11.6299543,18.245564 C11.0403848,17.6566657 10.0852154,17.6566657 9.49564588,18.245564 L8.35397369,19.3984842 C8.0680623,19.6834046 7.90735539,20.0704348 7.90735539,20.4740744 C7.90735539,20.877714 8.0680623,21.2647442 8.35397369,21.5496646 C8.9263644,22.1450189 9.87292126,22.1638997 10.4685981,21.5918446 L10.5079661,21.5496646 C9.91208647,22.1495176 9.91208647,23.117864 10.5079661,23.717717 C11.0975356,24.3066153 12.0527049,24.3066153 12.6422744,23.717717 L13.7839467,22.5788568 C14.3551159,21.979926 14.3463689,21.0353469 13.7642062,20.4470962 C13.1820434,19.8588455 12.2376064,19.8402727 11.6327663,20.4051804 M23.9802606,3.65690532 C22.1344996,1.789523 19.2957925,1.32397505 16.9502592,2.50398513 C17.2830976,2.62609329 17.5860425,2.81783054 17.8388514,3.06638519 C18.792474,4.04838141 18.792474,5.61063765 17.8388514,6.59263387 L17.0908593,7.36593399 L21.6828561,12.0057348 L22.9510683,13.2739471 L23.9324565,12.2981829 C26.3036292,9.89917071 26.3036292,6.03904548 23.9324565,3.6400333" id="形状"></path>
                            <path d="M20.881436,12.818403 L16.6606232,8.56384621 L16.2922511,8.18422615 L13.3874546,11.0946467 C12.4034348,12.000414 10.8798113,11.9676648 9.93561999,11.0204521 C8.99142866,10.0732393 8.96354745,8.54951896 9.87245392,7.56839803 L12.7800625,4.6523535 L11.8042983,3.67658935 C10.6808138,2.53656489 9.15044425,1.88957658 7.54990106,1.87781586 C5.94935787,1.86637265 4.40976986,2.49110754 3.26987676,3.61472529 L3.20801271,3.67658935 C0.8227184,6.07088047 0.8227184,9.94325979 3.20801271,12.3375509 L4.18377692,13.3133151 L4.38624095,13.122099 C5.37552467,12.0732183 7.0271003,12.0229038 8.07839761,13.009619 C8.11776562,13.046175 8.15432162,13.085543 8.19087762,13.122099 C8.58251294,13.5037316 8.84000614,14.0019464 8.92480978,14.5421593 C9.46399077,14.6319084 9.9610134,14.8897696 10.34487,15.2789034 C10.7331639,15.6712746 10.9905178,16.1741951 11.0816142,16.7186477 C11.6171618,16.8070961 12.1100826,17.0653866 12.4876144,17.4553918 C12.8741528,17.8355059 13.1318138,18.3272254 13.2243585,18.8613921 C13.6567098,18.9328293 14.0628779,19.1160411 14.4025868,19.3928602 L14.6303588,19.1763361 L16.9024552,21.4146886 C17.2204244,21.7391635 17.6884668,21.8673058 18.1273742,21.7500511 C18.5662815,21.6327964 18.9080604,21.2883093 19.0218473,20.8484901 C19.1356343,20.408671 19.003802,19.9416545 18.6768276,19.6262562 L16.4075432,17.3766559 L16.9024552,16.9014277 L19.1829877,19.1313442 C19.6780583,19.6100632 20.4657965,19.6025172 20.9516055,19.1144021 C21.4374146,18.626287 21.4412301,17.8385219 20.960172,17.3457238 L18.6627676,15.0961234 L19.1464317,14.6124594 L21.396032,16.8451877 C21.6338896,17.0831869 21.9565787,17.2169053 22.2930602,17.2169053 C22.6295417,17.2169053 22.9522308,17.0831869 23.1900884,16.8451877 C23.4307159,16.6099516 23.5679877,16.288726 23.571756,15.9522383 C23.5753715,15.6157506 23.4451806,15.2915905 23.2097724,15.0511314 L23.1900884,15.0314474 L20.917992,12.812779 M14.5797428,23.3746529 L14.4025868,23.551809 L14.5544348,23.703657 C14.7922924,23.9416561 15.1149814,24.0753745 15.451463,24.0753745 C15.7879445,24.0753745 16.1106335,23.9416561 16.3484911,23.703657 C16.5894971,23.468797 16.7272787,23.14778 16.731498,22.8112904 C16.7357173,22.4748008 16.6060283,22.1504299 16.3709872,21.9096007 L16.3484911,21.8899167 L15.2602469,20.8129205 C15.4863658,21.7184292 15.2266433,22.6764221 14.5741188,23.3437209" id="形状"></path>
                            <path d="M10.6766861,10.3072865 C11.2079546,10.8274341 12.0575779,10.8274341 12.5888464,10.3072865 L17.0402433,5.8080857 C17.2941962,5.55787992 17.4383484,5.21703576 17.441022,4.86054159 C17.443622,4.50404743 17.3045274,4.16110825 17.0543033,3.90717334 L17.0402433,3.90717334 C16.5252754,3.38180286 15.682035,3.37299289 15.1562029,3.88748936 L15.1393309,3.90717334 L10.6766861,8.40637417 C10.4215095,8.66022952 10.2780412,9.00532522 10.2780412,9.36526635 C10.2780412,9.72520749 10.4215095,10.0703032 10.6766861,10.3241585" id="路径"></path>
                        </g>
                    </g>
                </g>
            </g>
        </g>
    </g>
</svg>