<?xml version="1.0" encoding="UTF-8"?>
<svg width="68px" height="67px" viewBox="0 0 68 67" version="1.1" xmlns="http://www.w3.org/2000/svg" xmlns:xlink="http://www.w3.org/1999/xlink">
    <title>编组 4</title>
    <defs>
        <linearGradient x1="50%" y1="0%" x2="50%" y2="100%" id="linearGradient-1">
            <stop stop-color="#A4CCFF" offset="0%"></stop>
            <stop stop-color="#839CFE" offset="100%"></stop>
        </linearGradient>
        <filter x="-33.3%" y="-38.1%" width="166.7%" height="176.2%" filterUnits="objectBoundingBox" id="filter-2">
            <feOffset dx="0" dy="0" in="SourceAlpha" result="shadowOffsetOuter1"></feOffset>
            <feGaussianBlur stdDeviation="2" in="shadowOffsetOuter1" result="shadowBlurOuter1"></feGaussianBlur>
            <feColorMatrix values="0 0 0 0 0.423569219   0 0 0 0 0.593630318   0 0 0 0 0.813292572  0 0 0 1 0" type="matrix" in="shadowBlurOuter1" result="shadowMatrixOuter1"></feColorMatrix>
            <feMerge>
                <feMergeNode in="shadowMatrixOuter1"></feMergeNode>
                <feMergeNode in="SourceGraphic"></feMergeNode>
            </feMerge>
        </filter>
    </defs>
    <g id="页面-1" stroke="none" stroke-width="1" fill="none" fill-rule="evenodd">
        <g id="云上服务" transform="translate(-284.000000, -604.000000)">
            <g id="编组-11" transform="translate(12.000000, 589.000000)">
                <g id="编组" transform="translate(10.500000, 15.000000)">
                    <g id="编组-9备份" transform="translate(261.000000, 0.000000)">
                        <g id="编组-4" transform="translate(1.000000, 0.000000)">
                            <rect id="矩形" fill-opacity="0.15" fill="#75B1FE" transform="translate(33.500000, 33.500000) rotate(-345.000000) translate(-33.500000, -33.500000) " x="6.5" y="6.5" width="54" height="54" rx="16"></rect>
                            <rect id="矩形" fill="url(#linearGradient-1)" x="8.5" y="8.5" width="50" height="50" rx="16"></rect>
                            <g id="编组" filter="url(#filter-2)" transform="translate(21.500000, 23.000000)" fill="#FFFFFF" fill-rule="nonzero">
                                <path d="M11.9165684,7.83596842 C10.0081895,7.83596842 8.45602105,9.38813684 8.45602105,11.2965158 C8.45602105,13.2048947 10.0081895,14.7570632 11.9165684,14.7570632 C13.8249474,14.7570632 15.3771158,13.2048947 15.3771158,11.2965158 C15.3771158,9.38813684 13.8249474,7.83596842 11.9165684,7.83596842 L11.9165684,7.83596842 Z" id="形状结合"></path>
                                <path d="M21.8237684,2.69744211 C22.9287789,2.69744211 23.8230947,3.59327368 23.8230947,4.69676842 L23.8230947,4.69676842 L23.8230947,18.1024105 C23.8230947,19.2059053 22.9287789,20.1017368 21.8237684,20.1017368 L21.8237684,20.1017368 L2.01088421,20.1017368 C0.907389474,20.1017368 0.0115578947,19.2074211 0.0115578947,18.1024105 L0.0115578947,18.1024105 L0.0115578947,4.69676842 C0.0115578947,3.59327368 0.905873684,2.69744211 2.01088421,2.69744211 L2.01088421,2.69744211 L3.99955789,2.69710526 L4,2.7 L20,2.7 L19.9995579,2.69710526 Z M11.9165684,6.11857895 C9.06082105,6.11857895 6.73863158,8.44076842 6.73863158,11.2965158 C6.73863158,14.1522632 9.06082105,16.4744526 11.9165684,16.4744526 C14.7723158,16.4744526 17.0945053,14.1507474 17.0945053,11.2965158 C17.0945053,8.44076842 14.7723158,6.11857895 11.9165684,6.11857895 Z M20.4186316,4.77862105 L18.8831368,4.77862105 C18.4086947,4.77862105 18.0236842,5.16363158 18.0236842,5.63807368 C18.0236842,6.11251579 18.4086947,6.49752632 18.8831368,6.49752632 L18.8831368,6.49752632 L20.4186316,6.49752632 C20.8930737,6.49752632 21.2780842,6.11251579 21.2780842,5.63807368 C21.2780842,5.16363158 20.8930737,4.77862105 20.4186316,4.77862105 L20.4186316,4.77862105 Z M16.2623368,0.0251052632 C16.7922193,0.0251052632 17.252375,0.389905105 17.3734105,0.905778947 L17.3734105,0.905778947 L17.5585579,1.69910526 L6.27455789,1.69910526 L6.46124211,0.905778947 C6.57296724,0.429587709 6.97364678,0.0821222448 7.45139559,0.0314837192 L7.57231579,0.0251052632 Z" id="形状结合"></path>
                            </g>
                        </g>
                    </g>
                </g>
            </g>
        </g>
    </g>
</svg>