<?xml version="1.0" encoding="UTF-8"?>
<svg width="68px" height="67px" viewBox="0 0 68 67" version="1.1" xmlns="http://www.w3.org/2000/svg" xmlns:xlink="http://www.w3.org/1999/xlink">
    <title>编组 4</title>
    <defs>
        <linearGradient x1="50%" y1="0%" x2="50%" y2="99.6339598%" id="linearGradient-1">
            <stop stop-color="#9AC7FD" offset="0%"></stop>
            <stop stop-color="#AE9CFF" offset="100%"></stop>
        </linearGradient>
        <filter x="-33.3%" y="-34.8%" width="166.7%" height="169.6%" filterUnits="objectBoundingBox" id="filter-2">
            <feOffset dx="0" dy="0" in="SourceAlpha" result="shadowOffsetOuter1"></feOffset>
            <feGaussianBlur stdDeviation="2" in="shadowOffsetOuter1" result="shadowBlurOuter1"></feGaussianBlur>
            <feColorMatrix values="0 0 0 0 0.584447903   0 0 0 0 0.535730675   0 0 0 0 0.869791667  0 0 0 1 0" type="matrix" in="shadowBlurOuter1" result="shadowMatrixOuter1"></feColorMatrix>
            <feMerge>
                <feMergeNode in="shadowMatrixOuter1"></feMergeNode>
                <feMergeNode in="SourceGraphic"></feMergeNode>
            </feMerge>
        </filter>
    </defs>
    <g id="页面-1" stroke="none" stroke-width="1" fill="none" fill-rule="evenodd">
        <g id="云上服务" transform="translate(-110.000000, -606.000000)">
            <g id="编组-11" transform="translate(12.000000, 591.000000)">
                <g id="编组" transform="translate(10.500000, 15.000000)">
                    <g id="编组-4" transform="translate(88.000000, 0.000000)">
                        <rect id="矩形" fill-opacity="0.15" fill="#ABA5FF" transform="translate(33.500000, 33.500000) rotate(-345.000000) translate(-33.500000, -33.500000) " x="6.5" y="6.5" width="54" height="54" rx="16"></rect>
                        <rect id="矩形" fill="url(#linearGradient-1)" x="8.5" y="8.5" width="50" height="50" rx="16"></rect>
                        <g id="编组" filter="url(#filter-2)" transform="translate(21.500000, 23.000000)" fill="#FFFFFF" fill-rule="nonzero">
                            <path d="M18.37,14.0664286 L18.37,1.14642857 C18.37,0.520714286 17.8557143,0.00928571438 17.2242857,0.00928571438 L1.15285714,0.00928571438 C0.515714286,0.00928571438 0.00714285723,0.517857143 0.00714285723,1.14642857 L0.00714285723,17.0121429 C0.00714285723,17.6864286 0.564285714,18.1435714 1.15857143,18.1435714 C1.40142857,18.1435714 1.64714286,18.0664286 1.86714286,17.8921429 L5.43571429,15.1464286 L17.2242857,15.1464286 C17.8557143,15.1464286 18.37,14.6921429 18.37,14.0664286 Z M9.71857143,11.655 C9.55285714,11.8092857 9.33857143,11.8921429 9.10142857,11.8921429 C8.86428571,11.8921429 8.65,11.8092857 8.48428571,11.6407143 C8.31857143,11.475 8.23571429,11.2721429 8.23571429,11.035 C8.23571429,10.7835714 8.31857143,10.5835714 8.48428571,10.4292857 C8.65,10.2635714 8.86428571,10.1921429 9.10142857,10.1921429 C9.35,10.1921429 9.56428571,10.2635714 9.73,10.4292857 C9.89571429,10.5835714 9.97857143,10.7864286 9.97857143,11.035 C9.97857143,11.2864286 9.88428571,11.4892857 9.71857143,11.655 L9.71857143,11.655 Z M11.43,7.01785714 C11.3242857,7.14928571 10.99,7.45785714 10.4328571,7.94642857 C10.2071429,8.135 10.0414286,8.34928571 9.93285714,8.56357143 C9.80142857,8.80071429 9.74428571,9.06357143 9.74428571,9.34642857 L9.74428571,9.54928571 L8.47285714,9.54928571 L8.47285714,9.34642857 C8.47285714,8.90642857 8.54428571,8.52642857 8.71,8.21785714 C8.86428571,7.88357143 9.31571429,7.39785714 10.0528571,6.74357143 L10.2557143,6.51785714 C10.47,6.24357143 10.59,5.95785714 10.59,5.64928571 C10.59,5.23214286 10.47,4.91214286 10.2442857,4.675 C10.0071429,4.43785714 9.66142857,4.31785714 9.23285714,4.31785714 C8.69857143,4.31785714 8.30714286,4.48357143 8.06714286,4.82928571 C7.85285714,5.115 7.74714286,5.52071429 7.74714286,6.04071429 L6.49857143,6.04071429 C6.49857143,5.17214286 6.74714286,4.495 7.24714286,3.99785714 C7.74714286,3.48642857 8.43571429,3.23785714 9.31571429,3.23785714 C10.0757143,3.23785714 10.6957143,3.44071429 11.17,3.86642857 C11.6442857,4.28357143 11.8814286,4.85214286 11.8814286,5.56642857 C11.8814286,6.15214286 11.7271429,6.63785714 11.43,7.01785714 L11.43,7.01785714 Z" id="形状"></path>
                            <path d="M22.9014286,8.29785714 L19.4642857,8.29785714 L19.4642857,15.2321429 C19.4642857,15.7092857 19.0014286,16.2207143 18.5185714,16.2207143 L9.73285714,16.2207143 L9.73285714,18.7721429 C9.73285714,19.2492857 10.1271429,19.6378571 10.61,19.6378571 L19.39,19.6378571 L22.35,21.9778571 C22.5157143,22.1092857 22.71,22.1692857 22.8957143,22.1692857 C23.35,22.1692857 23.7757297,21.8207143 23.7757297,21.3035714 L23.7757297,9.16642857 C23.7785714,8.68928571 23.3842857,8.29785714 22.9014286,8.29785714 Z" id="路径"></path>
                        </g>
                    </g>
                </g>
            </g>
        </g>
    </g>
</svg>