<?xml version="1.0" standalone="no"?><!DOCTYPE svg PUBLIC "-//W3C//DTD SVG 1.1//EN" "http://www.w3.org/Graphics/SVG/1.1/DTD/svg11.dtd"><svg t="1608864239487" class="icon" viewBox="0 0 1088 1024" version="1.1" xmlns="http://www.w3.org/2000/svg" p-id="12427" xmlns:xlink="http://www.w3.org/1999/xlink" width="68" height="64"><defs><style type="text/css"></style></defs><path d="M960 832 960 960 896 960 896 832 768 832 768 768 896 768 896 640 960 640 960 768 1088 768 1088 832 960 832ZM704 832C704 908.928 738.624 977.088 792.256 1024L0 1024C0 741.248 229.184 512 512 512 370.624 512 256 397.376 256 256 256 114.624 370.624 0 512 0 653.376 0 768 114.624 768 256 768 397.376 653.376 512 512 512 628.608 512 735.744 551.424 821.824 617.024 751.104 662.592 704 741.632 704 832Z" p-id="12428" fill="#d81e06"></path></svg>