<?xml version="1.0" standalone="no"?><!DOCTYPE svg PUBLIC "-//W3C//DTD SVG 1.1//EN" "http://www.w3.org/Graphics/SVG/1.1/DTD/svg11.dtd"><svg t="1608801218627" class="icon" viewBox="0 0 1316 1024" version="1.1" xmlns="http://www.w3.org/2000/svg" p-id="1179" xmlns:xlink="http://www.w3.org/1999/xlink" width="82.25" height="64"><defs><style type="text/css"></style></defs><path d="M1308.582575 554.988667a162.087822 162.087822 0 0 0-63.082982-86.856051c-27.118594-18.910718-58.943604-29.51433-92.604399-30.946101-14.31771-118.170726-70.596235-227.127084-159.195927-307.738629A496.385094 496.385094 0 0 0 658.962539 0.000191C529.202974 0.000191 406.396711 49.672723 313.168571 139.874298A496.158279 496.158279 0 0 0 162.31519 468.869765c-33.313484 1.651498-64.769919 12.290549-91.58373 31.052421a162.002766 162.002766 0 0 0-62.813639 86.671763C-8.505018 640.99416 0.879462 697.513676 33.65426 741.643411a171.124991 171.124991 0 0 0 137.641395 69.277872 294.618786 294.618786 0 0 0 79.732635-10.837514 44.306934 44.306934 0 0 0 28.840972-25.162313 45.072436 45.072436 0 0 0-1.57353-38.927161 409.734595 409.734595 0 0 1-21.547446-48.758183l-0.170111-0.467806-0.212639-0.453631C222.98826 615.392393 209.138356 540.20315 215.198575 462.844986c17.245044-220.152516 203.354015-399.931925 423.690818-409.280964 122.508567-5.195486 238.574165 38.530234 326.833635 123.125221S1102.669801 375.280138 1102.669801 497.576066c0 245.052574-199.370573 444.416059-444.416059 444.416058-5.365597 0-9.923166 2.601287-12.269286 6.946216-1.460123 2.750134-3.175413 8.505571 1.814522 15.877065 6.761929 10.050749 30.407415 27.976239 56.958971 27.976239a57.334633 57.334633 0 0 0 5.911371-0.304783 494.26579 494.26579 0 0 0 212.639263-73.381809 503.324222 503.324222 0 0 0 151.399155-148.308798 294.448675 294.448675 0 0 0 70.497003 8.505571 171.146254 171.146254 0 0 0 137.641395-69.277872c32.781886-44.143911 42.159278-100.656339 25.736439-155.035286z" fill="#bfbfbf" p-id="1180"></path><path d="M662.768782 961.455705m-56.873914 0a56.873915 56.873915 0 1 0 113.747829 0 56.873915 56.873915 0 1 0-113.747829 0Z" fill="#bfbfbf" p-id="1181"></path><path d="M662.768782 1024a62.544295 62.544295 0 1 1 62.537207-62.544295 62.608087 62.608087 0 0 1-62.537207 62.544295z m0-113.74783a51.203534 51.203534 0 1 0 51.196447 51.203535 51.260238 51.260238 0 0 0-51.196447-51.203535zM658.253742 834.134402a336.579601 336.579601 0 1 1 131.411064-26.537379 335.488052 335.488052 0 0 1-131.411064 26.537379z m0-652.511929c-173.655398 0-314.918748 141.270438-314.918748 314.91166s141.270438 314.918748 314.918748 314.918748S973.179578 670.182443 973.179578 496.534133s-141.284614-314.91166-314.925836-314.91166z" fill="#bfbfbf" p-id="1182"></path><path d="M665.29919 732.535363c-37.417422 0-71.368824-12.680388-93.135997-34.794871A11.340761 11.340761 0 1 1 588.302513 681.863427c17.280484 17.549827 46.07184 28.025855 76.975413 28.025854s59.694929-10.476028 76.975413-28.025854a11.340761 11.340761 0 1 1 16.160584 15.877065c-21.752997 22.114483-55.704399 34.794871-93.114733 34.794871z" fill="#bfbfbf" p-id="1183"></path></svg>