<?xml version="1.0" encoding="UTF-8"?>
<svg width="24px" height="24px" viewBox="0 0 24 24" version="1.1" xmlns="http://www.w3.org/2000/svg" xmlns:xlink="http://www.w3.org/1999/xlink">
    <title>矩形</title>
    <g id="页面-1" stroke="none" stroke-width="1" fill="none" fill-rule="evenodd">
        <g id="云上服务-曝光台-详情点赞" transform="translate(-224.000000, -604.000000)" fill-rule="nonzero">
            <g id="1" transform="translate(15.000000, 79.000000)">
                <g id="编组-5备份" transform="translate(194.000000, 525.000000)">
                    <g id="分期－添加" transform="translate(15.000000, 0.000000)">
                        <rect id="矩形" fill="#000000" opacity="0" x="0" y="0" width="24" height="24"></rect>
                        <path d="M13.9463379,1.67050731 C14.0513237,1.72300021 14.2088024,1.77549311 14.3137882,1.8804789 L14.418774,1.9854647 C15.468632,2.72036533 16.046054,4.0326879 15.9410682,5.29251758 L15.6786037,8.38959882 C15.6261108,8.70455624 15.8885753,8.91452786 16.1510398,8.96702076 L20.4029649,8.96702076 C21.5578087,8.96702076 22.502681,9.911893 22.502681,11.0667369 C22.502681,11.2242156 22.502681,11.3292014 22.4501881,11.4866801 L20.6654294,20.4104735 C20.4554578,21.4078387 19.6155714,22.0902464 18.6182062,22.0902464 L9.79939858,22.0902464 C8.64455472,22.0902464 7.69968246,21.1453742 7.69968246,19.9905303 L7.69968246,10.5543644 C7.69968171,10.1739152 7.80819466,9.8013581 8.01248671,9.48041211 C9.35387665,7.37306764 10.5444335,5.08472345 11.5841573,2.61537955 C11.9516076,1.72300021 13.0014656,1.25056408 13.9463379,1.67050731 Z M5.07503735,10.4893149 C5.96741669,10.4893149 6.64982441,11.1717226 6.64982441,12.064102 L6.64982441,20.4629664 C6.64982441,21.3553457 5.96741669,22.0377535 5.07503735,22.0377535 L3.86770059,22.0377535 C3.02781416,22.0377535 2.39789932,21.4078387 2.29291351,20.6204451 L1.50551998,12.2215807 C1.45302708,11.3292014 2.1354348,10.5943007 2.97532123,10.4893149 L5.07503735,10.4893149 Z" id="形状结合" fill="#FF3B30"></path>
                    </g>
                </g>
            </g>
        </g>
    </g>
</svg>