<?xml version="1.0" encoding="UTF-8"?>
<svg width="15px" height="15px" viewBox="0 0 15 15" version="1.1" xmlns="http://www.w3.org/2000/svg" xmlns:xlink="http://www.w3.org/1999/xlink">
    <title>编组 3备份</title>
    <g id="页面-1" stroke="none" stroke-width="1" fill="none" fill-rule="evenodd">
        <g id="云上服务-曝光台" transform="translate(-224.000000, -272.000000)">
            <g id="编组-9备份" transform="translate(15.000000, 199.000000)">
                <g id="编组-4" transform="translate(209.000000, 73.000000)">
                    <rect id="矩形" fill="#D8D8D8" opacity="0" x="0" y="0" width="15" height="15"></rect>
                    <g id="编组" transform="translate(1.500000, 1.500000)" fill="#868C96" fill-rule="nonzero">
                        <path d="M7.06898292,0.0968944152 C7.12861025,0.12670808 7.21805124,0.156521746 7.27767857,0.216149063 L7.3373059,0.275776393 C7.93357919,0.693167692 8.26152951,1.43850931 8.20190218,2.15403727 L8.05283385,3.91304348 C8.02302019,4.09192547 8.17208851,4.21118013 8.32115683,4.24099379 L10.7360637,4.24099379 C11.3919643,4.24099379 11.9286102,4.77763975 11.9286102,5.43354038 C11.9286102,5.52298137 11.9286102,5.5826087 11.8987966,5.67204968 L10.885132,10.7403727 C10.7658773,11.3068323 10.2888587,11.6944099 9.72239906,11.6944099 L4.71370342,11.6944099 C4.0578028,11.6944099 3.52115683,11.157764 3.52115683,10.5018633 L3.52115683,5.39192446 C3.52113755,5.01815608 3.62587474,4.65186652 3.82347029,4.33459881 C4.53462488,3.19273909 5.16925745,1.95905294 5.72736801,0.633540375 C5.93606367,0.12670808 6.53233696,-0.141614906 7.06898292,0.0968944152 Z M2.03047361,5.10559006 C2.5373059,5.10559006 2.92488354,5.49316769 2.92488354,6 L2.92488354,10.7701863 C2.92488354,11.2770186 2.5373059,11.6645963 2.03047361,11.6645963 L1.34475932,11.6645963 C0.867740692,11.6645963 0.50997671,11.3068323 0.450349379,10.8596273 L0.00314441518,6.089441 C-0.02666925,5.5826087 0.360908384,5.16521739 0.837927013,5.10559006 L2.03047361,5.10559006 Z M2.03047361,6 L0.927368009,6 L1.37457299,10.7701863 L2.03047361,10.7701863 L2.03047361,6 Z M6.53233696,0.991304344 C6.01923778,2.21212651 5.40376315,3.4408237 4.68591305,4.67739594 C4.50882842,4.9824008 4.41556677,5.32881471 4.41556677,5.68150003 L4.41556677,10.4720497 C4.41556677,10.6509317 4.53482143,10.7701863 4.71370342,10.7701863 L9.6925854,10.7701863 C9.84165372,10.7701863 9.96090838,10.6807453 9.99072205,10.531677 L11.0043867,5.46335404 L11.0043867,5.40372671 C11.0043867,5.22484472 10.885132,5.10559006 10.70625,5.10559006 L8.20190218,5.10559006 C7.54600156,5.04596273 7.06898293,4.4795031 7.12861025,3.82360248 L7.27767857,2.06459628 C7.30749224,1.64720498 7.12861025,1.22981367 6.77084628,0.991304344 L6.71121895,0.931677013 L6.68140528,0.931677013 C6.62177795,0.901863348 6.56215062,0.931677013 6.53233696,0.991304344 Z" id="形状结合"></path>
                    </g>
                </g>
            </g>
        </g>
    </g>
</svg>