<?xml version="1.0" encoding="UTF-8"?>
<svg width="15px" height="15px" viewBox="0 0 15 15" version="1.1" xmlns="http://www.w3.org/2000/svg" xmlns:xlink="http://www.w3.org/1999/xlink">
    <title>评论-小备份</title>
    <g id="页面-1" stroke="none" stroke-width="1" fill="none" fill-rule="evenodd">
        <g id="云上服务-曝光台" transform="translate(-224.000000, -152.000000)">
            <g id="编组-9" transform="translate(15.000000, 79.000000)">
                <g id="编组-4" transform="translate(209.000000, 73.000000)">
                    <rect id="矩形" fill="#D8D8D8" opacity="0" x="0" y="0" width="15" height="15"></rect>
                    <g id="编组" transform="translate(1.500000, 1.500000)" fill="#FF3B30" fill-rule="nonzero">
                        <path d="M7.06898292,0.0968944152 C7.12861025,0.12670808 7.21805124,0.156521746 7.27767857,0.216149063 L7.3373059,0.275776393 C7.93357919,0.693167692 8.26152951,1.43850931 8.20190218,2.15403727 L8.05283385,3.91304348 C8.02302019,4.09192547 8.17208851,4.21118013 8.32115683,4.24099379 L10.7360637,4.24099379 C11.3919643,4.24099379 11.9286102,4.77763975 11.9286102,5.43354038 C11.9286102,5.52298137 11.9286102,5.5826087 11.8987966,5.67204968 L10.885132,10.7403727 C10.7658773,11.3068323 10.2888587,11.6944099 9.72239906,11.6944099 L4.71370342,11.6944099 C4.0578028,11.6944099 3.52115683,11.157764 3.52115683,10.5018633 L3.52115683,5.39192446 C3.52113755,5.01815608 3.62587474,4.65186652 3.82347029,4.33459881 C4.53462488,3.19273909 5.16925745,1.95905294 5.72736801,0.633540375 C5.93606367,0.12670808 6.53233696,-0.141614906 7.06898292,0.0968944152 Z M2.03047361,5.10559006 C2.5373059,5.10559006 2.92488354,5.49316769 2.92488354,6 L2.92488354,10.7701863 C2.92488354,11.2770186 2.5373059,11.6645963 2.03047361,11.6645963 L1.34475932,11.6645963 C0.867740692,11.6645963 0.50997671,11.3068323 0.450349379,10.8596273 L0.00314441518,6.089441 C-0.02666925,5.5826087 0.360908384,5.16521739 0.837927013,5.10559006 L2.03047361,5.10559006 Z" id="形状结合"></path>
                    </g>
                </g>
            </g>
        </g>
    </g>
</svg>