<?xml version="1.0" encoding="UTF-8"?>
<svg width="11px" height="2px" viewBox="0 0 11 2" version="1.1" xmlns="http://www.w3.org/2000/svg" xmlns:xlink="http://www.w3.org/1999/xlink">
    <title>直线 2备份 5</title>
    <g id="页面-1" stroke="none" stroke-width="1" fill="none" fill-rule="evenodd">
        <g id="云上服务" transform="translate(-152.000000, -1228.000000)" fill="#206CFE" fill-rule="nonzero">
            <g id="编组-9" transform="translate(15.000000, 1120.000000)">
                <g id="编组-3" transform="translate(0.000000, 91.000000)">
                    <g id="编组-11" transform="translate(132.000000, 0.000000)">
                        <path d="M15.9944217,17.6567174 L16.015021,17.8703544 C16.0550441,18.285438 15.7579592,18.6571886 15.3442683,18.709686 L15.3442683,18.709686 L15.3442683,18.709686 C13.8160963,18.9036113 12.2877379,19.0005857 10.7593162,19.0005857 C9.42194716,19.0005857 8.08462662,18.9263397 6.74743705,18.7778634 L6.17436406,18.709686 C5.76067308,18.6571886 5.46358819,18.285438 5.50361133,17.8703544 L5.52421062,17.6567174 C5.562712,17.2574161 5.91762122,16.9649299 6.31692254,17.0034313 C6.32417694,17.0041308 6.33142041,17.0049394 6.33865048,17.0058569 L6.33865048,17.0058569 L6.33865048,17.0058569 C7.81235111,17.1928698 9.28586528,17.2863644 10.7593162,17.2863644 C12.0485857,17.2863644 13.3379037,17.2147826 14.6273526,17.0716031 L15.1799818,17.0058569 C15.5779435,16.9553555 15.9414947,17.2370278 15.9919961,17.6349895 C15.9929136,17.6422195 15.9937222,17.649463 15.9944217,17.6567174 Z" id="直线-2备份-5"></path>
                    </g>
                </g>
            </g>
        </g>
    </g>
</svg>