<?xml version="1.0" encoding="UTF-8"?>
<svg width="20px" height="20px" viewBox="0 0 20 20" version="1.1" xmlns="http://www.w3.org/2000/svg" xmlns:xlink="http://www.w3.org/1999/xlink">
    <title>矩形</title>
    <g id="页面-1" stroke="none" stroke-width="1" fill="none" fill-rule="evenodd">
        <g id="云上服务-全民治理" transform="translate(-325.000000, -447.000000)">
            <g id="编组-12" transform="translate(15.000000, 254.000000)">
                <g id="编组-6备份" transform="translate(15.000000, 166.000000)">
                    <g id="编组-9" transform="translate(295.000000, 27.000000)">
                        <rect id="矩形" fill="#D8D8D8" opacity="0" x="0" y="0" width="20" height="20"></rect>
                        <path d="M9.91242103,2.5001571 L9.89978947,2.5001571 C6.67311621,2.47677137 4.03517023,5.06727499 4,8.29384132 C4,9.91320972 5.31284209,12.2172097 6.59873681,14.0875255 C7.34371927,15.1676659 8.14007016,16.2110343 8.98778947,17.2176308 C9.21343197,17.4934854 9.55015084,17.654592 9.90652631,17.6572098 C10.2606567,17.6553174 10.5954312,17.4953421 10.8193684,17.2209992 C11.6670877,16.2149641 12.4642807,15.1704729 13.2109473,14.0875255 C14.4968421,12.2172098 15.8096842,9.91320975 15.8096842,8.29384132 C15.774515,5.06826771 13.1381114,2.47816967 9.91242103,2.5001571 L9.91242103,2.5001571 Z M9.90736841,10.8689992 C8.47205939,10.881154 7.29779898,9.72912054 7.28252631,8.29384132 C7.2620012,7.22741633 7.88864254,6.2545441 8.86809377,5.83221862 C9.847545,5.40989314 10.9851525,5.6220463 11.74654,6.36902192 C12.5079275,7.11599755 12.7417788,8.24934361 12.3382454,9.23668564 C11.9347119,10.2240277 10.9739909,10.8690945 9.90736841,10.8689992 Z" id="形状" fill="#206CFE" fill-rule="nonzero"></path>
                    </g>
                </g>
            </g>
        </g>
    </g>
</svg>