<?xml version="1.0" encoding="UTF-8"?>
<svg width="20px" height="20px" viewBox="0 0 20 20" version="1.1" xmlns="http://www.w3.org/2000/svg" xmlns:xlink="http://www.w3.org/1999/xlink">
    <title>矩形</title>
    <g id="页面-1" stroke="none" stroke-width="1" fill="none" fill-rule="evenodd">
        <g id="云上服务" transform="translate(-250.000000, -80.000000)">
            <g id="编组-4" transform="translate(235.000000, 64.000000)">
                <g id="编组" transform="translate(15.000000, 16.000000)">
                    <rect id="矩形" fill="#D8D8D8" opacity="0" x="0" y="0" width="20" height="20"></rect>
                    <g transform="translate(2.000000, 2.000000)" fill="#333333" fill-rule="nonzero" id="形状结合" stroke="#333333" stroke-width="0.3">
                        <path d="M7.82884375,0.00590557221 C12.1417188,0.00590557221 15.6503556,3.51523438 15.6503556,7.828125 C15.6538719,9.84816531 14.8726675,11.7906075 13.4715156,13.2457188 L13.4715156,13.2457188 L14.0759375,14.4795156 C14.2529561,14.6927082 14.2903954,14.9891636 14.1719375,15.2396719 C14.0549688,15.4896406 13.8032344,15.6503438 13.5255313,15.6503438 L13.5255313,15.6503438 L7.82740625,15.6503438 C3.51453125,15.6503438 0.00590625,12.1410156 0.00590625,7.828125 C0.00590625,3.51345313 3.51453125,0.004125 7.82884375,0.00590557221 Z M7.828125,1.15078125 C4.14635938,1.15078125 1.15078125,4.14634375 1.15078125,7.828125 C1.15078125,11.5099063 4.14634375,14.5054531 7.828125,14.5058125 L7.828125,14.5058125 L12.4556719,14.5058125 C12.1545313,13.7737188 12.1107969,13.0067969 12.6455469,12.452125 C13.8419369,11.2104591 14.5088679,9.55238479 14.5054817,7.828125 C14.5054817,4.14635938 11.5098906,1.15078125 7.828125,1.15078125 Z M6.228125,6.05034375 C6.58367708,6.05034375 6.76145313,6.22811979 6.76145313,6.58367188 L6.76145313,7.65034375 C6.76145313,8.00589583 6.58367708,8.18367188 6.228125,8.18367188 C5.87257292,8.18367188 5.69479688,8.00589583 5.69479688,7.65034375 L5.69479688,6.58367188 C5.69479688,6.22811979 5.87257292,6.05034375 6.228125,6.05034375 Z M9.78367188,6.05034375 C10.1392344,6.05034375 10.3170156,6.22811979 10.3170156,6.58367188 L10.3170156,7.65034375 C10.3170156,8.00589583 10.1392344,8.18367188 9.78367188,8.18367188 C9.42810938,8.18367188 9.25034375,8.00589583 9.25034375,7.65034375 L9.25034375,6.58367188 C9.25034375,6.22811979 9.42811979,6.05034375 9.78367188,6.05034375 Z"></path>
                    </g>
                </g>
            </g>
        </g>
    </g>
</svg>