<?xml version="1.0" encoding="UTF-8"?>
<svg width="16px" height="16px" viewBox="0 0 16 16" version="1.1" xmlns="http://www.w3.org/2000/svg" xmlns:xlink="http://www.w3.org/1999/xlink">
    <title>形状结合</title>
    <g id="页面-1" stroke="none" stroke-width="1" fill="none" fill-rule="evenodd">
        <g id="云上服务-全民治理" transform="translate(-30.000000, -709.000000)" fill="#FF3B30" fill-rule="nonzero">
            <g id="编组-10" transform="translate(30.000000, 612.000000)">
                <g id="编组" transform="translate(0.000000, 97.000000)">
                    <path d="M9.24886364,13.3558239 C9.46704545,13.3558239 9.63068182,13.509233 9.63068182,13.7137784 L9.63068182,13.7137784 L9.63068182,13.7649148 C9.63068182,13.9694602 9.46704545,14.1228693 9.24886364,14.1228693 L9.24886364,14.1228693 L6.19431818,14.1228693 C5.97613636,14.1228693 5.8125,13.9694602 5.8125,13.7649148 L5.8125,13.7649148 L5.8125,13.7137784 C5.8125,13.509233 5.97613636,13.3558239 6.19431818,13.3558239 L6.19431818,13.3558239 Z M7.72159091,4.3046875 C9.95795455,4.3046875 11.7579545,6.01775568 11.7852273,8.08877841 C11.7852273,9.13707386 11.3215909,10.134233 10.5034091,10.850142 L10.5034091,10.850142 L10.1215909,12.0518466 C10.0670455,12.4609375 9.7125,12.7677557 9.27613636,12.7677557 L9.27613636,12.7677557 L6.19431818,12.7677557 C5.73068182,12.7677557 5.37613636,12.4609375 5.34886364,12.0518466 L5.34886364,12.0518466 L4.96704545,10.850142 C4.14886364,10.134233 3.68522727,9.13707386 3.68522727,8.08877841 C3.68522727,5.9921875 5.5125,4.3046875 7.72159091,4.3046875 Z M7.74886364,5.07173295 C5.97613636,5.07173295 4.53068182,6.42684659 4.53068182,8.08877841 C4.53068182,8.93252841 4.93977273,9.77627841 5.62159091,10.3387784 L5.62159091,10.3387784 L5.70340909,10.415483 L6.16704545,11.9240057 L6.16704545,11.975142 L9.27613636,12.0007102 L9.27613636,11.9495739 L9.30340909,11.8728693 L9.76704545,10.415483 L9.84886364,10.3387784 C10.5306818,9.77627841 10.9397727,8.95809659 10.9670455,8.08877841 C10.9670455,6.42684659 9.52159091,5.07173295 7.74886364,5.07173295 Z M9.22159091,7.90980114 C9.46704545,7.90980114 9.63068182,8.08877841 9.60340909,8.29332386 C9.60340909,8.49786932 9.4125,8.67684659 9.19431818,8.67684659 L9.19431818,8.67684659 L8.10340909,8.67684659 L8.10340909,10.977983 C8.10340909,11.1825284 7.93977273,11.3359375 7.72159091,11.3359375 L7.72159091,11.3359375 L7.69431818,11.3359375 C7.47613636,11.3359375 7.3125,11.1825284 7.3125,10.977983 L7.3125,10.977983 L7.3125,8.67684659 L6.22159091,8.67684659 C6.00340909,8.67684659 5.8125,8.49786932 5.8125,8.29332386 C5.8125,8.08877841 6.00340909,7.90980114 6.22159091,7.90980114 L6.22159091,7.90980114 Z M2.5125,7.09161932 C2.73068182,7.09161932 2.89431818,7.27059659 2.89431818,7.47514205 C2.89431818,7.6796875 2.70340909,7.85866477 2.48522727,7.85866477 L2.48522727,7.85866477 L0.4125,7.85866477 C0.194318182,7.85866477 0.00340909091,7.6796875 0.00340909091,7.47514205 C0.00340909091,7.27059659 0.194318182,7.09161932 0.4125,7.09161932 L0.4125,7.09161932 Z M15.0306818,7.09161932 C15.2761364,7.09161932 15.4397727,7.27059659 15.4397727,7.47514205 C15.4397727,7.6796875 15.2488636,7.85866477 15.0306818,7.85866477 L15.0306818,7.85866477 L12.9579545,7.85866477 C12.7397727,7.85866477 12.5488636,7.6796875 12.5488636,7.47514205 C12.5488636,7.27059659 12.7397727,7.09161932 12.9579545,7.09161932 L12.9579545,7.09161932 Z M12.3852273,2.6171875 C12.5488636,2.46377841 12.7943182,2.46377841 12.9579545,2.6171875 C13.1215909,2.77059659 13.1215909,3.00071023 12.9579545,3.15411932 L12.9579545,3.15411932 L11.4852273,4.53480114 C11.4034091,4.61150568 11.2943182,4.63707386 11.1852273,4.63707386 C11.0761364,4.63707386 10.9670455,4.5859375 10.9125,4.53480114 C10.7488636,4.38139205 10.7488636,4.15127841 10.9125,3.99786932 L10.9125,3.99786932 Z M2.56704545,2.59161932 C2.73068182,2.43821023 2.97613636,2.43821023 3.13977273,2.59161932 L3.13977273,2.59161932 L4.6125,3.97230114 C4.77613636,4.12571023 4.77613636,4.35582386 4.6125,4.50923295 C4.53068182,4.5859375 4.42159091,4.61150568 4.3125,4.61150568 C4.20340909,4.61150568 4.09431818,4.5859375 4.0125,4.50923295 L4.0125,4.50923295 L2.56704545,3.12855114 C2.40340909,2.97514205 2.40340909,2.74502841 2.56704545,2.59161932 Z M7.74886364,1.00639205 C7.96704545,1.00639205 8.15795455,1.18536932 8.15795455,1.38991477 L8.15795455,1.38991477 L8.15795455,3.33309659 C8.15795455,3.53764205 7.96704545,3.71661932 7.74886364,3.71661932 C7.50340909,3.71661932 7.33977273,3.53764205 7.33977273,3.33309659 L7.33977273,3.33309659 L7.33977273,1.38991477 C7.33977273,1.18536932 7.53068182,1.00639205 7.74886364,1.00639205 Z" id="形状结合"></path>
                </g>
            </g>
        </g>
    </g>
</svg>