<?xml version="1.0" encoding="UTF-8"?>
<svg width="69px" height="67px" viewBox="0 0 69 67" version="1.1" xmlns="http://www.w3.org/2000/svg" xmlns:xlink="http://www.w3.org/1999/xlink">
    <title>编组 4</title>
    <defs>
        <linearGradient x1="50%" y1="0%" x2="50%" y2="100%" id="linearGradient-1">
            <stop stop-color="#A4CCFF" offset="0%"></stop>
            <stop stop-color="#7B95FA" offset="100%"></stop>
        </linearGradient>
        <filter x="-32.0%" y="-34.8%" width="164.0%" height="169.6%" filterUnits="objectBoundingBox" id="filter-2">
            <feOffset dx="0" dy="0" in="SourceAlpha" result="shadowOffsetOuter1"></feOffset>
            <feGaussianBlur stdDeviation="2" in="shadowOffsetOuter1" result="shadowBlurOuter1"></feGaussianBlur>
            <feColorMatrix values="0 0 0 0 0.488699362   0 0 0 0 0.64272887   0 0 0 0 0.84168365  0 0 0 1 0" type="matrix" in="shadowBlurOuter1" result="shadowMatrixOuter1"></feColorMatrix>
            <feMerge>
                <feMergeNode in="shadowMatrixOuter1"></feMergeNode>
                <feMergeNode in="SourceGraphic"></feMergeNode>
            </feMerge>
        </filter>
    </defs>
    <g id="页面-1" stroke="none" stroke-width="1" fill="none" fill-rule="evenodd">
        <g id="云上服务" transform="translate(-275.000000, -132.000000)">
            <g id="编组-11" transform="translate(12.000000, 117.000000)">
                <g id="编组" transform="translate(19.500000, 15.000000)">
                    <g id="编组-4" transform="translate(244.500000, 0.000000)">
                        <rect id="矩形" fill-opacity="0.15" fill="#75B1FE" transform="translate(33.500000, 33.500000) rotate(-345.000000) translate(-33.500000, -33.500000) " x="6.5" y="6.5" width="54" height="54" rx="16"></rect>
                        <rect id="矩形" fill="url(#linearGradient-1)" x="8.5" y="8.5" width="50" height="50" rx="16"></rect>
                        <g id="编组" filter="url(#filter-2)" transform="translate(21.000000, 22.000000)" fill="#FFFFFF" fill-rule="nonzero">
                            <path d="M24.93,20.3 C24.9043086,20.5206888 24.8327796,20.7335728 24.72,20.925 C24.5614315,21.0682929 24.3685315,21.1681875 24.16,21.215 C23.7862771,21.3388248 23.405626,21.4406657 23.02,21.52 C22.57,21.615 22.07,21.705 21.51,21.79 C20.95,21.875 20.39,21.945 19.84,22.015 C19.29,22.085 18.745,22.13 18.225,22.17 C17.705,22.21 17.255,22.235 16.87,22.235 C16.1832035,22.2274826 15.4972687,22.1840902 14.815,22.105 C14.485,22.07 14.155,22.03 13.835,21.99 C13.385,21.935 12.94,21.87 12.505,21.8 C11.755,21.685 11.095,21.565 10.525,21.44 C10.169512,21.3868108 9.82400595,21.2806309 9.5,21.125 C9.28828822,20.8495309 9.17240566,20.512418 9.17,20.165 C9.1506927,20.0156924 9.13901087,19.8654974 9.135,19.715 L9.135,19.505 C9.16999148,19.4300725 9.18547114,19.3475143 9.18,19.265 L9.18,18.715 C9.205,18.525 9.23,18.33 9.26,18.125 C9.31056492,17.6972009 9.52357715,17.3051868 9.855,17.03 C10.1915116,16.7726085 10.5705993,16.5762953 10.975,16.45 C11.4,16.305 11.845,16.175 12.3,16.055 C12.33,16.05 12.355,16.04 12.385,16.035 C12.7758132,15.928228 13.1495272,15.7666219 13.495,15.555 C13.7275768,15.4161962 13.9439186,15.2518436 14.14,15.065 C14.2756026,14.9311639 14.3827488,14.771295 14.455,14.595 C14.5146427,14.4402641 14.5451557,14.2758326 14.545,14.11 C14.545,14.015 14.54,13.92 14.535,13.815 C14.535,13.735 14.53,13.65 14.525,13.565 C14.5180058,13.2950734 14.4090282,13.0378149 14.22,12.845 C14.025,12.66 13.825,12.485 13.615,12.315 C13.4983808,12.2084102 13.4047962,12.0790933 13.34,11.935 C13.29,11.84 13.245,11.735 13.2,11.635 L13.17,11.635 C13.14,11.57 13.115,11.505 13.09,11.44 C13.02,11.24 12.955,11.04 12.895,10.835 C12.7946041,10.8064199 12.6998847,10.7607515 12.615,10.7 C12.5199086,10.6182355 12.4343655,10.5259831 12.36,10.425 L12.35,10.415 L12.35,10.375 C12.2606932,10.2349447 12.1948285,10.0812603 12.155,9.92 C12.0926932,9.7299387 12.0688962,9.52936426 12.085,9.33 C12.0990579,9.17212608 12.1361162,9.01715468 12.195,8.87 C12.251605,8.72197718 12.3308857,8.58365773 12.43,8.46 C12.4191034,7.96535187 12.4458472,7.47059141 12.51,6.98 C12.525,6.87 12.545,6.755 12.565,6.635 C12.555,6.63 12.545,6.62 12.535,6.615 C12.5939252,6.29100776 12.670709,5.97051919 12.765,5.655 C12.896023,5.20394452 13.0985998,4.77684496 13.365,4.39 C13.4600139,4.25518456 13.5635589,4.12658838 13.675,4.005 L13.71,4.005 C13.8682807,3.825802 14.0460452,3.66480775 14.24,3.525 C14.7966704,3.10538478 15.4470139,2.82740155 16.135,2.715 C16.4443554,2.66603147 16.7568224,2.63929633 17.07,2.63498738 C17.4411656,2.63410179 17.8108922,2.6811579 18.17,2.775 L18.185,2.78 C18.5166184,2.86499217 18.8396619,2.98048441 19.15,3.125 C19.4351622,3.25593009 19.7065129,3.41505551 19.96,3.6 C20.1721623,3.7531448 20.3637355,3.93295473 20.53,4.135 C20.8589447,4.54483922 21.1113136,5.01062082 21.275,5.51 C21.5983096,6.46567005 21.7473423,7.47164079 21.715,8.48 C21.8118832,8.53005069 21.8893025,8.61098906 21.935,8.71 C21.995155,8.82147707 22.0389379,8.94103821 22.065,9.065 C22.0982947,9.23814435 22.1016769,9.41571334 22.075,9.59 C22.0503092,9.81773502 21.9860085,10.0394029 21.885,10.245 C21.8139981,10.3880052 21.7174044,10.5167967 21.6,10.625 C21.4927937,10.7240027 21.3646011,10.7974998 21.225,10.84 C21.175,11.04 21.115,11.245 21.05,11.445 C20.98,11.61 20.905,11.78 20.82,11.94 C20.7480527,12.0837531 20.6496708,12.2126674 20.53,12.32 C20.4235054,12.4152617 20.3098363,12.5021851 20.19,12.58 C20.0939584,12.6494879 20.00213,12.7246202 19.915,12.805 C19.8339172,12.8879342 19.7679276,12.9843806 19.72,13.09 C19.6611709,13.2156072 19.6191428,13.3484161 19.595,13.485 C19.5583199,13.6810676 19.5465601,13.8809842 19.56,14.08 C19.5760189,14.2891578 19.628475,14.4939057 19.715,14.685 C19.8233329,14.9072947 19.9785636,15.1034654 20.17,15.26 C20.4288175,15.4652818 20.7170421,15.6304632 21.025,15.75 C21.3766993,15.8819368 21.7356111,15.9937837 22.1,16.085 C22.4825789,16.1836194 22.8597572,16.3021135 23.23,16.44 C23.5722499,16.5678167 23.8965907,16.73923 24.195,16.95 C24.4769189,17.1560295 24.6882365,17.4441899 24.8,17.775 C24.8743898,18.0177933 24.9246334,18.2673363 24.95,18.52 C24.98,18.83 25,19.135 25,19.435 C24.9992572,19.7247175 24.9758524,20.013933 24.93,20.3 L24.93,20.3 Z M16.41,2.145 C16.0849826,2.14409846 15.7604781,2.17086171 15.44,2.225 C14.7264934,2.3412342 14.0520468,2.62954727 13.475,3.065 C13.274422,3.2097693 13.0900246,3.37572691 12.925,3.56 L12.105,3.56 C11.9536392,3.55169737 11.806022,3.60891257 11.6997942,3.71705445 C11.5935663,3.82519633 11.538996,3.97381158 11.55,4.125 L11.55,5.82 C11.5428942,5.98941259 11.6127249,6.15296353 11.74,6.265 C11.72,6.39 11.7,6.515 11.685,6.645 C11.6140695,7.15341652 11.5856377,7.66686043 11.6,8.18 C11.4966215,8.3061524 11.4139256,8.44791674 11.355,8.6 C11.2966031,8.75250276 11.2595855,8.91235144 11.245,9.075 C11.2237965,9.28264879 11.2476738,9.49242776 11.315,9.69 C11.3621518,9.87425177 11.4417265,10.0486387 11.55,10.205 L11.55,10.9 C11.5398222,11.0509765 11.5946629,11.1991038 11.7007021,11.3070537 C11.8067413,11.4150035 11.9538659,11.4724804 12.105,11.465 L12.4,11.465 C12.445,11.57 12.49,11.675 12.54,11.78 C12.60942,11.9283558 12.7060972,12.062347 12.825,12.175 C13.045,12.345 13.25,12.53 13.455,12.72 C13.6483668,12.9209333 13.7605671,13.186296 13.77,13.465 C13.775,13.55 13.78,13.64 13.78,13.725 L12.105,13.725 C11.9536392,13.7166974 11.806022,13.7739126 11.6997942,13.8820544 C11.5935663,13.9901963 11.538996,14.1388116 11.55,14.29 L11.55,16.025 C11.5212112,16.0316982 11.492831,16.0400453 11.465,16.05 C10.995,16.165 10.535,16.3 10.09,16.45 C9.67131163,16.585541 9.27896124,16.7918632 8.93,17.06 C8.58783558,17.3433207 8.36911797,17.7484861 8.32,18.19 C8.285,18.4 8.255,18.605 8.235,18.8 L8.235,15.985 C8.23552999,15.9012311 8.22026341,15.818113 8.19,15.74 C8.10593968,15.5375554 7.90395449,15.4095648 7.685,15.42 L6.025,15.42 C5.87462365,15.4136671 5.72866922,15.4716892 5.62368408,15.5795376 C5.51869894,15.687386 5.46462408,15.8348484 5.475,15.985 L5.475,19.375 C5.4638052,19.5253592 5.51761024,19.6733029 5.62278076,19.7813417 C5.72795128,19.8893805 5.87439403,19.9471459 6.025,19.94 L7.68,19.94 C7.89971946,19.9533662 8.10326331,19.8243879 8.185,19.62 L8.185,19.84 C8.19,20 8.205,20.155 8.225,20.31 C8.22475169,20.6678616 8.34249595,21.0158223 8.56,21.3 C8.8987157,21.4614623 9.25918,21.5726335 9.63,21.63 C10.215,21.76 10.9,21.88 11.675,22 C12.13,22.075 12.59,22.14 13.055,22.195 L0.5,22.195 L0.5,19.88 L2.215,19.88 L2.2,0.735 L17.56,0.735 L17.56,2.29 L17.545,2.285 C17.1744587,2.18868038 16.7928405,2.14160852 16.41,2.145 Z M8.23501334,4.125 C8.23552999,4.04123106 8.22026341,3.95811301 8.19,3.88 C8.10593968,3.67755538 7.90395449,3.54956477 7.685,3.56 L6.025,3.56 C5.87439403,3.55285406 5.72795128,3.61061946 5.62278076,3.71865826 C5.51761024,3.82669707 5.4638052,3.97464077 5.475,4.125 L5.475,5.82 C5.4638052,5.97035923 5.51761024,6.11830293 5.62278076,6.22634174 C5.72795128,6.33438054 5.87439403,6.39214594 6.025,6.385 L7.685,6.385 C7.9024929,6.39536004 8.1036504,6.26988556 8.19,6.07 C8.21984317,5.99003197 8.235085,5.9053551 8.23501334,5.82 L8.23501334,4.125 L8.23501334,4.125 Z M8.23501334,9.21 C8.235085,9.1246449 8.21984317,9.03996803 8.19,8.96 C8.1036504,8.76011444 7.9024929,8.63463996 7.685,8.645 L6.025,8.645 C5.87439403,8.63785406 5.72795128,8.69561946 5.62278076,8.80365826 C5.51761024,8.91169707 5.4638052,9.05964077 5.475,9.21 L5.475,10.905 C5.4638052,11.0553592 5.51761024,11.2033029 5.62278076,11.3113417 C5.72795128,11.4193805 5.87439403,11.4771459 6.025,11.47 L7.685,11.47 C7.90395449,11.4804352 8.10593968,11.3524446 8.19,11.15 C8.22026341,11.071887 8.23552999,10.9887689 8.23501334,10.905 L8.23501334,9.21 L8.23501334,9.21 Z" id="形状"></path>
                        </g>
                    </g>
                </g>
            </g>
        </g>
    </g>
</svg>