<?xml version="1.0" encoding="UTF-8"?>
<svg width="69px" height="67px" viewBox="0 0 69 67" version="1.1" xmlns="http://www.w3.org/2000/svg" xmlns:xlink="http://www.w3.org/1999/xlink">
    <title>编组 4</title>
    <defs>
        <linearGradient x1="50%" y1="0.729348776%" x2="50%" y2="100%" id="linearGradient-1">
            <stop stop-color="#FFD193" offset="0%"></stop>
            <stop stop-color="#FF8A71" offset="100%"></stop>
        </linearGradient>
        <filter x="-34.8%" y="-36.4%" width="169.6%" height="172.7%" filterUnits="objectBoundingBox" id="filter-2">
            <feOffset dx="0" dy="0" in="SourceAlpha" result="shadowOffsetOuter1"></feOffset>
            <feGaussianBlur stdDeviation="2" in="shadowOffsetOuter1" result="shadowBlurOuter1"></feGaussianBlur>
            <feColorMatrix values="0 0 0 0 0.882133152   0 0 0 0 0.574067728   0 0 0 0 0.472348013  0 0 0 1 0" type="matrix" in="shadowBlurOuter1" result="shadowMatrixOuter1"></feColorMatrix>
            <feMerge>
                <feMergeNode in="shadowMatrixOuter1"></feMergeNode>
                <feMergeNode in="SourceGraphic"></feMergeNode>
            </feMerge>
        </filter>
    </defs>
    <g id="页面-1" stroke="none" stroke-width="1" fill="none" fill-rule="evenodd">
        <g id="云上服务" transform="translate(-31.000000, -132.000000)">
            <g id="编组-11" transform="translate(12.000000, 117.000000)">
                <g id="编组" transform="translate(19.500000, 15.000000)">
                    <g id="编组-4" transform="translate(0.500000, 0.000000)">
                        <rect id="矩形" fill-opacity="0.146279502" fill="#FF9D1A" transform="translate(33.500000, 33.500000) rotate(-345.000000) translate(-33.500000, -33.500000) " x="6.5" y="6.5" width="54" height="54" rx="16"></rect>
                        <rect id="矩形" fill="url(#linearGradient-1)" x="8.5" y="8.5" width="50" height="50" rx="16"></rect>
                        <g id="编组" filter="url(#filter-2)" transform="translate(22.000000, 21.500000)" fill="#FFFFFF" fill-rule="nonzero">
                            <path d="M8.42469566,10.88 C8.37508783,11.7609274 8.69018144,12.6234493 9.29595884,13.2649536 C9.90173623,13.9064578 10.7448079,14.270406 11.6271305,14.2713043 C13.397545,14.2690037 14.8320145,12.8340674 14.8337391,11.0636522 C14.8337391,11.002087 14.8316522,10.9405217 14.8295652,10.88 L22.5805217,10.88 L22.5805217,11.4966957 L22.5951305,11.4966957 L22.5951305,19.448 C22.5876718,20.5478675 21.6936317,21.4353817 20.5937391,21.4347829 L2.56660869,21.4347829 C1.46671611,21.4353817 0.572676049,20.5478675 0.565217375,19.448 L0.565217375,11.4946087 L0.590260859,11.4946087 L0.590260859,10.8789565 L8.42469566,10.88 Z M13.6441739,10.88 C13.6950856,11.446802 13.5056916,12.0089403 13.122164,12.4293723 C12.7386363,12.8498044 12.1962131,13.0899013 11.6271305,13.0911305 C10.5082695,13.0894053 9.60184481,12.1825139 9.60069566,11.0636522 C9.60069566,11.002087 9.60591303,10.9405217 9.61113045,10.88 L13.6441739,10.88 Z M15.5892174,0.565217375 C16.6911304,0.565217375 17.5906087,1.46052172 17.5906087,2.552 L17.5906087,4.53982611 L20.5958261,4.53982611 C21.696236,4.53921479 22.5911779,5.42623688 22.6003478,6.52660869 L22.6003478,9.50678263 L22.5836522,9.50678263 L22.5836522,9.69878263 L0.592347828,9.69878263 L0.592347828,9.50678263 L0.567304344,9.50678263 L0.567304344,6.52660869 C0.567304344,5.43513041 1.46782606,4.53982606 2.56973914,4.53982611 L5.57182611,4.53982611 L5.57182611,2.552 C5.57182611,1.46052172 6.47234783,0.565217375 7.57426086,0.565217375 L15.5892174,0.565217375 Z M15.0852174,2.54469566 L8.07617389,2.54469566 C7.77565217,2.54469566 7.57426086,2.744 7.57426086,3.04452172 L7.57426086,4.53982611 L15.586087,4.53982611 L15.586087,3.04452172 C15.586087,2.74713041 15.3846957,2.54469566 15.0852174,2.54469566 L15.0852174,2.54469566 Z" id="形状"></path>
                        </g>
                    </g>
                </g>
            </g>
        </g>
    </g>
</svg>