<?xml version="1.0" encoding="UTF-8"?>
<svg width="90px" height="90px" viewBox="0 0 90 90" version="1.1" xmlns="http://www.w3.org/2000/svg" xmlns:xlink="http://www.w3.org/1999/xlink">
    <title>矩形备份</title>
    <g id="页面-1" stroke="none" stroke-width="1" fill="none" fill-rule="evenodd">
        <g id="云上服务-全民治理" transform="translate(-130.000000, -129.000000)">
            <g id="编组-11" transform="translate(15.000000, 79.000000)">
                <g id="编组-7" transform="translate(15.000000, 20.000000)">
                    <g id="编组-3" transform="translate(100.000000, 30.000000)">
                        <rect id="矩形备份" fill="#F4F5F6" x="0" y="0" width="90" height="90" rx="4"></rect>
                        <g id="编组" transform="translate(27.000000, 29.000000)" fill="#E3E5E8" fill-rule="nonzero">
                            <path d="M17.8748526,11.7539526 C15.0122842,11.7539526 12.6840316,14.0822053 12.6840316,16.9447737 C12.6840316,19.8073421 15.0122842,22.1355947 17.8748526,22.1355947 C20.7374211,22.1355947 23.0656737,19.8073421 23.0656737,16.9447737 C23.0656737,14.0822053 20.7374211,11.7539526 17.8748526,11.7539526 L17.8748526,11.7539526 Z" id="形状结合"></path>
                            <path d="M32.7356526,4.04616316 C34.3931684,4.04616316 35.7346421,5.38991053 35.7346421,7.04515263 L35.7346421,7.04515263 L35.7346421,27.1536158 C35.7346421,28.8088579 34.3931684,30.1526053 32.7356526,30.1526053 L32.7356526,30.1526053 L3.01632632,30.1526053 C1.36108421,30.1526053 0.0173368421,28.8111316 0.0173368421,27.1536158 L0.0173368421,27.1536158 L0.0173368421,7.04515263 C0.0173368421,5.38991053 1.35881053,4.04616316 3.01632632,4.04616316 L3.01632632,4.04616316 L5.99933684,4.04565789 L6,4.05 L30,4.05 L29.9993368,4.04565789 Z M17.8748526,9.17786842 C13.5912316,9.17786842 10.1079474,12.6611526 10.1079474,16.9447737 C10.1079474,21.2283947 13.5912316,24.7116789 17.8748526,24.7116789 C22.1584737,24.7116789 25.6417579,21.2261211 25.6417579,16.9447737 C25.6417579,12.6611526 22.1584737,9.17786842 17.8748526,9.17786842 Z M30.6279474,7.16793158 L28.3247053,7.16793158 C27.6130421,7.16793158 27.0355263,7.74544737 27.0355263,8.45711053 C27.0355263,9.16877368 27.6130421,9.74628947 28.3247053,9.74628947 L28.3247053,9.74628947 L30.6279474,9.74628947 C31.3396105,9.74628947 31.9171263,9.16877368 31.9171263,8.45711053 C31.9171263,7.74544737 31.3396105,7.16793158 30.6279474,7.16793158 L30.6279474,7.16793158 Z M24.3935053,0.0376578947 C25.188329,0.0376578947 25.8785624,0.584857658 26.0601158,1.35866842 L26.0601158,1.35866842 L26.3393368,2.54965789 L9.41133684,2.54965789 L9.69186316,1.35866842 C9.86206942,0.633220831 10.4793578,0.106943064 11.2107686,0.0439921232 L11.3584737,0.0376578947 Z" id="形状结合"></path>
                        </g>
                    </g>
                </g>
            </g>
        </g>
    </g>
</svg>