<?xml version="1.0" encoding="UTF-8"?>
<svg width="20px" height="20px" viewBox="0 0 20 20" version="1.1" xmlns="http://www.w3.org/2000/svg" xmlns:xlink="http://www.w3.org/1999/xlink">
    <title>矩形</title>
    <g id="页面-1" stroke="none" stroke-width="1" fill="none" fill-rule="evenodd">
        <g id="密码登录3" transform="translate(-315.000000, -288.000000)">
            <g id="验证码" transform="translate(30.000000, 288.000000)">
                <g id="icon_yincnag" transform="translate(285.000000, 0.000000)">
                    <rect id="矩形" fill="#D8D8D8" opacity="0" x="0" y="0" width="20" height="20"></rect>
                    <g id="iconfont图标_隐藏" transform="translate(1.000000, 7.000000)" fill="#FFFFFF" fill-rule="nonzero">
                        <path d="M17.8008442,1.52973005 C18.1145115,1.12157943 18.0507401,0.52413944 17.6583637,0.197512023 C17.2797796,-0.117184575 16.6823436,-0.0473248947 16.3755723,0.34648931 C16.3491567,0.381115413 13.6554467,3.81167525 8.99994827,3.81167525 C4.37374071,3.81167525 1.65073978,0.380216349 1.6237398,0.345274359 C1.3204283,-0.0470576055 0.721239056,-0.116917286 0.341509419,0.197779312 C-0.0508435876,0.524115141 -0.114614977,1.12155513 0.199613402,1.53028893 C0.243280907,1.58641966 0.624717037,2.0686094 1.31294778,2.68665496 L0.021530394,4.32280512 L1.43128018,5.52424583 L2.77957286,3.81643786 C3.31499071,4.16814186 3.87680076,4.47567025 4.45357183,4.73304546 L3.71019567,6.87140775 L5.42557124,7.51511307 L6.18100974,5.34093402 C6.79340676,5.50096737 7.43336481,5.60844193 8.08826051,5.66160818 L8.08826051,8 L9.91163602,8 L9.91163602,5.66160818 C10.5791785,5.60727557 11.2323443,5.49559728 11.8585102,5.32900321 L12.6225512,7.50138413 L14.3350515,6.8505106 L13.5848026,4.71754269 C14.1213659,4.47511137 14.6521786,4.18430071 15.1657393,3.85108826 L16.5059904,5.57024387 L17.9226363,4.37655455 L16.6392605,2.7302474 C17.3630938,2.08775703 17.7560312,1.58765891 17.8008442,1.52973005 Z" id="路径"></path>
                    </g>
                </g>
            </g>
        </g>
    </g>
</svg>