<?xml version="1.0" encoding="UTF-8"?>
<svg width="20px" height="20px" viewBox="0 0 20 20" version="1.1" xmlns="http://www.w3.org/2000/svg" xmlns:xlink="http://www.w3.org/1999/xlink">
    <title>矩形</title>
    <g id="页面-1" stroke="none" stroke-width="1" fill="none" fill-rule="evenodd">
        <g id="密码登录1" transform="translate(-315.000000, -289.000000)">
            <g id="验证码" transform="translate(30.000000, 289.000000)">
                <g id="icon_xianshi" transform="translate(285.000000, 0.000000)">
                    <path d="M10.0000117,4 C5.90935722,4 2.39154154,6.52982593 1,10.12 C2.39154154,13.7101273 5.90933379,16.24 10.0000117,16.24 C14.0907365,16.24 17.6097006,13.7101507 19,10.12 C17.6096771,6.52980256 14.0907365,4 9.99998828,4 M9.99998828,14.1996105 C7.70959392,14.1996105 5.90935722,12.4053999 5.90935722,10.12 C5.90935722,7.83462349 7.70959392,6.04034279 9.99998828,6.04034279 C12.2916716,6.04034279 14.0907365,7.83462349 14.0907365,10.12 C14.0907365,12.4053999 12.2916716,14.1996105 9.99998828,14.1996105 M9.99998828,7.67202337 C8.60968884,7.67202337 7.54540341,8.73342326 7.54540341,10.12 C7.54540341,11.5066235 8.60968884,12.568 9.99998828,12.568 C11.3915533,12.568 12.4546669,11.5066001 12.4546669,10.12 C12.4546669,8.73342326 11.3915533,7.67202337 10.0000117,7.67202337" id="形状" fill="#FFFFFF" fill-rule="nonzero"></path>
                    <rect id="矩形" fill="#D8D8D8" opacity="0" x="0" y="0" width="20" height="20"></rect>
                </g>
            </g>
        </g>
    </g>
</svg>