<?xml version="1.0" encoding="UTF-8"?>
<svg width="24px" height="24px" viewBox="0 0 24 24" version="1.1" xmlns="http://www.w3.org/2000/svg" xmlns:xlink="http://www.w3.org/1999/xlink">
    <title>矩形</title>
    <g id="页面-1" stroke="none" stroke-width="1" fill="none" fill-rule="evenodd">
        <g id="智能客服" transform="translate(-336.000000, -30.000000)" fill-rule="nonzero">
            <g id="已读信息" transform="translate(336.000000, 30.000000)">
                <rect id="矩形" fill="#000000" opacity="0" x="0" y="0" width="24" height="24"></rect>
                <path d="M10.9400229,2.02616672 L1.94121535,7.6501936 C1.64882517,7.83293006 1.47119885,8.15340505 1.47119885,8.49820156 C1.47119885,9.19081353 1.47119885,9.88342549 1.47119885,10.5760375 L1.47119885,19.7883595 C1.47119885,21.241918 2.6497841,22.420431 4.10340213,22.420431 L19.8965979,22.420431 C21.3502159,22.420431 22.5287772,21.241918 22.5287772,19.7883595 L22.5287772,10.5760135 C22.5287772,9.88340185 22.5287772,9.19079024 22.5287772,8.49817863 C22.5287772,8.15338154 22.3511503,7.8329061 22.0587593,7.65016981 L13.0599542,2.02616498 C12.4114288,1.62085455 11.5885476,1.62085522 10.9400229,2.02616672 Z M2.78731249,19.7883355 L2.78731249,10.1647643 L8.75281648,14.2658398 L2.84964877,20.1687656 C2.81302411,20.0479355 2.78731249,19.9219969 2.78731249,19.7883355 Z M19.8965979,21.1043712 L4.10340213,21.1043712 C4.0024984,21.1043712 3.9054802,21.0908684 3.81100439,21.0696907 L9.85618561,15.0241097 L11.4333881,16.1086368 C11.7746718,16.3433127 12.2253042,16.3433127 12.5665879,16.1086368 L14.1437904,15.0241097 L14.1437904,15.0241097 L20.1889716,21.0696907 C20.0945198,21.0908924 19.9974776,21.1043712 19.8965979,21.1043712 Z M21.2126875,19.7883355 C21.2126875,19.9219969 21.1869999,20.0479355 21.1503512,20.1687416 L15.2471835,14.2658398 L21.2126875,10.1647643 L21.2126875,19.7883355 Z M11.4322275,14.5644081 L2.78731249,8.60195988 L2.78731249,8.60195988 L10.9346416,3.54993115 C11.5795071,3.15006037 12.3951205,3.14955142 13.0404845,3.54861708 L21.2126875,8.60195988 L21.2126875,8.60195988 L12.5677489,14.5644088 C12.2259478,14.8001504 11.7740283,14.8001501 11.4322275,14.5644081 Z" id="形状" fill="#333333"></path>
            </g>
        </g>
    </g>
</svg>