<?xml version="1.0" encoding="UTF-8"?>
<svg width="52px" height="53px" viewBox="0 0 52 53" version="1.1" xmlns="http://www.w3.org/2000/svg" xmlns:xlink="http://www.w3.org/1999/xlink">
    <title>椭圆形</title>
    <defs>
        <linearGradient x1="11.5860924%" y1="9.50129428%" x2="89.9252621%" y2="90.4987057%" id="linearGradient-1">
            <stop stop-color="#8E9EED" offset="0%"></stop>
            <stop stop-color="#5068E4" offset="100%"></stop>
        </linearGradient>
    </defs>
    <g id="页面-1" stroke="none" stroke-width="1" fill="none" fill-rule="evenodd">
        <g id="智享生活-公共服务-社会保障" transform="translate(-30.000000, -306.000000)" fill-rule="nonzero">
            <g id="编组-10" transform="translate(15.000000, 128.000000)">
                <g id="编组-3备份-12" transform="translate(0.000000, 170.000000)">
                    <g id="编组-6" transform="translate(15.000000, 8.500000)">
                        <circle id="椭圆形" fill="#E8ECFF" opacity="0.600000024" cx="26" cy="26" r="26"></circle>
                        <path d="M40.1966721,22.7218683 C39.4486859,22.0968798 30.8518442,15.3810034 29.0628772,13.6860346 C27.8708991,12.5570554 26.8729175,11.9950658 26.0699323,12.0000326 C25.2819468,11.9950658 24.2839651,12.5570554 23.0769874,13.6860346 C21.2670207,15.3810034 12.6021802,22.0958798 11.853194,22.7218683 C11.1052078,23.3468568 10.8282129,24.6118335 11.1052078,25.1308239 L14.2631496,25.1308239 L14.2631496,36.0626226 C14.2631496,38.2765819 14.7121414,38.9995686 17.2930939,38.9995686 L34.8027715,38.9995686 C37.3527245,38.9995686 37.5857203,38.2765819 37.5857202,36.0626226 L37.5857202,25.1308239 L40.8856595,25.1308239 C41.1626544,24.6108335 40.9376585,23.3538567 40.1966721,22.7208683 L40.1966721,22.7218683 Z M29.3468719,31.1087139 C29.6628661,31.1087139 29.9188614,31.3827088 29.9188614,31.7197026 C29.9188614,32.0576964 29.6628661,32.3296914 29.3468719,32.3296914 L26.5899227,32.3296914 L26.5899227,34.3896534 C26.5899227,34.7256473 26.3339274,34.9996422 26.0179332,34.9996422 C25.701939,34.9996422 25.4459437,34.7256473 25.4459438,34.3896534 L25.4459438,32.3296914 L22.7569933,32.3296914 C22.4409991,32.3296914 22.1850038,32.0576964 22.1850038,31.7197026 C22.1850038,31.3827088 22.4409991,31.1097138 22.7569933,31.1097138 L25.4459438,31.1097138 L25.4459438,29.2767476 L22.7569933,29.2767476 C22.4409991,29.2767476 22.1850038,29.0037526 22.1850038,28.6667588 C22.1850038,28.3287651 22.4409991,28.0557701 22.7569933,28.0557701 L25.1939484,28.0557701 L22.1680041,24.9468273 C22.0603008,24.8529372 21.998945,24.7167125 21.9999936,24.5738342 C21.9992368,24.4313042 22.0605665,24.2955029 22.1680041,24.201841 C22.271621,24.0886343 22.4180293,24.0241636 22.5714967,24.0241636 C22.724964,24.0241636 22.8713723,24.0886343 22.9749892,24.201841 L25.9999336,27.4267816 L29.0258778,24.1768415 C29.1294737,24.0639648 29.2756606,23.9997096 29.4288704,23.9997096 C29.5820802,23.9997096 29.7282672,24.0639648 29.831863,24.1768415 C29.937861,24.2778396 29.9988599,24.422837 29.9988599,24.5738342 C29.9988599,24.7258314 29.938861,24.8708287 29.831863,24.9708269 L26.8059187,28.0807696 L29.3458719,28.0807696 C29.6618661,28.0807696 29.9178614,28.3537646 29.9178614,28.6907584 C29.9178614,29.0277522 29.6618661,29.3007471 29.3458719,29.3007471 L26.5899227,29.3007471 L26.5899227,31.1337134 L29.3468719,31.1337134 L29.3468719,31.1087139 Z" id="形状" fill="url(#linearGradient-1)"></path>
                    </g>
                </g>
            </g>
        </g>
    </g>
</svg>