<?xml version="1.0" encoding="UTF-8"?>
<svg width="52px" height="53px" viewBox="0 0 52 53" version="1.1" xmlns="http://www.w3.org/2000/svg" xmlns:xlink="http://www.w3.org/1999/xlink">
    <title>椭圆形</title>
    <defs>
        <linearGradient x1="16.2506062%" y1="42.4382716%" x2="77.0711468%" y2="53.8321689%" id="linearGradient-1">
            <stop stop-color="#88C5FA" offset="0%"></stop>
            <stop stop-color="#3B9EF2" offset="100%"></stop>
        </linearGradient>
    </defs>
    <g id="页面-1" stroke="none" stroke-width="1" fill="none" fill-rule="evenodd">
        <g id="智享生活-公共服务-生活缴费" transform="translate(-30.000000, -476.000000)">
            <g id="编组-4" transform="translate(15.000000, 128.000000)">
                <g id="编组-3备份-7" transform="translate(0.000000, 340.000000)">
                    <g id="编组-10" transform="translate(15.000000, 8.500000)">
                        <circle id="椭圆形" fill="#E7F6FF" cx="26" cy="26" r="26"></circle>
                        <g id="宽带" transform="translate(12.000000, 12.500000)" fill-rule="nonzero">
                            <path d="M3.51771429,15.3668571 L24.2537143,15.3668571 C25.8829714,15.3668571 27.216,16.6998857 27.216,18.3291429 L27.216,22.7725714 C27.216,24.4018286 25.8829714,25.7348571 24.2537143,25.7348571 L3.51771429,25.7348571 C1.88845714,25.7348571 0.555428571,24.4018286 0.555428571,22.7725714 L0.555428571,18.3291429 C0.555428571,16.6998857 1.88845714,15.3668571 3.51771429,15.3668571 Z" id="路径" fill="url(#linearGradient-1)"></path>
                            <path d="M21.8838857,10.2569143 L19.5881143,12.1083429 C18.1810286,10.4790857 16.1074286,9.44228571 13.8857143,9.44228571 C11.664,9.44228571 9.5904,10.4050286 8.18331429,12.1083429 L5.88754286,10.1828571 C7.88708571,7.88708571 10.7753143,6.48 13.8857143,6.48 C16.9961143,6.48 19.9584,7.88708571 21.8838857,10.2569143 Z M26.4013714,6.48 L24.1056,8.40548571 C21.6617143,5.29508571 17.8848,3.51771429 13.8857143,3.51771429 C9.88662857,3.51771429 6.18377143,5.29508571 3.66582857,8.33142857 L1.37005714,6.40594286 C4.4064,2.70308571 8.99794286,0.555428571 13.8857143,0.555428571 C18.7734857,0.555428571 23.3650286,2.77714286 26.4013714,6.48 L26.4013714,6.48 Z" id="形状" fill="#A0D2FB"></path>
                        </g>
                    </g>
                </g>
            </g>
        </g>
    </g>
</svg>