<?xml version="1.0" standalone="no"?><!DOCTYPE svg PUBLIC "-//W3C//DTD SVG 1.1//EN" "http://www.w3.org/Graphics/SVG/1.1/DTD/svg11.dtd"><svg t="1609382150764" class="icon" viewBox="0 0 1024 1024" version="1.1" xmlns="http://www.w3.org/2000/svg" p-id="7290" xmlns:xlink="http://www.w3.org/1999/xlink" width="128" height="128"><defs><style type="text/css"></style></defs><path d="M511.99941746 3.74329458C231.32630243 3.74329458 3.74387712 231.28729827 3.74387712 511.99883605c0 280.70222279 227.58358926 508.25670542 508.25554034 508.25670542 280.63236551 0 508.25554034-227.55448263 508.25554033-508.25670542C1020.25495893 231.28729827 792.71095523 3.74329458 511.99941746 3.74329458L511.99941746 3.74329458zM511.99941746 347.72844658l0-0.43661085L511.99941746 347.72844658l0 0.10944398L511.99941746 347.72844658 511.99941746 347.72844658zM512.17755477 669.91566621c-0.23868075 0.77425664-0.27826631 1.58809885-0.37723136 2.39262606C511.82011619 671.53403677 511.93887403 670.67013006 512.17755477 669.91566621L512.17755477 669.91566621zM780.63954375 823.15668821l-4.82483882-0.39702414c-13.12276935-2.83855189-22.9703771-13.46157909-24.91591453-26.46442666-7.58421845-52.25472569-32.73881259-102.22743438-70.81824711-140.72368584-45.96171093-46.46701511-105.56197547-72.20841472-167.78423182-72.4156598-62.57853099 0.11992291-122.27775943 25.81009294-168.41760768 72.4156598-37.94088277 38.38797255-63.05589134 88.35020117-70.77866041 140.75395755-1.9257435 13.13324829-11.57425721 23.47684523-24.65976889 26.34566883l-5.04256171 0.46688256-3.65355804-0.16998741c-17.92665145-2.42173383-30.13777749-18.44359737-27.79521593-35.61695004 4.28926293-32.21371563 13.73984541-63.40401607 28.13286172-92.71747243 2.79896519-5.70737437 5.77839673-11.34605539 8.91384264-16.84618468 13.93777664-23.47684523 30.73389682-44.95925362 50.01229425-63.96869859 4.30789177-4.16934002 8.67516189-8.22923719 13.18214884-12.19016931 24.99625074-21.94928981 52.75187997-39.3508443 82.83027911-52.06727453-7.00905586-5.31151417-13.75847424-11.20750365-20.05265408-17.46093283-36.62988629-36.69042973-56.80129821-85.42083527-56.8012982-137.25990799 0-51.78784427 20.21099747-100.50893483 56.8012982-137.23895125 35.99418141-35.92432413 83.70349966-56.12600775 134.35033486-56.8012982l4.96455452 0c50.80517859 0.75446272 98.49470407 20.91656078 134.33054208 56.8012982 36.68926578 36.62057245 56.84088491 85.38124857 56.84088491 137.23895125 0 51.73894371-20.23195534 100.47051321-56.78266937 137.19936455-6.45252323 6.38266595-13.10414051 12.20064825-20.09223964 17.46209678 30.13777749 12.73505906 57.95278621 30.20647083 82.88849351 52.12665402 4.46740025 3.91086763 8.73570531 7.96144981 13.06455495 12.05161756 19.41694805 19.06998841 36.21423331 40.51164615 49.99250148 63.89884132 3.25653277 5.74812501 6.31397262 11.34721934 9.05239438 17.11397318 14.25562851 28.92691001 23.74579769 60.08693874 28.15381845 92.58707172 1.18990962 8.21060835-0.9139712 16.47011726-6.03687025 23.28939406s-12.54644395 11.19702585-20.98409018 12.37878557l-4.09016888 0.21888796L780.63954375 823.15668821zM509.87457991 497.23790336c0.93376512-0.39818923 2.2633893-0.69624832 3.79210866-0.69624832l0.45756757 0C512.6735451 496.65226297 511.22516195 496.83156423 509.87457991 497.23790336L509.87457991 497.23790336zM511.99941746 347.63996046l0 0.01047893L511.99941746 347.63996046 511.99941746 347.63996046 511.99941746 347.63996046zM652.74289721 428.02754787c0.13855061-0.64501987 0.35743858-1.33078926 0.59495424-1.98512298 2.38331221-10.01643008 3.77231587-20.51837155 3.77231588-31.26015772 0-10.77089394-1.3494181-21.25420658-3.77231588-31.51746731-0.23751566-0.73466994-0.39702414-1.39948259-0.59495424-2.10504591-15.96248519-62.30142862-74.75007147-111.88642589-140.38604004-111.88642588l-0.73466994 0c-65.67671922 0-124.3641765 49.58499726-140.38604003 111.88642588-0.13855061 0.72419101-0.37723136 1.39948259-0.49598919 2.10504591-2.50207005 10.23415296-3.81190144 20.7570523-3.81190144 31.51746731 0 10.77089394 1.3494181 21.22393486 3.81190144 31.26015772 0.13855061 0.65549767 0.35743858 1.34010311 0.49598919 1.98512298 15.90310571 60.84256654 74.07477987 106.14877981 139.33351709 106.65408399l1.01293624 0 1.84657238 0c65.19935886-0.57632654 123.31165355-45.85226809 139.29393152-106.65408399L652.74289721 428.02754787zM509.87457991 497.23790336c1.33078926-0.43777479 2.74075079-0.69624832 4.24851228-0.69624832l-0.45756757 0C512.11701134 496.65226297 510.86655829 496.87114979 509.87457991 497.23790336L509.87457991 497.23790336zM509.87457991 497.23790336" fill="#8a8a8a" p-id="7291"></path></svg>