<?xml version="1.0" encoding="UTF-8"?>
<svg width="52px" height="53px" viewBox="0 0 52 53" version="1.1" xmlns="http://www.w3.org/2000/svg" xmlns:xlink="http://www.w3.org/1999/xlink">
    <title>椭圆形</title>
    <defs>
        <linearGradient x1="11.5860924%" y1="13.485533%" x2="89.9252621%" y2="86.514467%" id="linearGradient-1">
            <stop stop-color="#8E9EED" offset="0%"></stop>
            <stop stop-color="#5068E4" offset="100%"></stop>
        </linearGradient>
        <linearGradient x1="11.5860924%" y1="11.140928%" x2="89.9252621%" y2="88.859072%" id="linearGradient-2">
            <stop stop-color="#8E9EED" offset="0%"></stop>
            <stop stop-color="#5068E4" offset="100%"></stop>
        </linearGradient>
    </defs>
    <g id="页面-1" stroke="none" stroke-width="1" fill="none" fill-rule="evenodd">
        <g id="智享生活-公共服务-生活缴费" transform="translate(-30.000000, -646.000000)" fill-rule="nonzero">
            <g id="编组-4" transform="translate(15.000000, 128.000000)">
                <g id="编组-3备份-9" transform="translate(0.000000, 510.000000)">
                    <g id="编组-12" transform="translate(15.000000, 8.500000)">
                        <circle id="椭圆形" fill="#E8ECFF" opacity="0.600000024" cx="26" cy="26" r="26"></circle>
                        <g id="有线电视" transform="translate(13.000000, 10.000000)">
                            <path d="M14.61075,10.2939375 L13.946625,10.2939375 L13.6145625,9.961875 L13.2825,10.2939375 C12.618375,10.626 11.95425,10.2939375 11.6221875,9.961875 L7.9695,4.3168125 C7.6374375,3.6526875 7.6374375,2.9885625 8.3015625,2.6565 C8.9656875,1.992375 9.6298125,2.3244375 9.961875,2.9885625 L13.6145625,8.3015625 L17.26725,0.9961875 C17.5993125,0.3320625 18.2634375,-3.7753134e-13 18.9275625,0.3320625 C19.5916875,0.664125 19.92375,1.32825 19.5916875,1.992375 L15.6069375,9.6298125 C15.274875,9.961875 14.9428125,10.2939375 14.61075,10.2939375 L14.61075,10.2939375 Z" id="路径" fill="url(#linearGradient-1)" opacity="0.5"></path>
                            <path d="M21.5840625,27.89325 C22.2481875,27.89325 22.58025,28.2253125 22.58025,28.8894375 C22.58025,29.5535625 22.2481875,29.885625 21.5840625,29.885625 L4.648875,29.885625 C4.3168125,29.5535625 3.6526875,29.2215 3.6526875,28.8894375 C3.6526875,28.2253125 3.98475,27.89325 4.648875,27.89325 L21.5840625,27.89325 Z M22.9123125,7.6374375 C24.572625,7.6374375 25.900875,8.9656875 25.900875,10.626 L25.900875,23.5764375 C25.900875,25.23675 24.572625,26.565 22.9123125,26.565 L3.6526875,26.565 C1.992375,26.565 0.664125,25.23675 0.664125,23.5764375 L0.664125,10.626 C0.664125,8.9656875 1.992375,7.6374375 3.6526875,7.6374375 L22.9123125,7.6374375 Z M23.244375,16.603125 C22.5108028,16.603125 21.916125,17.1978028 21.916125,17.931375 C21.916125,18.6649472 22.5108028,19.259625 23.244375,19.259625 C23.9779472,19.259625 24.572625,18.6649472 24.572625,17.931375 C24.572625,17.1978028 23.9779472,16.603125 23.244375,16.603125 Z M23.244375,12.618375 C22.5108028,12.618375 21.916125,13.2130528 21.916125,13.946625 C21.916125,14.6801972 22.5108028,15.274875 23.244375,15.274875 C23.9779472,15.274875 24.572625,14.6801972 24.572625,13.946625 C24.572625,13.2130528 23.9779472,12.618375 23.244375,12.618375 Z" id="形状结合" fill="url(#linearGradient-2)"></path>
                            <path d="M20.587875,23.244375 C20.587875,23.9085 20.2558125,24.2405625 19.5916875,24.2405625 L4.3168125,24.2405625 C3.6526875,23.9085 3.320625,23.5764375 3.320625,23.244375 L3.320625,11.290125 C3.320625,10.626 3.6526875,10.2939375 4.3168125,10.2939375 L19.92375,10.2939375 C20.2558125,10.2939375 20.9199375,10.626 20.9199375,11.290125 L20.9199375,23.244375 L20.587875,23.244375 Z" id="路径" fill="#ABB6F3"></path>
                        </g>
                    </g>
                </g>
            </g>
        </g>
    </g>
</svg>