<?xml version="1.0" encoding="UTF-8"?>
<svg width="24px" height="24px" viewBox="0 0 24 24" version="1.1" xmlns="http://www.w3.org/2000/svg" xmlns:xlink="http://www.w3.org/1999/xlink">
    <title>矩形</title>
    <g id="页面-1" stroke="none" stroke-width="1" fill="none" fill-rule="evenodd">
        <g id="智享生活-商家中心" transform="translate(-336.000000, -30.000000)">
            <g id="编组" transform="translate(336.000000, 30.000000)">
                <rect id="矩形" fill="#D8D8D8" opacity="0" x="0" y="0" width="24" height="24"></rect>
                <g transform="translate(0.500000, 0.500000)" fill="#333333" fill-rule="nonzero" id="形状">
                    <path d="M8.95292969,8.69736914 C9.46403581,8.69736914 9.71958887,8.9529222 9.71958887,9.46402832 L9.71958887,10.9973691 C9.71958887,11.5084753 9.46403581,11.7640283 8.95292969,11.7640283 C8.44182357,11.7640283 8.18627051,11.5084753 8.18627051,10.9973691 L8.18627051,9.46402832 C8.18627051,8.9529222 8.44182357,8.69736914 8.95292969,8.69736914 L8.95292969,8.69736914 Z M14.0640283,8.69736914 C14.5751494,8.69736914 14.83071,8.9529222 14.83071,9.46402832 L14.83071,10.9973691 C14.83071,11.5084753 14.5751494,11.7640283 14.0640283,11.7640283 C13.5529072,11.7640283 13.2973691,11.5084753 13.2973691,10.9973691 L13.2973691,9.46402832 C13.2973691,8.9529222 13.5529222,8.69736914 14.0640283,8.69736914 L14.0640283,8.69736914 Z"></path>
                    <path d="M19.3653037,19.0407207 C21.3794596,16.9489983 22.5024408,14.1567376 22.4973862,11.2529297 C22.4973862,5.05314941 17.4537207,0.00848926005 11.2539629,0.00848926005 C5.05213867,0.0059296875 0.00849023437,5.05058887 0.00849023437,11.2529297 C0.00849023437,17.45271 5.05213867,22.4973691 11.2518965,22.4973691 L19.4429512,22.4973691 C19.8421494,22.4973691 20.2040176,22.2663584 20.3721602,21.9070283 C20.5424434,21.5469227 20.4886244,21.1207681 20.2341602,20.8143037 M17.9050283,20.8521055 L11.2529297,20.8521055 C5.96036914,20.8515889 1.65424805,16.5454902 1.65424805,11.2529297 C1.65424805,5.96036914 5.9603916,1.65424805 11.2529297,1.65424805 C16.5454678,1.65424805 20.8516299,5.9603916 20.8516299,11.2529297 C20.8564976,13.7315531 19.8977843,16.115035 18.1779736,17.8999297 C17.4092705,18.6972705 17.4721387,19.7997207 17.9050283,20.8521055 Z"></path>
                </g>
            </g>
        </g>
    </g>
</svg>