<?xml version="1.0" encoding="UTF-8"?>
<svg width="60px" height="60px" viewBox="0 0 60 60" version="1.1" xmlns="http://www.w3.org/2000/svg" xmlns:xlink="http://www.w3.org/1999/xlink">
    <title>编组 4</title>
    <defs>
        <linearGradient x1="50%" y1="0%" x2="50%" y2="100%" id="linearGradient-1">
            <stop stop-color="#C0F0E0" offset="0%"></stop>
            <stop stop-color="#4CCCA0" offset="100%"></stop>
        </linearGradient>
        <filter x="-33.3%" y="-34.8%" width="166.7%" height="169.6%" filterUnits="objectBoundingBox" id="filter-2">
            <feOffset dx="0" dy="0" in="SourceAlpha" result="shadowOffsetOuter1"></feOffset>
            <feGaussianBlur stdDeviation="2" in="shadowOffsetOuter1" result="shadowBlurOuter1"></feGaussianBlur>
            <feColorMatrix values="0 0 0 0 0.271439346   0 0 0 0 0.734665485   0 0 0 0 0.773267663  0 0 0 1 0" type="matrix" in="shadowBlurOuter1" result="shadowMatrixOuter1"></feColorMatrix>
            <feMerge>
                <feMergeNode in="shadowMatrixOuter1"></feMergeNode>
                <feMergeNode in="SourceGraphic"></feMergeNode>
            </feMerge>
        </filter>
    </defs>
    <g id="页面-1" stroke="none" stroke-width="1" fill="none" fill-rule="evenodd">
        <g id="智享生活-商家中心" transform="translate(-288.000000, -343.000000)">
            <g id="编组-5" transform="translate(27.000000, 343.000000)">
                <g id="编组-4" transform="translate(261.000000, 0.000000)">
                    <path d="M21.8208955,5.82089552 L38.1791045,5.82089552 C47.0156605,5.82089552 54.1791045,12.9843395 54.1791045,21.8208955 L54.1791045,38.1791045 C54.1791045,47.0156605 47.0156605,54.1791045 38.1791045,54.1791045 L21.8208955,54.1791045 C12.9843395,54.1791045 5.82089552,47.0156605 5.82089552,38.1791045 L5.82089552,21.8208955 C5.82089552,12.9843395 12.9843395,5.82089552 21.8208955,5.82089552 Z" id="矩形" fill-opacity="0.15" fill="url(#linearGradient-1)" transform="translate(30.000000, 30.000000) rotate(-345.000000) translate(-30.000000, -30.000000) "></path>
                    <rect id="矩形" fill="url(#linearGradient-1)" x="7.6119403" y="7.6119403" width="44.7761194" height="44.7761194" rx="16"></rect>
                    <g id="编组" filter="url(#filter-2)" transform="translate(18.000000, 19.000000)" fill="#FFFFFF" fill-rule="nonzero">
                        <path d="M17.1217672,0.0114841121 C17.4198485,0.0114841121 17.7031056,0.141491194 17.8974668,0.367491589 L17.8974668,0.367491589 L23.7266977,7.17443807 C24.0411059,7.54385045 24.0520175,8.08353774 23.752798,8.46535667 L23.752798,8.46535667 L12.7750308,22.5109478 C12.5808449,22.7625543 12.285912,22.9045397 11.9700989,22.9045397 C11.6548078,22.9045397 11.3598749,22.7599443 11.165689,22.5109478 L11.165689,22.5109478 L0.234380299,8.46535667 C-0.0608267799,8.08292746 -0.0486434988,7.54621012 0.263612568,7.17757009 L0.263612568,7.17757009 L6.04586304,0.370623611 C6.24004892,0.141985391 6.52349769,0.0114841121 6.82469464,0.0114841121 L6.82469464,0.0114841121 Z M18.8266359,6.17323229 L17.4981329,6.17323229 C17.2987269,6.17323229 17.1160252,6.27450128 17.0090141,6.44258692 L13.003669,12.7718987 C12.7687667,13.1425223 12.2279694,13.1279062 12.0108153,12.7489305 L8.4481305,6.46868716 C8.34372949,6.28598537 8.1526756,6.17636431 7.94439557,6.17636431 L5.16315241,6.17636431 C4.84472929,6.17636431 4.58424877,6.43684486 4.58424877,6.75526798 L4.58424877,7.46101886 C4.58424877,7.77944198 4.84525133,8.04044452 5.16367442,8.04044452 L6.10954766,8.04044452 C6.31208564,8.04044452 6.50052949,8.14693355 6.60440849,8.32076126 L11.4987283,16.4650848 C11.7242345,16.8383184 12.2655538,16.8383184 12.49106,16.4650848 L17.3853798,8.32076126 C17.4897808,8.14693357 17.6777026,8.03992253 17.8802406,8.0399225 L18.8266359,8.0399225 C19.145059,8.0399225 19.4055454,7.77944196 19.4055454,7.46101886 L19.4055454,6.75526798 C19.4062334,6.60123344 19.3455651,6.45326217 19.2369394,6.34404875 C19.1283137,6.23483532 18.9806719,6.1733695 18.8266359,6.17323229 Z" id="形状结合"></path>
                    </g>
                </g>
            </g>
        </g>
    </g>
</svg>