<?xml version="1.0" encoding="UTF-8"?>
<svg width="52px" height="52px" viewBox="0 0 52 52" version="1.1" xmlns="http://www.w3.org/2000/svg" xmlns:xlink="http://www.w3.org/1999/xlink">
    <title>椭圆形</title>
    <defs>
        <linearGradient x1="-12.6081289%" y1="10.3293921%" x2="90.738274%" y2="68.9228303%" id="linearGradient-1">
            <stop stop-color="#7EE1FF" offset="0%"></stop>
            <stop stop-color="#48BFFF" offset="100%"></stop>
        </linearGradient>
    </defs>
    <g id="页面-1" stroke="none" stroke-width="1" fill="none" fill-rule="evenodd">
        <g id="智享生活-交通服务" transform="translate(-30.000000, -344.000000)">
            <g id="编组-3备份-3" transform="translate(15.000000, 335.000000)">
                <g id="编组-4" transform="translate(15.000000, 9.000000)">
                    <circle id="椭圆形" fill="#E7F6FF" cx="26" cy="26" r="26"></circle>
                    <g id="baochefuwu-" transform="translate(11.500000, 14.000000)" fill-rule="nonzero">
                        <path d="M9.38696828,4.10559304 L9.38696828,2.93459825 C9.4025458,1.6365653 10.4592767,0.592608696 11.7574031,0.592608696 L25.8188222,0.592608696 C27.1187757,0.592608696 28.1762575,1.63945068 28.1894321,2.93933913 L28.1894321,19.0582956 C28.1969688,19.6893066 27.9497044,20.296727 27.503479,20.7429524 C27.0572536,21.1891779 26.4498331,21.4364422 25.8188222,21.4289056 L24.8943526,21.4289056 C24.678818,19.5099779 23.0561815,18.0594079 21.1253613,18.0594079 C19.1945412,18.0594079 17.5719047,19.5099779 17.35637,21.4289056 L9.63823439,21.4289056 C9.42269974,19.5099779 7.80006326,18.0594079 5.86924308,18.0594079 C3.9384229,18.0594079 2.31578643,19.5099779 2.10025178,21.4289056 C0.929773763,21.4054324 -0.00536544633,20.447073 2.3171584e-05,19.2763756 L2.3171584e-05,12.3310017 C0.109923861,11.9314879 0.247748755,11.5401919 0.412502196,11.160007 L2.22825526,5.7933426 C2.71234923,4.76466697 3.74625292,4.10739963 4.88314221,4.10559304 L9.38696828,4.10559304 Z M9.38696828,5.8739356 L4.88314221,5.8739356 C4.42848277,5.87314806 4.01446332,6.13560683 3.82118743,6.54714086 L2.17610567,11.160007 L1.75890917,12.3310017 L9.38696828,12.3310017 L9.38696828,5.8739356 Z M17.8826066,9.82308174 L17.8826066,10.7712556 L15.5975074,10.7712556 C15.1105018,10.7712557 14.7157057,11.1660517 14.7157057,11.6530574 C14.7157057,12.140063 15.1105018,12.5348591 15.5975074,12.5348591 L17.8826066,12.5348591 L17.8826066,14.5876557 C17.8826066,15.0746613 18.2774026,15.4694574 18.7644083,15.4694574 C19.2514139,15.4694574 19.64621,15.0746613 19.64621,14.5876557 L19.64621,12.5348591 L21.9170865,12.5348591 C22.4040922,12.5348591 22.7988882,12.140063 22.7988882,11.6530574 C22.7988882,11.1660517 22.4040922,10.7712557 21.9170865,10.7712556 L19.64621,10.7712556 L19.64621,9.82308174 L21.5425579,9.82308174 C22.0295635,9.82308174 22.4243596,9.42828565 22.4243596,8.94128 C22.4243596,8.45427435 22.0295635,8.05947826 21.5425579,8.05947826 L20.3573405,8.05947826 L21.7132292,5.92134608 C21.9750601,5.51027141 21.8540742,4.96477361 21.4429996,4.70294262 C21.0319249,4.44111163 20.4864271,4.56209752 20.2245961,4.97317217 L18.7691492,7.28671651 L17.2994796,4.97317217 C17.0376486,4.56209751 16.4921508,4.44111162 16.0810761,4.70294261 C15.6700015,4.9647736 15.5490156,5.51027142 15.8108466,5.92134608 L17.1667352,8.05473738 L15.9293683,8.05473738 C15.4423626,8.05473738 15.0475665,8.44953347 15.0475665,8.93653912 C15.0475665,9.42354477 15.4423626,9.81834086 15.9293683,9.81834086 L17.8826066,9.82308174 Z" id="形状" fill="url(#linearGradient-1)"></path>
                        <path d="M5.87872481,24.0599185 C5.04609989,24.0618315 4.29439332,23.5617468 3.97443134,22.7930517 C3.65446935,22.0243565 3.82933138,21.1385965 4.41740821,20.5491615 C5.00548504,19.9597266 5.89083928,19.7828217 6.6602705,20.1010096 C7.42970172,20.4191975 7.93152683,21.1697485 7.93152683,22.0023756 C7.9327806,22.5476321 7.71706049,23.0709877 7.33194989,23.4569877 C6.94683929,23.8429877 6.42398271,24.0599185 5.87872481,24.0599185 L5.87872481,24.0599185 Z" id="路径" fill="#9ADBFF"></path>
                        <path d="M19.0820466,22.0071165 C19.0820466,21.1768378 19.5821944,20.4283137 20.3492719,20.1105798 C21.1163494,19.7928459 21.9992938,19.9684745 22.5863895,20.5555702 C23.1734851,21.1426659 23.3491137,22.0256103 23.0313798,22.7926878 C22.7136459,23.5597652 21.9651218,24.059913 21.1348431,24.059913 C20.0011149,24.059913 19.0820466,23.1408447 19.0820466,22.0071165 L19.0820466,22.0071165 Z" id="路径" fill="#9ADBFF"></path>
                    </g>
                </g>
            </g>
        </g>
    </g>
</svg>