<?xml version="1.0" encoding="UTF-8"?>
<svg width="60px" height="60px" viewBox="0 0 60 60" version="1.1" xmlns="http://www.w3.org/2000/svg" xmlns:xlink="http://www.w3.org/1999/xlink">
    <title>编组 4</title>
    <defs>
        <linearGradient x1="50%" y1="0.729348776%" x2="50%" y2="100%" id="linearGradient-1">
            <stop stop-color="#FFD193" offset="0%"></stop>
            <stop stop-color="#FF8A71" offset="100%"></stop>
        </linearGradient>
        <filter x="-30.8%" y="-33.3%" width="161.5%" height="166.7%" filterUnits="objectBoundingBox" id="filter-2">
            <feOffset dx="0" dy="0" in="SourceAlpha" result="shadowOffsetOuter1"></feOffset>
            <feGaussianBlur stdDeviation="2" in="shadowOffsetOuter1" result="shadowBlurOuter1"></feGaussianBlur>
            <feColorMatrix values="0 0 0 0 0.882133152   0 0 0 0 0.574067728   0 0 0 0 0.472348013  0 0 0 1 0" type="matrix" in="shadowBlurOuter1" result="shadowMatrixOuter1"></feColorMatrix>
            <feMerge>
                <feMergeNode in="shadowMatrixOuter1"></feMergeNode>
                <feMergeNode in="SourceGraphic"></feMergeNode>
            </feMerge>
        </filter>
    </defs>
    <g id="页面-1" stroke="none" stroke-width="1" fill="none" fill-rule="evenodd">
        <g id="商家中心-我的服务-个人服务管理-发布服务" transform="translate(-27.000000, -132.000000)">
            <g id="编组-4" transform="translate(27.000000, 132.000000)">
                <path d="M21.8208955,5.82089552 L38.1791045,5.82089552 C47.0156605,5.82089552 54.1791045,12.9843395 54.1791045,21.8208955 L54.1791045,38.1791045 C54.1791045,47.0156605 47.0156605,54.1791045 38.1791045,54.1791045 L21.8208955,54.1791045 C12.9843395,54.1791045 5.82089552,47.0156605 5.82089552,38.1791045 L5.82089552,21.8208955 C5.82089552,12.9843395 12.9843395,5.82089552 21.8208955,5.82089552 Z" id="矩形" fill-opacity="0.146279502" fill="#FA9A1A" transform="translate(30.000000, 30.000000) rotate(-345.000000) translate(-30.000000, -30.000000) "></path>
                <rect id="矩形" fill="url(#linearGradient-1)" x="7.6119403" y="7.6119403" width="44.7761194" height="44.7761194" rx="16"></rect>
                <g id="形状-2" filter="url(#filter-2)" transform="translate(17.000000, 18.000000)" fill="#FFFFFF" fill-rule="nonzero">
                    <g id="baoji">
                        <path d="M20.6750849,14.676622 C20.6750849,14.676622 22.8276678,14.3765701 22.0333301,19.8680573 C21.606038,22.818406 25.5,21.3658783 25.5,21.3658449 C21.7729972,25.2126082 17.7850845,23.711614 17.7850845,23.711614 C17.0315447,23.4452983 16.4682822,23.0210237 16.0461831,22.5055945 C16.2948401,23.2299878 16.8554552,23.752398 16.8554552,23.752398 C15.0176569,22.6751663 14.9324834,19.7251686 14.9289097,19.3715499 L14.9287883,19.3367286 C14.7831444,17.461062 15.2343994,15.7354714 15.2343994,15.7354714 C15.2343994,15.7354714 15.6240841,14.6721461 16.7162603,14.7021079 L16.7162603,14.7021079 L16.8308474,14.7014732 C16.2973437,14.8507221 15.8061468,15.8928063 15.6979552,16.1359368 L15.681,16.173 L15.7597766,16.0103457 C16.352845,14.8281119 17.0603647,14.7085468 17.1234593,14.7001199 L17.1280071,14.6995693 L19.0643813,14.6871437 C19.5486276,14.6839705 19.9719825,15.4981489 19.9719825,15.4981489 C19.9719825,15.0872685 19.4579693,14.6846051 19.4573244,14.6846051 L19.4573244,14.6846051 L19.8503015,14.6820331 C19.8514395,14.6820331 20.7461986,15.1336389 20.9776758,15.9681507 L21.013,16.135 L21.0086759,16.0966672 C20.9600142,15.76619 20.8075228,15.1485735 20.3331098,14.7690982 L20.2076737,14.6794946 Z M14.4588654,11.7155846 L11.9785753,23.752398 L4.09239001,23.752398 L1.3461667,11.7155846 L14.4588654,11.7155846 Z M10.2531827,13.3728342 C9.71327204,13.3728342 9.27566164,13.8031881 9.27566164,14.3348173 C9.27566164,14.813905 9.63171012,15.207984 10.0965418,15.2822371 C10.0124342,16.3591905 9.10792172,17.2106791 7.99113783,17.2106791 C6.87367508,17.2106791 5.96797464,16.3579212 5.885089,15.2789637 C6.33502022,15.1920511 6.67301172,14.802782 6.67301172,14.3347839 C6.67301172,13.8031547 6.23601228,13.3728342 5.69542276,13.3728342 C5.15544418,13.3728342 4.71779984,13.8031547 4.71779984,14.3347839 C4.71779984,14.7941977 5.04537123,15.1770536 5.48172578,15.2729513 C5.56206581,16.5739332 6.64969378,17.6072634 7.99113783,17.6072634 C9.33648517,17.6072634 10.4267606,16.5681546 10.5018396,15.2627636 C10.9213931,15.1544737 11.2308396,14.7817721 11.2308396,14.3348173 C11.2308396,13.8031547 10.7938062,13.3728342 10.2531827,13.3728342 Z M5.69542276,13.7563582 C6.02041457,13.7563582 6.28322519,14.0153254 6.28322519,14.335118 C6.28322519,14.6546433 6.02041457,14.9139445 5.69542276,14.9139445 C5.37168678,14.9139445 5.10755243,14.6546767 5.10755243,14.335118 C5.10755243,14.0153254 5.37168678,13.7563582 5.69542276,13.7563582 Z M10.2531827,13.7566922 C10.5782764,13.7566922 10.841087,14.015626 10.841053,14.3354186 C10.841053,14.6543093 10.5782764,14.9133099 10.2531827,14.9133099 C9.92819091,14.9133099 9.66541423,14.6543093 9.66541423,14.3354186 C9.66541423,14.015626 9.92822485,13.7566922 10.2531827,13.7566922 Z M20.2821418,13.1651728 C20.4821602,13.1651728 20.6440282,13.4272798 20.6440282,13.7502456 C20.6440282,14.0733116 20.4821603,14.3354186 20.2821418,14.3354186 L16.763575,14.3354186 C16.5641335,14.3354186 16.4023334,14.0733116 16.4023334,13.7502456 C16.4023334,13.4272464 16.5641335,13.1651728 16.763575,13.1651728 L20.2821418,13.1651728 Z M18.3845969,0 C18.7288025,0 19.0131722,0.302170595 19.0581769,0.694331399 L19.0643813,0.803356094 L19.0643813,12.7643466 L17.7048464,12.7643466 L17.7048464,0.803356094 C17.7048464,0.359607981 18.0091337,0 18.3845969,0 Z M14.276293,9.70106503 C14.7197753,9.70106503 15.0796931,10.0552953 15.0796931,10.4916949 C15.0796931,10.9281613 14.7197753,11.2826922 14.2762929,11.2826922 L1.70611845,11.2826922 C1.26267007,11.2826922 0.902752255,10.9281613 0.902752255,10.4916949 C0.902752255,10.0552953 1.26270403,9.70106503 1.70611845,9.70106503 L14.276293,9.70106503 Z M7.98336516,4.45998394 C10.7226304,4.46510465 12.9387183,6.65515268 12.9335681,9.35097668 L12.9335681,9.35097668 L3.01317956,9.3312694 C3.01901753,6.6356792 5.24416778,4.45454956 7.98336516,4.45998394 Z M15.5322378,6.82396735 L15.7050351,7.42156596 L13.4735377,8.04715558 L13.2999938,7.44959039 L15.5322378,6.82396735 Z M0.715597703,6.50634593 L2.8973026,7.2852182 L2.68177277,7.86975654 L0.5,7.09091767 L0.715597703,6.50634593 Z M3.68451253,2.8436621 L5.02534562,4.70747094 L4.5093299,5.06681171 L3.16917564,3.20300286 L3.68451253,2.8436621 Z M12.1514744,2.70193661 L12.6745839,3.05105631 L11.3706794,4.94035101 L10.8482147,4.59119791 L12.1514744,2.70193661 Z M8.28962118,1.59562266 L8.28962118,3.878963 L7.65833941,3.878963 L7.65833941,1.59562266 L8.28962118,1.59562266 Z" id="形状结合"></path>
                    </g>
                </g>
            </g>
        </g>
    </g>
</svg>