<?xml version="1.0" encoding="UTF-8"?>
<svg width="52px" height="53px" viewBox="0 0 52 53" version="1.1" xmlns="http://www.w3.org/2000/svg" xmlns:xlink="http://www.w3.org/1999/xlink">
    <title>椭圆形</title>
    <g id="页面-1" stroke="none" stroke-width="1" fill="none" fill-rule="evenodd">
        <g id="商家中心-我的认证" transform="translate(-29.000000, -140.000000)">
            <g id="编组-4" transform="translate(15.000000, 132.000000)">
                <g id="编组-5" transform="translate(14.000000, 8.500000)">
                    <circle id="椭圆形" fill="#E7F6FF" cx="26" cy="26" r="26"></circle>
                    <g id="getihu" transform="translate(11.500000, 12.000000)" fill-rule="nonzero">
                        <path d="M28.3885737,8.57469674 L28.259291,8.29405882 L24.0875613,0.479291701 C23.948974,0.18829563 23.6562433,0.00212379258 23.3339382,0 L5.47086252,0 C5.14665707,0 4.85139234,0.186589634 4.711984,0.479291701 L0.708426764,7.92933465 L0.29430192,8.82905767 C-0.586865094,11.355228 0.570437042,14.1401863 2.9824436,15.2978633 C5.39445015,16.4555403 8.29119899,15.6163816 9.71091237,13.3486943 L9.88013597,13.3486943 C10.8337673,14.9153841 12.5351896,15.8715735 14.3692914,15.8715735 C16.2033932,15.8715735 17.9048155,14.9153841 18.8584468,13.3486943 L19.0507941,13.3486943 C20.4788041,15.7058986 23.4851997,16.5595453 25.9388786,15.3045217 C28.3925575,14.0494981 29.4599243,11.112177 28.3843694,8.57469674 L28.3885737,8.57469674 Z" id="形状" fill="#9ADBFF"></path>
                        <path d="M23.5441538,17.9734389 C21.7101103,17.9735007 20.008701,17.017429 19.0549984,15.4508509 L18.8626511,15.4508509 C17.9094778,17.0195058 16.2069363,17.9771867 14.3713935,17.9771867 C12.5358507,17.9771867 10.8333092,17.0195058 9.88013597,15.4508509 L9.71091237,15.4508509 C8.93271721,16.6947629 7.66993473,17.5567078 6.22799408,17.8282071 C4.78605344,18.0997064 3.29626863,17.7560352 2.11897385,16.8803174 C2.11578889,16.8779287 2.11152769,16.8775445 2.10796681,16.8793249 C2.10440592,16.8811054 2.10215659,16.8847449 2.10215659,16.8887261 L2.10215659,26.7467894 C2.10215659,26.9698 2.19074722,27.1836767 2.34843955,27.341369 C2.50613188,27.4990614 2.72000859,27.587652 2.94301922,27.587652 L25.8565261,27.587652 C26.3209217,27.587652 26.6973887,27.211185 26.6973887,26.7467894 L26.6973887,16.942331 C26.6973887,16.9383499 26.6951394,16.9347104 26.6915785,16.9329299 C26.6880176,16.9311495 26.6837564,16.9315337 26.6805714,16.9339224 C25.7749666,17.610379 24.6745125,17.9751073 23.5441538,17.9734389 L23.5441538,17.9734389 Z" id="路径" fill="#48BFFF"></path>
                    </g>
                </g>
            </g>
        </g>
    </g>
</svg>