<?xml version="1.0" encoding="UTF-8"?>
<svg width="52px" height="53px" viewBox="0 0 52 53" version="1.1" xmlns="http://www.w3.org/2000/svg" xmlns:xlink="http://www.w3.org/1999/xlink">
    <title>椭圆形</title>
    <g id="页面-1" stroke="none" stroke-width="1" fill="none" fill-rule="evenodd">
        <g id="商家中心-我的认证" transform="translate(-29.000000, -225.000000)">
            <g id="编组-4" transform="translate(15.000000, 132.000000)">
                <g id="编组-3备份" transform="translate(0.000000, 85.000000)">
                    <g id="编组-6" transform="translate(14.000000, 8.500000)">
                        <circle id="椭圆形" fill="#FFF7DD" cx="26" cy="26" r="26"></circle>
                        <g id="wodeqiye" transform="translate(11.500000, 10.000000)">
                            <path d="M27.60625,29.5375 L26.40625,29.5375 L14.40625,29.5375 L14.40625,1.809375 C14.40625,0.425 13.3625,-0.325 12.125,0.1375 L4.153125,3.09375 C3.18125,3.45625 2.40625,4.709375 2.40625,5.89375 L2.40625,29.5375 L1.20625,29.5375 C0.546875,29.5375 0.00625,30.090625 0.00625,30.76875 C0.00625,31.446875 0.546875,32 1.20625,32 L27.60625,32 C28.265625,32 28.80625,31.446875 28.80625,30.76875 C28.80625,30.090625 28.265625,29.5375 27.60625,29.5375 Z M10.80625,24.615625 L6.00625,24.615625 C5.346875,24.615625 4.80625,24.0625 4.80625,23.384375 C4.80625,22.70625 5.346875,22.153125 6.00625,22.153125 L10.80625,22.153125 C11.465625,22.153125 12.00625,22.70625 12.00625,23.384375 C12.00625,24.0625 11.465625,24.615625 10.80625,24.615625 L10.80625,24.615625 Z M10.80625,19.690625 L6.00625,19.690625 C5.346875,19.690625 4.80625,19.1375 4.80625,18.459375 C4.80625,17.78125 5.346875,17.228125 6.00625,17.228125 L10.80625,17.228125 C11.465625,17.228125 12.00625,17.78125 12.00625,18.459375 C12.00625,19.1375 11.465625,19.690625 10.80625,19.690625 L10.80625,19.690625 Z M10.80625,14.76875 L6.00625,14.76875 C5.346875,14.76875 4.80625,14.215625 4.80625,13.5375 C4.80625,12.859375 5.346875,12.30625 6.00625,12.30625 L10.80625,12.30625 C11.465625,12.30625 12.00625,12.859375 12.00625,13.5375 C12.00625,14.215625 11.465625,14.76875 10.80625,14.76875 L10.80625,14.76875 Z M10.80625,9.84375 L6.00625,9.84375 C5.346875,9.84375 4.80625,9.290625 4.80625,8.6125 C4.80625,7.934375 5.346875,7.38125 6.00625,7.38125 L10.80625,7.38125 C11.465625,7.38125 12.00625,7.934375 12.00625,8.6125 C12.00625,9.290625 11.465625,9.84375 10.80625,9.84375 Z" id="形状" fill="#F6B35F"></path>
                            <path d="M16.80625,8.740625 C16.80625,7.7 17.6375,7.1375 18.628125,7.484375 L18.628125,7.484375 L25.00625,9.703125 C25.784375,9.975 26.40625,10.915625 26.40625,11.803125 L26.40625,11.803125 L26.40625,29.5375 L16.80625,29.5375 Z M22.80625,22.153125 L20.40625,22.153125 C19.746875,22.153125 19.20625,22.70625 19.20625,23.384375 C19.20625,24.0625 19.746875,24.615625 20.40625,24.615625 L20.40625,24.615625 L22.80625,24.615625 C23.465625,24.615625 24.00625,24.0625 24.00625,23.384375 C24.00625,22.70625 23.465625,22.153125 22.80625,22.153125 L22.80625,22.153125 Z M22.80625,17.228125 L20.40625,17.228125 C19.746875,17.228125 19.20625,17.78125 19.20625,18.459375 C19.20625,19.1375 19.746875,19.690625 20.40625,19.690625 L20.40625,19.690625 L22.80625,19.690625 C23.465625,19.690625 24.00625,19.1375 24.00625,18.459375 C24.00625,17.78125 23.465625,17.228125 22.80625,17.228125 L22.80625,17.228125 Z M22.80625,12.30625 L20.40625,12.30625 C19.746875,12.30625 19.20625,12.859375 19.20625,13.5375 C19.20625,14.215625 19.746875,14.76875 20.40625,14.76875 L20.40625,14.76875 L22.80625,14.76875 C23.465625,14.76875 24.00625,14.215625 24.00625,13.5375 C24.00625,12.859375 23.465625,12.30625 22.80625,12.30625 L22.80625,12.30625 Z" id="形状结合" fill="#FAD1A4"></path>
                        </g>
                    </g>
                </g>
            </g>
        </g>
    </g>
</svg>