<?xml version="1.0" encoding="UTF-8"?>
<svg width="52px" height="53px" viewBox="0 0 52 53" version="1.1" xmlns="http://www.w3.org/2000/svg" xmlns:xlink="http://www.w3.org/1999/xlink">
    <title>椭圆形</title>
    <g id="页面-1" stroke="none" stroke-width="1" fill="none" fill-rule="evenodd">
        <g id="商家中心-我的认证" transform="translate(-29.000000, -362.000000)">
            <g id="编组-4备份" transform="translate(15.000000, 354.000000)">
                <g id="编组-7" transform="translate(14.000000, 8.500000)">
                    <circle id="椭圆形" fill="#F0FDF9" cx="26" cy="26" r="26"></circle>
                    <g id="zhengshu" transform="translate(12.000000, 12.000000)" fill-rule="nonzero">
                        <path d="M13.575,0.025 C7.90625,0.025 3.034375,5.18125 3.034375,10.86875 C3.034375,16.55625 7.90625,21.153125 13.575,21.153125 C19.24375,21.153125 24.1125,16.275 24.1125,10.5875 C24.1125,4.9 19.240625,0.025 13.575,0.025 Z M19.659375,10.128125 L17.815625,12.04375 C17.565625,12.29375 17.4375,12.659375 17.521875,13.021875 L17.521875,13.0625 L17.940625,15.6625 C17.98125,15.9125 17.940625,16.178125 17.815625,16.390625 C17.49375,16.9625 16.78125,17.1875 16.209375,16.865625 L14.0875,15.734375 C13.74375,15.54375 13.325,15.5625 13,15.775 L10.9375,16.878125 C10.7,17.003125 10.45,17.03125 10.184375,17.003125 C9.55,16.89375 9.115625,16.3 9.20625,15.6625 L9.6375,12.965625 C9.68125,12.65 9.578125,12.33125 9.359375,12.1 L7.503125,10.128125 C7.35,9.946875 7.225,9.709375 7.18125,9.471875 C7.084375,8.84375 7.54375,8.240625 8.171875,8.14375 L10.54375,7.765625 C10.921875,7.753125 11.25625,7.515625 11.409375,7.165625 L12.496875,4.846875 C12.69375,4.45625 13.1125,4.175 13.571875,4.175 C14.03125,4.175 14.4375,4.425 14.646875,4.846875 L15.721875,7.153125 C15.875,7.515625 16.209375,7.753125 16.615625,7.78125 L18.9875,8.14375 C19.225,8.184375 19.4625,8.296875 19.64375,8.465625 C20.09375,8.925 20.10625,9.68125 19.659375,10.128125 Z" id="形状" fill="#4CCCA0"></path>
                        <path d="M7.821875,27.971875 C7.821875,27.971875 6.259375,26.2125 4.778125,24.759375 C3.2,24.325 1.609375,23.921875 0.003125,23.54375 L3.25625,17.9125 C4.971875,20.146875 7.9875,22.078125 10.8375,22.775 L7.821875,27.971875 L7.821875,27.971875 Z" id="路径" fill="#96F1D2"></path>
                        <path d="M22.6625,24.478125 C21.184375,25.93125 19.340625,27.971875 19.340625,27.971875 L16.353125,22.775 C19.2,22.075 21.9375,20.1625 23.653125,17.9125 L27.171875,23.54375 C27.15625,23.55625 24.76875,23.89375 22.6625,24.478125 L22.6625,24.478125 Z" id="路径" fill="#96F1D2"></path>
                    </g>
                </g>
            </g>
        </g>
    </g>
</svg>