<?xml version="1.0" encoding="UTF-8"?>
<svg width="20px" height="20px" viewBox="0 0 20 20" version="1.1" xmlns="http://www.w3.org/2000/svg" xmlns:xlink="http://www.w3.org/1999/xlink">
    <title>矩形</title>
    <g id="页面-1" stroke="none" stroke-width="1" fill="none" fill-rule="evenodd">
        <g id="商家中心-我的服务-个人服务管理-发布服务-服务收费" transform="translate(-164.000000, -342.000000)">
            <g id="编组-7" transform="translate(15.000000, 79.000000)">
                <g id="编组-3" transform="translate(15.000000, 152.000000)">
                    <g id="编组" transform="translate(134.000000, 111.000000)">
                        <rect id="矩形" fill="#D8D8D8" opacity="0" x="0" y="0" width="20" height="20"></rect>
                        <g transform="translate(3.000000, 2.000000)" fill="#999999" fill-rule="nonzero" id="形状结合" stroke="#999999" stroke-width="0.2">
                            <path d="M6.95850354,9.18747245e-06 C8.59877252,-0.00399013218 9.94430848,1.29818728 9.99400131,2.93770827 L9.99400131,2.93770827 L13.0758881,2.93770827 C13.5044992,2.93770827 14.1176471,3.03855273 14.1176471,3.46413522 C14.1176471,3.89172692 13.7999856,4.04401298 13.3733985,4.04401298 L13.3733985,4.04401298 L12.9891672,4.04401298 L13.0093331,13.0285061 C13.0093331,14.3062434 12.5948456,15.1271521 10.9742283,15.1271521 L10.9742283,15.1271521 L3.02744617,15.1271521 C1.66196857,15.1271521 1.01654044,14.4252446 1.01654044,13.0285208 L1.01654044,13.0285208 L1.01654044,4.04500281 L0.740230183,4.04500281 C0.310614502,4.04500281 -4.52970994e-14,3.88970294 -4.52970994e-14,3.46513983 C-4.52970994e-14,3.03754813 0.313643087,2.93467969 0.740230183,2.93467969 L0.740230183,2.93467969 L3.91795321,2.93467969 C3.97398751,1.2964595 5.31932659,-0.00203032861 6.95850354,9.18747245e-06 Z M12.0059116,4.03393739 L1.94133695,4.03393739 L1.94133695,13.1071902 C1.94133695,13.9926298 2.38608078,14.0954983 3.02947015,14.0954983 L3.02947015,14.0954983 L11.0841733,14.0954983 C11.567225,14.0954983 12.0059116,13.9906059 12.0059116,13.1061855 L12.0059116,13.1061855 L12.0059116,4.03393739 Z M4.53816283,6.05490394 C4.81649706,6.05490394 5.04238509,6.24449328 5.04238509,6.68115596 L5.04238509,6.68115596 L5.04238509,11.1618348 C5.04238509,11.5995021 4.81447308,11.8112813 4.53816283,11.8112813 C4.25578064,11.8112813 4.0339258,11.5954689 4.0339258,11.1618348 L4.0339258,11.1618348 L4.0339258,6.68115596 C4.0339258,6.24449328 4.26183781,6.05490394 4.53816283,6.05490394 Z M6.86169227,6.05187535 C7.1400265,6.05187535 7.36591453,6.24551265 7.36591453,6.68217534 L7.36591453,6.68217534 L7.36591453,11.1608154 C7.36591453,11.5984827 7.13800252,11.7558213 6.8616775,11.7558213 L6.8616775,11.7558213 C6.58536725,11.7568259 6.35744047,11.5964735 6.35744047,11.1628394 L6.35744047,11.1628394 L6.35744047,6.68217534 C6.35744047,6.24551265 6.58536725,6.05187535 6.86169227,6.05187535 Z M9.3052275,6.05490394 C9.58356172,6.05490394 9.80944975,6.24551265 9.80944975,6.68217534 L9.80944975,6.68217534 L9.80944975,11.1608154 C9.80944975,11.5984975 9.58153774,11.745731 9.3052275,11.745731 L9.3052275,11.745731 C9.0208361,11.7467356 8.80097569,11.5964735 8.80097569,11.1628394 L8.80097569,11.1628394 L8.80097569,6.68219011 C8.80097569,6.24551265 9.02890248,6.05490394 9.3052275,6.05490394 Z M6.99883542,0.985305911 C5.96010506,0.985305911 5.05247545,1.88585897 4.98188729,3.01738218 L4.98188729,3.01738218 L9.01377434,3.01738218 C8.95426637,1.88788295 8.03555657,0.985305911 6.99883542,0.985305911 Z"></path>
                        </g>
                    </g>
                </g>
            </g>
        </g>
    </g>
</svg>