<?xml version="1.0" standalone="no"?><!DOCTYPE svg PUBLIC "-//W3C//DTD SVG 1.1//EN" "http://www.w3.org/Graphics/SVG/1.1/DTD/svg11.dtd"><svg t="1610013909574" class="icon" viewBox="0 0 1024 1024" version="1.1" xmlns="http://www.w3.org/2000/svg" p-id="10783" xmlns:xlink="http://www.w3.org/1999/xlink" width="128" height="128"><defs><style type="text/css"></style></defs><path d="M376.32 512.512c0 14.336 4.608 33.792 9.728 48.64 4.608 14.336 14.336 33.792 29.184 43.52 14.336 9.728 29.184 19.456 43.52 29.184 14.336 9.728 33.792 9.728 48.64 9.728 14.336 0 33.792-4.608 48.64-9.728 14.336-4.608 33.792-14.336 43.52-29.184 9.728-14.336 19.456-29.184 29.184-43.52 9.728-14.336 9.728-33.792 9.728-48.64 0-14.336-4.608-33.792-9.728-48.64-4.608-14.336-14.336-33.792-29.184-43.52s-29.184-19.456-43.52-29.184c-14.336-9.728-33.792-9.728-48.64-9.728-14.336 0-33.792 4.608-48.64 9.728-9.728 4.608-29.184 9.728-38.912 29.184-14.336 9.728-19.456 29.184-33.792 43.52-4.608 19.456-9.728 34.304-9.728 48.64z" p-id="10784" fill="#314268"></path><path d="M512.512 736.256c-126.464 0-218.624-101.888-218.624-218.624s97.28-218.624 218.624-218.624 218.624 101.888 218.624 218.624-96.768 218.624-218.624 218.624z m471.552-252.928s0-9.728-116.736-126.464c-165.376-145.92-315.904-165.376-428.032-150.528S250.368 284.16 240.64 288.768C186.88 317.952 104.448 395.776 84.992 424.96c-29.184 29.184-44.032 38.912-53.76 53.76-19.456 43.52 4.608 87.552 4.608 87.552l77.824 77.824s165.376 184.832 384 184.832 315.904-92.16 364.544-131.072c43.52-33.792 97.28-97.28 126.464-136.192 19.968-44.032-4.608-78.336-4.608-78.336z" p-id="10785" fill="#314268"></path></svg>