<?xml version="1.0" encoding="UTF-8"?>
<svg width="60px" height="60px" viewBox="0 0 60 60" version="1.1" xmlns="http://www.w3.org/2000/svg" xmlns:xlink="http://www.w3.org/1999/xlink">
    <title>编组 4</title>
    <defs>
        <linearGradient x1="50%" y1="0%" x2="50%" y2="99.6339598%" id="linearGradient-1">
            <stop stop-color="#9AC7FD" offset="0%"></stop>
            <stop stop-color="#AE9CFF" offset="100%"></stop>
        </linearGradient>
        <filter x="-36.4%" y="-36.4%" width="172.7%" height="172.7%" filterUnits="objectBoundingBox" id="filter-2">
            <feOffset dx="0" dy="0" in="SourceAlpha" result="shadowOffsetOuter1"></feOffset>
            <feGaussianBlur stdDeviation="2" in="shadowOffsetOuter1" result="shadowBlurOuter1"></feGaussianBlur>
            <feColorMatrix values="0 0 0 0 0.584447903   0 0 0 0 0.535730675   0 0 0 0 0.869791667  0 0 0 1 0" type="matrix" in="shadowBlurOuter1" result="shadowMatrixOuter1"></feColorMatrix>
            <feMerge>
                <feMergeNode in="shadowMatrixOuter1"></feMergeNode>
                <feMergeNode in="SourceGraphic"></feMergeNode>
            </feMerge>
        </filter>
    </defs>
    <g id="页面-1" stroke="none" stroke-width="1" fill="none" fill-rule="evenodd">
        <g id="商家中心-我的服务-个人服务管理-发布服务" transform="translate(-114.000000, -132.000000)">
            <g id="编组-14" transform="translate(27.000000, 132.000000)">
                <g id="编组-4" transform="translate(87.000000, 0.000000)">
                    <rect id="矩形" fill-opacity="0.15" fill="#A7A0FD" transform="translate(30.000000, 30.000000) rotate(-345.000000) translate(-30.000000, -30.000000) " x="5.82089552" y="5.82089552" width="48.358209" height="48.358209" rx="16"></rect>
                    <rect id="矩形" fill="url(#linearGradient-1)" x="7.6119403" y="7.6119403" width="44.7761194" height="44.7761194" rx="16"></rect>
                    <g id="编组-6" filter="url(#filter-2)" transform="translate(19.000000, 19.000000)" fill="#FFFFFF" fill-rule="nonzero">
                        <g id="jiadianweixiu">
                            <path d="M1.57224793,8.08285891 L1.5722479,17.2901584 L2.54838916,17.2901584 L2.54838916,8.08285891 L6.79776283,8.08285891 L6.79776283,21.426969 L0.82960277,21.426969 C0.380371613,21.426969 0.0128258051,21.0594232 0.0128258051,20.6101921 L0.0128258051,20.6101921 L0.0128258051,8.8996359 C0.0128258051,8.45037923 0.380371613,8.08285891 0.82960277,8.08285891 L0.82960277,8.08285891 L1.57224793,8.08285891 Z M21.9158308,8.04435122 L21.9158308,20.5243217 C21.9158308,20.9735528 21.5482594,21.3410986 21.0990538,21.3410986 L21.0990538,21.3410986 L8.45663131,21.3410986 C8.00740015,21.3410986 7.63985435,20.9735528 7.63985435,20.5243217 L7.63985435,20.5243217 L7.63985435,8.04435122 L21.9158308,8.04435122 Z M14.7778426,10.085694 C12.3808712,10.085694 10.4377244,12.0288153 10.4377244,14.4258121 C10.4377244,16.8227834 12.3808712,18.7659302 14.7778426,18.7659302 C17.1748394,18.7659302 19.1179607,16.8227834 19.1179607,14.4258121 C19.1179607,12.0288152 17.1748394,10.085694 14.7778426,10.085694 Z M14.7778426,11.3772718 C16.4615049,11.3772718 17.8263828,12.7421498 17.8263828,14.4258121 C17.8263828,16.1094744 16.4615049,17.4743524 14.7778426,17.4743524 C13.0941803,17.4743524 11.7293023,16.1094744 11.7293023,14.4258121 C11.7293023,12.7421498 13.0941803,11.3772718 14.7778426,11.3772718 Z M21.0990793,3.50904056 C21.5137307,3.50904056 21.8588021,3.82221569 21.9094364,4.22370888 L21.9158308,4.32579202 L21.9158308,7.16821774 L7.63985435,7.16821774 L7.63985435,4.32581753 C7.63985435,3.91114261 7.95302947,3.56606942 8.35454273,3.51543493 L8.45663131,3.50904056 L21.0990793,3.50904056 Z M9.26988673,0.0107332496 C9.68456164,0.0107332496 10.0296348,0.323908397 10.0802693,0.72542166 L10.0866637,0.827510239 L10.0866637,2.65944657 L7.60703729,2.65944657 C7.19236238,2.65944657 6.84728918,2.9726217 6.7966547,3.37413496 L6.79026033,3.47622354 L6.79026033,7.13800359 L2.54838918,7.13800359 L2.54838918,5.01035659 L1.57224793,5.01035659 L1.57224793,7.13800359 L0.82960277,7.13800359 C0.414927856,7.13800359 0.0698546592,6.82482847 0.0192201729,6.42331521 L0.0128258051,6.32122663 L0.0128258051,0.827510215 C0.0128258051,0.4128353 0.326000931,0.0677621037 0.727514191,0.0171276174 L0.82960277,0.0107332496 L9.26988673,0.0107332496 Z M19.0330089,4.20661969 C18.4078263,4.20661969 17.9009995,4.71344655 17.9009995,5.33862915 C17.9009995,5.96381175 18.4078008,6.47063861 19.0330089,6.47063861 C19.6581915,6.47063861 20.1650184,5.96381175 20.1650184,5.33862915 C20.1650184,4.71344655 19.6581915,4.20661969 19.0330089,4.20661969 Z M9.95179738,5.0942111 C9.66323195,5.0942111 9.42930204,5.32814101 9.42930204,5.61670644 C9.42930204,5.90527187 9.66323195,6.13920178 9.95179738,6.13920178 C10.2403628,6.13920178 10.4742927,5.90527187 10.4742927,5.61670644 C10.4742927,5.32814101 10.2403628,5.0942111 9.95179738,5.0942111 Z M11.6112273,5.0942111 C11.3226619,5.0942111 11.0887319,5.32814101 11.0887319,5.61670644 C11.0887319,5.90527187 11.3226619,6.13920178 11.6112273,6.13920178 C11.8997927,6.13920178 12.1337226,5.90527187 12.1337226,5.61670644 C12.1337226,5.32814101 11.8997927,5.0942111 11.6112273,5.0942111 Z M13.2706827,5.0942111 C12.9821173,5.0942111 12.7481874,5.32814101 12.7481874,5.61670644 C12.7481874,5.90527187 12.9821173,6.13920178 13.2706827,6.13920178 C13.5592482,6.13920178 13.7931781,5.90527187 13.7931781,5.61670644 C13.7931781,5.32814101 13.5592481,5.0942111 13.2706827,5.0942111 Z M14.9301126,5.0942111 C14.6415472,5.0942111 14.4076173,5.32814101 14.4076173,5.61670644 C14.4076173,5.90527187 14.6415472,6.13920178 14.9301126,6.13920178 C15.2186781,6.13920178 15.452608,5.90527187 15.452608,5.61670644 C15.452608,5.32814101 15.2186781,5.0942111 14.9301126,5.0942111 Z" id="形状结合"></path>
                        </g>
                    </g>
                </g>
            </g>
        </g>
    </g>
</svg>