<?xml version="1.0" encoding="UTF-8"?>
<svg width="52px" height="52px" viewBox="0 0 52 52" version="1.1" xmlns="http://www.w3.org/2000/svg" xmlns:xlink="http://www.w3.org/1999/xlink">
    <title>椭圆形</title>
    <g id="页面-1" stroke="none" stroke-width="1" fill="none" fill-rule="evenodd">
        <g id="智享生活-便民服务" transform="translate(-30.000000, -259.000000)">
            <g id="编组-4" transform="translate(15.000000, 80.000000)">
                <g id="编组-3备份-2" transform="translate(0.000000, 170.000000)">
                    <g id="编组-7" transform="translate(15.000000, 9.000000)">
                        <circle id="椭圆形" fill="#FFF7DD" cx="26" cy="26" r="26"></circle>
                        <g id="banjiapeisong" transform="translate(11.000000, 16.000000)">
                            <path d="M29.1792335,9.21589003 L26.5971567,5.78169703 C26.0689505,5.14691858 25.7124185,4.62947979 24.8635005,4.62947979 L19.6628871,4.62947979 C19.0265095,4.62947979 18.5073295,5.14695412 18.5073295,5.78169703 L18.5073295,17.3039049 C18.5073295,17.9361959 19.023027,18.450472 19.6561708,18.4550916 C19.940636,16.4701252 21.640462,14.9342976 23.7079784,14.9342976 C25.7766319,14.9342976 27.4763513,16.4711913 27.7596083,18.4560866 L28.9085562,18.4560866 C29.5452181,18.4560866 30.0641849,17.9385057 30.0641849,17.303976 L30.0641849,11.5426411 C30.0641849,10.4512969 29.1792335,9.21589003 29.1792335,9.21589003 L29.1792335,9.21589003 Z M21.9742155,11.5426411 L21.9742155,6.93387873 L24.8014903,6.93387873 C24.9878762,6.93387873 25.2462225,7.20608401 25.2462225,7.20608401 L27.6795458,10.5638392 C27.8951068,10.8801091 28.1287556,11.2545512 28.1287556,11.54257 L21.9742155,11.5426411 Z M16.1959655,0.0205042359 L1.17222397,0.0205042359 C0.53559765,0.0205042359 0.0164531391,0.538120702 0.0164531391,1.1726504 L0.0164531391,17.3038694 C0.0164531391,17.9383991 0.53559765,18.45598 1.17222397,18.45598 L3.47665845,18.45598 C3.76009308,16.4711202 5.45967037,14.934191 7.52825282,14.934191 C9.5970485,14.934191 11.2967679,16.4711202 11.5800604,18.45598 L16.196001,18.45598 C16.8325918,18.45598 17.3518429,17.9384346 17.3518429,17.3038694 L17.3518429,1.1726504 C17.3515586,0.538120702 16.8325207,0.0205042359 16.1959655,0.0205042359 L16.1959655,0.0205042359 Z" id="形状" fill="#F6B35F"></path>
                            <path d="M10.2009107,19.0323019 C10.2009107,20.503845 9.00462888,21.6967509 7.52825282,21.6967509 C6.05216105,21.6967509 4.85580818,20.5041649 4.85580818,19.0323019 C4.85580818,17.5604389 6.05219659,16.3678173 7.52825282,16.3678173 C9.00462888,16.3678173 10.2009107,17.5604389 10.2009107,19.0323019 Z" id="路径" fill="#FAD1A4"></path>
                            <path d="M26.3805296,19.0323019 C26.3805296,20.503845 25.1842123,21.6967509 23.7080139,21.6967509 C22.2317089,21.6967509 21.0355693,20.5041649 21.0355693,19.0323019 C21.0355693,17.5604389 22.2317089,16.3678173 23.7080139,16.3678173 C25.1842123,16.3678173 26.3805296,17.5604389 26.3805296,19.0323019 Z" id="路径" fill="#FAD1A4"></path>
                        </g>
                    </g>
                </g>
            </g>
        </g>
    </g>
</svg>