<?xml version="1.0" standalone="no"?><!DOCTYPE svg PUBLIC "-//W3C//DTD SVG 1.1//EN" "http://www.w3.org/Graphics/SVG/1.1/DTD/svg11.dtd"><svg t="1608878208252" class="icon" viewBox="0 0 1024 1024" version="1.1" xmlns="http://www.w3.org/2000/svg" p-id="7158" xmlns:xlink="http://www.w3.org/1999/xlink" width="48" height="48"><defs><style type="text/css"></style></defs><path d="M512 0c283.733333 0 512 228.266667 512 512S795.733333 1024 512 1024 0 795.733333 0 512 228.266667 0 512 0z m194.133333 256c-27.733333 0-68.266667 4.266667-104.533333 21.333333-29.866667 12.8-55.466667 44.8-76.8 93.866667-4.266667 8.533333-6.4 14.933333-8.533333 23.466667-4.266667-14.933333-10.666667-27.733333-17.066667-40.533334-12.8-23.466667-29.866667-42.666667-51.2-55.466666-51.2-34.133333-100.266667-40.533333-132.266667-40.533334-23.466667 0-38.4 4.266667-38.4 4.266667l-10.666666 2.133333v10.666667c0 2.133333-2.133333 29.866667 4.266666 64 4.266667 21.333333 10.666667 40.533333 17.066667 57.6 10.666667 21.333333 23.466667 40.533333 40.533333 55.466667 23.466667 21.333333 49.066667 36.266667 76.8 44.8 21.333333 6.4 42.666667 10.666667 64 10.666666 12.8 0 25.6-2.133333 34.133334-2.133333v38.4h-142.933334v177.066667c0 27.733333 21.333333 49.066667 49.066667 49.066666h226.133333c27.733333 0 49.066667-21.333333 49.066667-49.066666v-177.066667H533.333333v-83.2c19.2 2.133333 38.4 4.266667 55.466667 4.266667 57.6 0 100.266667-17.066667 130.133333-51.2 49.066667-57.6 40.533333-138.666667 40.533334-142.933334l-2.133334-10.666666-10.666666-2.133334c-2.133333 0-17.066667-2.133333-40.533334-2.133333z" fill="#dedede" p-id="7159"></path></svg>