<?xml version="1.0" standalone="no"?><!DOCTYPE svg PUBLIC "-//W3C//DTD SVG 1.1//EN" "http://www.w3.org/Graphics/SVG/1.1/DTD/svg11.dtd"><svg t="1608887195850" class="icon" viewBox="0 0 1024 1024" version="1.1" xmlns="http://www.w3.org/2000/svg" p-id="7981" xmlns:xlink="http://www.w3.org/1999/xlink" width="48" height="48"><defs><style type="text/css"></style></defs><path d="M62 285.313c1.125-21.656 1.8-43.312 3.432-64.854 2.08-26.944 24.525-48.6 51.525-50.344 23.906-1.575 47.98-1.913 71.775-4.5 95.118-10.24 183.037-41.513 263.756-92.927 16.368-10.406 33.3-13.781 51.75-7.593 4.893 1.687 9.674 4.218 14.006 7.03 71.943 45.902 150.075 75.715 234.168 89.552 31.782 5.288 63.9 7.707 96.131 8.157 34.032 0.506 56.25 22.837 58.613 56.98 3.206 45.282 2.756 90.449-1.519 135.563-14.906 156.598-66.881 298.517-168.58 420.242-62.213 74.531-137.926 131.625-226.463 171.619-16.819 7.593-33.469 7.2-50.344-0.563-80.1-36.281-149.737-87.019-208.856-152.044-76.894-84.712-128.362-183.43-158.85-293.343-20.194-72.9-29.7-147.375-30.544-222.974z m59.232-58.554c-0.563 10.687-1.463 21.15-1.744 31.725-1.463 52.367 1.687 104.455 10.237 156.205 13.613 82.518 39.488 160.93 80.775 234C274.006 761.13 362.938 846.519 480.67 901.08c3.656 1.632 6.581 1.688 10.35 0.057 106.762-49.22 190.968-124.425 253.18-223.819 83.42-133.256 114.3-279.899 107.438-435.656-0.225-5.004-0.9-9.954-1.294-15.073-2.025-0.113-3.543-0.281-5.062-0.338-35.55-0.562-70.931-3.487-105.919-9.45-89.268-15.301-172.237-46.968-248.68-95.568-3.32-2.138-5.682-2.307-9.338-0.113-14.063 8.606-28.238 17.269-42.863 25.088-84.487 45.225-174.543 71.38-270.112 78.13-15.356 1.013-30.769 1.632-47.137 2.42z m308.587 355.104c2.081-2.419 3.375-4.219 4.837-5.738 66.038-66.093 132.131-132.13 198.113-198.224 7.312-7.312 15.468-11.7 25.987-10.237 10.969 1.631 18.675 7.706 22.613 18 3.937 10.406 1.856 19.912-5.12 28.406-1.462 1.744-3.205 3.431-4.893 5.063-72.787 72.73-145.631 145.687-218.418 218.417-15.975 15.919-30.994 15.919-47.082-0.168a48798.814 48798.814 0 0 1-108-107.832c-11.756-11.812-12.6-28.518-2.306-39.937 10.969-12.094 29.194-12.6 41.175-0.844 17.269 16.988 34.313 34.144 51.356 51.244 13.67 13.612 27.225 27.281 41.738 41.85z" p-id="7982" fill="#55E5B2"></path></svg>