<?xml version="1.0" encoding="UTF-8"?>
<svg width="52px" height="52px" viewBox="0 0 52 52" version="1.1" xmlns="http://www.w3.org/2000/svg" xmlns:xlink="http://www.w3.org/1999/xlink">
    <title>椭圆形</title>
    <defs>
        <linearGradient x1="7.04688493%" y1="0%" x2="100%" y2="100%" id="linearGradient-1">
            <stop stop-color="#FECE72" offset="0%"></stop>
            <stop stop-color="#F5A716" offset="100%"></stop>
        </linearGradient>
    </defs>
    <g id="页面-1" stroke="none" stroke-width="1" fill="none" fill-rule="evenodd">
        <g id="智享生活-交通服务" transform="translate(-30.000000, -429.000000)">
            <g id="编组-3备份-4" transform="translate(15.000000, 420.000000)">
                <g id="编组-5" transform="translate(15.000000, 9.000000)">
                    <circle id="椭圆形" fill="#FFF7DD" cx="26" cy="26" r="26"></circle>
                    <g id="weizhangchaxun" transform="translate(11.000000, 11.000000)" fill-rule="nonzero">
                        <path d="M27.7180055,29.2144827 L24.033784,25.5302347 C23.775225,25.2717021 23.775225,24.8192437 24.033784,24.5607111 L24.2276834,24.3668117 C24.486216,24.1082526 24.9386745,24.1082526 25.197207,24.3668117 L28.881455,28.0510331 C29.1399875,28.3095657 29.1399875,28.7620242 28.881455,29.0205567 L28.6875556,29.2144827 C28.3643634,29.4730152 27.976538,29.4730152 27.7180055,29.2144827 Z" id="路径" fill="#FFD689"></path>
                        <path d="M14.375,28.75 C12.444046,28.75 10.5130628,28.3924272 8.79665274,27.6057083 C5.34339135,26.1536417 2.59634485,23.4066085 1.14426358,19.9533562 C0.357573201,18.1654334 0,16.3059666 0,14.3750147 C0,12.4440627 0.357573201,10.513052 1.14429291,8.79664376 C2.59636033,5.34340246 5.34338415,2.59637092 8.7966234,1.14429174 C10.5845481,0.357572836 12.4440167,0 14.3749707,0 C16.3059246,0 18.2369079,0.357572836 19.9533473,1.14429174 C23.4065976,2.59636461 26.1536327,5.34339696 27.6057071,8.79664376 C28.3923975,10.5845666 28.75,12.4440334 28.75,14.3750147 C28.75,16.305996 28.3923975,18.236948 27.6057071,19.9533562 C26.1536397,23.4065975 23.4066159,26.1536291 19.9533766,27.6057083 C18.2369372,28.3924272 16.3059833,28.75 14.375,28.75 Z M14.375,1.64492304 C7.36630127,1.64492304 1.57338075,7.36629375 1.57338075,14.3749853 C1.57338075,21.3836769 7.29478663,27.105077 14.3034854,27.105077 C21.3121841,27.105077 27.1051046,21.3837062 27.1051046,14.3750147 C27.1051046,7.36632308 21.3836987,1.64492304 14.3750293,1.64492304 L14.375,1.64492304 Z" id="形状" fill="#FFD689"></path>
                        <path d="M14.375,2.93221459 C8.081477,2.93221459 2.93221758,8.08146876 2.93221758,14.3750147 C2.93221758,20.6685606 8.081477,25.8177854 14.375,25.8177854 C20.668523,25.8177854 25.8177824,20.6685312 25.8177824,14.3750147 C25.8177824,8.08149809 20.668523,2.93221459 14.375,2.93221459 Z M11.0852092,14.5895584 L15.1616904,14.5895584 L15.1616904,12.9446647 L11.5858117,12.9446647 L11.5858117,11.8003729 L15.1616904,11.8003729 L15.1616904,10.1554792 L11.1567239,10.1554792 L11.1567239,9.01118746 L15.1616904,9.01118746 L15.1616904,6.50811895 L16.6635565,6.72266265 L16.4490126,7.22326462 L16.4490126,9.01118746 L21.7413013,9.01118746 L21.7413013,10.1554792 L16.4489832,10.1554792 L16.4489832,11.8003729 L20.8115816,11.8003729 L20.8115816,12.9446647 L16.4490126,12.9446647 L16.4490126,14.5895584 L21.1691548,14.5895584 L20.9546109,17.8793458 C20.8830963,18.5945208 20.3824644,19.0236375 19.5242594,19.1666667 C19.0951422,19.2381812 18.6660544,19.3096958 18.3084519,19.3096958 C18.2369372,19.0951521 18.2369372,18.8806084 18.1654226,18.7375499 C18.0223933,18.3084625 17.8078494,18.0224043 17.5932761,17.8793458 L19.0236276,17.8793458 C19.1666569,17.8793458 19.2382009,17.8078312 19.3097155,17.8078312 C19.5242594,17.6648021 19.5957741,17.521773 19.6672887,17.3071999 L19.7388033,15.8053353 L16.4490126,15.8053353 L16.4490126,20.0963854 L15.0901757,20.0963854 L15.0901757,15.8053353 L11.0136946,15.8053353 L11.0136946,14.5895584 L11.0852092,14.5895584 Z M8.7966234,7.29477918 C9.01119666,7.65235202 9.15422594,7.93843962 9.22576991,8.15298332 C9.58334311,8.79664376 9.94091631,9.36878963 10.3700335,9.9409355 L9.01119666,10.6560812 C8.86816738,10.2985083 8.7251381,10.0124501 8.58207948,9.79787703 C8.22450628,9.08273136 7.86693308,8.51058549 7.43778657,7.93843962 L8.79665274,7.29477918 L8.7966234,7.29477918 Z M22.0988745,21.2406771 C21.8843305,21.5267354 21.6697866,21.8127937 21.598272,22.0988813 L13.5167657,22.0988813 C12.8731046,22.0273667 12.3724727,21.8843376 12.0148995,21.7413084 C10.9421506,21.3837062 10.1554602,20.7400458 9.58331378,19.9533562 C9.29722588,20.1678999 9.01116732,20.382473 8.79659407,20.5970167 C8.22447695,21.0976186 7.72387447,21.6697645 7.29472796,22.2419104 L6.29349367,20.8830749 C6.65106687,20.6685312 6.93715476,20.4539875 7.15169868,20.3109291 C7.79535977,19.8103271 8.36750623,19.3812104 8.7966234,18.8806084 L8.7966234,14.0889271 L6.43658161,14.0889271 L6.43658161,12.8731501 L10.0839456,12.8731501 L10.0839456,18.8806084 C10.3700335,19.2381812 10.5845774,19.5242395 10.7991213,19.7388125 C11.4427824,20.3109291 12.1579582,20.6685312 12.9446485,20.8115604 L22.3134184,20.8115604 C22.2419331,21.0261041 22.1703891,21.1691332 22.0988745,21.2406771 L22.0988745,21.2406771 Z" id="形状" fill="url(#linearGradient-1)"></path>
                    </g>
                </g>
            </g>
        </g>
    </g>
</svg>