<?xml version="1.0" encoding="UTF-8"?>
<svg width="29px" height="28px" viewBox="0 0 29 28" version="1.1" xmlns="http://www.w3.org/2000/svg" xmlns:xlink="http://www.w3.org/1999/xlink">
    <title>形状结合</title>
    <defs>
        <linearGradient x1="11.5860924%" y1="0%" x2="89.9252621%" y2="100%" id="linearGradient-1">
            <stop stop-color="#8E9EED" offset="0%"></stop>
            <stop stop-color="#5068E4" offset="100%"></stop>
        </linearGradient>
    </defs>
    <g id="页面-1" stroke="none" stroke-width="1" fill="none" fill-rule="evenodd">
        <g id="智享生活" transform="translate(-225.000000, -322.000000)" fill-rule="nonzero">
            <g id="图标" transform="translate(31.500000, 322.000000)">
                <g id="weizhangchaxun" transform="translate(194.000000, 0.000000)">
                    <path d="M24.1744044,25.3715861 L21.2270272,22.4241878 C21.02018,22.2173617 21.02018,21.8553949 21.2270272,21.6485689 L21.3821467,21.4934494 C21.5889728,21.2866021 21.9509396,21.2866021 22.1577656,21.4934494 L25.105164,24.4408265 C25.31199,24.6476526 25.31199,25.0096193 25.105164,25.2164454 L24.9500444,25.3715861 C24.6914907,25.5784122 24.3812304,25.5784122 24.1744044,25.3715861 Z" id="路径" fill="#B2BDF3"></path>
                    <path d="M13.4999765,2 C15.0447397,2 16.5895263,2.28605827 17.9626778,2.91543339 C20.7252781,4.07709169 22.9229062,6.27471757 24.0845657,9.03731501 C24.713918,10.4676533 25,11.9552267 25,13.5000117 C25,15.0447968 24.713918,16.5895584 24.0845657,17.962685 C22.9229117,20.725278 20.7252927,22.9229033 17.9627013,24.0845666 C16.5895498,24.7139417 15.0447866,25 13.5,25 C11.9552368,25 10.4104502,24.7139417 9.03732219,24.0845666 C6.27471308,22.9229134 4.07707588,20.7252868 2.91541086,17.962685 C2.28605856,16.5323467 2,15.0447733 2,13.5000117 C2,11.9552501 2.28605856,10.4104416 2.91543433,9.03731501 C4.07708827,6.27472197 6.27470732,4.07709674 9.03729872,2.91543339 C10.4676385,2.28605827 11.9552134,2 13.4999765,2 Z M13.5000235,3.31593844 L13.5,3.31593844 C7.89304101,3.31593844 3.2587046,7.893035 3.2587046,13.4999883 C3.2587046,19.1069415 7.8358293,23.6840616 13.4427883,23.6840616 C19.0497473,23.6840616 23.6840837,19.106965 23.6840837,13.5000117 C23.6840837,7.89305847 19.106959,3.31593844 13.5000235,3.31593844 Z M13.5,4.34577167 C18.5348184,4.34577167 22.6542259,8.46519847 22.6542259,13.5000117 C22.6542259,18.534825 18.5348184,22.6542283 13.5,22.6542283 C8.4651816,22.6542283 4.34577406,18.5348485 4.34577406,13.5000117 C4.34577406,8.465175 8.4651816,4.34577167 13.5,4.34577167 Z M10.0671565,12.2985201 L7.14926529,12.2985201 L7.14926529,13.2711417 L9.03729872,13.2711417 L9.03729872,17.1044867 C8.69400498,17.5049683 8.23628782,17.8482617 7.72135894,18.2487433 C7.54972381,18.36319 7.32085349,18.534825 7.03479493,18.70646 L7.03479493,18.70646 L7.83578237,19.7935283 C8.17909957,19.3358116 8.57958156,18.8780949 9.03727526,18.4776133 C9.20893386,18.3059784 9.43778071,18.13432 9.66665102,17.962685 C10.1243682,18.5920366 10.7537205,19.106965 11.6119196,19.3930467 C11.8979782,19.50747 12.2984836,19.6218933 12.8134125,19.679105 L12.8134125,19.679105 L19.2786176,19.679105 C19.3358293,19.4502349 19.5074644,19.2213883 19.6790996,18.9925417 C19.7363113,18.9353066 19.7935465,18.8208833 19.8507347,18.6492483 L19.8507347,18.6492483 L12.3557188,18.6492483 C11.7263665,18.534825 11.1542259,18.2487433 10.6392971,17.79105 C10.4676619,17.6193916 10.2960268,17.390545 10.0671565,17.1044867 L10.0671565,17.1044867 L10.0671565,12.2985201 Z M14.1293523,7.20649516 L14.1293523,9.20894997 L10.9253791,9.20894997 L10.9253791,10.1243834 L14.1293523,10.1243834 L14.1293523,11.4402983 L11.2686494,11.4402983 L11.2686494,12.3557317 L14.1293523,12.3557317 L14.1293523,13.6716467 L10.8109557,13.6716467 L10.8109557,14.6442683 L14.0721406,14.6442683 L14.0721406,18.0771083 L15.1592101,18.0771083 L15.1592101,14.6442683 L17.7910427,14.6442683 L17.733831,15.8457599 C17.6766193,16.0174184 17.6194075,16.1318417 17.4477724,16.246265 C17.3905607,16.246265 17.3333255,16.3034766 17.2189021,16.3034766 L17.2189021,16.3034766 L16.0746209,16.3034766 C16.2462795,16.4179234 16.4179147,16.64677 16.5323381,16.9900399 C16.5895498,17.1044867 16.5895498,17.2761217 16.6467615,17.4477566 C16.9328435,17.4477566 17.2761138,17.390545 17.6194075,17.3333333 C18.3059716,17.21891 18.706477,16.8756166 18.7636887,16.3034766 L18.7636887,16.3034766 L18.9353239,13.6716467 L15.1592101,13.6716467 L15.1592101,12.3557317 L18.6492653,12.3557317 L18.6492653,11.4402983 L15.1591866,11.4402983 L15.1591866,10.1243834 L19.393041,10.1243834 L19.393041,9.20894997 L15.1592101,9.20894997 L15.1592101,7.77861169 L15.3308452,7.37813012 L14.1293523,7.20649516 Z M9.03732219,7.83582335 L7.95022926,8.3507517 C8.29354647,8.80846839 8.57960503,9.26618509 8.86566359,9.83830163 C8.98011048,10.0099601 9.0945339,10.2388067 9.20895733,10.5248649 L9.20895733,10.5248649 L10.2960268,9.9527484 C9.95273305,9.49503171 9.66667449,9.03731501 9.38061593,8.52238666 C9.32338075,8.3507517 9.20895733,8.12188162 9.03729872,7.83582335 L9.03732219,7.83582335 Z" id="形状结合" fill="url(#linearGradient-1)"></path>
                </g>
            </g>
        </g>
    </g>
</svg>