<?xml version="1.0" encoding="UTF-8"?>
<svg width="60px" height="60px" viewBox="0 0 60 60" version="1.1" xmlns="http://www.w3.org/2000/svg" xmlns:xlink="http://www.w3.org/1999/xlink">
    <title>编组 4</title>
    <defs>
        <linearGradient x1="50%" y1="0%" x2="50%" y2="100%" id="linearGradient-1">
            <stop stop-color="#A4CCFF" offset="0%"></stop>
            <stop stop-color="#7893FE" offset="100%"></stop>
        </linearGradient>
        <filter x="-36.4%" y="-34.8%" width="172.7%" height="169.6%" filterUnits="objectBoundingBox" id="filter-2">
            <feOffset dx="0" dy="0" in="SourceAlpha" result="shadowOffsetOuter1"></feOffset>
            <feGaussianBlur stdDeviation="2" in="shadowOffsetOuter1" result="shadowBlurOuter1"></feGaussianBlur>
            <feColorMatrix values="0 0 0 0 0.394081555   0 0 0 0 0.512300084   0 0 0 0 0.919950181  0 0 0 1 0" type="matrix" in="shadowBlurOuter1" result="shadowMatrixOuter1"></feColorMatrix>
            <feMerge>
                <feMergeNode in="shadowMatrixOuter1"></feMergeNode>
                <feMergeNode in="SourceGraphic"></feMergeNode>
            </feMerge>
        </filter>
    </defs>
    <g id="页面-1" stroke="none" stroke-width="1" fill="none" fill-rule="evenodd">
        <g id="商家中心-我的服务-个人服务管理-发布服务" transform="translate(-288.000000, -132.000000)">
            <g id="编组-14" transform="translate(27.000000, 132.000000)">
                <g id="编组-4" transform="translate(261.000000, 0.000000)">
                    <path d="M21.8208955,5.82089552 L38.1791045,5.82089552 C47.0156605,5.82089552 54.1791045,12.9843395 54.1791045,21.8208955 L54.1791045,38.1791045 C54.1791045,47.0156605 47.0156605,54.1791045 38.1791045,54.1791045 L21.8208955,54.1791045 C12.9843395,54.1791045 5.82089552,47.0156605 5.82089552,38.1791045 L5.82089552,21.8208955 C5.82089552,12.9843395 12.9843395,5.82089552 21.8208955,5.82089552 Z" id="矩形" fill-opacity="0.15" fill="#6AA8F9" transform="translate(30.000000, 30.000000) rotate(-345.000000) translate(-30.000000, -30.000000) "></path>
                    <rect id="矩形" fill="url(#linearGradient-1)" x="7.6119403" y="7.6119403" width="44.7761194" height="44.7761194" rx="16"></rect>
                    <g id="编组" filter="url(#filter-2)" transform="translate(19.000000, 18.500000)" fill="#FFFFFF" fill-rule="nonzero">
                        <g id="anzhuang" transform="translate(0.000000, 0.500000)">
                            <path d="M21.1003628,3.95496752 C21.8879495,5.85812022 21.5122637,8.12834599 19.9659231,9.67454729 C18.2635788,11.3782845 15.6897957,11.6427712 13.6896979,10.5155513 L12.2431347,12.0950427 L13.2749415,13.1297282 L13.8905991,12.514117 C14.2070638,12.1976755 14.7171867,12.1976755 15.0322121,12.514117 L20.0338497,17.5646683 C20.3488751,17.8796937 20.3488751,18.3912327 20.0338497,18.7063046 L17.7505772,20.9894842 C17.4354822,21.3045096 16.9238967,21.3045096 16.6088945,20.9894842 L11.6087195,15.9375168 C11.2936941,15.6224915 11.2936941,15.1109524 11.6087195,14.7958806 L12.1709133,14.2337796 L11.1882291,13.2482632 L4.27183136,20.803069 C3.64173413,21.4346056 2.61858643,21.4346056 1.9884892,20.803069 L1.41765947,20.2322857 C0.78760867,19.6022349 0.78760867,18.5805498 1.41765947,17.9504757 L9.29654449,11.3508678 L4.06368709,6.10524221 L2.41190469,6.10375646 L0.5,3.02864892 L2.03907434,1.4867888 L5.18514965,3.41162416 L5.2068091,5.02863072 L10.4989108,10.3436454 L12.0394477,9.05320206 C10.5335937,7.0011958 10.6911297,4.1110409 12.5466919,2.25557148 C14.0857663,0.716543572 16.3430614,0.335007653 18.2405264,1.10815473 L14.8487685,4.45352945 L17.7014082,7.30609952 L21.1003628,3.95499073 L21.1003628,3.95496752 Z M3.31224589,18.7539878 C2.99719728,18.4389624 2.48563503,18.4389624 2.17058642,18.7539878 C1.85556102,19.0704293 1.85556102,19.5805523 2.17058642,19.8956241 C2.48561182,20.2106495 2.99719728,20.2106495 3.31224589,19.8956241 C3.62727129,19.5805291 3.62727129,19.0704293 3.31224589,18.7539878 Z" id="形状"></path>
                        </g>
                    </g>
                </g>
            </g>
        </g>
    </g>
</svg>