<?xml version="1.0" encoding="UTF-8"?>
<svg width="60px" height="60px" viewBox="0 0 60 60" version="1.1" xmlns="http://www.w3.org/2000/svg" xmlns:xlink="http://www.w3.org/1999/xlink">
    <title>编组 4</title>
    <defs>
        <linearGradient x1="50%" y1="0%" x2="50%" y2="100%" id="linearGradient-1">
            <stop stop-color="#C0F0E0" offset="0%"></stop>
            <stop stop-color="#4CCCA0" offset="100%"></stop>
        </linearGradient>
        <filter x="-30.8%" y="-40.0%" width="161.5%" height="180.0%" filterUnits="objectBoundingBox" id="filter-2">
            <feOffset dx="0" dy="0" in="SourceAlpha" result="shadowOffsetOuter1"></feOffset>
            <feGaussianBlur stdDeviation="2" in="shadowOffsetOuter1" result="shadowBlurOuter1"></feGaussianBlur>
            <feColorMatrix values="0 0 0 0 0.271439346   0 0 0 0 0.734665485   0 0 0 0 0.773267663  0 0 0 1 0" type="matrix" in="shadowBlurOuter1" result="shadowMatrixOuter1"></feColorMatrix>
            <feMerge>
                <feMergeNode in="shadowMatrixOuter1"></feMergeNode>
                <feMergeNode in="SourceGraphic"></feMergeNode>
            </feMerge>
        </filter>
    </defs>
    <g id="页面-1" stroke="none" stroke-width="1" fill="none" fill-rule="evenodd">
        <g id="商家中心-我的服务-个人服务管理-发布服务" transform="translate(-118.000000, -229.000000)">
            <g id="编组-5" transform="translate(27.000000, 229.000000)">
                <g id="编组-4" transform="translate(91.000000, 0.000000)">
                    <path d="M21.8208955,5.82089552 L38.1791045,5.82089552 C47.0156605,5.82089552 54.1791045,12.9843395 54.1791045,21.8208955 L54.1791045,38.1791045 C54.1791045,47.0156605 47.0156605,54.1791045 38.1791045,54.1791045 L21.8208955,54.1791045 C12.9843395,54.1791045 5.82089552,47.0156605 5.82089552,38.1791045 L5.82089552,21.8208955 C5.82089552,12.9843395 12.9843395,5.82089552 21.8208955,5.82089552 Z" id="矩形" fill="#57D0A6" opacity="0.149999991" transform="translate(30.000000, 30.000000) rotate(-345.000000) translate(-30.000000, -30.000000) "></path>
                    <rect id="矩形" fill="url(#linearGradient-1)" x="7.6119403" y="7.6119403" width="44.7761194" height="44.7761194" rx="16"></rect>
                    <g id="编组" filter="url(#filter-2)" transform="translate(17.000000, 20.000000)" fill="#FFFFFF" fill-rule="nonzero">
                        <g id="jiaoxueyunhang" transform="translate(0.500000, 0.000000)">
                            <path d="M2.28980322,2.2592725 L2.28980322,16.2041741 C2.28980322,17.2689326 4.73225998,17.1010137 5.74358975,17.284198 C7.63267741,17.6238521 10.6323196,19.0511628 10.0789505,19.0397823 C10.0789505,19.0397823 6.95718545,18.4023852 5.91532499,18.3184258 C5.61765057,18.2944374 5.15018802,18.2841566 4.63425908,18.2817088 L4.03979009,18.2819498 C2.90245214,18.2874764 1.75169946,18.3184258 1.75169946,18.3184258 C0.789982102,18.3184258 -1.77635684e-14,17.994037 -1.77635684e-14,17.1735241 L-1.77635684e-14,17.1735241 L-1.77635684e-14,3.40799046 C-1.77635684e-14,2.58747764 0.789982102,2.28980322 1.75169946,2.28980322 L1.75169946,2.28980322 L2.28980322,2.2592725 Z M22.2607036,2.2592725 C23.2262373,2.2592725 24.0124031,2.57221228 24.0124031,3.40417412 L24.0124031,17.1735241 C24.0124031,17.994037 23.222421,18.3184258 22.2607036,18.3184258 C22.2607036,18.3184258 21.109951,18.2874764 19.972613,18.2819498 L19.378144,18.2817088 C18.8622151,18.2841566 18.3947525,18.2944374 18.0970781,18.3184258 C17.3156828,18.3813954 15.3643411,18.7556736 14.4375075,18.9388771 L14.2024713,18.9855877 C14.1685768,18.9923616 14.1374793,18.9985937 14.1094159,19.0042298 L13.9793391,19.0304602 C13.94938,19.0365302 13.9334526,19.0397823 13.9334526,19.0397823 C13.3800835,19.0511628 16.3797257,17.6238521 18.2688134,17.284198 C19.2839595,17.1010137 21.7225999,17.284198 21.7225999,16.2041741 L21.7225999,2.2592725 L22.2607036,2.2592725 Z M4.35444246,-2.7000624e-13 C5.73699052,0.294533787 7.07336602,0.774653323 8.32725105,1.42731068 C9.37033525,1.99350601 10.3056148,2.73888767 11.0902803,3.6293381 C11.2836924,3.91307669 11.4066708,4.23883862 11.4490161,4.57960644 L11.4490161,17.1735241 C11.4490161,18.5584425 10.2064619,18.0185742 8.79263679,17.3565414 L8.49802883,17.2184172 L8.49802883,17.2184172 L8.20064162,17.0803546 C8.00192559,16.9891217 7.80276233,16.9002949 7.60596303,16.8186047 C5.690161,16.0286225 3.05307096,16.5132976 3.05307096,15.4676207 L3.05307096,1.43875968 C3.02053687,0.684031684 3.60024534,0.0431223218 4.35444246,-2.7000624e-13 Z M19.6579607,1.70530257e-13 C20.4136742,0.0411166904 20.9956266,0.682625578 20.9631485,1.43875968 L20.9631485,1.43875968 L20.9631485,15.4676207 C20.9631485,16.5132976 18.3184258,16.0248062 16.4102564,16.8186047 C16.2130445,16.9002949 16.0135133,16.9891217 15.8144691,17.0803546 L15.5166188,17.2184172 C13.9832378,17.9349548 12.563387,18.6539541 12.563387,17.1735241 L12.563387,17.1735241 L12.563387,4.57960644 C12.6057323,4.23883862 12.7287107,3.91307669 12.9221228,3.6293381 C13.7067883,2.73888767 14.6420679,1.99350601 15.6851521,1.42731068 C16.9390371,0.774653323 18.2754126,0.294533787 19.6579607,1.70530257e-13 Z" id="形状结合"></path>
                        </g>
                    </g>
                </g>
            </g>
        </g>
    </g>
</svg>