<?xml version="1.0" encoding="UTF-8"?>
<svg width="29px" height="28px" viewBox="0 0 29 28" version="1.1" xmlns="http://www.w3.org/2000/svg" xmlns:xlink="http://www.w3.org/1999/xlink">
    <title>矩形备份 24</title>
    <defs>
        <linearGradient x1="10.0517756%" y1="31.1421216%" x2="93.1167905%" y2="83.7381083%" id="linearGradient-1">
            <stop stop-color="#6D95E3" offset="0%"></stop>
            <stop stop-color="#3B5CC3" offset="100%"></stop>
        </linearGradient>
        <linearGradient x1="10.0517756%" y1="22.0525552%" x2="93.1167905%" y2="100%" id="linearGradient-2">
            <stop stop-color="#6D95E3" offset="0%"></stop>
            <stop stop-color="#3B5CC3" offset="100%"></stop>
        </linearGradient>
    </defs>
    <g id="页面-1" stroke="none" stroke-width="1" fill="none" fill-rule="evenodd">
        <g id="智享生活" transform="translate(-308.000000, -396.000000)" fill-rule="nonzero">
            <g id="图标" transform="translate(31.500000, 322.000000)">
                <g id="jiaruwomen" transform="translate(277.000000, 74.000000)">
                    <path d="M11.5115431,3.0231525 C14.4284825,3.0231525 16.7932072,5.38644394 16.7932072,8.30139881 C16.7932072,10.4490964 15.5100074,12.2966659 13.6677299,13.1211981 C15.8787661,13.6335022 17.7940567,14.9163437 19.1147966,16.6719371 C18.2478732,17.4996941 17.7077585,18.6663321 17.7077585,19.9596197 C17.7077585,20.7034764 17.8864462,21.4054106 18.2031393,22.0250156 L18.2031393,22.0250156 L2.01074937,22.0250156 C2.16926131,17.6755704 5.25361531,14.0716357 9.35532875,13.1211981 C7.51305125,12.2966659 6.2298515,10.4490964 6.2298515,8.30139881 C6.2298515,7.43568825 6.43797594,6.61923187 6.80747881,5.89874812 C6.66470506,5.67849619 6.58199,5.41626656 6.58199,5.13449512 C6.58199,4.35714994 7.21253731,3.72704362 7.99026837,3.72704362 C8.21980887,3.72704362 8.43603669,3.78150712 8.62723775,3.87874762 C9.4566485,3.337806 10.447355,3.0231525 11.5115431,3.0231525 Z M18.9469961,5.088576 C21.3568957,5.088576 23.3101122,7.04041444 23.3101122,9.44868787 C23.3101122,11.0138796 22.4847807,12.3870157 21.2451297,13.1559268 C22.4355541,13.5197794 23.5057784,14.1579891 24.3819627,14.9970191 C24.7180047,15.2430696 25.1431563,15.6699024 25.1431563,15.8288278 C25.1431563,16.0571831 24.9584049,16.241907 24.7300771,16.241907 C24.6308246,16.241907 24.4287363,16.0725079 24.1891079,15.9143542 C24.0951198,15.8522835 23.9978793,15.7885314 23.9079153,15.7272049 C23.3943984,15.5255025 22.8360924,15.4157486 22.2515744,15.4157486 C21.3177018,15.4157486 20.4496209,15.6973547 19.7275109,16.1805804 C18.8396126,15.0164231 17.7105147,14.0474083 16.4143882,13.3463286 C16.2119416,13.3197307 16.055386,13.1470792 16.055386,12.9373011 C16.0552706,12.8731488 16.0701953,12.8098627 16.0989629,12.7525221 C16.0957657,12.7493248 16.0920999,12.7468993 16.0888751,12.7436745 C16.1018019,12.7307477 16.1143152,12.717876 16.1268286,12.7049492 C16.1520633,12.6680646 16.1829541,12.6353879 16.2183637,12.6081221 C17.2449841,11.5028107 17.8731335,10.0215193 17.8731335,8.39340244 C17.8731335,7.33894387 17.6097187,6.34575675 17.1449874,5.47684894 C17.6944458,5.22754612 18.3043764,5.088576 18.9469961,5.088576 Z" id="形状结合" fill="url(#linearGradient-1)"></path>
                    <path d="M22.251602,16.2418519 C20.1982784,16.2418519 18.5338618,17.9062961 18.5338618,19.9596197 C18.5338618,22.0128881 20.1982784,23.6773324 22.251602,23.6773324 C24.304898,23.6773324 25.9693147,22.0128881 25.9693147,19.9596197 C25.9693147,17.9062961 24.304898,16.2418519 22.251602,16.2418519 L22.251602,16.2418519 Z M24.3161986,20.3726713 L22.6646812,20.3726713 L22.6646812,22.0233619 C22.6646812,22.2525165 22.4815559,22.4380673 22.251602,22.4380673 C22.0232467,22.4380673 21.8384953,22.2492641 21.8384953,22.0233619 L21.8384953,20.3726713 L20.1869503,20.3726713 C19.9586501,20.3726713 19.7730993,20.1887468 19.7730993,19.9596197 C19.7730993,19.7312644 19.9614614,19.5465129 20.1869778,19.5465129 L21.8385228,19.5465129 L21.8385228,17.8949679 C21.8385228,17.6666953 22.0216481,17.481117 22.251602,17.481117 C22.4799022,17.481117 22.6646812,17.6691208 22.6646812,17.8949955 L22.6646812,19.5465405 L24.3161986,19.5465405 C24.5445539,19.5465405 24.7301047,19.7296933 24.7301047,19.9596197 C24.7301047,20.1879199 24.5416874,20.3726713 24.3161986,20.3726713 L24.3161986,20.3726713 Z" id="形状" fill="url(#linearGradient-2)" opacity="0.5"></path>
                </g>
            </g>
        </g>
    </g>
</svg>