<?xml version="1.0" encoding="UTF-8"?>
<svg width="22px" height="4px" viewBox="0 0 22 4" version="1.1" xmlns="http://www.w3.org/2000/svg" xmlns:xlink="http://www.w3.org/1999/xlink">
    <title>直线 2备份 6</title>
    <g id="页面-1" stroke="none" stroke-width="1" fill="none" fill-rule="evenodd">
        <g id="智享生活-商家中心-我的服务-个人服务管理" transform="translate(-183.000000, -102.000000)" fill="#206CFE" fill-rule="nonzero">
            <g id="编组-10" transform="translate(0.000000, 64.000000)">
                <g id="直线-2备份-7" transform="translate(183.000000, 38.000000)">
                    <path d="M21.6693016,1.36571297 L21.6892005,1.55710261 C21.7777232,2.40852023 21.1657276,3.17306933 20.3155874,3.27311915 L20.3155874,3.27311915 L20.3155874,3.27311915 C17.1603103,3.64445196 14.0046482,3.83014102 10.8488554,3.83014102 C8.08753667,3.83014102 5.32631803,3.68797284 2.5653698,3.40366682 L1.38212333,3.27311915 C0.531983185,3.17306933 -0.0800124632,2.40852023 0.0085102245,1.55710261 L0.0284091843,1.36571297 C0.115397489,0.52905316 0.86416223,-0.0786756738 1.70082204,0.00831263041 C1.70766375,0.00902396902 1.71450056,0.00978164783 1.721332,0.0105856147 L1.721332,0.0105856147 L1.721332,0.0105856147 C4.76414001,0.368682352 7.80656303,0.547708066 10.8488554,0.547708066 C13.5108612,0.547708066 16.172967,0.410641503 18.8353433,0.136478025 L19.9763787,0.0105856147 C20.8117832,-0.0877300256 21.5687129,0.509798538 21.6670286,1.34520302 C21.6678325,1.35203446 21.6685902,1.35887127 21.6693016,1.36571297 Z" id="直线-2备份-6"></path>
                </g>
            </g>
        </g>
    </g>
</svg>