<?xml version="1.0" encoding="UTF-8"?>
<svg width="29px" height="28px" viewBox="0 0 29 28" version="1.1" xmlns="http://www.w3.org/2000/svg" xmlns:xlink="http://www.w3.org/1999/xlink">
    <title>矩形备份 23</title>
    <defs>
        <linearGradient x1="25.7692625%" y1="15.822823%" x2="72.9760151%" y2="100%" id="linearGradient-1">
            <stop stop-color="#6391E9" offset="0%"></stop>
            <stop stop-color="#3772E3" offset="100%"></stop>
        </linearGradient>
    </defs>
    <g id="页面-1" stroke="none" stroke-width="1" fill="none" fill-rule="evenodd">
        <g id="智享生活" transform="translate(-225.000000, -396.000000)" fill="url(#linearGradient-1)" fill-rule="nonzero">
            <g id="图标" transform="translate(31.500000, 322.000000)">
                <g id="xunrenqishi" transform="translate(198.000000, 75.000000)">
                    <path d="M2.77570151,22.6428097 C2.77570151,22.6428097 6.32500325,24.2123622 10.0759836,24.1758212 C10.1467215,24.1761797 10.3589901,24.1728428 10.3589901,24.1728428 C10.3589901,24.1728428 10.5671221,24.1761797 10.6378323,24.1758212 C14.3888679,24.2123622 17.9358254,22.6428097 17.9358254,22.6428097 C19.636043,22.8985966 20.6878443,21.4398805 20.6878443,21.4398805 L20.2241736,17.9392265 C19.9292258,14.767469 16.9714468,14.2207331 16.380255,14.0380833 C15.789146,13.8555163 13.6448658,13.2719912 13.3491734,12.6157979 C13.2497819,12.3975172 13.2422531,11.9817773 13.2758156,11.5274832 C14.1198159,10.5275012 14.6733084,9.26472752 14.9687802,8.458592 C15.4037972,8.75773167 15.5794697,8.38653043 15.5794697,8.38653043 C16.9481157,6.41742636 16.0972761,5.61534485 15.9129717,5.46984277 C15.7277571,5.32362369 15.5434527,5.57896933 15.5434527,5.57896933 L15.5241756,5.63393248 C15.7846783,0.388025911 11.2430337,0.0269182529 10.709039,0.00237372905 C10.7173124,0.00422147495 10.6627629,0.00794450965 10.3591004,0.0157491218 C10.0505566,0.00794450965 9.99711026,0.00422147495 10.0069005,0.00237372905 C9.48421274,0.025401453 4.92453208,0.379862783 5.18569669,5.63393248 L5.1665299,5.57896933 C5.1665299,5.57896933 4.98208755,5.32359612 4.79698333,5.46984277 C4.61259615,5.61534485 3.76181171,6.41745393 5.13040259,8.38653043 C5.13040259,8.38653043 5.30613025,8.7577041 5.74078872,8.458592 C6.03656386,9.26472749 6.59011153,10.5275012 7.43411177,11.5274832 C7.46767433,11.9817773 7.46006276,12.3974896 7.36072643,12.6157979 C7.06495129,13.2719912 4.92083659,13.8555163 4.32961724,14.0380833 C3.73845304,14.2207331 0.780674017,14.7674414 0.48567107,17.9392265 L0.022800212,21.4398805 C0.022800212,21.4398805 1.07559425,22.8985966 2.77570151,22.6428097 Z" id="路径"></path>
                </g>
            </g>
        </g>
    </g>
</svg>