<?xml version="1.0" encoding="UTF-8"?>
<svg width="29px" height="28px" viewBox="0 0 29 28" version="1.1" xmlns="http://www.w3.org/2000/svg" xmlns:xlink="http://www.w3.org/1999/xlink">
    <title>形状结合备份 6</title>
    <defs>
        <linearGradient x1="16.2506062%" y1="28.7711875%" x2="77.0711468%" y2="60.758439%" id="linearGradient-1">
            <stop stop-color="#88C5FA" offset="0%"></stop>
            <stop stop-color="#3B9EF2" offset="100%"></stop>
        </linearGradient>
    </defs>
    <g id="页面-1" stroke="none" stroke-width="1" fill="none" fill-rule="evenodd">
        <g id="智享生活" transform="translate(-308.000000, -322.000000)" fill-rule="nonzero">
            <g id="图标" transform="translate(31.500000, 322.000000)">
                <g id="shifu" transform="translate(280.000000, 3.000000)">
                    <path d="M10.5316736,0.797520322 C10.6380785,0.797520322 10.7577208,0.797520322 10.8639719,0.810845618 L10.8639719,2.2593299 C10.8639719,2.95046734 11.4355988,3.52198441 12.1267143,3.52198444 C12.817742,3.52198444 13.3893907,2.95046736 13.3893907,2.2593299 L13.3893907,1.66122809 C14.7316019,2.55176207 15.6219822,4.02694086 15.7416026,5.64830281 C15.7548401,5.83439601 15.8080096,6.00705415 15.8878077,6.16651868 L5.16289479,6.16651868 C5.24262706,6.00705413 5.29579655,5.83426428 5.3090999,5.64830281 C5.42863245,4.01357167 6.33244784,2.51180813 7.70117789,1.62151561 L7.70117789,2.24607045 C7.70117789,2.9372079 8.27271691,3.5088128 8.96385435,3.5088128 C9.65486007,3.5088128 10.2265308,2.9372079 10.2265308,2.24607045 L10.2265308,0.810845618 C10.332782,0.797520322 10.425664,0.797520322 10.5320688,0.797520322 L10.5316736,0.797520322 Z" id="路径" fill="#333333"></path>
                    <path d="M10.5316736,0.000131726 C10.288218,0.000131726 10.0477479,0.0146205175 9.81177812,0.0427638868 C9.61479638,0.0664289208 9.44196263,0.265825459 9.44196263,0.505088152 L9.44196263,2.2593299 C9.44196263,2.51180811 9.2293725,2.72446409 8.97687232,2.72446411 C8.72424043,2.72446411 8.5116064,2.51180813 8.5116064,2.2593299 L8.5116064,1.06321408 C8.5116064,0.797520323 8.28573487,0.598079883 8.0464722,0.598079861 C7.9798896,0.598079861 7.90013539,0.611339304 7.83383817,0.651161536 C5.98653884,1.5815397 4.684106,3.4289049 4.52461949,5.59511136 C4.51127225,5.83437404 4.31194156,6.03374865 4.05933162,6.03374865 L3.52779043,6.03374865 C3.27531222,6.03374865 3.06256842,6.24629487 3.06256842,6.49888286 C3.06256842,6.75136107 3.2752244,6.96410486 3.52779043,6.96410486 L17.5353153,6.96410486 C17.7878155,6.96410486 18.0004495,6.75149278 18.0004495,6.49888286 C18.0004495,6.24640465 17.7879253,6.03374867 17.5353153,6.03374865 L17.0037522,6.03374865 C16.751296,6.03374865 16.5518555,5.8475896 16.538618,5.59511136 C16.3790876,3.4421863 15.1033053,1.60812444 13.2826347,0.664530755 C13.216074,0.624576797 13.1364076,0.611471031 13.0699567,0.61147103 C12.8308258,0.61147103 12.6048225,0.810735864 12.6048225,1.07660522 L12.6048225,2.2593299 C12.6048225,2.51180811 12.3921885,2.72446409 12.1396883,2.72446411 C11.8871003,2.72446411 11.6744444,2.51180813 11.6744444,2.2593299 L11.6744444,0.505088152 C11.6744444,0.265847432 11.5016326,0.0664289208 11.275761,0.0399539575 C11.0497797,0.0145107423 10.7876862,0 10.522212,0 L10.5316736,0.000131726 Z" id="形状" fill="#A0D2FB"></path>
                    <path d="M20.1670073,21.5167158 C20.0739936,21.6361825 19.9145291,21.702787 19.7550645,21.702787 L1.3085901,21.702787 C1.1358661,21.702787 0.989814671,21.6362044 0.896581482,21.5167158 C0.843433955,21.4635243 0.790220554,21.3570976 0.81695897,21.2376309 C1.17571031,19.403591 2.33185022,17.7024309 4.05946333,16.4664928 C5.85372488,15.1906228 8.15274531,14.4863576 10.5183483,14.4863576 C12.8840611,14.4863576 15.1964727,15.1906228 16.9771894,16.4664928 C18.7182157,17.7025407 19.8743556,19.4034812 20.2199792,21.2376309 C20.2596697,21.3570976 20.20661,21.4635243 20.1667658,21.5167158 L20.1670073,21.5167158 L20.1670073,21.5167158 Z" id="形状" fill="#333333"></path>
                    <path d="M21.0173678,21.0912941 L21.0174775,21.0912941 C20.3263401,17.5029905 17.0040156,14.6456904 12.737856,13.8882338 C14.3858246,12.9580093 15.5287271,11.0309338 15.5287271,8.79818867 L5.52133877,8.79818867 C5.52133877,11.0308021 6.6511135,12.9578557 8.31229766,13.8882338 C4.04613803,14.6325627 0.723725759,17.5029904 0.0325883152,21.0912941 C-0.11352897,21.8222757 0.497766433,22.5000439 1.30845837,22.5000439 L19.7415416,22.5000439 C20.5521019,22.5000439 21.1637046,21.8222757 21.0173678,21.0912941 Z M9.37557759,11.5057711 C9.37557759,11.3596758 9.49517601,11.2399457 9.64140307,11.2399457 L11.3956448,11.2399457 C11.5418499,11.2399457 11.6614703,11.359566 11.6614703,11.5057711 C11.6614703,11.6519982 11.5418499,11.7714868 11.3956448,11.7714868 L9.64140307,11.7714868 C9.49517601,11.7715088 9.37557759,11.6518665 9.37557759,11.5057711 Z" id="形状" fill="url(#linearGradient-1)"></path>
                </g>
            </g>
        </g>
    </g>
</svg>