<?xml version="1.0" encoding="UTF-8"?>
<svg width="60px" height="60px" viewBox="0 0 60 60" version="1.1" xmlns="http://www.w3.org/2000/svg" xmlns:xlink="http://www.w3.org/1999/xlink">
    <title>编组 4</title>
    <defs>
        <linearGradient x1="50%" y1="0%" x2="50%" y2="100%" id="linearGradient-1">
            <stop stop-color="#A8D4FF" offset="0%"></stop>
            <stop stop-color="#4C99FE" offset="100%"></stop>
        </linearGradient>
        <filter x="-40.0%" y="-30.8%" width="180.0%" height="161.5%" filterUnits="objectBoundingBox" id="filter-2">
            <feOffset dx="0" dy="0" in="SourceAlpha" result="shadowOffsetOuter1"></feOffset>
            <feGaussianBlur stdDeviation="2" in="shadowOffsetOuter1" result="shadowBlurOuter1"></feGaussianBlur>
            <feColorMatrix values="0 0 0 0 0.29673093   0 0 0 0 0.597871722   0 0 0 0 0.987347147  0 0 0 1 0" type="matrix" in="shadowBlurOuter1" result="shadowMatrixOuter1"></feColorMatrix>
            <feMerge>
                <feMergeNode in="shadowMatrixOuter1"></feMergeNode>
                <feMergeNode in="SourceGraphic"></feMergeNode>
            </feMerge>
        </filter>
    </defs>
    <g id="页面-1" stroke="none" stroke-width="1" fill="none" fill-rule="evenodd">
        <g id="商家中心-我的服务-个人服务管理-发布服务" transform="translate(-27.000000, -229.000000)">
            <g id="编组-4" transform="translate(27.000000, 229.000000)">
                <rect id="矩形" fill-opacity="0.15" fill="#64A6FA" transform="translate(30.000000, 30.000000) rotate(-345.000000) translate(-30.000000, -30.000000) " x="5.82089552" y="5.82089552" width="48.358209" height="48.358209" rx="16"></rect>
                <rect id="矩形" fill="url(#linearGradient-1)" x="7.6119403" y="7.6119403" width="44.7761194" height="44.7761194" rx="16"></rect>
                <g id="编组-15" transform="translate(20.000000, 17.000000)" fill="#FFFFFF" fill-rule="nonzero">
                    <g id="baomu" filter="url(#filter-2)">
                        <path d="M2.11483387,17.499174 C1.67500987,17.667342 1.28692987,17.887254 0.950593875,18.133038 C0.614257875,18.391758 0.368473875,18.728094 0.252049875,19.142046 C0.174433875,19.38783 0.109753875,19.685358 0.058009875,20.060502 C-0.045478125,20.901342 0.096817875,23.773134 0.070945875,23.617902 C0.122689875,23.954238 0.213241875,24.212958 0.316729875,24.394062 C0.394345875,24.510486 0.614257875,24.62691 0.989401875,24.743334 C1.35160987,24.859758 3.09796987,24.911502 3.64128187,25.027926 C3.70596187,25.040862 3.74476987,25.040862 3.78357787,25.053798 L4.53386587,20.68143 C4.53386587,20.461518 4.59854587,20.241606 4.68909787,20.060502 L5.09011387,16.205574 C4.74084187,16.34787 4.35276187,16.47723 3.91293787,16.593654 C3.46017787,16.723014 2.54172187,17.331006 2.11483387,17.499174 L2.11483387,17.499174 Z M15.4001059,12.635238 C16.3832419,11.30283 16.9653619,9.608214 16.9653619,7.758366 C16.9653619,3.489486 13.8348499,0.022638 9.97992187,0.022638 C6.12499387,0.022638 2.99448187,3.47655 2.99448187,7.758366 C2.99448187,10.966494 4.76671387,13.708926 7.27629787,14.873166 C7.06932187,14.976654 6.40958587,15.390606 6.31903387,15.481158 C6.43545787,15.623454 6.51307387,15.804558 6.48720187,15.998598 L5.98269787,19.478382 L13.9771459,19.478382 L13.4726419,15.998598 C13.4467699,15.804558 13.5243859,15.610518 13.6408099,15.481158 C13.5502579,15.390606 12.8905219,14.976654 12.6835459,14.873166 C13.3044739,14.575638 13.8995299,14.200494 14.4169699,13.721862 C14.9473459,13.50195 15.3224899,13.010382 15.4001059,12.635238 Z M13.6020019,9.543534 C13.5890659,9.724638 13.5890659,9.918678 13.5890659,10.086846 C13.6020019,10.190334 13.6149379,10.293822 13.6149379,10.39731 C13.6149379,10.46199 13.6149379,10.513734 13.6020019,10.578414 C13.6020019,10.733646 13.6149379,10.837134 13.6149379,10.837134 C13.6020019,10.888878 13.5631939,10.940622 13.5502579,10.992366 C13.3562179,11.794398 12.7740979,12.480006 11.9850019,12.91983 L11.9850019,14.510958 C11.9850019,15.338862 11.3123299,16.011534 10.4844259,16.011534 L9.48835387,16.011534 C8.66044987,16.011534 7.98777787,15.338862 7.98777787,14.510958 L7.98777787,12.91983 C7.00464187,12.363582 6.34490587,11.445126 6.34490587,10.39731 C6.34490587,10.293822 6.35784187,10.177398 6.37077787,10.07391 L6.40958587,9.530598 C6.50013787,8.84499 6.72004987,8.172318 7.15987387,7.74543 C7.83254587,7.09863 8.16888187,6.050814 8.32411387,5.235846 C8.46640987,5.947326 8.80274587,6.814038 9.56596987,7.008078 C10.8595699,7.344414 11.4287539,7.35735 12.0238099,7.370286 C12.3084019,7.370286 13.4985139,7.318542 13.6149379,8.638014 C13.6149379,8.638014 13.6020019,9.013158 13.5761299,9.530598 L13.6020019,9.530598 L13.6020019,9.543534 Z M19.9147699,20.060502 C19.8630259,19.685358 19.7983459,19.38783 19.7207299,19.142046 C19.5913699,18.728094 19.3585219,18.391758 19.0221859,18.133038 C18.6858499,17.874318 18.2848339,17.667342 17.8579459,17.499174 C17.4181219,17.331006 16.5126019,16.723014 16.0469059,16.593654 C15.6200179,16.47723 15.2319379,16.34787 14.8697299,16.205574 L15.2707459,20.060502 C15.3742339,20.241606 15.4259779,20.461518 15.4259779,20.68143 L16.1762659,25.053798 C16.2150739,25.053798 16.2668179,25.040862 16.3185619,25.027926 C16.8618739,24.911502 18.6082339,24.859758 18.9704419,24.743334 C19.3326499,24.62691 19.5525619,24.510486 19.6431139,24.394062 C19.7595379,24.212958 19.8371539,23.954238 19.8888979,23.617902 C19.8759619,23.773134 20.0182579,20.901342 19.9147699,20.060502 L19.9147699,20.060502 Z" id="形状"></path>
                    </g>
                </g>
            </g>
        </g>
    </g>
</svg>