<?xml version="1.0" encoding="UTF-8"?>
<svg width="52px" height="52px" viewBox="0 0 52 52" version="1.1" xmlns="http://www.w3.org/2000/svg" xmlns:xlink="http://www.w3.org/1999/xlink">
    <title>椭圆形</title>
    <g id="页面-1" stroke="none" stroke-width="1" fill="none" fill-rule="evenodd">
        <g id="智享生活-公共服务-健康医疗" transform="translate(-30.000000, -137.000000)">
            <g id="编组-7" transform="translate(15.000000, 128.000000)">
                <g id="编组-4" transform="translate(15.000000, 9.000000)">
                    <circle id="椭圆形" fill="#E7F6FF" cx="26" cy="26" r="26"></circle>
                    <g id="yiliaodian" transform="translate(13.000000, 12.500000)" fill-rule="nonzero">
                        <path d="M22.18671,4.64373 L3.01644,4.64373 C1.35442125,4.64373 0.012403125,5.98574813 0.012403125,7.64528625 L0.012403125,22.4000438 C0.012403125,24.0571013 1.35442125,25.4016 3.01644,25.4016 L22.18671,25.4016 C23.8437675,25.4016 25.1907469,24.0571013 25.1907469,22.4000438 L25.1907469,7.64528625 C25.1907469,5.98822875 23.8437675,4.64373 22.18671,4.64373 Z M12.5891719,21.4177163 C9.0592425,21.4177163 6.19412063,18.555075 6.19412063,15.022665 C6.19412063,11.4927356 9.0592425,8.62761375 12.5891719,8.62761375 C16.1215819,8.62761375 18.9842231,11.490255 18.9842231,15.022665 C18.9842231,18.555075 16.1215819,21.4177163 12.5891719,21.4177163 Z M13.9857638,10.7981606 L11.2223475,10.7981606 L11.2223475,13.6558406 L8.36714813,13.6558406 L8.36714813,16.4192569 L11.2223475,16.4192569 L11.2223475,19.2446888 L13.9857638,19.2446888 L13.9857638,16.4192569 L16.8136763,16.4192569 L16.8136763,13.6558406 L13.9857638,13.6558406 L13.9857638,10.7981606 Z" id="形状" fill="#48BFFF"></path>
                        <path d="M7.43691375,3.93179063 C7.96280625,3.93179063 8.39195438,3.50512313 8.39195438,2.97675 C8.39195438,2.38884188 8.86823438,1.91256187 9.45366188,1.91256187 L15.7420463,1.91256187 C16.332435,1.91256187 16.8111956,2.3913225 16.8111956,2.97675 C16.8111956,3.50512313 17.2378631,3.93179063 17.7637556,3.93179063 C18.2921288,3.93179063 18.7212803,3.50512313 18.7212803,2.97675 C18.7237575,1.33705688 17.3891813,0 15.7445269,0 L9.4561425,0 C7.81396875,0 6.4793925,1.33705688 6.4793925,2.97675 C6.4793925,3.50512313 6.90854063,3.93179063 7.43691375,3.93179063 Z" id="路径" fill="#9ADBFF"></path>
                    </g>
                </g>
            </g>
        </g>
    </g>
</svg>