<?xml version="1.0" encoding="UTF-8"?>
<svg width="52px" height="53px" viewBox="0 0 52 53" version="1.1" xmlns="http://www.w3.org/2000/svg" xmlns:xlink="http://www.w3.org/1999/xlink">
    <title>椭圆形</title>
    <defs>
        <linearGradient x1="19.0388379%" y1="13.875%" x2="89.8379745%" y2="86.125%" id="linearGradient-1">
            <stop stop-color="#779FEC" offset="0%"></stop>
            <stop stop-color="#3470E2" offset="100%"></stop>
        </linearGradient>
    </defs>
    <g id="页面-1" stroke="none" stroke-width="1" fill="none" fill-rule="evenodd">
        <g id="智享生活-公共服务-社会保障" transform="translate(-30.000000, -221.000000)">
            <g id="编组-10" transform="translate(15.000000, 128.000000)">
                <g id="编组-3备份-11" transform="translate(0.000000, 85.000000)">
                    <g id="编组-5" transform="translate(15.000000, 8.500000)">
                        <circle id="椭圆形" fill="#E3EDFF" opacity="0.800000012" cx="26" cy="26" r="26"></circle>
                        <g id="yibaoka" transform="translate(12.000000, 14.500000)" fill="url(#linearGradient-1)" fill-rule="nonzero">
                            <path d="M28,7.93333333 L28,20.4 C28,22.2777682 26.4329966,23.8 24.5,23.8 L3.5,23.8 C1.56700337,23.8 0,22.2777682 0,20.4 L0,13.0333333 L13.125,13.0333333 C13.4376419,13.0333836 13.726557,12.8713855 13.8828928,12.6083739 C14.0392287,12.3453624 14.0392287,12.0213043 13.8828928,11.7582928 C13.726557,11.4952812 13.4376419,11.3332831 13.125,11.3333333 L0,11.3333333 L0,7.93333333 L28,7.93333333 Z M21,11.6166667 C20.5167509,11.6166667 20.125,11.9972246 20.125,12.4666667 L20.125,14.7333333 L17.7916667,14.7333333 C17.3544166,14.7333512 16.9842993,15.0469226 16.9248333,15.4677333 L16.9166667,15.5833333 C16.9166667,16.0525333 17.3086667,16.4333333 17.7916667,16.4333333 L20.125,16.4333333 L20.125,18.7 C20.125,19.1306667 20.454,19.4854 20.881,19.5420667 L21,19.55 C21.4832492,19.55 21.875,19.169442 21.875,18.7 L21.875,16.4333333 L24.2083333,16.4333333 C24.6455834,16.4333154 25.0157007,16.1197441 25.0751667,15.6989333 L25.0833333,15.5833333 C25.0833333,15.1138913 24.6915825,14.7333333 24.2083333,14.7333333 L21.875,14.7333333 L21.875,12.4666667 C21.8749816,12.0419094 21.5521875,11.682367 21.119,11.6246 L21,11.6166667 Z M0,3.39999999 C0,1.52223185 1.56700337,0 3.5,0 L24.5,0 C26.4329966,0 28,1.52223185 28,3.39999999 L28,6.23333333 L0,6.23333333 L0,3.39999999 Z" id="形状"></path>
                        </g>
                    </g>
                </g>
            </g>
        </g>
    </g>
</svg>