<?xml version="1.0" encoding="UTF-8"?>
<svg width="60px" height="60px" viewBox="0 0 60 60" version="1.1" xmlns="http://www.w3.org/2000/svg" xmlns:xlink="http://www.w3.org/1999/xlink">
    <title>编组 4</title>
    <defs>
        <linearGradient x1="50%" y1="0.729348776%" x2="50%" y2="100%" id="linearGradient-1">
            <stop stop-color="#FFD193" offset="0%"></stop>
            <stop stop-color="#FF8A71" offset="100%"></stop>
        </linearGradient>
        <filter x="-42.1%" y="-36.4%" width="184.2%" height="172.7%" filterUnits="objectBoundingBox" id="filter-2">
            <feOffset dx="0" dy="0" in="SourceAlpha" result="shadowOffsetOuter1"></feOffset>
            <feGaussianBlur stdDeviation="2" in="shadowOffsetOuter1" result="shadowBlurOuter1"></feGaussianBlur>
            <feColorMatrix values="0 0 0 0 0.882133152   0 0 0 0 0.574067728   0 0 0 0 0.472348013  0 0 0 1 0" type="matrix" in="shadowBlurOuter1" result="shadowMatrixOuter1"></feColorMatrix>
            <feMerge>
                <feMergeNode in="shadowMatrixOuter1"></feMergeNode>
                <feMergeNode in="SourceGraphic"></feMergeNode>
            </feMerge>
        </filter>
    </defs>
    <g id="页面-1" stroke="none" stroke-width="1" fill="none" fill-rule="evenodd">
        <g id="智享生活-商家中心" transform="translate(-27.000000, -246.000000)">
            <g id="编组-4" transform="translate(27.000000, 246.000000)">
                <path d="M21.8208955,5.82089552 L38.1791045,5.82089552 C47.0156605,5.82089552 54.1791045,12.9843395 54.1791045,21.8208955 L54.1791045,38.1791045 C54.1791045,47.0156605 47.0156605,54.1791045 38.1791045,54.1791045 L21.8208955,54.1791045 C12.9843395,54.1791045 5.82089552,47.0156605 5.82089552,38.1791045 L5.82089552,21.8208955 C5.82089552,12.9843395 12.9843395,5.82089552 21.8208955,5.82089552 Z" id="矩形" fill-opacity="0.146279502" fill="#FA9A1A" transform="translate(30.000000, 30.000000) rotate(-345.000000) translate(-30.000000, -30.000000) "></path>
                <rect id="矩形" fill="url(#linearGradient-1)" x="7.6119403" y="7.6119403" width="44.7761194" height="44.7761194" rx="16"></rect>
                <g id="形状-2" filter="url(#filter-2)" transform="translate(20.000000, 19.000000)" fill="#FFFFFF" fill-rule="nonzero">
                    <path d="M17.0020134,2.05727069 L13.6946309,2.05727069 C13.5395973,1.38053691 12.9145414,0.858836689 12.1836689,0.858836689 L10.5447427,0.858836689 C10.3355705,0.337136465 9.8409396,0 9.27002237,0 C8.6966443,0 8.20201342,0.339597315 7.99530201,0.858836689 L6.32930649,0.858836689 C5.60089485,0.858836689 4.97583893,1.38053691 4.81834452,2.05727069 L1.51096197,2.05727069 C0.65212528,2.05727069 2.23820962e-13,2.76107383 2.23820962e-13,3.61991051 L2.23820962e-13,20.4373602 C2.23820962e-13,21.2961969 0.676733781,22 1.51096197,22 L16.9749441,22 C17.8337808,22 18.5621924,21.2961969 18.5621924,20.4373602 L18.5621924,3.61991051 C18.5892617,2.76107383 17.8608501,2.05727069 17.0020134,2.05727069 L17.0020134,2.05727069 Z M9.29463087,2.81275168 C9.998434,2.81275168 10.5447427,3.38612975 10.5447427,4.06286353 C10.5447427,4.76666667 9.97136465,5.31297539 9.29463087,5.31297539 C8.59082774,5.31297539 8.04451902,4.73959732 8.04451902,4.06286353 C8.04451902,3.38612975 8.59328859,2.81275168 9.29463087,2.81275168 Z M14.0588367,15.7519016 C14.0588367,16.0644295 13.7979866,16.3252796 13.4854586,16.3252796 L5.10380313,16.3252796 C4.79127517,16.3252796 4.53042506,16.0644295 4.53042506,15.7519016 L4.53042506,15.2302013 C4.53042506,14.9176734 4.79127517,14.6568233 5.10380313,14.6568233 L13.4854586,14.6568233 C13.7979866,14.6568233 14.0588367,14.9176734 14.0588367,15.2302013 L14.0588367,15.7519016 L14.0588367,15.7519016 Z M14.0588367,10.4659955 C14.0588367,10.7785235 13.7979866,11.0393736 13.4854586,11.0393736 L5.10380313,11.0393736 C4.79127517,11.0393736 4.53042506,10.7785235 4.53042506,10.4659955 L4.53042506,9.9442953 C4.53042506,9.63176734 4.79127517,9.37091723 5.10380313,9.37091723 L13.4854586,9.37091723 C13.7979866,9.37091723 14.0588367,9.63176734 14.0588367,9.9442953 L14.0588367,10.4659955 L14.0588367,10.4659955 Z" id="形状"></path>
                </g>
            </g>
        </g>
    </g>
</svg>