<?xml version="1.0" encoding="UTF-8"?>
<svg width="60px" height="60px" viewBox="0 0 60 60" version="1.1" xmlns="http://www.w3.org/2000/svg" xmlns:xlink="http://www.w3.org/1999/xlink">
    <title>编组 4</title>
    <defs>
        <linearGradient x1="50%" y1="0%" x2="50%" y2="100%" id="linearGradient-1">
            <stop stop-color="#A4CCFF" offset="0%"></stop>
            <stop stop-color="#7893FE" offset="100%"></stop>
        </linearGradient>
        <filter x="-40.0%" y="-34.8%" width="180.0%" height="169.6%" filterUnits="objectBoundingBox" id="filter-2">
            <feOffset dx="0" dy="0" in="SourceAlpha" result="shadowOffsetOuter1"></feOffset>
            <feGaussianBlur stdDeviation="2" in="shadowOffsetOuter1" result="shadowBlurOuter1"></feGaussianBlur>
            <feColorMatrix values="0 0 0 0 0.394081555   0 0 0 0 0.512300084   0 0 0 0 0.919950181  0 0 0 1 0" type="matrix" in="shadowBlurOuter1" result="shadowMatrixOuter1"></feColorMatrix>
            <feMerge>
                <feMergeNode in="shadowMatrixOuter1"></feMergeNode>
                <feMergeNode in="SourceGraphic"></feMergeNode>
            </feMerge>
        </filter>
    </defs>
    <g id="页面-1" stroke="none" stroke-width="1" fill="none" fill-rule="evenodd">
        <g id="智享生活-商家中心" transform="translate(-288.000000, -246.000000)">
            <g id="编组-14" transform="translate(27.000000, 246.000000)">
                <g id="编组-4" transform="translate(261.000000, 0.000000)">
                    <path d="M21.8208955,5.82089552 L38.1791045,5.82089552 C47.0156605,5.82089552 54.1791045,12.9843395 54.1791045,21.8208955 L54.1791045,38.1791045 C54.1791045,47.0156605 47.0156605,54.1791045 38.1791045,54.1791045 L21.8208955,54.1791045 C12.9843395,54.1791045 5.82089552,47.0156605 5.82089552,38.1791045 L5.82089552,21.8208955 C5.82089552,12.9843395 12.9843395,5.82089552 21.8208955,5.82089552 Z" id="矩形" fill-opacity="0.15" fill="#6AA8F9" transform="translate(30.000000, 30.000000) rotate(-345.000000) translate(-30.000000, -30.000000) "></path>
                    <rect id="矩形" fill="url(#linearGradient-1)" x="7.6119403" y="7.6119403" width="44.7761194" height="44.7761194" rx="16"></rect>
                    <g id="编组" filter="url(#filter-2)" transform="translate(20.000000, 18.500000)" fill="#FFFFFF" fill-rule="nonzero">
                        <path d="M17.0175789,4.55379194 L12.378136,0.154033178 C12.17812,-0.0393904782 11.8607637,-0.0393904782 11.6607478,0.154033178 L8.96984868,2.70567134 L7.29594297,1.11776344 C7.09592705,0.924339785 6.77857074,0.924339785 6.57855482,1.11776344 L2.95555045,4.55323712 C2.58548247,4.90499589 2.81906361,5.55691476 3.31452192,5.55691476 L16.6591623,5.55691476 C17.1546206,5.55691476 17.3882018,4.90499589 17.0175789,4.55379194 L17.0175789,4.55379194 Z" id="路径"></path>
                        <path d="M12.7609649,13.8792832 C12.7609649,14.7985466 13.5061752,15.5437569 14.4254386,15.5437569 C15.344702,15.5437569 16.0899123,14.7985466 16.0899123,13.8792832 C16.0899123,12.9600197 15.344702,12.2148095 14.4254386,12.2148095 C13.5061752,12.2148095 12.7609649,12.9600197 12.7609649,13.8792832 Z" id="路径"></path>
                        <path d="M16.6447368,6.11173931 L3.32894737,6.11173931 C1.4904205,6.11173931 0,7.60215981 0,9.44068668 L0,18.8727042 C0,20.7112311 1.4904205,22.2016516 3.32894737,22.2016516 L16.6447368,22.2016516 C18.4832637,22.2016516 19.9736842,20.7112311 19.9736842,18.8727042 L19.9736842,9.44068668 C19.9736842,7.60215981 18.4832637,6.11173931 16.6447368,6.11173931 Z M14.4254386,17.2082305 C12.5869117,17.2082305 11.0964912,15.71781 11.0964912,13.8792832 C11.0964912,12.0407563 12.5869117,10.5503358 14.4254386,10.5503358 C16.2639655,10.5503358 17.754386,12.0407563 17.754386,13.8792832 C17.754386,15.71781 16.2639655,17.2082305 14.4254386,17.2082305 Z" id="形状"></path>
                    </g>
                </g>
            </g>
        </g>
    </g>
</svg>