<?xml version="1.0" encoding="UTF-8"?>
<svg width="24px" height="10px" viewBox="0 0 24 10" version="1.1" xmlns="http://www.w3.org/2000/svg" xmlns:xlink="http://www.w3.org/1999/xlink">
    <title>路径</title>
    <g id="页面-1" stroke="none" stroke-width="1" fill="none" fill-rule="evenodd">
        <g id="智享生活" transform="translate(-173.000000, -659.000000)" fill-rule="nonzero">
            <g id="编组-13" transform="translate(0.000000, 556.000000)">
                <g id="编组-9" transform="translate(15.000000, 100.000000)">
                    <g id="编组" transform="translate(158.000000, 3.000000)">
                        <path d="M18.9894556,10 L-4.26325641e-14,10 L-4.26325641e-14,4.99402628 C-4.26325641e-14,2.24611708 2.25379902,0 5.01110634,0 L18.9894556,0 C21.7467629,0 24.000562,2.24611708 24.000562,4.99402628 C24.000562,7.75388292 21.7467629,10 18.9894556,10 Z" id="路径" fill="#FF0000"></path>
                        <path d="M3.7763122,2.61944195 L4.5915161,2.61944195 L4.5915161,3.37470439 L4.78332878,3.12295024 C5.15496585,2.69137171 5.62250927,2.47558244 6.17397073,2.47558244 C6.73742049,2.47558244 7.16899902,2.63143024 7.46870634,2.93113756 C7.76841366,3.23084488 7.92426146,3.66242341 7.92426146,4.22587317 L7.92426146,7.70247805 L7.06110439,7.70247805 L7.06110439,4.5135922 C7.06110439,4.07002537 6.97718634,3.74634146 6.79736195,3.54254049 C6.62952585,3.3507278 6.34180683,3.24283317 5.95818146,3.24283317 C5.55057951,3.24283317 5.21490732,3.39868098 4.97514146,3.71037659 C4.73537561,4.0220722 4.61549268,4.44166244 4.61549268,4.98113561 L4.61549268,7.70247805 L3.7643239,7.70247805 L3.7643239,2.61944195 L3.7763122,2.61944195 Z M11.2450185,7.83434927 C10.525721,7.83434927 9.96227122,7.60657171 9.55466927,7.15101659 C9.14706732,6.69546146 8.94326634,6.06008195 8.94326634,5.25686634 C8.94326634,4.40569756 9.15905561,3.72236488 9.59063415,3.21885659 C10.0222127,2.71534829 10.609639,2.46359415 11.3409249,2.46359415 C12.000281,2.46359415 12.5397541,2.71534829 12.9473561,3.20686829 C13.354958,3.69838829 13.558759,4.3457561 13.558759,5.14897171 L13.5467707,5.44867902 L9.8304,5.44867902 C9.86636488,5.95218732 9.9862478,6.33581268 10.1780605,6.61154341 C10.4178263,6.93522732 10.8014517,7.09107512 11.3169483,7.09107512 C11.6406322,7.09107512 11.9283512,6.99516878 12.1681171,6.81534439 C12.4078829,6.63552 12.5637307,6.39575415 12.6116839,6.10803512 L13.4508644,6.10803512 C13.3189932,6.65949659 13.067239,7.09107512 12.695602,7.37879415 C12.3239649,7.66651317 11.8444332,7.83434927 11.2450185,7.83434927 L11.2450185,7.83434927 Z M12.6716254,4.76534634 C12.6476488,4.29780293 12.5277659,3.92616585 12.3239649,3.66242341 C12.0961873,3.37470439 11.7485268,3.23084488 11.30496,3.23084488 C10.8494049,3.23084488 10.5017444,3.39868098 10.2260137,3.73435317 C10.0102244,3.99809561 9.89034146,4.3457561 9.84238829,4.76534634 L12.6716254,4.76534634 Z M15.5368273,7.70247805 L14.0982322,2.61944195 L15.033319,2.61944195 L16.0043707,6.65949659 L16.999399,2.61944195 L17.9584624,2.61944195 L18.9774673,6.69546146 L20.0084605,2.61944195 L20.8596293,2.61944195 L19.4210341,7.70247805 L18.5099239,7.70247805 L17.4549541,3.73435317 L16.4599259,7.70247805 L15.5368273,7.70247805 L15.5368273,7.70247805 Z" id="形状" fill="#FFFFFF"></path>
                    </g>
                </g>
            </g>
        </g>
    </g>
</svg>