<?xml version="1.0" encoding="UTF-8"?>
<svg width="52px" height="52px" viewBox="0 0 52 52" version="1.1" xmlns="http://www.w3.org/2000/svg" xmlns:xlink="http://www.w3.org/1999/xlink">
    <title>椭圆形</title>
    <g id="页面-1" stroke="none" stroke-width="1" fill="none" fill-rule="evenodd">
        <g id="智享生活-便民服务" transform="translate(-30.000000, -174.000000)" fill-rule="nonzero">
            <g id="编组-4" transform="translate(15.000000, 80.000000)">
                <g id="编组-3备份" transform="translate(0.000000, 85.000000)">
                    <g id="编组-6" transform="translate(15.000000, 9.000000)">
                        <circle id="椭圆形" fill="#DEE6FF" opacity="0.449999988" cx="26" cy="26" r="26"></circle>
                        <g id="zhaopin" transform="translate(11.000000, 10.500000)" fill="#3B5CC3">
                            <path d="M13.587137,5.29723043 C13.7886797,2.3805453 15.4153819,0.45794571 18.6112812,0.45794571 C21.8757466,0.45794571 23.3166115,2.67412041 23.4973155,5.29723043 C24.3220026,5.29723043 24.384702,6.38463183 24.2780641,7.19923571 C24.1737483,7.97949546 23.5503595,8.92499812 22.9469537,9.24320082 C21.1092367,14.8249178 15.9784546,14.8328621 14.1378043,9.24320082 C13.5339708,8.92499812 12.9110708,7.9794954 12.8069384,7.19923571 C12.6994449,6.38310411 12.7637333,5.29723043 13.587137,5.29723043 Z M29.84542,27.8407353 L16.8298471,27.8407353 L13.9370561,24.9482499 C13.6777028,24.6883467 13.3241782,24.5516424 12.9583704,24.5742533 L12.5390297,24.1544848 C14.0271942,21.5825244 13.6286922,18.2365986 11.4917167,16.0998065 C10.9716658,15.5795723 10.3775489,15.1625538 9.73643792,14.844901 C10.4320595,14.3456277 11.2302857,13.9643589 12.12305,13.7780327 L14.2058203,13.343781 L18.5417984,21.9881763 L22.8785709,13.343781 L24.9612802,13.7780327 C27.8111715,14.3725774 29.84542,16.789317 29.84542,19.5828643 L29.84542,27.8407353 Z" id="形状"></path>
                            <path d="M10.8869055,16.7051067 C12.947065,18.7647162 13.1272801,21.9948374 11.4421562,24.2682727 L12.7274947,25.5533668 C12.894021,25.385435 13.1649852,25.385435 13.3321227,25.5533668 L16.2824797,28.5028684 C16.4493115,28.6700668 16.4493115,28.9407255 16.2824797,29.1078629 L15.0724904,30.3186466 C14.9920078,30.3982126 14.883231,30.443801 14.7696876,30.443801 C14.6563886,30.443801 14.5475507,30.3982126 14.4670681,30.3186466 L11.5175055,27.3685339 C11.3504292,27.2013354 11.3504292,26.9304323 11.5175055,26.7632949 L10.2321669,25.477773 C7.95909828,27.1634469 4.72830483,26.9829263 2.66869538,24.9232557 C0.402959969,22.6572148 0.402959969,18.9701087 2.66869538,16.7045567 C4.93424745,14.4380269 8.62135348,14.4385769 10.8869055,16.7051067 Z M4.65484987,18.6902223 C3.48415473,19.8609175 3.48415473,21.7660394 4.65484987,22.9372845 C5.824995,24.1071852 7.73066696,24.1071852 8.9005676,22.9367345 C10.0707127,21.7660394 10.0707127,19.8608563 8.9005676,18.6910168 C7.73066696,17.5203216 5.82499506,17.5203216 4.65484987,18.6902223 Z" id="形状结合" opacity="0.400000006"></path>
                        </g>
                    </g>
                </g>
            </g>
        </g>
    </g>
</svg>