<?xml version="1.0" encoding="UTF-8"?>
<svg width="52px" height="53px" viewBox="0 0 52 53" version="1.1" xmlns="http://www.w3.org/2000/svg" xmlns:xlink="http://www.w3.org/1999/xlink">
    <title>椭圆形</title>
    <defs>
        <linearGradient x1="26.2762846%" y1="0%" x2="69.029325%" y2="75.339239%" id="linearGradient-1">
            <stop stop-color="#88C5FA" offset="0%"></stop>
            <stop stop-color="#3B9EF2" offset="100%"></stop>
        </linearGradient>
    </defs>
    <g id="页面-1" stroke="none" stroke-width="1" fill="none" fill-rule="evenodd">
        <g id="智享生活-公共服务-生活缴费" transform="translate(-30.000000, -136.000000)">
            <g id="编组-4" transform="translate(15.000000, 128.000000)">
                <g id="编组-5" transform="translate(15.000000, 8.000000)">
                    <circle id="椭圆形" fill="#E7F6FF" cx="26" cy="26.5" r="26"></circle>
                    <g id="shuifei" transform="translate(13.000000, 10.500000)" fill="url(#linearGradient-1)" fill-rule="nonzero">
                        <path d="M24.8872768,15.1004464 C24.8872768,15.09375 24.8839286,15.0837054 24.8839286,15.0770089 C24.6830357,13.9051339 24.2678571,12.7566964 23.7287946,11.6986607 C23.1897321,10.640625 22.4866071,9.62611607 21.65625,8.77566964 C21.2176339,8.32700893 20.7723214,7.88839286 20.3270089,7.44642857 L17.6651786,4.78459821 C16.6841518,3.80357143 15.7064732,2.82254464 14.7254464,1.84486607 C14.1930804,1.3125 13.6707589,0.766741071 13.125,0.244419643 L13.1015625,0.220982143 C12.8069196,-0.0736607143 12.3080357,-0.0736607143 12.0133929,0.220982143 L10.3024554,1.93191964 L6.86049107,5.37388393 C5.97991071,6.25446429 5.09933036,7.13504464 4.21875,8.01897321 C4.01450893,8.22321429 3.81026786,8.42745536 3.609375,8.63169643 C2.69196429,9.55245536 1.91852679,10.6339286 1.33928571,11.7991071 C0.683035714,13.1216518 0.284598214,14.5145089 0.100446429,15.9776786 C-0.0770089286,17.3738839 0.0267857143,18.8136161 0.334821429,20.1863839 C0.853794643,22.4966518 2.0625,24.6462054 3.74330357,26.3102679 C5.43080357,27.9810268 7.60379464,29.1696429 9.93080357,29.6584821 C11.2232143,29.9296875 12.5491071,30.0100446 13.8616071,29.8660714 C15.1305804,29.7254464 16.3426339,29.4073661 17.5178571,28.9084821 C19.6941964,27.984375 21.5625,26.4107143 22.9051339,24.4720982 C23.5814732,23.4944196 24.1071429,22.4129464 24.4787946,21.2845982 C24.8738839,20.0859375 25.0446429,18.8404018 25.1049107,17.5848214 C25.1450893,16.7544643 25.03125,15.9107143 24.8872768,15.1004464 Z M16.9185268,19.0379464 C17.4006696,19.0379464 17.7991071,19.4330357 17.7991071,19.9185268 C17.7991071,20.4040179 17.4040179,20.7991071 16.9185268,20.7991071 L13.4029018,20.7991071 L13.4029018,23.4375 C13.4029018,23.9196429 13.0078125,24.3180804 12.5223214,24.3180804 C12.0401786,24.3180804 11.6417411,23.9229911 11.6417411,23.4375 L11.6417411,20.7991071 L8.12611607,20.7991071 C7.64397321,20.7991071 7.24553571,20.4040179 7.24553571,19.9185268 C7.24553571,19.4330357 7.640625,19.0379464 8.12611607,19.0379464 L11.6450893,19.0379464 L11.6450893,16.3995536 L8.12611607,16.3995536 C7.64397321,16.3995536 7.24553571,16.0044643 7.24553571,15.5189732 C7.24553571,15.0368304 7.640625,14.6383929 8.12611607,14.6383929 L10.4129464,14.6383929 L7.55357143,11.7790179 C7.20200893,11.4274554 7.20200893,10.8984375 7.55357143,10.546875 C7.90513393,10.1953125 8.43415179,10.1953125 8.78571429,10.546875 L12.5223214,14.2868304 L16.2589286,10.5502232 C16.6104911,10.1986607 17.1395089,10.1986607 17.4910714,10.5502232 C17.8426339,10.9017857 17.8426339,11.4308036 17.4910714,11.7823661 L14.6316964,14.6383929 L16.9185268,14.6383929 C17.4006696,14.6383929 17.7991071,15.0334821 17.7991071,15.5189732 C17.7991071,16.0011161 17.4040179,16.3995536 16.9185268,16.3995536 L13.4029018,16.3995536 L13.4029018,19.0379464 L16.9185268,19.0379464 L16.9185268,19.0379464 Z" id="形状"></path>
                    </g>
                </g>
            </g>
        </g>
    </g>
</svg>