<?xml version="1.0" encoding="UTF-8"?>
<svg width="52px" height="53px" viewBox="0 0 52 53" version="1.1" xmlns="http://www.w3.org/2000/svg" xmlns:xlink="http://www.w3.org/1999/xlink">
    <title>椭圆形</title>
    <defs>
        <linearGradient x1="16.1178644%" y1="0%" x2="85.2151923%" y2="100%" id="linearGradient-1">
            <stop stop-color="#8E9EED" offset="0%"></stop>
            <stop stop-color="#5068E4" offset="100%"></stop>
        </linearGradient>
    </defs>
    <g id="页面-1" stroke="none" stroke-width="1" fill="none" fill-rule="evenodd">
        <g id="智享生活-公共服务-生活缴费" transform="translate(-30.000000, -221.000000)" fill-rule="nonzero">
            <g id="编组-4" transform="translate(15.000000, 128.000000)">
                <g id="编组-3备份-2" transform="translate(0.000000, 85.000000)">
                    <g id="编组-6" transform="translate(15.000000, 8.500000)">
                        <circle id="椭圆形" fill="#E8ECFF" opacity="0.600000024" cx="26" cy="26" r="26"></circle>
                        <g id="dianfei" transform="translate(14.000000, 9.500000)">
                            <path d="M11.9976966,6.79697833 C6.87421672,6.79697833 2.73230805,10.8326842 2.73230805,15.7341037 C2.73230805,18.3505542 3.93272136,20.8028731 5.94735604,22.4892446 C6.38182198,22.8175077 6.60066409,23.3613947 6.60066409,23.9052817 L6.60066409,24.6680108 C6.60066409,25.649582 7.41810372,26.4670217 8.3449644,26.4670217 L15.5925,26.4670217 C16.5740712,26.4670217 17.3368003,25.6528003 17.3368003,24.6680108 L17.3368003,23.9052817 C17.3368003,23.3613947 17.5556424,22.869 17.9901084,22.4892446 C20.004743,20.7996548 21.2051563,18.3473359 21.2051563,15.7341037 C21.2598669,10.8326842 17.1179582,6.79697833 11.9976966,6.79697833 Z M17.9353978,16.825096 C17.6618452,16.825096 17.4462214,16.6094721 17.4462214,16.3359195 C17.3915108,14.9198824 16.7929133,13.4459164 15.8113421,12.3581424 C15.1580341,11.6501238 14.0123313,10.7779737 12.377452,10.7779737 C12.0491889,10.7779737 11.833565,10.5591316 11.833565,10.2340867 C11.833565,9.90582353 12.0524071,9.69019969 12.377452,9.69019969 C13.9576207,9.69019969 15.4283684,10.3435077 16.5740712,11.5986316 C17.719774,12.8537554 18.4277926,14.5980557 18.4825031,16.2844272 C18.4825031,16.6062539 18.263661,16.825096 17.9353978,16.825096 L17.9353978,16.825096 Z" id="形状" fill="url(#linearGradient-1)"></path>
                            <path d="M13.6325759,31.8640542 C13.9576207,31.8640542 14.1764628,32.0828963 14.1732796,32.4111594 C14.1732796,32.7362043 13.9576207,32.9550464 13.6293576,32.9550464 L13.6293576,32.9550464 L10.3595991,32.9550464 C10.0345542,32.9550464 9.81571207,32.7362043 9.81571207,32.4111594 C9.81571207,32.0828963 10.0313359,31.8640542 10.3595991,31.8640542 L10.3595991,31.8640542 Z M14.7203498,29.6852879 C15.048613,29.6852879 15.2674551,29.90413 15.2642719,30.2323932 C15.2642719,30.5606563 15.048613,30.7794985 14.7203498,30.7794985 L14.7203498,30.7794985 L9.27182508,30.7794985 C8.94678019,30.7794985 8.72793808,30.5574381 8.72793808,30.2323932 C8.72793808,29.90413 8.94356192,29.6852879 9.27182508,29.6852879 L9.27182508,29.6852879 Z M15.8113421,27.5065217 C16.1396053,27.5065217 16.3552291,27.7253638 16.3584474,28.0504087 C16.3584474,28.3786718 16.1396053,28.5975139 15.8113421,28.5975139 L15.8113421,28.5975139 L8.18083282,28.5975139 C7.85578793,28.5975139 7.63694582,28.3786718 7.63694582,28.0504087 C7.63694582,27.7253638 7.85256966,27.5065217 8.18083282,27.5065217 L8.18083282,27.5065217 Z M1.26477864,4.97222136 L4.4154613,8.12290402 C4.69866873,8.40611146 4.69866873,8.86310526 4.4154613,9.14631269 C4.27385759,9.28791641 4.09041641,9.35871827 3.90375697,9.35871827 C3.72031579,9.35871827 3.53365635,9.28791641 3.39205263,9.14631269 L0.241369969,5.99563003 C-0.0418374613,5.7124226 -0.0418374613,5.25542879 0.241369969,4.97222136 C0.524577399,4.68901393 0.981571207,4.68901393 1.26477864,4.97222136 Z M23.570582,4.97222136 C23.8537895,5.25542879 23.8537895,5.7124226 23.570582,5.99563003 L20.4198994,9.14631269 C20.2782957,9.28791641 20.0948545,9.35871827 19.908195,9.35871827 C19.7215356,9.35871827 19.5380944,9.28791641 19.3964907,9.14631269 C19.1132833,8.86310526 19.1132833,8.40611146 19.3964907,8.12290402 L22.5471734,4.97222136 C22.8303808,4.68901393 23.2873746,4.68901393 23.570582,4.97222136 Z M11.9687322,1.49658064e-13 C12.3677972,1.49658064e-13 12.6928421,0.325044892 12.6928421,0.724109907 L12.6928421,5.18140867 C12.6928421,5.58047368 12.3677972,5.90230031 11.9687322,5.90230031 C11.5696672,5.90230031 11.2446223,5.57725542 11.2446223,5.1781904 L11.2446223,0.724109907 C11.2446223,0.325044892 11.5696672,1.49658064e-13 11.9687322,1.49658064e-13 Z" id="形状结合" fill="#3B5CC3" opacity="0.400000006"></path>
                        </g>
                    </g>
                </g>
            </g>
        </g>
    </g>
</svg>