<?xml version="1.0" encoding="UTF-8"?>
<svg width="52px" height="52px" viewBox="0 0 52 52" version="1.1" xmlns="http://www.w3.org/2000/svg" xmlns:xlink="http://www.w3.org/1999/xlink">
    <title>椭圆形</title>
    <g id="页面-1" stroke="none" stroke-width="1" fill="none" fill-rule="evenodd">
        <g id="智享生活-便民服务" transform="translate(-30.000000, -89.000000)">
            <g id="编组-4" transform="translate(15.000000, 80.000000)">
                <g id="编组-5" transform="translate(15.000000, 9.000000)">
                    <circle id="椭圆形" fill="#E7F6FF" cx="26" cy="26" r="26"></circle>
                    <g id="zhaozu" transform="translate(11.000000, 12.500000)" fill-rule="nonzero">
                        <path d="M7.26690465,10.8966529 L0,10.8966529 L0,26.8861175 L30.3072,26.8861175 L30.3072,10.8947575 L23.5141416,10.8947575 L7.26690465,10.8966529 Z M4.3878154,16.6548314 L7.01481848,16.6548314 C7.62134156,16.6548314 8.09708308,16.791299 8.44772924,17.071816 C8.80595692,17.3618098 8.9936,17.7882714 8.9936,18.3512006 C8.99937726,18.6754248 8.90106052,18.9929613 8.71308308,19.2571944 C8.50967612,19.5274555 8.21556555,19.7152286 7.8848,19.7860068 L7.8848,19.8030652 C8.46478768,19.930056 8.78889848,20.2958652 8.85713232,20.9099698 L8.95190156,21.8500806 C8.96800699,22.1736839 9.08018616,22.4851461 9.27411697,22.7447022 L8.51596308,22.7447022 C8.36508605,22.5008351 8.28017744,22.2219429 8.26956308,21.9353729 L8.19185232,21.1241483 C8.1577354,20.7659206 8.02884924,20.5005668 7.80898464,20.3470406 C7.60238773,20.1954098 7.31428924,20.127176 6.92952616,20.127176 L5.08721232,20.127176 L5.08721232,22.7447022 L4.3878154,22.7447022 L4.3878154,16.6548314 L4.3878154,16.6548314 Z M10.1535754,16.6548314 L14.4693662,16.6548314 L14.4693662,17.2613544 L10.8529723,17.2613544 L10.8529723,19.2988929 L14.2646646,19.2988929 L14.2646646,19.905416 L10.8529723,19.905416 L10.8529723,22.1381791 L14.6153108,22.1381791 L14.6153108,22.7447022 L10.1535754,22.7447022 L10.1535754,16.6548314 Z M15.5857477,16.6548314 L16.3192616,16.6548314 L19.7669662,21.6093668 L19.7916062,21.6093668 L19.7916062,16.6548314 L20.4910031,16.6548314 L20.4910031,22.7447022 L19.7745477,22.7447022 L16.31168,17.737096 L16.2851446,17.737096 L16.2851446,22.7447022 L15.5857477,22.7447022 L15.5857477,16.6548314 Z M21.249157,16.6548314 L26.2397046,16.6548314 L26.2397046,17.2613544 L24.0903385,17.2613544 L24.0903385,22.7447022 L23.4004185,22.7447022 L23.4004185,17.2594591 L21.249157,17.2594591 L21.249157,16.6548314 Z M5.10048,17.2480868 L5.10048,19.5225483 L7.19488,19.5225483 C7.49531461,19.5215456 7.7830174,19.4011056 7.99456721,19.1877781 C8.20611702,18.9744506 8.32414529,18.68575 8.32264823,18.3853175 C8.32264823,17.7750037 7.81846156,17.2480868 7.19488,17.2480868 L5.10048,17.2480868 Z" id="形状" fill="#48BFFF"></path>
                        <path d="M14.9738831,-2.09254835e-12 C16.535036,-0.0071875257 17.9609763,0.884670642 18.6376615,2.29156364 C19.131768,3.30274549 19.1846101,4.47350731 18.7836062,5.52508981 L18.7836062,5.52508981 L23.2472369,10.8947144 L20.86,10.8939569 L17.9401477,7 C17.2572677,7.66703999 16.3423191,8.09710856 15.3273289,8.15514366 L15.0913846,8.16187076 C14.0375508,8.16187076 13.0765908,7.7619446 12.3544492,7.10614152 L12.3544492,7.10614152 L9.511,10.8959569 L7,10.8966098 L11.1319384,5.43790208 C10.6891669,4.19012854 10.880192,2.80502464 11.6441813,1.7236802 C12.4081706,0.642335756 13.6498796,-0.000441061158 14.9738831,-2.09254835e-12 Z" id="形状结合" fill="#9ADBFF"></path>
                    </g>
                </g>
            </g>
        </g>
    </g>
</svg>