<?xml version="1.0" encoding="UTF-8"?>
<svg width="52px" height="53px" viewBox="0 0 52 53" version="1.1" xmlns="http://www.w3.org/2000/svg" xmlns:xlink="http://www.w3.org/1999/xlink">
    <title>椭圆形</title>
    <defs>
        <linearGradient x1="28.0851454%" y1="0%" x2="75.5102041%" y2="100%" id="linearGradient-1">
            <stop stop-color="#FECE72" offset="0%"></stop>
            <stop stop-color="#F5A716" offset="100%"></stop>
        </linearGradient>
    </defs>
    <g id="页面-1" stroke="none" stroke-width="1" fill="none" fill-rule="evenodd">
        <g id="智享生活-公共服务-生活缴费" transform="translate(-30.000000, -306.000000)">
            <g id="编组-4" transform="translate(15.000000, 128.000000)">
                <g id="编组-3备份" transform="translate(0.000000, 170.000000)">
                    <g id="编组-7" transform="translate(15.000000, 8.500000)">
                        <circle id="椭圆形" fill="#FFF7DD" cx="26" cy="26" r="26"></circle>
                        <g id="huafei" transform="translate(16.000000, 12.000000)" fill="url(#linearGradient-1)" fill-rule="nonzero">
                            <path d="M17.4811975,0 L2.51585312,0 C1.14437399,0 0,1.2047268 0,2.62720937 L0,25.3727906 C0,26.7952732 1.14437399,28 2.51585312,28 L17.4841469,28 C18.855626,28 20,26.7952732 20,25.3727906 L20,2.62720937 C19.9970506,1.2047268 18.9588556,0 17.4811975,0 Z M6.25276508,2.75729724 C6.25276508,2.57630542 6.40613479,2.43207757 6.59194809,2.43207757 L13.4051025,2.43207757 C13.5938652,2.43207757 13.7442855,2.57630542 13.7442855,2.75729724 L13.7442855,3.31724068 C13.7442855,3.4982325 13.5938652,3.65094435 13.4051025,3.65094435 L6.59194809,3.65094435 C6.40318537,3.65094435 6.25276508,3.4982325 6.25276508,3.31724068 L6.25276508,2.75729724 Z M13.8268692,15.3277447 C14.2810795,15.3277447 14.6409084,15.7038683 14.6409084,16.1761438 C14.6409084,16.6484194 14.2692818,17.024543 13.8121221,17.024543 L10.9128447,17.024543 L10.9128447,21.8434502 C10.9128447,22.3581456 10.5087745,22.7738612 10.0132724,22.7738612 C9.51777024,22.7738612 9.11370004,22.3581456 9.11370004,21.8434502 L9.11370004,17.024543 L6.17018139,17.024543 C5.7159711,17.024543 5.34139507,16.6484194 5.34139507,16.1761438 C5.34139507,15.7038683 5.71302168,15.3277447 6.17018139,15.3277447 L9.11370004,15.3277447 L9.11370004,14.3096657 L6.17018139,14.3096657 C5.7159711,14.3096657 5.34139507,13.9335421 5.34139507,13.4612665 C5.34139507,12.988991 5.71302168,12.6128674 6.17018139,12.6128674 L8.40583985,12.6128674 L5.86639139,8.82617917 C5.60389323,8.43874356 5.70122401,7.8985961 6.07285061,7.62710837 C6.44447722,7.35562064 6.96357469,7.45460055 7.22607285,7.84203616 L9.99852529,11.962428 L12.7709777,7.83638016 C13.0334759,7.44328856 13.5496239,7.34996465 13.9242,7.62145238 C14.3046748,7.89294011 14.3931574,8.43591556 14.1306592,8.82335118 L11.5912107,12.6128674 L13.8268692,12.6128674 C14.2810795,12.6128674 14.6556555,12.988991 14.6556555,13.4612665 C14.6556555,13.9335421 14.2840289,14.3096657 13.8268692,14.3096657 L10.9423389,14.3096657 L10.9423389,15.3277447 L13.8268692,15.3277447 Z" id="形状"></path>
                        </g>
                    </g>
                </g>
            </g>
        </g>
    </g>
</svg>