<?xml version="1.0" encoding="UTF-8"?>
<svg width="20px" height="20px" viewBox="0 0 20 20" version="1.1" xmlns="http://www.w3.org/2000/svg" xmlns:xlink="http://www.w3.org/1999/xlink">
    <title>矩形</title>
    <g id="页面-1" stroke="none" stroke-width="1" fill="none" fill-rule="evenodd">
        <g id="智享生活" transform="translate(-250.000000, -120.000000)">
            <g id="编组-4" transform="translate(235.000000, 64.000000)">
                <g id="编组" transform="translate(15.000000, 56.000000)">
                    <rect id="矩形" fill="#D8D8D8" opacity="0" x="0" y="0" width="20" height="20"></rect>
                    <g id="编组-3" transform="translate(3.500000, 2.500000)" fill-rule="nonzero">
                        <path d="M11.5922819,1.40268456 L9.33724832,1.40268456 C9.23154362,0.941275168 8.80536913,0.58557047 8.30704698,0.58557047 L7.18959732,0.58557047 C7.04697987,0.229865772 6.70973154,0 6.3204698,0 C5.9295302,0 5.59228188,0.231543624 5.45134228,0.58557047 L4.31543624,0.58557047 C3.81879195,0.58557047 3.39261745,0.941275168 3.2852349,1.40268456 L1.03020134,1.40268456 C0.444630872,1.40268456 -2.42230478e-15,1.88255034 -2.42230478e-15,2.46812081 L-2.42230478e-15,13.9345638 C-2.42230478e-15,14.5201342 0.461409396,15 1.03020134,15 L11.5738255,15 C12.159396,15 12.6560403,14.5201342 12.6560403,13.9345638 L12.6560403,2.46812081 C12.6744966,1.88255034 12.1778523,1.40268456 11.5922819,1.40268456 L11.5922819,1.40268456 Z" id="形状" stroke="#333333" stroke-width="1.3" stroke-linejoin="round"></path>
                        <path d="M6.48489933,2.91778523 C7.04789145,2.91778523 7.48489933,3.37644665 7.48489933,3.91778523 C7.48489933,4.48077736 7.02623791,4.91778523 6.48489933,4.91778523 C5.9219072,4.91778523 5.48489933,4.45912382 5.48489933,3.91778523 C5.48489933,3.37644665 5.92387571,2.91778523 6.48489933,2.91778523 Z" id="路径" stroke="#333333" stroke-linejoin="round"></path>
                        <path d="M9.58557047,11.3800905 C9.58557047,11.6236008 9.40771812,11.8268456 9.19463087,11.8268456 L3.47986577,11.8268456 C3.26677852,11.8268456 3.08892617,11.6236008 3.08892617,11.3800905 L3.08892617,10.9736008 C3.08892617,10.7300905 3.26677852,10.5268456 3.47986577,10.5268456 L9.19463087,10.5268456 C9.40771812,10.5268456 9.58557047,10.7300905 9.58557047,10.9736008 L9.58557047,11.3800905 L9.58557047,11.3800905 Z" id="路径" fill="#333333"></path>
                        <path d="M9.58557047,8.24250658 C9.58557047,8.48601691 9.40771812,8.68926174 9.19463087,8.68926174 L3.47986577,8.68926174 C3.26677852,8.68926174 3.08892617,8.48601691 3.08892617,8.24250658 L3.08892617,7.83601691 C3.08892617,7.59250658 3.26677852,7.38926174 3.47986577,7.38926174 L9.19463087,7.38926174 C9.40771812,7.38926174 9.58557047,7.59250658 9.58557047,7.83601691 L9.58557047,8.24250658 L9.58557047,8.24250658 Z" id="路径" fill="#333333"></path>
                    </g>
                </g>
            </g>
        </g>
    </g>
</svg>