<?xml version="1.0" encoding="UTF-8"?>
<svg width="52px" height="52px" viewBox="0 0 52 52" version="1.1" xmlns="http://www.w3.org/2000/svg" xmlns:xlink="http://www.w3.org/1999/xlink">
    <title>椭圆形</title>
    <g id="页面-1" stroke="none" stroke-width="1" fill="none" fill-rule="evenodd">
        <g id="智享生活-商家中心-我的服务" transform="translate(-29.000000, -89.000000)">
            <g id="编组-4" transform="translate(15.000000, 80.000000)">
                <g id="编组-6" transform="translate(14.000000, 9.000000)">
                    <circle id="椭圆形" fill="#E7F6FF" cx="26" cy="26" r="26"></circle>
                    <g id="待接单" transform="translate(9.000000, 9.000000)" fill-rule="nonzero">
                        <rect id="矩形" fill="#000000" opacity="0" x="0" y="0" width="33.408" height="33.408"></rect>
                        <g id="编组-5" transform="translate(4.632000, 3.088000)">
                            <path d="M13.2441854,21.4732829 C13.6062529,18.4167296 16.0734326,15.8750622 19.175133,15.3685275 C20.5528277,15.1433653 21.867497,15.3091052 23.0341224,15.7629629 C23.5048429,15.9460478 24.012,15.6171374 24.012,15.1215236 L24.012,8.21858242 L0.00229779904,8.21858242 L0.00229779904,27.0133662 C0.00229779904,27.6593024 0.542608831,28.188 1.20273367,28.188 L14.511914,28.188 C15.1408544,28.188 15.4461334,27.4659391 15.0262927,27.0072633 C13.7122799,25.5705291 12.9917558,23.6034912 13.2441854,21.4732829 L13.2441854,21.4732829 Z M10.8216487,14.5600634 C10.8216487,14.951608 10.4973308,15.2686338 10.0975138,15.2686338 L4.34316845,15.2686338 C3.94302316,15.2686338 3.61903349,14.9512868 3.61903349,14.5600634 L3.61903349,13.6279366 C3.61903349,13.236392 3.94335141,12.9193662 4.34316845,12.9193662 L10.0975138,12.9193662 C10.4976591,12.9193662 10.8216487,13.2367132 10.8216487,13.6279366 L10.8216487,14.5600634 Z" id="形状" fill="#48BFFF"></path>
                            <path d="M20.358,16.704 C17.1868058,16.704 14.616,19.2748058 14.616,22.446 C14.616,25.6171942 17.1868058,28.188 20.358,28.188 C23.5291942,28.188 26.1,25.6171942 26.1,22.446 C26.1,19.2748058 23.5291942,16.704 20.358,16.704 Z M22.9316318,24.4321178 L22.3635865,25.0045593 C22.1855424,25.1841735 21.8953965,25.1851155 21.7157823,25.0070714 L19.4966686,22.8046002 L19.4966686,20.1000259 C19.4966686,19.8469333 19.7017176,19.6421983 19.9548102,19.6421983 L20.7611898,19.6421983 C21.0142824,19.6421983 21.2193314,19.8472473 21.2193314,20.1000259 L21.2193314,22.0867717 L22.9291198,23.7843137 C23.1087339,23.9626718 23.1096759,24.2528177 22.9316318,24.4321178 L22.9316318,24.4321178 Z" id="形状" fill="#48BFFF"></path>
                            <path d="M24.0116717,1.28159393 C24.0116717,0.573987055 23.4254047,6.80344669e-13 22.7019263,6.80344669e-13 L21.7043532,6.80344669e-13 C21.2044178,6.80344669e-13 20.7248343,0.268524442 20.531491,0.71981253 C20.2294945,1.42484979 19.5194746,1.92014248 18.6893126,1.92014248 C17.8591507,1.92014248 17.1488025,1.42484979 16.8471343,0.71981253 C16.653791,0.268524442 16.1742075,0.000321201487 15.674272,0.000321201487 L15.0118494,0.000321201487 C14.511914,0.000321201487 14.0323305,0.268845644 13.8389871,0.71981253 C13.5369907,1.42484979 12.8269708,1.92014248 11.9968088,1.92014248 C11.1666468,1.92014248 10.4562987,1.42484979 10.1546305,0.71981253 C9.96161537,0.268845644 9.48170362,0.000321201487 8.9817682,0.000321201487 L8.34593438,0.000321201487 C7.84599896,0.000321201487 7.36641548,0.268845644 7.1730721,0.71981253 C6.87107565,1.42484979 6.16105575,1.92014248 5.33089378,1.92014248 C4.50073181,1.92014248 3.79038365,1.42484979 3.48871546,0.71981253 C3.29570034,0.268524442 2.8157886,6.80344669e-13 2.31585318,6.80344669e-13 L1.30974545,6.80344669e-13 C0.58659527,6.80344669e-13 -6.92779167e-14,0.573665854 -6.92779167e-14,1.28159393 L-6.92779167e-14,7.03913056 L24.0110152,7.03913056 L24.0110152,1.28159393 L24.0116717,1.28159393 Z" id="路径" fill="#9ADBFF"></path>
                        </g>
                    </g>
                </g>
            </g>
        </g>
    </g>
</svg>