<?xml version="1.0" encoding="UTF-8"?>
<svg width="29px" height="28px" viewBox="0 0 29 28" version="1.1" xmlns="http://www.w3.org/2000/svg" xmlns:xlink="http://www.w3.org/1999/xlink">
    <title>形状</title>
    <defs>
        <linearGradient x1="19.0388379%" y1="6.19711752%" x2="89.8379745%" y2="93.8028825%" id="linearGradient-1">
            <stop stop-color="#779FEC" offset="0%"></stop>
            <stop stop-color="#3470E2" offset="100%"></stop>
        </linearGradient>
    </defs>
    <g id="页面-1" stroke="none" stroke-width="1" fill="none" fill-rule="evenodd">
        <g id="智享生活" transform="translate(-135.000000, -322.000000)" fill-rule="nonzero">
            <g id="图标" transform="translate(31.500000, 322.000000)">
                <g id="编组-6" transform="translate(104.000000, 0.000000)">
                    <g id="形状备份-3" transform="translate(3.000000, 10.586372)" fill="#9EBBF1">
                        <path d="M21.5222998,1.09644229 L20.9555993,0.0985566105 C20.906321,0 20.7831252,-0.0246391526 20.6968882,0.0246391526 L19.4772501,0.739174578 L18.0558857,1.62999409 L3.5327054,1.62999409 L2.06968882,0.751494155 L0.850050765,0.0369587289 C0.763813731,-0.0123195763 0.640617968,0.0123195763 0.591339663,0.110876187 L0.0246391526,1.10876187 C-0.0246391526,1.1949989 0,1.31819466 0.0985566105,1.36747297 L1.55226661,2.21752374 L20.0316311,2.20520416 L21.4853411,1.35515339 C21.546939,1.30587509 21.5715781,1.1949989 21.5222998,1.09644229 Z" id="形状备份-2"></path>
                    </g>
                    <g id="拼车备份-2" transform="translate(3.917694, 5.000000)" fill="url(#linearGradient-1)">
                        <path d="M18.5595566,6.32554625 L16.6746614,1.12668504 C16.4652286,0.486067076 15.8738889,0.054881905 15.2086318,0.054881905 L4.77395069,0.054881905 C3.9362195,0.0672014813 3.19704492,0.596943263 2.9506534,1.39771572 L1.15199525,6.33786582 L0.63457305,7.8038954 L0.289624913,8.76482235 C0.264985761,8.83873981 0.252666185,8.92497685 0.252666185,9.01121388 L0.252666185,17.3885258 C0.252666185,17.7704326 0.53601644,18.0661025 0.880964576,18.0661025 L2.50714865,18.0661025 C2.80281848,18.0661025 3.06152958,17.8443501 3.12312746,17.5240411 L3.30792111,16.6123925 L16.2511225,16.6123925 L16.4738753,17.5240411 C16.6138109,17.8854153 16.7465882,18.0661025 16.872207,18.0661025 C17.0606353,18.0661025 18.7343326,18.0661025 19.0792807,18.0661025 C19.1937988,18.0661025 19.302246,18.0306608 19.3854585,17.8511277 C19.4686711,17.6715946 19.4958444,17.4625926 19.4958444,17.3885258 C19.4958444,13.7994225 19.4958444,11.9679122 19.4958444,11.8939947 L19.4958444,8.9988943 C19.4958444,8.91265727 19.4835248,8.83873981 19.4588856,8.75250278 L19.1139375,7.79157583 L18.5595566,6.32554625 Z M2.93833382,10.9084286 C2.81513806,10.2308519 3.39415814,9.65183185 4.07173484,9.77502761 C4.45364171,9.84894507 4.74931154,10.1569345 4.82322899,10.5265218 C4.95874433,11.2040985 4.36740467,11.7954381 3.68982797,11.6599228 C3.30792111,11.5860053 2.9999317,11.2780159 2.93833382,10.9084286 Z M16.0094043,11.6599228 C15.3318276,11.7831185 14.7528075,11.2040985 14.8760033,10.5265218 C14.9499207,10.1446149 15.2579101,9.84894507 15.6274974,9.77502761 C16.3050741,9.63951227 16.8840942,10.2308519 16.7608984,10.9084286 C16.686981,11.2903355 16.3789916,11.5983249 16.0094043,11.6599228 Z M2.82745763,6.79369014 L4.57683747,1.98905539 L4.58915704,1.95209666 L4.60147662,1.91513793 C4.62611577,1.84122047 4.70003323,1.77962259 4.78627027,1.77962259 L15.0731165,1.77962259 L16.8840942,6.78137057 L2.82745763,6.79369014 Z" id="形状"></path>
                    </g>
                </g>
            </g>
        </g>
    </g>
</svg>