<?xml version="1.0" encoding="UTF-8"?>
<svg width="52px" height="52px" viewBox="0 0 52 52" version="1.1" xmlns="http://www.w3.org/2000/svg" xmlns:xlink="http://www.w3.org/1999/xlink">
    <title>椭圆形</title>
    <defs>
        <linearGradient x1="16.2506062%" y1="6.19711752%" x2="77.0711468%" y2="72.1986341%" id="linearGradient-1">
            <stop stop-color="#88C5FA" offset="0%"></stop>
            <stop stop-color="#3B9EF2" offset="100%"></stop>
        </linearGradient>
    </defs>
    <g id="页面-1" stroke="none" stroke-width="1" fill="none" fill-rule="evenodd">
        <g id="智享生活-交通服务" transform="translate(-30.000000, -89.000000)">
            <g id="编组-3备份" transform="translate(15.000000, 80.000000)">
                <g id="编组-5" transform="translate(15.000000, 9.000000)">
                    <circle id="椭圆形" fill="#E9F5FD" cx="26" cy="26" r="26"></circle>
                    <g id="编组-6" transform="translate(11.500000, 13.500000)" fill-rule="nonzero">
                        <g id="形状备份-3" transform="translate(0.000000, 7.565243)" fill="#A0D2FB">
                            <path d="M29.1461866,1.48483721 L28.3787426,0.133468513 C28.3120084,0 28.1451727,-0.0333671283 28.0283878,0.0333671283 L26.3767149,1.00101385 L24.4518578,2.20739012 L4.78410261,2.20739012 L2.80283878,1.01769741 L1.15116593,0.0500506925 C1.03438098,-0.0166835642 0.867545336,0.0166835642 0.800811079,0.150152077 L0.0333671283,1.50152077 C-0.0333671283,1.61830572 0,1.78514136 0.133468513,1.85187562 L2.10212908,3.00304155 L27.1274753,2.98635798 L29.0961359,1.83519206 C29.1795537,1.7684578 29.2129208,1.61830572 29.1461866,1.48483721 Z" id="形状备份-2"></path>
                        </g>
                        <g id="拼车备份-2" transform="translate(1.242770, 0.000000)">
                            <path d="M25.133945,8.56625698 L22.5813596,1.52579291 C22.2977391,0.658247576 21.496928,0.0743228306 20.5960155,0.0743228306 L6.46503667,0.0743228306 C5.33055431,0.0910063948 4.32954046,0.808399653 3.99586918,1.89283132 L1.56006881,8.58294055 L0.859359115,10.5682847 L0.392219319,11.8696027 C0.35885219,11.9697041 0.342168626,12.086489 0.342168626,12.203274 L0.342168626,23.5480976 C0.342168626,24.0652881 0.725890602,24.4656936 1.1930304,24.4656936 L3.39526087,24.4656936 C3.79566641,24.4656936 4.14602125,24.1653895 4.22943907,23.7316168 L4.47969254,22.4970331 L22.0077897,22.4970331 L22.3094487,23.7316168 C22.498954,24.2210013 22.6787651,24.4656936 22.8488822,24.4656936 C23.1040579,24.4656936 25.3706322,24.4656936 25.837772,24.4656936 C25.992856,24.4656936 26.1397187,24.4176974 26.2524078,24.174568 C26.3650969,23.9314385 26.4018958,23.6484012 26.4018958,23.5480976 C26.4018958,18.6876192 26.4018958,16.2073294 26.4018958,16.107228 L26.4018958,12.1865904 C26.4018958,12.0698055 26.3852123,11.9697041 26.3518451,11.8529191 L25.8847053,10.5516011 L25.133945,8.56625698 Z M3.97918561,14.7725428 C3.81234997,13.8549468 4.59647748,13.0708193 5.51407351,13.2376549 C6.031264,13.3377563 6.43166954,13.7548454 6.53177093,14.2553524 C6.71529013,15.1729484 5.91447905,15.9737595 4.99688302,15.7902403 C4.47969254,15.6901389 4.06260343,15.2730498 3.97918561,14.7725428 Z M21.6804472,15.7902403 C20.7628511,15.9570759 19.9787236,15.1729484 20.1455593,14.2553524 C20.2456607,13.7381619 20.6627498,13.3377563 21.1632567,13.2376549 C22.0808527,13.0541357 22.8649802,13.8549468 22.6981446,14.7725428 C22.5980432,15.2897333 22.1809541,15.7068224 21.6804472,15.7902403 Z M3.82903353,9.20023242 L6.19809964,2.6936424 L6.21478321,2.64359171 L6.23146677,2.59354102 C6.2648339,2.49343963 6.36493528,2.41002181 6.48172023,2.41002181 L20.4124963,2.41002181 L22.8649802,9.18354886 L3.82903353,9.20023242 Z" id="形状" fill="url(#linearGradient-1)"></path>
                            <path d="M25.0618489,9.18354886 L22.5813596,1.52579291 C22.2977391,0.658247576 21.496928,0.0743228306 20.5960155,0.0743228306 L6.46503667,0.0743228306 C5.33055431,0.0910063948 4.32954046,0.808399653 3.99586918,1.89283132 L1.48797276,9.20023242 L25.0618489,9.18354886 Z M3.82903353,9.20023242 L6.19809964,2.6936424 L6.21478321,2.64359171 L6.23146677,2.59354102 C6.2648339,2.49343963 6.36493528,2.41002181 6.48172023,2.41002181 L20.4124963,2.41002181 L22.8649802,9.18354886 L3.82903353,9.20023242 Z" id="形状备份" fill="#A0D2FB"></path>
                        </g>
                    </g>
                </g>
            </g>
        </g>
    </g>
</svg>