<?xml version="1.0" encoding="UTF-8"?>
<svg width="52px" height="52px" viewBox="0 0 52 52" version="1.1" xmlns="http://www.w3.org/2000/svg" xmlns:xlink="http://www.w3.org/1999/xlink">
    <title>椭圆形</title>
    <defs>
        <linearGradient x1="11.7170292%" y1="0%" x2="89.7891737%" y2="100%" id="linearGradient-1">
            <stop stop-color="#8E9EED" offset="0%"></stop>
            <stop stop-color="#5068E4" offset="100%"></stop>
        </linearGradient>
    </defs>
    <g id="页面-1" stroke="none" stroke-width="1" fill="none" fill-rule="evenodd">
        <g id="智享生活-交通服务" transform="translate(-30.000000, -174.000000)" fill-rule="nonzero">
            <g id="编组-3备份-2" transform="translate(15.000000, 165.000000)">
                <g id="编组-6" transform="translate(15.000000, 9.000000)">
                    <circle id="椭圆形" fill="#E8ECFF" opacity="0.600000024" cx="26" cy="26" r="26"></circle>
                    <g id="VMStingchefei" transform="translate(10.000000, 11.500000)">
                        <path d="M14.4269754,-1.9125442e-13 C21.9230006,0.000351740474 28.1691516,5.74292812 28.7981193,13.2125193 C25.4014344,12.6611127 22.0406175,14.3815749 20.5018631,17.4595211 C18.9631087,20.5374672 19.6036521,24.2583253 22.0830596,26.6445474 C16.89087,29.897733 10.2099557,29.5152538 5.42295957,25.6907645 C0.635963442,21.8662752 -1.21210382,15.4346694 0.814460754,9.65236139 C2.84102533,3.87005335 8.2998187,-0.00066763734 14.4269754,-1.9125442e-13 Z M16.104786,6.55472281 L9.54815439,6.55472281 L9.54815439,22.2887298 L12.170807,22.2887298 L12.170807,16.2436491 L16.1028772,16.2436491 C19.9070596,16.2188351 21.8081965,14.5963789 21.8081965,11.3800982 C21.8081965,8.16381754 19.9070596,6.55472281 16.104786,6.55472281 Z M18.4373053,9.37397895 C19.0118456,9.85880702 19.3191579,10.5898667 19.2638035,11.340014 C19.3306105,12.1092491 19.0347509,12.8670316 18.4640281,13.3862175 C17.8188632,13.7870596 17.0801684,14.0027509 16.3262035,14.0142035 L15.9463579,14.0027509 L12.1975298,14.0027509 L12.1975298,8.75744561 L15.9463579,8.75744561 C16.8224842,8.68491228 17.6986105,8.90060351 18.4373053,9.37397895 Z" id="形状" fill="url(#linearGradient-1)"></path>
                        <path d="M27.5364211,15.2510877 C30.6989779,15.2510877 33.2627368,17.8148466 33.2627368,20.9774035 C33.2627368,24.1399604 30.6989779,26.7037193 27.5364211,26.7037193 C24.3738642,26.7037193 21.8101054,24.1399603 21.8101054,20.9774035 C21.8101054,17.8148467 24.3738642,15.2510877 27.5364211,15.2510877 L27.5364211,15.2510877 Z M25.9177825,17.7859368 L24.4289404,17.7859368 L26.440786,21.4355088 L25.1084632,21.4355088 L25.1084632,22.128393 L26.8301754,22.128393 L26.8397193,22.1379368 L26.8397193,23.0083368 L25.1084632,23.0083368 L25.1084632,23.7012211 L26.8397193,23.7012211 L26.8397193,25.2740491 L28.1624982,25.2740491 L28.1624982,23.7012211 L29.9032982,23.7012211 L29.9032982,23.0083368 L28.1624982,23.0083368 L28.1624982,22.1379368 L28.1720421,22.128393 L29.9032982,22.128393 L29.9032982,21.4355088 L28.5595228,21.4355088 L30.5732772,17.7859368 L29.0844351,17.7859368 L27.5001544,20.9430456 L25.9158737,17.7859368 L25.9177825,17.7859368 Z" id="形状" fill="#B8C3FF"></path>
                    </g>
                </g>
            </g>
        </g>
    </g>
</svg>