<?xml version="1.0" encoding="UTF-8"?>
<svg width="52px" height="52px" viewBox="0 0 52 52" version="1.1" xmlns="http://www.w3.org/2000/svg" xmlns:xlink="http://www.w3.org/1999/xlink">
    <title>椭圆形</title>
    <defs>
        <linearGradient x1="11.5860924%" y1="11.4493512%" x2="89.9252621%" y2="88.5506488%" id="linearGradient-1">
            <stop stop-color="#96F1D2" offset="0%"></stop>
            <stop stop-color="#4CCCA0" offset="100%"></stop>
        </linearGradient>
    </defs>
    <g id="页面-1" stroke="none" stroke-width="1" fill="none" fill-rule="evenodd">
        <g id="智享生活-交通服务" transform="translate(-30.000000, -259.000000)">
            <g id="编组-3" transform="translate(15.000000, 250.000000)">
                <g id="编组-4" transform="translate(15.000000, 9.000000)">
                    <circle id="椭圆形" fill="#E2FBF3" cx="26" cy="26" r="26"></circle>
                    <g id="编组-7" transform="translate(11.000000, 11.000000)" fill-rule="nonzero">
                        <path d="M21.4760531,19.3428535 C21.2873048,19.3428535 21.1004316,19.3428535 20.9135583,19.3291036 C21.2935265,19.6110009 21.5453805,20.0327944 21.6133078,20.501012 C21.6812352,20.9692297 21.5596261,21.4452039 21.27543,21.8234558 C20.9332561,22.2780791 20.3956756,22.5433906 19.8266933,22.5384492 C19.3516209,22.5434481 18.8940231,22.359507 18.5545797,22.0270962 C18.2151363,21.6946854 18.0216567,21.2410384 18.0167099,20.7659655 C18.0129599,20.2840949 18.2042081,19.8209741 18.54858,19.4816022 C18.7217034,19.3128538 18.9267015,19.180355 19.1510745,19.0916058 C17.2264177,18.6847623 15.4446577,17.7731742 13.9886218,16.45038 L4.11183729,16.45038 C4.08436466,16.4504435 4.05855532,16.437225 4.04255195,16.4148947 C4.02654858,16.3925644 4.02232476,16.3638762 4.03121306,16.337881 L5.84369643,11.2323028 C5.86244625,11.1785533 5.89557094,11.1410537 5.90244589,11.102929 C5.90308111,11.0973237 5.90455593,11.0918458 5.90682085,11.0866792 L5.94244553,11.0160548 C6.54494001,9.86606536 7.08618504,9.05294782 8.40679793,9.05294782 L10.3961547,9.05294782 C10.3762039,8.80093369 10.3657799,8.54825586 10.364905,8.29545477 C10.36678,7.85045885 10.3942797,7.40608792 10.4480292,6.96421695 L8.44179762,6.96421695 C7.86075835,6.95686088 7.28389088,7.0632321 6.74368819,7.27733908 L6.68931369,7.29358895 C6.04482597,7.54723169 5.48216511,7.97263184 5.06245359,8.52357767 C4.87120535,8.75357557 4.69683193,8.99607333 4.54058338,9.250446 C4.34738606,9.55775292 4.16457612,9.87146896 3.9924634,10.1910624 C3.60684193,10.8754311 2.25810431,15.1285171 2.25810431,15.1285171 C0.854992148,16.1078831 0.0143748633,17.5259952 -3.19744231e-14,18.964107 L-3.19744231e-14,25.4640474 C0.00499995117,27.5015287 1.54873579,29.2090131 3.58371715,29.4283861 C5.28966295,29.6538804 6.95762082,28.8023689 7.77555372,27.2884057 C7.7900647,27.2605401 7.81914327,27.2433353 7.85055305,27.2440311 L12.8123825,27.2627809 L17.7735871,27.2440311 C17.8048368,27.2440311 17.8348365,27.2609059 17.8492114,27.2884057 C18.6670588,28.8021341 20.3346902,29.653606 22.040423,29.4283861 C24.0766543,29.2033881 25.6191402,27.4934038 25.6247651,25.4546725 L25.6247651,18.964107 C25.6213085,18.8265847 25.6108786,18.6893263 25.5935154,18.5528607 C24.283737,19.0755776 22.8862842,19.3436984 21.4760531,19.3428535 L21.4760531,19.3428535 Z M7.46555657,21.4334593 C7.07952505,22.3480295 6.02685406,22.7785406 5.11057816,22.3965755 C4.67074091,22.2149732 4.3213927,21.8655995 4.13982241,21.425749 C3.95825213,20.9858986 3.95942697,20.491829 4.14308701,20.052847 C4.37702364,19.4977775 4.87268237,19.0961824 5.46419996,18.9824484 C6.05571755,18.8687143 6.66496176,19.0578641 7.08806004,19.4866022 C7.5953493,19.9998555 7.74425465,20.7678027 7.46555657,21.4334593 L7.46555657,21.4334593 Z" id="形状" fill="url(#linearGradient-1)"></path>
                        <path d="M20.7140909,-5.32907052e-14 C25.5465466,-5.32907052e-14 29.4640107,3.9174641 29.4640107,8.74991979 C29.4640107,13.5823755 25.5465466,17.4998396 20.7140909,17.4998396 C15.8816352,17.4998396 11.9641711,13.5823755 11.9641711,8.74991979 C11.9641711,3.9174641 15.8816352,-5.32907052e-14 20.7140909,-5.32907052e-14 Z M21.9790793,3.6874662 L17.3066221,3.6874662 L17.3066221,13.8104984 L18.2853632,13.8104984 C18.8171452,13.8195603 19.2560029,13.3966356 19.2666042,12.8648821 L19.2666042,12.8648821 L19.2666042,9.60616195 L22.0765784,9.60616195 C22.9334939,9.60604183 23.7496837,9.24046152 24.3203079,8.60117115 C24.8920814,7.96329055 25.1596457,7.10863463 25.0540511,6.25806765 C24.8184827,4.75146375 23.5035815,3.65223843 21.9790793,3.6874662 L21.9790793,3.6874662 Z M22.2140772,5.62493541 C22.7640721,5.62182346 23.210318,6.18119335 23.214068,6.87368698 C23.215943,6.96056118 23.209693,7.04743538 23.1953182,7.13243461 C23.0828192,7.73117912 22.6515731,8.14555034 22.1640776,8.12493541 L22.1640776,8.12493541 L19.4641024,8.12493541 L19.4641024,5.62493541 Z" id="形状结合" fill="#96F1D2"></path>
                    </g>
                </g>
            </g>
        </g>
    </g>
</svg>