<?xml version="1.0" encoding="UTF-8"?>
<svg width="29px" height="28px" viewBox="0 0 29 28" version="1.1" xmlns="http://www.w3.org/2000/svg" xmlns:xlink="http://www.w3.org/1999/xlink">
    <title>矩形</title>
    <defs>
        <linearGradient x1="32.0981958%" y1="22.0525552%" x2="69.3217184%" y2="100%" id="linearGradient-1">
            <stop stop-color="#6D95E3" offset="0%"></stop>
            <stop stop-color="#3B5CC3" offset="100%"></stop>
        </linearGradient>
    </defs>
    <g id="页面-1" stroke="none" stroke-width="1" fill="none" fill-rule="evenodd">
        <g id="智享生活" transform="translate(-45.000000, -322.000000)" fill-rule="nonzero">
            <g id="图标" transform="translate(31.500000, 322.000000)">
                <g id="停车场" transform="translate(14.000000, 0.000000)">
                    <rect id="矩形" fill="#000000" opacity="0" x="3" y="3" width="22.932" height="22.932"></rect>
                    <path d="M24.4183475,19.6222115 C24.3279964,19.4422529 24.079245,19.237123 24.079245,19.237123 L23.0539316,16.5035751 C22.8410918,15.9854539 22.2144669,15.7122131 21.9411262,15.7122131 L16.5562007,15.7122131 C16.2826313,15.7122131 15.6564639,15.9854539 15.4435097,16.5035751 L14.4179676,19.237123 C14.4179676,19.237123 14.169788,19.4422529 14.0786363,19.6222115 C13.987599,19.8014867 13.8884415,19.9619687 13.8884415,21.1737277 C13.8884415,22.356101 14.1265567,22.7759284 14.4111055,22.9218315 L14.6361826,23.0484859 L14.6361826,24.1461192 C14.6361826,24.5018221 14.7209297,24.6076333 15.0604897,24.6076333 L15.821955,24.6076333 C16.1610576,24.6076333 16.3896802,24.609 16.3896802,24.2532971 L16.3896802,23.1857328 L22.1076468,23.1857328 L22.1076468,24.2532971 C22.1076468,24.609 22.3359262,24.6076333 22.6750288,24.6076333 L23.4367229,24.6076333 C23.7760542,24.6076333 23.8608012,24.5018221 23.8608012,24.1461192 L23.8608012,23.0484859 L24.0858784,22.9218315 C24.3706559,22.7760423 24.6085423,22.3563288 24.6089999,21.1737277 C24.6091142,19.9619687 24.5098423,19.8014867 24.4183475,19.6222115 Z M15.7836416,18.9161589 C15.8261867,18.7613717 16.1110786,17.549385 16.237227,17.1293298 C16.2891503,16.9843379 16.6264229,16.5522095 17.0198505,16.5768115 L21.4775908,16.5768115 C21.8707896,16.5520956 22.2084054,16.984224 22.2594137,17.1293298 C22.386134,17.549385 22.6705684,18.7613717 22.7136853,18.9161589 C22.7644649,19.0997622 22.5969151,19.0837026 22.5969151,19.0837026 L15.9005262,19.0837026 C15.9005262,19.0835887 15.7325189,19.0997622 15.7836416,18.9161589 Z M15.8938928,21.8835389 C15.4419086,21.8835389 15.0744427,21.516674 15.0744427,21.0679166 C15.0744427,20.618248 15.4419086,20.2522943 15.8938928,20.2522943 C16.3450765,20.2522943 16.7124281,20.618248 16.7124281,21.0679166 C16.7126568,21.5167879 16.3451908,21.8835389 15.8938928,21.8835389 Z M22.6288239,21.8835389 C22.1772972,21.8835389 21.8093738,21.516674 21.8093738,21.0679166 C21.8093738,20.618248 22.1772972,20.2522943 22.6288239,20.2522943 C23.0798932,20.2522943 23.4474735,20.618248 23.4474735,21.0679166 C23.4474735,21.5167879 23.0798932,21.8835389 22.6288239,21.8835389 Z" id="形状" fill="#3B5CC3" opacity="0.400000006"></path>
                    <path d="M17.4618847,9.84829741 C17.4618847,6.79663297 14.9390304,4.323 11.8267209,4.323 C11.6850183,4.323 11.5459463,4.3335925 11.4067598,4.3437294 L6.4288717,4.3437294 L6.4288717,4.354208 L3.882,4.354208 L3.882,24.609 L6.74098329,24.609 L6.74098329,15.3559407 L11.3867454,15.3559407 C11.604846,15.3808843 11.6022156,15.3737087 11.8268353,15.3737087 C14.9391447,15.3735948 17.4618847,12.9001896 17.4618847,9.84829741 Z M11.386631,12.5086089 L6.74098329,12.5086089 L6.74098329,7.16999005 L11.3867454,7.16999005 C12.7447567,7.23343113 13.9896576,8.47013372 13.9896576,9.81708941 C13.9896576,11.1640451 12.7446423,12.4445983 11.386631,12.5086089 Z" id="形状" fill="url(#linearGradient-1)"></path>
                </g>
            </g>
        </g>
    </g>
</svg>