<?xml version="1.0" standalone="no"?><!DOCTYPE svg PUBLIC "-//W3C//DTD SVG 1.1//EN" "http://www.w3.org/Graphics/SVG/1.1/DTD/svg11.dtd"><svg t="1609139381231" class="icon" viewBox="0 0 1356 1024" version="1.1" xmlns="http://www.w3.org/2000/svg" p-id="1823" xmlns:xlink="http://www.w3.org/1999/xlink" width="63.5625" height="48"><defs><style type="text/css"></style></defs><path d="M678.061992 199.376348c101.597309 0 191.723062 48.709143 247.890793 123.862369l39.299422 10.447558A335.581088 335.581088 0 0 0 678.061992 172.793886c-58.866106 0-114.18973 15.069391-162.276171 41.499637l39.230233 10.406044A309.565977 309.565977 0 0 1 678.061992 199.376348z m202.48889-17.297281l21.517817 17.297281 6.642156-25.918246 24.077815-13.962365-24.077815-13.948528-6.642156-25.918245-21.517817 17.297281-28.187649-2.075674 10.793503 24.645166-10.793503 24.659003 28.187649-2.075673zM507.164856 124.084743l-22.140519-15.276958-4.829401 27.039109-22.666357 16.743768 24.437599 11.623773 8.136641 25.627651 19.926467-19.871116 27.703325-0.913296-12.121934-23.884086 8.980748-26.195002-27.426569 5.106157z m207.276777-37.362127l-16.41166-21.227223-12.896852 24.29922-26.734678 9.132965 19.732738 18.431982-0.110702 26.859218 25.087976-12.91069 26.65165 7.472425-4.220536-26.416407 16.60539-22.251223-27.703326-3.390267z m300.004041 166.884167l-23.247546-15.941174-3.30724 26.665488-21.905276 15.816634 25.350895 12.384853 9.714153 25.738354 18.957819-18.999334 27.910893 0.06919-13.61642-24.133167 7.527777-25.669165-27.398893 4.082159z m301.927498 200.869864l-1165.559978-309.621329c-28.602784-7.596966-58.008161 9.229829-65.674317 37.59737L1.84901 490.579532c-7.666155 28.367541 9.312856 57.51 37.91564 65.120803l1165.559978 309.607491c28.602784 7.596966 58.008161-9.229829 65.674317-37.59737l83.276029-308.126844c7.666155-28.367541-9.312856-57.51-37.91564-65.106965z m8.537938 71.071068L1248.567831 807.991556c-5.756535 21.268737-27.814028 33.902671-49.262656 28.201487L59.663442 533.449113a39.852935 39.852935 0 0 1-28.450568-48.847522L107.556153 202.171588c5.756535-21.268737 27.814028-33.902671 49.262657-28.201487L1296.47438 476.714031a39.839097 39.839097 0 0 1 28.43673 48.847522zM678.061992 26.569592c223.370167 0 411.260152 150.430993 466.307018 354.677286l29.682135 7.88756C1121.190654 166.082541 919.199926 0.000969 678.061992 0.000969a510.103734 510.103734 0 0 0-370.93673 158.858228l29.640621 7.873722A483.286029 483.286029 0 0 1 678.061992 26.569592z m123.045938 758.866309A309.55214 309.55214 0 0 1 678.061992 810.786796a308.763384 308.763384 0 0 1-247.890792-123.876207l-39.299423-10.43372A335.581088 335.581088 0 0 0 678.061992 837.369258c58.879944 0 114.18973-15.069391 162.276171-41.485799l-39.230233-10.43372z m-287.688377 55.212921l-21.351763-17.269605-6.572967 25.862894-23.897923 13.920852 23.897923 13.920852 6.572967 25.876732 21.351763-17.269605 27.952406 2.061836-10.696638-24.589815 10.710476-24.589815-27.966244 2.075674z m164.559412 81.864571l16.273282 21.171872 12.799988-24.243869 26.499434-9.105288-19.552846-18.39047 0.110703-26.803866-24.880409 12.896853-26.444083-7.472426 4.179023 26.361056-16.453174 22.195871 27.468082 3.390267zM339.021448 755.435497l21.863763 17.491011 5.161509-26.305705 22.790897-14.211446-24.202355-14.100744-7.76302-26.278029-20.134035 17.601713-27.592623-2.020322 11.762151 24.963436-9.299018 25.018787 27.398893-2.158701z m339.026706 228.144217c-223.342491 0-411.260152-150.444831-466.29318-354.677286l-29.682134-7.88756C234.93333 844.080603 436.924058 1010.162175 678.061992 1010.162175a510.103734 510.103734 0 0 0 370.93673-158.858228l-29.64062-7.873722A483.272191 483.272191 0 0 1 678.061992 983.593552z m193.867925-97.556665l22.002141 15.276959 4.732536-26.96992 22.45879-16.660741-24.285382-11.623773-8.108966-25.558463-19.746576 19.78809-27.48192 0.871783 12.066584 23.828734-8.856208 26.111975 27.205163-5.050806z" p-id="1824" fill="#1afa29"></path><path d="M205.057467 393.216597l-6.655994 24.852733 53.732273 14.391338 6.655994-24.852734-53.732273-14.391337z m40.83542 62.505454l-53.732273-14.391338-3.874591 14.432852-24.852733-6.655994 35.743101-133.396631 78.598845 21.06117 6.227021-23.261384 25.12949 6.739021-6.227022 23.247545 79.387601 21.282575-35.521696 132.594037-24.866571-6.669832 3.653185-13.630257-54.521029-14.612743-14.197608 52.929679-25.115652-6.725182 14.169932-52.943518z m31.370349-16.522363l54.52103 14.612743 6.669831-24.852733-54.521029-14.612743-6.669832 24.852733z m67.141126-32.435861l6.725183-25.12949-54.52103-14.612743-6.739021 25.12949 54.52103 14.612743z m-72.925337-46.467415l-53.746111-14.391338-6.725183 25.115652 53.732274 14.391338 6.725183-25.115652z m146.805483-47.477577l-13.533392 50.521898-24.603653-6.586805 7.306372-27.260514-178.563291-47.865036-7.666155 28.616621-24.603652-6.600642 13.907014-51.850329 99.978283 26.776191c-0.830269-6.905075-1.868106-13.007555-3.11351-18.307442l28.146135 2.961294c0.733405 9.368207 1.120864 16.826795 1.162378 22.375763l101.569633 27.219001z m31.785484 253.481274l-24.326896-6.503778 33.086239-123.516424c-14.363662 21.559331-29.751323 40.157367-46.176822 55.821785l-3.404104-28.990243c24.326896-20.2309 44.834552-45.48493 61.550644-75.76209l-33.681265-9.0361 6.517615-24.326895 34.760616 9.312856 13.395014-49.982223 24.326896 6.503777-13.395014 49.996061 29.405377 7.88756-6.517615 24.326896-29.405378-7.88756-3.874591 14.446689a648.523495 648.523495 0 0 1 24.908085 55.669569l-19.967981 17.850794a1214.905662 1214.905662 0 0 0-12.537069-45.194336l-34.663751 129.383662z m93.294614-210.224234l63.349562 16.979011a154.098016 154.098016 0 0 0-5.258374-26.347218l27.080623 2.6707c1.508323 8.620965 2.518484 18.736415 3.044322 30.332512l58.27108 15.609066-6.227021 23.261383-73.243607-19.622035c-19.08236 19.151549-35.009697 32.643429-47.809684 40.475637 12.97988 2.905943 27.675649 5.798049 44.087309 8.662479a305.428468 305.428468 0 0 0 25.461598-24.409923l17.643227 16.467011c-40.959961 45.955416-89.779807 71.652257-146.431862 77.10436l-8.247344-24.852734c32.352834-2.407782 61.758212-11.623773 88.202295-27.647973-12.66161-2.629187-30.996727-6.586805-54.977677-11.859016l0.428972-21.94679c2.103349-0.013838 3.902267-0.290594 5.396752-0.857945 11.07026-3.528645 27.744839-16.245606 50.051412-38.164721l-47.048604-12.592421 6.227021-23.261383z m41.554988 191.349441c-30.858349 15.415337-64.539615 24.534463-101.016121 27.371217l-8.108965-25.378571c67.293342-3.736213 124.152964-30.249485 170.578865-79.498303l18.182902 16.60539c-18.722577 20.009495-38.635207 36.559533-59.710214 49.62244 14.585067 21.863763 25.987435 42.011636 34.234779 60.471294l-23.73187 13.699446c-6.877399-19.234576-17.020524-40.198881-30.429376-62.892913z m161.252172-163.369359c14.280635 18.722577 25.738354 36.877803 34.386994 54.479516l-22.624843 12.855339c-7.25102-16.467011-18.44582-34.940507-33.584401-55.420488l21.82225-11.914367z m89.530726 280.714113c-9.091451-2.435457-24.991111-6.891237-47.71282-13.353501-16.882146-4.718698-30.719971-10.060099-41.554988-16.010364-9.644964-6.033292-17.338794-14.764959-23.053816-26.236515-2.54616-5.452103-5.327563-8.579451-8.358046-9.409721-5.53513-1.480647-18.376631 7.970587-38.55218 28.367541l-14.045392-22.403439c19.179225-18.155226 34.843643-28.478243 46.965577-30.955214l20.272414-75.651388-35.812291-9.60345 6.29621-23.524302 59.613349 15.96885-27.080623 101.057634c1.148539 1.439134 2.131025 3.141186 2.947457 5.078482 4.317401 8.800857 9.299018 15.871985 14.944851 21.199547 7.334047 6.157832 18.584199 11.568421 33.764292 16.204093 20.217062 5.811886 38.178558 10.793503 53.856814 15.01404 8.731667 2.338592 22.057493 5.715022 39.977476 10.129287 11.803665 2.975132 22.26506 5.299887 31.370348 6.974264l-12.883014 23.482789-60.955618-16.328633z m10.835016-225.459679l-51.58741-13.823987 5.65967-21.116521 146.763969 39.327098-4.801725 17.906146a302.42566 302.42566 0 0 1-58.893782 20.895115l1.245404 1.771242 53.732274 14.391337-31.799322 118.700861c-4.248212 15.858147-15.110905 21.448628-32.574239 16.771444l-20.590683-5.521293 0.31827-22.555654 18.681063 6.157832c6.074805 1.632863 9.894045-0.498162 11.471557-6.379237l3.653186-13.630257-38.496829-10.323018-11.762151 43.838229-23.247545-6.227021 11.748313-43.838229-37.694235-10.101612-11.900529 44.377904-24.05014-6.448426 38.676721-144.356188 61.495293 16.467011a377.855643 377.855643 0 0 0-24.880409-25.849056l18.833279-10.43372z m24.866571 27.011434a216.423579 216.423579 0 0 0 36.351966-10.599774l-59.876268-16.051877a632.942104 632.942104 0 0 1 23.524302 26.651651z m-72.510201 59.931619l-5.009293 18.708739 37.694235 10.101612 5.009292-18.708739-37.694234-10.101612z m60.955618 16.328633l-5.023131 18.722577 38.496829 10.309179 5.02313-18.708739-38.496828-10.323017z m44.073472-10.530585l5.02313-18.708739-38.496828-10.323017-5.023131 18.722577 38.496829 10.309179z m-61.744374-16.550038l5.009292-18.708739-37.694234-10.101612-5.009293 18.708739 37.694235 10.101612z m170.246757-60.097673c14.280635 18.722577 25.793705 36.697911 34.539211 53.939841l-23.385924 13.505717c-7.583128-17.311119-18.570361-35.826128-32.961698-55.531191l21.808411-11.914367z m96.214396 282.499192c-9.271343-2.490808-25.793705-7.098804-49.580926-13.8655-17.947659-4.995455-32.338996-10.475233-43.160175-16.425498-10.184639-6.17167-18.307442-15.041716-24.382248-26.596299-2.54616-5.452103-5.521292-8.634803-8.911559-9.548099-5.701184-1.522161-18.819442 8.233506-39.354773 29.280837l-14.05923-22.389601c19.469819-18.473496 35.397156-29.100945 47.795846-31.896186l20.203224-75.388469-36.351965-9.741828 6.434588-24.05014 60.6927 16.259444-27.149812 101.320553c1.190053 1.27308 2.255565 2.98897 3.196537 5.147671 4.566482 8.676316 9.92172 15.747445 16.09339 21.213385 7.375561 5.991778 19.193063 11.443881 35.438669 16.370147 20.936629 5.991778 39.686881 11.208638 56.264596 15.65058l36.96083 9.617288a888.526727 888.526727 0 0 0 29.571431 6.213183l-13.021393 24.008626-56.67973-15.180094z m-35.037372-47.782009l0.968647-26.098137c11.305503 4.165185 22.112844 7.638479 32.449699 10.406044 6.780534 1.812755 10.931882-0.138378 12.454043-5.825724l28.934891-108.004222-95.425639-25.5723 6.586804-24.589815 95.439478 25.5723 11.028746-41.167528 25.655327 6.877399-11.028746 41.167528 35.826128 9.589613-6.586805 24.603652-35.839966-9.60345-30.581592 114.148216c-4.524969 16.937497-15.802796 22.984627-33.791968 18.155226l-36.089047-9.658802z m7.56929-126.616096c10.11545 23.524302 17.435659 43.630661 21.932952 60.30524l-25.392408 9.243667c-4.040645-17.712416-10.835017-38.330775-20.369278-61.89659l23.828734-7.666155z" p-id="1825" fill="#1afa29"></path></svg>