<?xml version="1.0" encoding="UTF-8"?>
<svg width="52px" height="53px" viewBox="0 0 52 53" version="1.1" xmlns="http://www.w3.org/2000/svg" xmlns:xlink="http://www.w3.org/1999/xlink">
    <title>椭圆形</title>
    <defs>
        <linearGradient x1="28.2734373%" y1="24.5986452%" x2="82.7711055%" y2="100%" id="linearGradient-1">
            <stop stop-color="#8E9EED" offset="0%"></stop>
            <stop stop-color="#5068E4" offset="100%"></stop>
        </linearGradient>
    </defs>
    <g id="页面-1" stroke="none" stroke-width="1" fill="none" fill-rule="evenodd">
        <g id="智享生活-公共服务-社会保障" transform="translate(-30.000000, -391.000000)" fill-rule="nonzero">
            <g id="编组-10" transform="translate(15.000000, 128.000000)">
                <g id="编组-3备份-13" transform="translate(0.000000, 255.000000)">
                    <g id="编组-7" transform="translate(15.000000, 8.500000)">
                        <circle id="椭圆形" fill="#E8ECFF" opacity="0.600000024" cx="26" cy="26" r="26"></circle>
                        <path d="M23.3738151,31.0631808 L21.7674244,32.6695715 L20.9066158,31.808763 C20.7202203,31.6223675 20.4152094,31.6223675 20.2288139,31.808763 C20.0424183,31.9951586 20.0424183,32.3001695 20.2288139,32.486565 L21.4285234,33.6862745 C21.6149189,33.8726701 21.9199298,33.8726701 22.1063254,33.6862745 L24.0516171,31.7409828 C24.2380126,31.5545873 24.2380126,31.2495764 24.0516171,31.0631808 C23.8652215,30.8767853 23.5602106,30.8767853 23.3738151,31.0631808 Z M38.1363423,16.100702 C37.8787776,15.1958364 36.2283297,14.6434277 35.5640838,14.6434277 L35.4353014,14.6468168 L34.3948753,13.4945534 L34.2457589,13.3454369 C34.0017502,13.1014282 33.3747834,12.5015735 32.8189857,12.1863955 C32.5919221,12.0542242 32.2869112,12 31.8429509,12 C30.9075841,12 29.2808594,12.2745098 27.789695,12.677802 C24.9259816,13.4572743 24.4582982,14.1621883 24.2990148,14.39603 C23.9160567,14.9857177 23.7466062,15.6397967 23.6686589,15.9515856 L23.2416437,17.8595982 C22.7976834,18.0731058 22.4079472,18.5407892 22.2147737,18.8017429 C21.7369233,19.4354878 21.5539167,19.9845074 21.6725321,20.4216897 C21.7504793,20.7199225 21.9165408,20.9842653 22.1537715,21.2892762 L21.991099,21.4383926 C21.7132002,21.5400629 21.4556355,21.6857904 21.2251828,21.8721859 C18.920656,23.2481239 16.8228589,25.6102639 15.3147495,28.5315904 C13.8540862,31.3614137 13.0508908,34.4793028 13.0508908,37.3057371 C13.0475018,37.5226337 13.0407238,37.7429194 13.0237788,37.959816 C13.0000155,38.3359961 12.9729436,38.7257323 13.0576689,39.2849189 L13.098337,39.9288308 L29.1995231,40 L29.3215275,33.7743888 C29.7383757,34.2251271 29.7993779,34.9774873 31.4328807,34.9774873 C32.3411353,34.9774873 32.8901549,34.1268458 32.8901549,33.3846526 L33.252779,33.4558218 L33.8729678,39.9322198 L35.2590729,39.9356088 L35.8521496,32.8525781 C35.8690947,31.8562092 36.0792133,30.9716776 35.4556355,30.1922053 C34.7880005,29.3585088 34.2389809,29.063665 33.2121109,29.070443 C32.8901549,29.070443 32.574977,29.1077221 32.2055749,29.1653353 L27.5694094,24.4444444 C28.3488816,24.8138465 29.1995231,25.0070201 30.0603317,25.0036311 C33.1985548,25.0036311 35.7470903,22.5194868 35.7470903,19.4625999 C35.7470903,19.1236989 35.7165892,18.7881869 35.7064222,18.3781167 L37.004413,18.0324377 C37.4246502,17.9206003 37.7804963,17.6460905 37.9973929,17.2699104 C38.2007335,16.9174534 38.2515686,16.4938272 38.1363423,16.100702 L38.1363423,16.100702 Z M25.3462188,33.2355362 C25.3462188,33.2355362 24.6921399,35.4993948 21.9165408,36.3907044 C19.1375527,35.4993948 18.4868628,33.2355362 18.4868628,33.2355362 L18.4868628,29.9786977 C18.4868628,29.6397967 18.7817066,29.5686275 18.7817066,29.5686275 C19.8628008,29.5686275 21.30313,28.1621883 21.9233188,28.1621883 C22.5435076,28.1621883 23.9838369,29.5686275 25.064931,29.5686275 C25.064931,29.5686275 25.3529969,29.6397967 25.3496375,29.9786977 L25.3496375,33.2355362 L25.3462188,33.2355362 Z" id="形状" fill="url(#linearGradient-1)"></path>
                    </g>
                </g>
            </g>
        </g>
    </g>
</svg>