<?xml version="1.0" encoding="UTF-8"?>
<svg width="52px" height="52px" viewBox="0 0 52 52" version="1.1" xmlns="http://www.w3.org/2000/svg" xmlns:xlink="http://www.w3.org/1999/xlink">
    <title>椭圆形</title>
    <g id="页面-1" stroke="none" stroke-width="1" fill="none" fill-rule="evenodd">
        <g id="智享生活-商家中心-我的服务" transform="translate(-29.000000, -174.000000)">
            <g id="编组-4" transform="translate(15.000000, 80.000000)">
                <g id="编组-3备份" transform="translate(0.000000, 85.000000)">
                    <g id="编组-7" transform="translate(14.000000, 9.000000)">
                        <circle id="椭圆形" fill="#FFF7DD" cx="26" cy="26" r="26"></circle>
                        <g id="编组-13" transform="translate(13.000000, 9.500000)">
                            <path d="M2.8698153,4.66959462 L23.3663416,4.66959462 C24.540932,4.66959462 25.4931256,5.62178825 25.4931256,6.79637862 L25.4931256,28.2683899 C25.4931256,29.4429803 24.540932,30.3951739 23.3663416,30.3951739 L2.8698153,30.3951739 C1.69522493,30.3951739 0.743031296,29.4429803 0.743031296,28.2683899 L0.743031296,6.79637862 C0.743031296,5.62178825 1.69522493,4.66959462 2.8698153,4.66959462 Z" id="矩形" fill="#F6B35F"></path>
                            <path d="M13.2768783,0.126784 C14.7512153,0.126784 15.9627614,1.25192557 16.0997045,2.69039667 L19.4587305,2.69026765 C20.1603525,2.69026765 20.7291295,3.25904464 20.7291295,3.96066662 L20.7291295,6.81906432 L5.50702746,6.81906432 L5.50702746,3.96066662 C5.50702746,3.25904464 6.07580445,2.69026765 6.77742643,2.69026765 L10.4540522,2.69039667 C10.5909953,1.25192557 11.8025414,0.126784 13.2768783,0.126784 Z" id="形状结合" fill="#FAD1A4"></path>
                            <rect id="矩形" fill="#FFF7DD" x="5.541056" y="11.0442752" width="13.469632" height="2.54079795" rx="0.317599744"></rect>
                            <rect id="矩形备份-28" fill="#FFF7DD" x="5.541056" y="16.6873421" width="7.08928" height="2.54079795" rx="0.317599744"></rect>
                            <circle id="椭圆形" fill="#FAD1A4" cx="22.9920276" cy="23.2491796" r="5.39919565"></circle>
                            <path d="M25.9114132,20.7787188 L26.3605671,21.2278727 C26.4845975,21.3519031 26.4845975,21.5529961 26.3605671,21.6770265 L23.21649,24.8211036 L23.21649,24.8211036 L22.7673361,25.2702575 C22.7318989,25.3056947 22.6901708,25.3310071 22.6457466,25.3461945 L22.5775377,25.3613819 L22.5775377,25.3613819 L22.5079807,25.3613819 C22.4386484,25.3537882 22.3713382,25.3234134 22.3181823,25.2702575 L20.5215668,23.473642 C20.3975364,23.3496116 20.3975364,23.1485186 20.5215668,23.0244881 L20.9707207,22.5753343 C21.0947511,22.4513039 21.2958441,22.4513039 21.4198745,22.5753343 L22.542544,23.697696 L25.4622593,20.7787188 C25.5862897,20.6546884 25.7873828,20.6546884 25.9114132,20.7787188 Z" id="形状结合" fill="#FFF7DD"></path>
                        </g>
                    </g>
                </g>
            </g>
        </g>
    </g>
</svg>