<?xml version="1.0" encoding="UTF-8"?>
<svg width="18px" height="18px" viewBox="0 0 18 18" version="1.1" xmlns="http://www.w3.org/2000/svg" xmlns:xlink="http://www.w3.org/1999/xlink">
    <title>矩形</title>
    <g id="页面-1" stroke="none" stroke-width="1" fill="none" fill-rule="evenodd">
        <g id="商家中心-我的服务-个人服务管理-发布服务-服务收费" transform="translate(-327.000000, -201.000000)" fill-rule="nonzero">
            <g id="编组-7" transform="translate(15.000000, 79.000000)">
                <g id="添加" transform="translate(312.000000, 122.000000)">
                    <rect id="矩形" fill="#000000" opacity="0" x="0" y="0" width="18" height="18"></rect>
                    <path d="M17.0714435,9.00819508 C17.0388523,13.3309438 13.5808459,16.9216104 9.25439159,17.0839445 C4.94205085,17.2458143 1.21922956,13.8078234 0.929994551,9.52853713 C0.63936676,5.22919122 3.94063848,1.38016453 8.21509547,0.962163537 C12.4959593,0.543605334 16.4634464,3.70874859 17.009511,7.97466185 C17.0533373,8.31716078 17.0686579,8.66263149 17.0714435,9.00819508 C17.0758076,9.60673238 18.0045166,9.60710385 17.9999835,9.00819508 C17.9680256,4.76085551 14.9493035,1.03042186 10.7763341,0.176403395 C6.60754309,-0.676686388 2.29854503,1.63638864 0.673814974,5.55803848 C-0.972735384,9.53262334 0.493774308,14.1365778 4.03274799,16.527941 C7.58332822,18.9271051 12.4730247,18.3086011 15.4471777,15.291583 C17.0890854,13.6258012 17.9824177,11.3359433 17.9999835,9.00819508 C18.004238,8.40845049 17.0757147,8.40882196 17.0714435,9.00819508 Z M4.04015377,9.6 L13.9598979,9.6 C14.546683,9.6 14.546683,8.4 13.9598979,8.4 L4.04015377,8.4 C3.45327766,8.4 3.45327766,9.6 4.04015377,9.6 Z M9.59999118,13.9599145 L9.59999118,4.04015378 C9.59999118,3.45328207 8.39999228,3.45328207 8.39999228,4.04015378 L8.39999228,13.9599145 C8.39987235,14.5466952 9.59999118,14.5466952 9.59999118,13.9599145 Z" id="形状" fill="#4886FF"></path>
                </g>
            </g>
        </g>
    </g>
</svg>