<?xml version="1.0" encoding="UTF-8"?>
<svg width="60px" height="60px" viewBox="0 0 60 60" version="1.1" xmlns="http://www.w3.org/2000/svg" xmlns:xlink="http://www.w3.org/1999/xlink">
    <title>编组 4</title>
    <defs>
        <linearGradient x1="50%" y1="0%" x2="50%" y2="100%" id="linearGradient-1">
            <stop stop-color="#A5CBFC" offset="0%"></stop>
            <stop stop-color="#7C8CF8" offset="100%"></stop>
        </linearGradient>
        <filter x="-38.1%" y="-38.1%" width="176.2%" height="176.2%" filterUnits="objectBoundingBox" id="filter-2">
            <feOffset dx="0" dy="0" in="SourceAlpha" result="shadowOffsetOuter1"></feOffset>
            <feGaussianBlur stdDeviation="2" in="shadowOffsetOuter1" result="shadowBlurOuter1"></feGaussianBlur>
            <feColorMatrix values="0 0 0 0 0.390490987   0 0 0 0 0.471388404   0 0 0 0 0.934301404  0 0 0 1 0" type="matrix" in="shadowBlurOuter1" result="shadowMatrixOuter1"></feColorMatrix>
            <feMerge>
                <feMergeNode in="shadowMatrixOuter1"></feMergeNode>
                <feMergeNode in="SourceGraphic"></feMergeNode>
            </feMerge>
        </filter>
    </defs>
    <g id="页面-1" stroke="none" stroke-width="1" fill="none" fill-rule="evenodd">
        <g id="智享生活-商家中心" transform="translate(-201.000000, -343.000000)">
            <g id="编组-5" transform="translate(27.000000, 343.000000)">
                <g id="编组-4" transform="translate(174.000000, 0.000000)">
                    <path d="M21.8208955,5.82089552 L38.1791045,5.82089552 C47.0156605,5.82089552 54.1791045,12.9843395 54.1791045,21.8208955 L54.1791045,38.1791045 C54.1791045,47.0156605 47.0156605,54.1791045 38.1791045,54.1791045 L21.8208955,54.1791045 C12.9843395,54.1791045 5.82089552,47.0156605 5.82089552,38.1791045 L5.82089552,21.8208955 C5.82089552,12.9843395 12.9843395,5.82089552 21.8208955,5.82089552 Z" id="矩形" fill-opacity="0.15" fill="#75B1FE" transform="translate(30.000000, 30.000000) rotate(-345.000000) translate(-30.000000, -30.000000) "></path>
                    <rect id="矩形" fill="url(#linearGradient-1)" x="7.6119403" y="7.6119403" width="44.7761194" height="44.7761194" rx="16"></rect>
                    <g id="编组" filter="url(#filter-2)" transform="translate(20.500000, 19.500000)" fill-rule="nonzero">
                        <path d="M17.325,-3.16191517e-13 C18.1948485,-3.16191517e-13 18.9,0.705151519 18.9,1.575 L18.9,9.06885 C15.7485256,6.95427115 11.4906389,7.69741793 9.24180233,10.7545357 C6.99296575,13.8116534 7.55135455,18.0976851 10.5084,20.476575 L1.575,20.475 C0.705151519,20.475 -3.62376795e-13,19.7698485 -3.62376795e-13,18.9 L-3.62376795e-13,1.575 C-3.62376795e-13,0.705151519 0.705151519,-3.16191517e-13 1.575,-3.16191517e-13 L17.325,-3.16191517e-13 Z M7.875,6.3 L3.15,6.3 L3.15,7.875 L7.875,7.875 L7.875,6.3 Z M12.6,3.15 L3.15,3.15 L3.15,4.725 L12.6,4.725 L12.6,3.15 Z" id="形状结合" fill="#FEFEFE"></path>
                        <path d="M14.9625,9.45 C18.0069697,9.45 20.475,11.9180303 20.475,14.9625 C20.475,18.0069697 18.0069697,20.475 14.9625,20.475 C11.9180303,20.475 9.45,18.0069697 9.45,14.9625 C9.45,11.9180303 11.9180303,9.45 14.9625,9.45 Z M14.5245572,17.7289528 C14.1786827,17.7301046 13.902611,18.0080437 13.9037592,18.3497472 C13.9049146,18.6914507 14.1828537,18.9675224 14.5245572,18.9663742 C14.8662607,18.9663742 15.1432662,18.6893652 15.1432662,18.3476617 C15.1432662,18.0059582 14.8662607,17.7289528 14.5245572,17.7289528 L14.5245572,17.7289528 Z M15.0389894,11.3889243 C14.350986,11.2309002 13.6284617,11.3946451 13.0758051,11.8338386 C12.5474694,12.2578975 12.2471523,12.8807775 12.2471523,13.5481489 C12.2682514,13.8738373 12.5381907,14.1274253 12.8645609,14.1281588 C13.1909312,14.1288922 13.4620075,13.8765199 13.4845701,13.5509296 C13.4861682,13.2578189 13.6212949,12.9814232 13.8516244,12.8001368 C14.1118628,12.5965802 14.4505403,12.5223986 14.7720408,12.598535 C15.1368691,12.6777396 15.4264143,12.9549294 15.5214433,13.3159593 C15.6136102,13.6881579 15.474614,14.0794268 15.1682926,14.3100646 C14.3591047,14.934335 13.8975062,15.8172117 13.8975062,16.748751 C13.898242,16.9117371 13.9636945,17.0677552 14.0794646,17.1824823 C14.1952346,17.2972094 14.3518387,17.3612473 14.5148247,17.3605081 L14.5148247,17.3605081 C14.8598107,17.3588518 15.1369564,17.0798461 15.1377047,16.7362378 C15.1377047,16.2079021 15.4255087,15.6795664 15.9260372,15.2902664 C16.6166478,14.7620865 16.9302126,13.8759253 16.7254926,13.0309361 C16.5226567,12.2066532 15.8683993,11.5696557 15.0389894,11.3889243 Z" id="形状结合" fill="#FFFFFF"></path>
                    </g>
                </g>
            </g>
        </g>
    </g>
</svg>