<?xml version="1.0" encoding="UTF-8"?>
<svg width="52px" height="53px" viewBox="0 0 52 53" version="1.1" xmlns="http://www.w3.org/2000/svg" xmlns:xlink="http://www.w3.org/1999/xlink">
    <title>椭圆形</title>
    <defs>
        <linearGradient x1="28.7814244%" y1="0%" x2="74.6996935%" y2="100%" id="linearGradient-1">
            <stop stop-color="#FECE72" offset="0%"></stop>
            <stop stop-color="#F5A716" offset="100%"></stop>
        </linearGradient>
    </defs>
    <g id="页面-1" stroke="none" stroke-width="1" fill="none" fill-rule="evenodd">
        <g id="智享生活-公共服务-生活缴费" transform="translate(-30.000000, -561.000000)">
            <g id="编组-4" transform="translate(15.000000, 128.000000)">
                <g id="编组-3备份-8" transform="translate(0.000000, 425.000000)">
                    <g id="编组-11" transform="translate(15.000000, 8.500000)">
                        <circle id="椭圆形" fill="#FFF7DD" cx="26" cy="26" r="26"></circle>
                        <g id="wuyefei" transform="translate(13.000000, 13.500000)" fill-rule="nonzero">
                            <path d="M18.2631944,0.0115555646 L18.2631944,2.92355556 L16.8764167,2.92255556 L16.8765278,25.9884444 L1.2996389,25.9884444 L1.29941667,2.92255556 L0.00541666667,2.92355556 L0.00541666667,0.0115555646 L18.2631944,0.0115555646 Z M6.2172211,7.00081777 L4.49590556,8.67868444 L7.86290556,12.1338178 L7.86319444,21.0426667 L10.0818611,21.0426667 L10.0809056,12.4688178 L13.66963,8.8210489 L11.9561722,7.13532444 L9.13890556,9.99881777 L6.2172211,7.00081777 Z" id="形状结合" fill="url(#linearGradient-1)"></path>
                            <polygon id="路径" fill="#FFD689" points="18.2631944 6.39022223 18.2631944 25.9884444 24.9654167 25.9884444 24.9654167 9.99555556"></polygon>
                            <path d="M20.5280833,12.8613333 L23.0240833,12.8613333 L23.0240833,15.3573333 L20.5280833,15.3573333 L20.5280833,12.8613333 Z M20.5280833,17.2062222 L23.2089722,17.2062222 L23.2089722,19.8871111 L20.5280833,19.8871111 L20.5280833,17.2062222 Z M4.48897223,11.8444444 L13.6871944,11.8444444 L13.6871944,14.0631111 L4.48897223,14.0631111 L4.48897223,11.8444444 Z M4.48897223,15.5422222 L13.6871944,15.5422222 L13.6871944,17.7608889 L4.48897223,17.7608889 L4.48897223,15.5422222 Z" id="形状" fill="#FFFFFF"></path>
                        </g>
                    </g>
                </g>
            </g>
        </g>
    </g>
</svg>