<?xml version="1.0" encoding="UTF-8"?>
<svg width="68px" height="67px" viewBox="0 0 68 67" version="1.1" xmlns="http://www.w3.org/2000/svg" xmlns:xlink="http://www.w3.org/1999/xlink">
    <title>编组 4</title>
    <defs>
        <linearGradient x1="50%" y1="0%" x2="50%" y2="99.6339598%" id="linearGradient-1">
            <stop stop-color="#9AC7FD" offset="0%"></stop>
            <stop stop-color="#AE9CFF" offset="100%"></stop>
        </linearGradient>
        <filter x="-29.6%" y="-30.4%" width="159.3%" height="163.6%" filterUnits="objectBoundingBox" id="filter-2">
            <feOffset dx="0" dy="0" in="SourceAlpha" result="shadowOffsetOuter1"></feOffset>
            <feGaussianBlur stdDeviation="2" in="shadowOffsetOuter1" result="shadowBlurOuter1"></feGaussianBlur>
            <feColorMatrix values="0 0 0 0 0.584447903   0 0 0 0 0.535730675   0 0 0 0 0.869791667  0 0 0 1 0" type="matrix" in="shadowBlurOuter1" result="shadowMatrixOuter1"></feColorMatrix>
            <feMerge>
                <feMergeNode in="shadowMatrixOuter1"></feMergeNode>
                <feMergeNode in="SourceGraphic"></feMergeNode>
            </feMerge>
        </filter>
    </defs>
    <g id="页面-1" stroke="none" stroke-width="1" fill="none" fill-rule="evenodd">
        <g id="智享生活" transform="translate(-110.000000, -198.000000)">
            <g id="编组" transform="translate(9.500000, 183.000000)">
                <g id="编组-10" transform="translate(100.000000, 15.000000)">
                    <g id="编组-4" transform="translate(1.000000, 0.000000)">
                        <rect id="矩形" fill-opacity="0.15" fill="#ABA5FF" transform="translate(33.500000, 33.500000) rotate(-345.000000) translate(-33.500000, -33.500000) " x="6.5" y="6.5" width="54" height="54" rx="16"></rect>
                        <rect id="矩形" fill="url(#linearGradient-1)" x="8.5" y="8.5" width="50" height="50" rx="16"></rect>
                        <g id="编组" filter="url(#filter-2)" transform="translate(20.000000, 20.000000)" fill="#FFFFFF" fill-rule="nonzero">
                            <path d="M25.828782,11.0530827 L22.5525113,8.0442406 L22.5525113,3.64736841 C22.5525113,2.72165413 21.8184361,1.91178944 20.9143759,1.91178949 C20.0103158,1.91178949 19.2762406,2.6642707 19.2762406,3.64736841 L19.2762406,5.09494738 L14.9833083,1.15714286 C14.5735978,0.740675019 14.0138399,0.506129332 13.4296241,0.506129332 C12.8454082,0.506129332 12.2856503,0.740675019 11.8759398,1.15714286 L1.14306765,10.7629173 C0.735989731,11.1694937 0.507253536,11.7212308 0.507253536,12.2965714 C0.507253536,12.871912 0.735989731,13.4236491 1.14306765,13.8302255 L4.08045112,15.0450226 L4.08045112,23.8993985 C4.08045112,25.1141955 5.04081203,26.0972932 6.22745865,26.0972932 L20.5754887,26.0972932 C21.7610526,26.0972932 22.7214136,25.1141955 22.7214135,23.8993985 L22.7214135,15.3925714 L25.828782,14.1777744 C26.6765414,13.2520602 26.6765414,11.9203308 25.828782,11.0530827 M17.3555188,11.572782 C18.089594,11.572782 18.7110677,12.2104963 18.7110677,12.9618948 C18.7110677,13.714376 18.089594,14.3510075 17.3555188,14.3510075 C16.6214436,14.3510075 15.9999699,13.714376 15.9999699,12.9618948 C15.9999699,12.1520301 16.6214436,11.5738647 17.3555188,11.5738647 M9.56003006,11.5738647 C10.2941053,11.5738647 10.915579,12.2104963 10.915579,12.9618948 C10.915579,13.714376 10.2941053,14.3510075 9.56003006,14.3510075 C8.82595486,14.3510075 8.20448121,13.714376 8.20448121,12.9618948 C8.26078198,12.1520301 8.82595491,11.5738647 9.56003006,11.5738647 M19.954015,19.2123609 C18.3721805,21.2954887 16.0562707,22.8578346 13.4577744,22.8578346 C10.915579,22.8578346 8.59966919,21.2954887 7.01783458,19.2697444 C6.72865171,18.8469424 6.80170421,18.2746204 7.18781957,17.938015 C7.35233956,17.8211356 7.55014671,17.7603887 7.75190978,17.7647819 C8.03449627,17.7647819 8.31708271,17.8806316 8.48706765,18.1123308 C9.68264376,19.6807312 11.541949,20.6009732 13.5140752,20.600391 C15.5007689,20.6049903 17.3697551,19.6588261 18.5421654,18.0549474 C18.7178962,17.8292413 18.9902793,17.7002812 19.2762406,17.7073985 C19.4771449,17.7110271 19.6729839,17.7710543 19.8414135,17.8806316 C20.1803007,18.2281804 20.2366015,18.8063458 19.954015,19.2123609" id="形状"></path>
                        </g>
                    </g>
                </g>
            </g>
        </g>
    </g>
</svg>