<?xml version="1.0" encoding="UTF-8"?>
<svg width="40px" height="40px" viewBox="0 0 40 40" version="1.1" xmlns="http://www.w3.org/2000/svg" xmlns:xlink="http://www.w3.org/1999/xlink">
    <title>形状</title>
    <g id="页面-1" stroke="none" stroke-width="1" fill="none" fill-rule="evenodd">
        <g id="商家中心-我的服务-个人服务管理-发布服务成功" transform="translate(-167.000000, -318.000000)" fill-rule="nonzero">
            <g id="编组-10" transform="translate(27.000000, 258.000000)">
                <g id="提交成功" transform="translate(140.000000, 60.000000)">
                    <rect id="矩形" fill="#000000" opacity="0" x="0" y="0" width="40" height="40"></rect>
                    <path d="M20,0 C8.97142855,0 0,8.97142855 0,20 C0,31.0285714 8.97142855,40 20,40 C31.0285714,40 40,31.0285714 40,20 C40,8.97142855 31.0285714,0 20,0 Z M32,13.4285714 C32,13.4285714 21.5428571,24.9714286 19.2,27.7142857 C16.8571429,30.4571429 15.0285714,27.7142857 15.0285714,27.7142857 L8.22857145,20.6857143 C8.22857145,20.6857143 7.14285715,19.0285714 9.0857143,17.4857143 C10.9142857,16 12.4,17.4857143 12.4,17.4857143 L17.2,22.5142857 L29.1428571,11.3714286 C29.1428571,11.3714286 30.2857143,10.5714286 31.4857143,11.6 C32.4,12.4571429 32,13.4285714 32,13.4285714 L32,13.4285714 Z" id="形状" fill="#68BF7B"></path>
                </g>
            </g>
        </g>
    </g>
</svg>