<?xml version="1.0" encoding="UTF-8"?>
<svg width="60px" height="60px" viewBox="0 0 60 60" version="1.1" xmlns="http://www.w3.org/2000/svg" xmlns:xlink="http://www.w3.org/1999/xlink">
    <title>编组 4</title>
    <defs>
        <linearGradient x1="50%" y1="0.177556818%" x2="50%" y2="99.9863418%" id="linearGradient-1">
            <stop stop-color="#FFCF97" offset="0%"></stop>
            <stop stop-color="#FCA338" offset="100%"></stop>
        </linearGradient>
        <filter x="-34.8%" y="-34.8%" width="169.6%" height="169.6%" filterUnits="objectBoundingBox" id="filter-2">
            <feOffset dx="0" dy="0" in="SourceAlpha" result="shadowOffsetOuter1"></feOffset>
            <feGaussianBlur stdDeviation="2" in="shadowOffsetOuter1" result="shadowBlurOuter1"></feGaussianBlur>
            <feColorMatrix values="0 0 0 0 0.930253623   0 0 0 0 0.598560066   0 0 0 0 0.202145814  0 0 0 1 0" type="matrix" in="shadowBlurOuter1" result="shadowMatrixOuter1"></feColorMatrix>
            <feMerge>
                <feMergeNode in="shadowMatrixOuter1"></feMergeNode>
                <feMergeNode in="SourceGraphic"></feMergeNode>
            </feMerge>
        </filter>
    </defs>
    <g id="页面-1" stroke="none" stroke-width="1" fill="none" fill-rule="evenodd">
        <g id="智享生活-商家中心" transform="translate(-201.000000, -246.000000)">
            <g id="编组-14" transform="translate(27.000000, 246.000000)">
                <g id="编组-4" transform="translate(174.000000, 0.000000)">
                    <path d="M21.8208955,5.82089552 L38.1791045,5.82089552 C47.0156605,5.82089552 54.1791045,12.9843395 54.1791045,21.8208955 L54.1791045,38.1791045 C54.1791045,47.0156605 47.0156605,54.1791045 38.1791045,54.1791045 L21.8208955,54.1791045 C12.9843395,54.1791045 5.82089552,47.0156605 5.82089552,38.1791045 L5.82089552,21.8208955 C5.82089552,12.9843395 12.9843395,5.82089552 21.8208955,5.82089552 Z" id="矩形" fill="#F8AF27" opacity="0.149999991" transform="translate(30.000000, 30.000000) rotate(-345.000000) translate(-30.000000, -30.000000) "></path>
                    <rect id="矩形" fill="url(#linearGradient-1)" fill-rule="nonzero" x="7.6119403" y="7.6119403" width="44.7761194" height="44.7761194" rx="16"></rect>
                    <g id="编组-15" filter="url(#filter-2)" transform="translate(20.000000, 19.000000)" fill="#FFFFFF" fill-rule="nonzero">
                        <path d="M9.27002237,3.90798505e-14 C9.8409396,3.90798505e-14 10.3355705,0.337136465 10.5447427,0.858836689 L10.5447427,0.858836689 L12.1836689,0.858836689 C12.9145414,0.858836689 13.5395973,1.38053691 13.6946309,2.05727069 L13.6946309,2.05727069 L17.0020134,2.05727069 C17.8608501,2.05727069 18.5892617,2.76107383 18.5621924,3.61991051 L18.5621924,3.61991051 L18.5630768,12.0950995 C18.2375752,12.2515596 17.8787876,12.3294461 17.52,12.3294461 C16.8421685,12.3294461 16.2092265,12.0051233 15.710953,11.4908399 C15.621174,11.3981762 15.531395,11.3518444 15.3967265,11.3981762 C14.629116,11.7224991 13.906395,12.1441188 13.273453,12.704734 C13.183674,12.7510658 13.1387845,12.8900613 13.183674,13.0290568 C13.3248315,13.5790478 13.3272773,14.1290388 13.1473928,14.6565197 L5.10380313,14.6568233 C4.79127517,14.6568233 4.53042506,14.9176734 4.53042506,15.2302013 L4.53042506,15.2302013 L4.53042506,15.7519016 C4.53042506,16.0644295 4.79127517,16.3252796 5.10380313,16.3252796 L5.10380313,16.3252796 L11.33,16.325 C11.255221,16.3807018 11.1905801,16.4622458 11.1546685,16.5734422 C11.0648895,17.0413938 11.02,17.4583803 11.02,17.88 C11.02,18.3016197 11.0648895,18.7649381 11.1546685,19.1865578 C11.1546685,19.3255533 11.2444475,19.4182169 11.379116,19.4645488 C12.0569475,19.6035443 12.6001105,20.025164 12.9592265,20.6784429 C13.1978048,21.0766893 13.3184931,21.5347774 13.3086106,22.0003538 L1.51096197,22 C0.676733781,22 -1.66977543e-13,21.2961969 -1.66977543e-13,20.4373602 L-1.66977543e-13,20.4373602 L-1.66977543e-13,3.61991051 C-1.66977543e-13,2.76107383 0.65212528,2.05727069 1.51096197,2.05727069 L1.51096197,2.05727069 L4.81834452,2.05727069 C4.97583893,1.38053691 5.60089485,0.858836689 6.32930649,0.858836689 L6.32930649,0.858836689 L7.99530201,0.858836689 C8.20201342,0.339597315 8.6966443,3.90798505e-14 9.27002237,3.90798505e-14 Z M13.4854586,9.37091723 L5.10380313,9.37091723 C4.79127517,9.37091723 4.53042506,9.63176734 4.53042506,9.9442953 L4.53042506,9.9442953 L4.53042506,10.4659955 C4.53042506,10.7785235 4.79127517,11.0393736 5.10380313,11.0393736 L5.10380313,11.0393736 L13.4854586,11.0393736 C13.7979866,11.0393736 14.0588367,10.7785235 14.0588367,10.4659955 L14.0588367,10.4659955 L14.0588367,9.9442953 C14.0588367,9.63176734 13.7979866,9.37091723 13.4854586,9.37091723 L13.4854586,9.37091723 Z M9.29463087,2.81275168 C8.59328859,2.81275168 8.04451902,3.38612975 8.04451902,4.06286353 C8.04451902,4.73959732 8.59082774,5.31297539 9.29463087,5.31297539 C9.97136465,5.31297539 10.5447427,4.76666667 10.5447427,4.06286353 C10.5447427,3.38612975 9.998434,2.81275168 9.29463087,2.81275168 Z" id="形状结合"></path>
                        <path d="M22.0775521,17.1177344 C22.0775521,17.0177344 22.0108854,16.9510677 21.9108854,16.9177344 C21.4075521,16.8177344 21.0042188,16.514401 20.7375521,16.044401 C20.4675521,15.6077344 20.4008854,15.0710677 20.5708854,14.5677344 C20.6042188,14.5010677 20.5708854,14.4010677 20.5042188,14.334401 C20.0342188,13.8977344 19.4975521,13.594401 18.9275521,13.394401 C18.8608854,13.3610677 18.7608854,13.394401 18.6942188,13.4610677 C18.3575521,13.864401 17.8542188,14.064401 17.3508854,14.064401 C16.8475521,14.0644011 16.3775521,13.8310677 16.0075521,13.4610677 C15.9408854,13.394401 15.8742188,13.3610677 15.7742188,13.394401 C15.2042188,13.6277344 14.6675521,13.9310677 14.1975521,14.334401 C14.1308854,14.3677344 14.0975521,14.4677344 14.1308854,14.5677344 C14.2642188,15.0710677 14.2308854,15.574401 13.9642188,16.044401 C13.7308854,16.4810677 13.2942188,16.784401 12.7908854,16.9177344 C12.7242188,16.9510677 12.6575521,17.0177344 12.6242188,17.1177344 C12.5575521,17.454401 12.5242188,17.754401 12.5242188,18.0577344 C12.5242188,18.3610677 12.5575521,18.694401 12.6242188,18.9977344 C12.6242188,19.0977344 12.6908854,19.164401 12.7908854,19.1977344 C13.2942188,19.2977344 13.6975521,19.6010677 13.9642188,20.0710677 C14.2342188,20.5077344 14.3008854,21.044401 14.1308854,21.5477344 C14.0975521,21.614401 14.1308854,21.714401 14.1975521,21.7810677 C14.6675521,22.2177344 15.2042188,22.5210677 15.7742188,22.7210677 L15.8408854,22.7210677 C15.9075521,22.7210677 15.9742188,22.6877344 16.0075521,22.654401 C16.3442188,22.2510677 16.8475521,22.0510677 17.3508854,22.0510677 C17.8542188,22.0510677 18.3242188,22.284401 18.6942188,22.654401 C18.7608854,22.7210677 18.8275521,22.754401 18.9275521,22.7210677 C19.4975521,22.4877344 20.0342188,22.184401 20.5042188,21.7810677 C20.5708854,21.7477344 20.6042188,21.6477344 20.5708854,21.5477344 C20.4375521,21.044401 20.4708854,20.5410677 20.7375521,20.0710677 C20.9708854,19.634401 21.4075521,19.3310677 21.9108854,19.1977344 C21.9775521,19.164401 22.0442188,19.0977344 22.0775521,18.9977344 C22.1442188,18.6610677 22.1775521,18.3610677 22.1775521,18.0577344 C22.1775521,17.754401 22.1442188,17.4210677 22.0775521,17.1177344 Z M17.3508854,20.354401 C16.1142188,20.354401 15.0775521,19.3177344 15.0775521,18.0410677 C15.0775521,16.764401 16.0742188,15.7277344 17.3508854,15.7277344 C18.5875521,15.7277344 19.6242188,16.764401 19.6242188,18.0410677 C19.6242188,19.3177344 18.6275521,20.354401 17.3508854,20.354401 Z M17.3508854,19.0410677 C16.8068971,19.0410677 16.3508854,18.5929409 16.3508854,18.0410677 C16.3508854,17.4891945 16.7893018,17.0410677 17.3508854,17.0410677 C17.8948737,17.0410677 18.3508854,17.4891945 18.3508854,18.0410677 C18.3508854,18.5929409 17.912469,19.0410677 17.3508854,19.0410677 Z" id="形状"></path>
                    </g>
                </g>
            </g>
        </g>
    </g>
</svg>