<?xml version="1.0" encoding="UTF-8"?>
<svg width="52px" height="52px" viewBox="0 0 52 52" version="1.1" xmlns="http://www.w3.org/2000/svg" xmlns:xlink="http://www.w3.org/1999/xlink">
    <title>椭圆形</title>
    <defs>
        <linearGradient x1="7.04688493%" y1="0%" x2="100%" y2="100%" id="linearGradient-1">
            <stop stop-color="#FECE72" offset="0%"></stop>
            <stop stop-color="#F5A716" offset="100%"></stop>
        </linearGradient>
    </defs>
    <g id="页面-1" stroke="none" stroke-width="1" fill="none" fill-rule="evenodd">
        <g id="智享生活-公共服务-健康医疗" transform="translate(-30.000000, -222.000000)">
            <g id="编组-7" transform="translate(15.000000, 128.000000)">
                <g id="编组-3备份-5" transform="translate(0.000000, 85.000000)">
                    <g id="编组-5" transform="translate(15.000000, 9.000000)">
                        <circle id="椭圆形" fill="#FFF7DD" cx="26" cy="26" r="26"></circle>
                        <path d="M38.8818201,23.3028145 L28.6971855,13.1181799 C27.206279,11.6272734 24.7898486,11.6272734 23.3028145,13.1181799 L13.1181799,23.3028145 C11.6272734,24.793721 11.6272734,27.2101514 13.1181799,28.6971855 L23.3028145,38.8818201 C24.793721,40.3727266 27.206279,40.3727266 28.6971855,38.8818201 L38.8818201,28.6971855 C40.3727266,27.2101514 40.3727266,24.793721 38.8818201,23.3028145 Z M33,27.4879899 C33,27.9696587 32.6104387,28.3565107 32.133888,28.3565107 L27.387292,28.3565107 L27.387292,33.1314791 C27.387292,33.6131479 26.9977307,34 26.52118,34 L24.4901664,34 C24.0098336,34 23.6240545,33.6093553 23.6240544,33.1314791 L23.6240544,28.3603034 L18.8661119,28.3603034 C18.3857791,28.3603034 18,27.9696587 18,27.4917825 L18,25.4740834 C18,24.9924147 18.3895613,24.6055626 18.8661119,24.6055626 L23.6202723,24.6055626 L23.6202723,19.8685209 C23.6202723,19.3868521 24.0098336,19 24.4863842,19 L26.5173979,19 C26.9939485,19 27.3835098,19.3906447 27.3835098,19.8685209 L27.3835098,24.6017699 L32.1263238,24.6017699 C32.6066566,24.6017699 32.9924357,24.9924146 32.9924357,25.4702908 L32.9924357,27.4879899 L33,27.4879899 Z" id="形状" fill="url(#linearGradient-1)" fill-rule="nonzero"></path>
                    </g>
                </g>
            </g>
        </g>
    </g>
</svg>