<?xml version="1.0" standalone="no"?><!DOCTYPE svg PUBLIC "-//W3C//DTD SVG 1.1//EN" "http://www.w3.org/Graphics/SVG/1.1/DTD/svg11.dtd"><svg t="1609139454311" class="icon" viewBox="0 0 1024 1024" version="1.1" xmlns="http://www.w3.org/2000/svg" p-id="4414" xmlns:xlink="http://www.w3.org/1999/xlink" width="48" height="48"><defs><style type="text/css"></style></defs><path d="M512 290.816c73.216 0 138.24 35.328 178.688 90.112l28.16 7.68C676.352 318.464 599.552 271.36 512 271.36c-42.496 0-82.432 10.752-116.736 30.208l28.16 7.68c27.136-11.776 56.832-18.432 88.576-18.432z m145.92-12.288l15.36 12.8 4.608-18.944 17.408-10.24-17.408-10.24-4.608-18.944-15.36 12.8-20.48-1.536 7.68 17.92-7.68 17.92 20.48-1.536zM389.12 236.032L373.248 225.28l-3.584 19.456-16.384 12.288 17.408 8.192 5.632 18.432 14.336-14.336 19.968-0.512-8.704-17.408 6.656-18.944-19.456 3.584z m148.992-27.136l-11.776-15.36-9.216 17.408-19.456 6.656 14.336 13.312v19.456l17.92-9.216 18.944 5.632-3.072-18.944 11.776-16.384-19.456-2.56z m216.064 121.344l-16.896-11.776-2.56 19.456-15.872 11.264L737.28 358.4l7.168 18.432 13.824-13.824h19.968l-9.728-17.408 5.632-18.432-19.968 3.072zM971.776 476.16L132.608 251.392c-20.48-5.632-41.984 6.656-47.104 27.136L25.088 502.272c-5.632 20.48 6.656 41.984 27.136 47.104l839.168 224.768c20.48 5.632 41.984-6.656 47.104-27.136l59.904-223.744c6.144-20.48-6.144-41.472-26.624-47.104z m6.144 51.712l-54.784 205.312c-4.096 15.36-19.968 24.576-35.328 20.48L66.56 533.504c-15.36-4.096-24.576-19.968-20.48-35.328l54.784-205.312c4.096-15.36 19.968-24.576 35.328-20.48l821.248 220.16c15.36 4.096 24.576 19.968 20.48 35.328z m-465.92-362.496c160.768 0 295.936 109.056 335.872 257.536l21.504 5.632c-37.888-161.792-183.296-282.624-356.864-282.624-105.472 0-200.192 44.544-267.264 115.2l21.504 5.632C329.216 204.288 416.256 165.376 512 165.376z m88.576 550.912c-27.136 11.776-57.344 18.432-88.576 18.432-73.216 0-138.24-35.328-178.688-90.112l-28.16-7.68c42.496 70.144 118.784 116.736 206.848 116.736 42.496 0 82.432-10.752 116.736-30.208l-28.16-7.168z m-207.36 40.448l-15.36-12.288-4.608 18.944-17.408 10.24 17.408 10.24 4.608 18.944 15.36-12.288 19.968 1.536-7.68-17.92 7.68-17.92-19.968 0.512z m118.784 59.392l11.776 15.36 9.216-17.408 18.944-6.656-14.336-13.312v-19.456l-17.92 9.216-18.944-5.632 3.072 18.944-11.776 15.872 19.968 3.072z m-244.224-121.344l15.872 12.8 3.584-18.944 16.384-10.24-17.408-10.24-5.632-18.944-14.336 12.8-19.968-1.536 8.704 17.92-6.656 17.92 19.456-1.536zM512 860.16c-160.768 0-295.936-109.056-335.872-257.536l-21.504-5.632c37.888 161.792 183.296 282.624 356.864 282.624 105.472 0 200.192-44.544 267.264-115.2l-21.504-5.632C694.784 821.76 607.744 860.16 512 860.16z m139.776-70.656l15.872 11.264 3.584-19.456 16.384-12.288-17.408-8.192-5.632-18.432-14.336 14.336-19.968 0.512 8.704 17.408-6.144 18.944 18.944-4.096z" p-id="4415" fill="#d81e06"></path><path d="M237.056 501.248c0-4.096 1.024-8.192 1.536-12.8 0.512-3.584 4.096-6.656 8.192-6.144 3.072 0.512 7.168 1.024 12.288 1.536 19.456 2.048 33.792 2.56 43.52 3.072-1.024 1.024-1.536 1.536-1.536 2.56-2.048 5.632-3.584 10.752-4.608 15.36-1.024 3.072-4.096 5.632-7.168 5.632-19.968-1.024-34.816-1.536-44.544-1.536-4.608 0-8.192-3.584-7.68-7.68z m68.608-92.16l-10.752 29.184c-1.536 4.096 1.024 8.192 4.608 9.216l1.536 0.512c3.584 1.024 7.68-1.024 8.704-4.608 5.632-15.872 11.264-31.744 16.384-48.128 1.536-4.096-1.024-8.192-4.608-9.216l-38.912-11.264c-3.584-1.024-6.144-5.12-5.12-8.704l2.56-9.728c1.024-3.584 5.12-6.144 8.704-5.12l65.536 18.432c4.096 1.024 6.144 5.632 4.608 9.216-8.704 23.552-16.384 47.104-24.064 70.656-1.024 4.096 1.024 7.68 5.12 9.216 4.096 1.024 6.144 5.12 4.608 9.216-0.512 1.024-0.512 2.048-1.024 3.072-14.848 45.568-25.6 71.68-33.28 78.848-0.512 0.512-1.024 1.024-1.536 1.024-7.68 4.096-18.944 4.096-32.768 0-3.584-1.024-5.632-4.096-5.12-7.68 0.512-4.096 0.512-8.704 0.512-13.312 0-4.608 4.096-8.192 8.704-7.168 3.584 0.512 6.144 1.024 8.192 1.536 3.072 0.512 6.656-1.536 7.68-4.608 2.56-6.144 7.168-18.432 13.312-36.864 0.512-2.56 1.536-4.608 3.072-6.656l-47.616-13.312c-4.096-1.024-6.144-5.12-4.608-9.216l20.992-64c1.024-4.096 5.632-5.632 9.216-4.608 4.608 2.048 9.216 3.584 12.288 4.608 5.12 2.048 7.68 3.072 8.192 3.584-0.512 1.024-1.024 2.56-2.048 4.096-0.512 4.096-2.048 7.68-3.072 11.776z m55.296 59.904l12.8-0.512c3.584 0 7.168 2.56 7.168 6.656 0.512 7.168 1.536 13.312 2.048 18.432 1.024 6.144 8.704 8.192 12.8 3.584 6.656-7.68 11.264-13.824 13.824-17.92 2.048-3.072 3.584-4.608 4.096-4.608 8.192 6.144 14.336 11.776 19.456 16.384 2.56 2.56 3.072 7.168 0.512 9.728-6.656 8.192-16.896 18.944-30.208 31.744-2.56 2.56-3.072 6.656-0.512 9.728 6.144 7.68 13.824 14.336 23.04 21.504 4.096 2.56 4.096 8.704 0.512 11.264-4.608 3.584-9.216 7.68-13.312 12.288-2.56 3.072-7.168 3.584-10.24 0.512-8.704-8.192-16.384-17.92-24.576-28.672-2.048-3.072-6.144-4.096-9.728-2.048-10.752 6.144-21.504 11.264-31.744 14.336-3.072 1.024-6.656-0.512-8.192-3.584-2.048-4.096-4.608-8.192-7.168-11.776-2.56-4.096-1.024-9.216 3.584-10.752 10.752-3.584 21.504-8.192 31.744-14.336 3.072-1.536 4.096-5.12 3.584-8.192-3.584-13.824-5.632-29.184-6.144-47.104 0-3.584 3.072-6.656 6.656-6.656z m12.8-81.92l10.24-5.632c3.072-1.536 6.656-1.024 8.704 1.536 1.024 1.024 1.536 2.048 2.56 3.072 6.144 7.168 11.264 13.312 15.872 17.92 2.56 2.56 6.656 3.072 9.728 1.024 4.096-3.072 8.704-7.168 14.336-12.288 2.56-2.56 7.168-2.56 9.728 0 9.728 8.704 16.384 15.36 19.968 19.456-0.512 1.024-1.536 2.048-3.584 2.56-2.048 0.512-4.096 1.536-6.656 3.072-6.144 4.096-10.752 7.68-14.336 9.728-3.584 2.048-4.096 6.656-1.536 10.24 6.144 8.704 12.8 17.92 19.456 27.648l-2.048 1.024c-6.144 4.608-12.288 8.192-17.408 11.264-3.584 1.536-7.68 0.512-9.216-3.072-5.12-8.704-10.24-16.896-15.872-24.576-2.048-3.072-5.632-3.584-9.216-2.048-11.776 5.632-24.576 10.752-38.4 14.848-3.072 1.024-6.656-0.512-8.192-3.584l-6.144-10.752c-2.56-4.096-1.024-9.216 3.584-10.752 11.776-3.584 22.016-7.68 30.208-11.776 4.096-2.048 5.12-7.68 2.048-11.264-4.608-5.12-9.728-10.752-14.848-16.896-4.096-3.072-3.072-8.192 1.024-10.752zM585.728 628.736l47.104-165.888c1.024-3.584 5.12-6.144 8.704-5.12l160.768 45.568c3.584 1.024 6.144 5.12 5.12 8.704l-47.104 164.864c-1.024 3.584-5.12 6.144-8.704 5.12l-13.824-4.096c-3.584-1.024-6.144-5.12-5.12-8.704 1.024-3.584-1.024-7.68-5.12-8.704l-105.984-30.208c-3.584-1.024-7.68 1.024-8.704 5.12v1.024c-1.024 3.584-5.12 6.144-8.704 5.12l-12.8-3.584c-4.608-1.536-6.656-5.632-5.632-9.216z m42.496-20.992l105.984 30.208c3.584 1.024 7.68-1.024 8.704-5.12l29.696-104.96c1.024-3.584-1.024-7.68-5.12-8.704l-105.984-30.208c-3.584-1.024-7.68 1.024-8.704 5.12l-29.696 104.96c-1.024 3.584 1.024 7.68 5.12 8.704z m120.32-66.048l-18.432 65.024c-1.024 3.584-5.12 6.144-8.704 5.12l-69.632-19.968c-3.584-1.024-6.144-5.12-5.12-8.704l18.432-65.024c1.024-3.584 5.12-6.144 8.704-5.12l69.632 19.968c3.584 1.024 6.144 4.608 5.12 8.704z m-38.4 6.144l-16.384-4.608c-3.584-1.024-7.68 1.024-8.704 5.12l-5.632 19.968c-1.024 3.584 1.024 7.68 5.12 8.704l16.384 4.608c3.584 1.024 7.68-1.024 8.704-5.12l5.632-19.968c1.024-3.584-1.536-7.68-5.12-8.704z" p-id="4416" fill="#d81e06"></path></svg>