<?xml version="1.0" encoding="UTF-8"?>
<svg width="52px" height="52px" viewBox="0 0 52 52" version="1.1" xmlns="http://www.w3.org/2000/svg" xmlns:xlink="http://www.w3.org/1999/xlink">
    <title>椭圆形</title>
    <g id="页面-1" stroke="none" stroke-width="1" fill="none" fill-rule="evenodd">
        <g id="智享生活-便民服务" transform="translate(-30.000000, -344.000000)" fill-rule="nonzero">
            <g id="编组-4" transform="translate(15.000000, 80.000000)">
                <g id="编组-3备份-3" transform="translate(0.000000, 255.000000)">
                    <g id="编组-9" transform="translate(15.000000, 9.000000)">
                        <circle id="椭圆形" fill="#E8ECFF" opacity="0.600000024" cx="26" cy="26" r="26"></circle>
                        <g id="zhuangxiu" transform="translate(12.500000, 12.500000)" fill="#6D81E8">
                            <path d="M1.39375597,0.00475181437 L23.5843505,0.00475181437 C24.3503789,0.00475181437 24.9713623,0.625735254 24.9713623,1.39176359 L24.9713623,8.32650371 C24.9713623,9.09253205 24.3503789,9.71351549 23.5843505,9.71351549 L1.39375597,9.71351549 C0.627727629,9.71351549 0.00674418937,9.09253205 0.00674418937,8.32650371 L0.00674418937,1.39176359 C0.00674418937,0.625735254 0.627727629,0.00475181437 1.39375597,0.00475181437 Z M4.16777953,12.4872203 L12.4892126,12.4872203 C13.255241,12.4872203 13.8762244,13.1082037 13.8762244,13.8742321 L13.8762244,18.0349486 L15.2632362,18.0349486 L15.2632362,26.3563817 L9.71518909,26.3563817 L9.71518909,18.0349486 L11.1022009,18.0349486 L11.1022009,15.2612438 L2.78076775,15.2612438 C2.01473941,15.2612438 1.39375597,14.6402604 1.39375597,13.8742321 L1.39375597,11.1005273 L4.16746075,11.1005273 L4.16746075,12.4872203 L4.16777953,12.4872203 Z" id="形状"></path>
                            <path d="M20.4389483,14.8892276 L22.891004,12.4371718 L25.3430598,14.8892276 C26.6969185,16.243405 26.6965997,18.4388429 25.3424222,19.7927015 C23.9882448,21.1465602 21.7928069,21.1462414 20.4389483,19.792064 C19.0854084,18.4382053 19.0854084,16.243405 20.4389483,14.8892276 Z" id="路径" opacity="0.4"></path>
                        </g>
                    </g>
                </g>
            </g>
        </g>
    </g>
</svg>