<?xml version="1.0" encoding="UTF-8"?>
<svg width="60px" height="60px" viewBox="0 0 60 60" version="1.1" xmlns="http://www.w3.org/2000/svg" xmlns:xlink="http://www.w3.org/1999/xlink">
    <title>编组 4</title>
    <defs>
        <linearGradient x1="50%" y1="0%" x2="50%" y2="100%" id="linearGradient-1">
            <stop stop-color="#A8D4FF" offset="0%"></stop>
            <stop stop-color="#4C99FE" offset="100%"></stop>
        </linearGradient>
        <filter x="-34.8%" y="-34.8%" width="169.6%" height="169.6%" filterUnits="objectBoundingBox" id="filter-2">
            <feOffset dx="0" dy="0" in="SourceAlpha" result="shadowOffsetOuter1"></feOffset>
            <feGaussianBlur stdDeviation="2" in="shadowOffsetOuter1" result="shadowBlurOuter1"></feGaussianBlur>
            <feColorMatrix values="0 0 0 0 0.29673093   0 0 0 0 0.597871722   0 0 0 0 0.987347147  0 0 0 1 0" type="matrix" in="shadowBlurOuter1" result="shadowMatrixOuter1"></feColorMatrix>
            <feMerge>
                <feMergeNode in="shadowMatrixOuter1"></feMergeNode>
                <feMergeNode in="SourceGraphic"></feMergeNode>
            </feMerge>
        </filter>
    </defs>
    <g id="页面-1" stroke="none" stroke-width="1" fill="none" fill-rule="evenodd">
        <g id="智享生活-商家中心" transform="translate(-27.000000, -343.000000)">
            <g id="编组-4" transform="translate(27.000000, 343.000000)">
                <rect id="矩形" fill-opacity="0.15" fill="#64A6FA" transform="translate(30.000000, 30.000000) rotate(-345.000000) translate(-30.000000, -30.000000) " x="5.82089552" y="5.82089552" width="48.358209" height="48.358209" rx="16"></rect>
                <rect id="矩形" fill="url(#linearGradient-1)" x="7.6119403" y="7.6119403" width="44.7761194" height="44.7761194" rx="16"></rect>
                <g id="编组" filter="url(#filter-2)" transform="translate(18.500000, 18.500000)" fill="#FFFFFF" fill-rule="nonzero">
                    <path d="M20.4484375,10.9737723 L11.856808,10.9635045 C11.4897321,10.9635045 11.1919643,10.6657366 11.1893973,10.2960937 L11.1791295,1.70446429 C11.1791295,1.47087054 11.0841518,1.24241071 10.9172991,1.078125 C10.7478795,0.911272321 10.5245536,0.821428571 10.2883929,0.823942016 C7.96785714,0.849665179 5.79620536,1.61462054 4.00703125,3.03158482 C3.14966518,3.71183036 2.40267857,4.52555804 1.79430804,5.44709821 C1.17823661,6.37633929 0.713616071,7.39799107 0.410714286,8.48381696 C-0.12578125,10.3962054 -0.128348214,12.3958705 0.403013393,14.2671875 C0.903571429,16.030692 1.86361607,17.6581473 3.17790179,18.972433 C4.49475446,20.2892857 6.12220982,21.2493304 7.88314732,21.7473214 C8.81495536,22.0117187 9.78013393,22.1452009 10.7504464,22.1452009 C11.7258929,22.1452009 12.7090402,22.0117187 13.6690848,21.7421875 C14.7549107,21.4392857 15.7765625,20.9746652 16.7058036,20.3585937 C17.6273437,19.7476562 18.4410714,19.0032366 19.121317,18.1458705 C20.5408482,16.3566964 21.3032366,14.1824777 21.3289598,11.8645089 C21.3314732,11.6283482 21.2416295,11.4050223 21.0747768,11.2356027 C20.913058,11.06875 20.6845982,10.9737723 20.4484375,10.9737723 L20.4484375,10.9737723 Z" id="路径"></path>
                    <path d="M21.6153437,5.54207589 C21.1584241,4.46138393 20.5038482,3.49107143 19.6721517,2.65680804 C18.8404553,1.82254464 17.8675758,1.17053571 16.7868839,0.713616071 C15.6676874,0.241294643 14.479183,1.29674049e-13 13.254741,1.29674049e-13 C12.8286249,1.29674049e-13 12.4846517,0.343973214 12.4846517,0.770089286 L12.4846517,9.08705357 C12.4846517,9.29241071 12.5667946,9.4875 12.7105446,9.63125 C12.8542946,9.775 13.0493839,9.85714286 13.254741,9.85714286 L21.5588705,9.846875 C21.9849866,9.846875 22.3289598,9.50290179 22.3289598,9.07678571 C22.3289598,7.84977679 22.0876651,6.66127232 21.6153437,5.54207589 L21.6153437,5.54207589 Z" id="路径"></path>
                </g>
            </g>
        </g>
    </g>
</svg>