<?xml version="1.0" encoding="UTF-8"?>
<svg width="60px" height="60px" viewBox="0 0 60 60" version="1.1" xmlns="http://www.w3.org/2000/svg" xmlns:xlink="http://www.w3.org/1999/xlink">
    <title>编组 4</title>
    <defs>
        <linearGradient x1="50%" y1="0.177556818%" x2="50%" y2="99.9863418%" id="linearGradient-1">
            <stop stop-color="#FFCF97" offset="0%"></stop>
            <stop stop-color="#FCA338" offset="100%"></stop>
        </linearGradient>
        <filter x="-33.3%" y="-33.3%" width="166.7%" height="166.7%" filterUnits="objectBoundingBox" id="filter-2">
            <feOffset dx="0" dy="0" in="SourceAlpha" result="shadowOffsetOuter1"></feOffset>
            <feGaussianBlur stdDeviation="2" in="shadowOffsetOuter1" result="shadowBlurOuter1"></feGaussianBlur>
            <feColorMatrix values="0 0 0 0 0.930253623   0 0 0 0 0.598560066   0 0 0 0 0.202145814  0 0 0 1 0" type="matrix" in="shadowBlurOuter1" result="shadowMatrixOuter1"></feColorMatrix>
            <feMerge>
                <feMergeNode in="shadowMatrixOuter1"></feMergeNode>
                <feMergeNode in="SourceGraphic"></feMergeNode>
            </feMerge>
        </filter>
    </defs>
    <g id="页面-1" stroke="none" stroke-width="1" fill="none" fill-rule="evenodd">
        <g id="商家中心-我的服务-个人服务管理-发布服务" transform="translate(-201.000000, -132.000000)">
            <g id="编组-14" transform="translate(27.000000, 132.000000)">
                <g id="编组-4" transform="translate(174.000000, 0.000000)">
                    <path d="M21.8208955,5.82089552 L38.1791045,5.82089552 C47.0156605,5.82089552 54.1791045,12.9843395 54.1791045,21.8208955 L54.1791045,38.1791045 C54.1791045,47.0156605 47.0156605,54.1791045 38.1791045,54.1791045 L21.8208955,54.1791045 C12.9843395,54.1791045 5.82089552,47.0156605 5.82089552,38.1791045 L5.82089552,21.8208955 C5.82089552,12.9843395 12.9843395,5.82089552 21.8208955,5.82089552 Z" id="矩形" fill="#F8AF27" opacity="0.149999991" transform="translate(30.000000, 30.000000) rotate(-345.000000) translate(-30.000000, -30.000000) "></path>
                    <rect id="矩形" fill="url(#linearGradient-1)" fill-rule="nonzero" x="7.6119403" y="7.6119403" width="44.7761194" height="44.7761194" rx="16"></rect>
                    <g id="编组-15" filter="url(#filter-2)" transform="translate(18.000000, 18.000000)" fill="#FFFFFF" fill-rule="nonzero">
                        <g id="fangwuweixiu" transform="translate(0.500000, 0.500000)">
                            <path d="M11.3417391,9.04509375 C11.521125,9.04509375 11.6979844,9.05772656 11.8697906,9.08299219 L11.8697906,9.08299219 L11.9405344,10.0885641 L10.2881625,11.7813609 L12.3548906,13.8304031 L14.1057984,12.0820219 L14.9496703,12.2513016 C14.9673563,12.3902625 14.9749359,12.53175 14.9749359,12.6757641 C14.9749359,14.3079234 13.8960938,15.6899531 12.4130016,16.1472609 C12.0744422,16.2533766 11.7156703,16.3089609 11.3417391,16.3089609 C10.9905469,16.3089609 10.6494609,16.2584297 10.3285875,16.1649469 C10.3260609,16.1624203 10.3235344,16.1624203 10.3210078,16.1624203 L10.3210078,16.1624203 L8.90107969,17.5798219 L5.66707969,20.8087687 L5.22240469,21.2534437 L4.66656094,21.8092875 C4.39621875,21.9785672 4.07787188,22.0771031 3.73678594,22.0771031 C2.7691125,22.0771031 1.98335156,21.2913422 1.98335156,20.3236687 C1.98335156,19.9623703 2.09199375,19.6263375 2.27895938,19.3484156 L2.27895938,19.3484156 L2.7691125,18.8607891 L5.49022031,16.1573672 L7.49631094,14.1588562 L7.87782188,13.7773453 C7.84750313,13.6838625 7.8222375,13.5878531 7.79949844,13.4893172 C7.73886094,13.2290812 7.70854219,12.9562125 7.70854219,12.6782906 C7.70854219,12.4332141 7.73380781,12.1957172 7.77928594,11.9658 C8.11026563,10.3007953 9.57819844,9.04509375 11.3417391,9.04509375 Z M11.3581617,0.0208485213 C11.869072,0.0208485213 12.3584977,0.226405723 12.7161891,0.591215625 L12.7161891,0.591215625 L16.4807672,3.9414375 L16.4807672,2.72363437 C16.4807672,1.90502812 17.1351469,1.24306875 17.9411203,1.24306875 C18.7470938,1.24306875 19.4014734,1.90502812 19.4014734,2.72363437 L19.4014734,2.72363437 L19.4014734,6.27850781 C19.4014734,6.36188437 19.4141063,6.44273437 19.4014734,6.52105781 L19.4014734,6.52105781 L22.2665953,9.08804531 C23.0169844,9.84854062 23.0169844,10.9627547 22.2640688,11.72325 L22.2640688,11.72325 L19.5176953,12.895575 L19.5176953,20.0962781 C19.5176953,21.1448016 18.6814031,21.9937266 17.6480391,21.9937266 L17.6480391,21.9937266 L6.30124688,21.9937266 L10.8465328,17.4585469 C10.8620665,17.4604184 10.9051879,17.4629554 10.9717247,17.4639509 L11.0885699,17.4640124 C12.1554793,17.4508424 16.2938016,17.0568234 16.2938016,12.4685859 C16.2938016,12.2740406 16.2255844,11.1522469 16.2255844,11.1522469 L16.2255844,11.1522469 L13.8405094,10.7505234 L13.3730953,10.2831094 L13.1684438,7.89803437 C13.1684438,7.89803437 12.3270984,7.7616 11.5160719,7.7616 C9.13352344,7.7616 7.1754375,9.47460937 6.72318281,11.7459891 C6.66001875,12.0618094 6.62717344,12.3852094 6.62717344,12.7187156 C6.62717344,12.9612656 6.64485938,13.0016906 6.67770469,13.2341344 L6.67770469,13.2341344 L3.15820313,16.7005781 L3.15820313,12.5292234 L0.56595,11.4882797 C-0.184439062,10.7277844 -0.184439062,9.61357031 0.56595,8.853075 L0.56595,8.853075 L10.0001344,0.591215625 C10.3578257,0.226405723 10.8472514,0.0208485213 11.3581617,0.0208485213 Z" id="形状结合"></path>
                        </g>
                    </g>
                </g>
            </g>
        </g>
    </g>
</svg>