<?xml version="1.0" encoding="UTF-8"?>
<svg width="20px" height="20px" viewBox="0 0 20 20" version="1.1" xmlns="http://www.w3.org/2000/svg" xmlns:xlink="http://www.w3.org/1999/xlink">
    <title>矩形</title>
    <g id="页面-1" stroke="none" stroke-width="1" fill="none" fill-rule="evenodd">
        <g id="智享生活" transform="translate(-250.000000, -160.000000)">
            <g id="编组-4" transform="translate(235.000000, 64.000000)">
                <g id="编组" transform="translate(15.000000, 96.000000)">
                    <rect id="矩形" fill="#D8D8D8" opacity="0" x="0" y="0" width="20" height="20"></rect>
                    <g transform="translate(2.000000, 2.500000)" fill="#333333" fill-rule="nonzero">
                        <path d="M2.47494534,14.4677189 C1.57139387,14.4677189 0.864266618,13.7605917 0.864266618,12.8570402 L0.864266618,9.94996159 C0.864266618,9.75353735 1.13926054,9.63568282 1.41425447,9.63568282 C1.6892484,9.63568282 1.88567263,9.75353737 1.88567263,9.94996159 L1.88567263,12.4641918 C1.88567263,12.9748948 1.96424232,13.4463129 2.47494534,13.4463129 L13.1997085,13.4463129 C13.7104115,13.4463129 13.828266,12.9748948 13.828266,12.5427615 L13.828266,9.98924644 C13.828266,9.7928222 14.0246902,9.63568282 14.338969,9.63568282 C14.6139629,9.63568282 14.8103872,9.7928222 14.8103872,9.98924644 L14.8103872,12.9356099 C14.8103872,13.7998765 14.0639751,14.4677189 13.1997085,14.4677189 L2.47494534,14.4677189 Z M6.12843607,6.84645871 L6.20700576,7.04288294 C6.48199969,7.71072534 7.18912692,8.14285865 8.09267839,8.14285865 C8.87837532,8.14285865 9.58550257,7.71072534 9.89978134,7.04288294 L9.97835103,6.84645871 L11.1961813,6.84645871 L11.274751,7.04288294 C11.6283146,7.78929503 12.1390176,8.14285865 12.8461448,8.14285865 C13.9068357,8.14285865 14.6925326,7.55358594 14.6925326,6.45361025 C14.6532478,6.17861632 14.1032599,3.62510129 13.7104115,1.97513774 L13.7104115,1.93585288 C13.7104115,1.38586503 13.2389933,0.914446883 12.6497206,0.914446883 L3.06421803,0.914446883 C2.47494534,0.914446883 2.00352718,1.38586503 2.00352718,1.93585288 L2.00352718,2.01442259 C1.61067871,3.66438615 1.09997571,6.21790118 1.06069085,6.49289509 C1.06069085,7.5143011 1.92495747,8.1821435 2.98564834,8.1821435 C3.77134526,8.1821435 4.47847251,7.75001019 4.79275128,7.08216779 L4.87132097,6.84645871 L6.12843607,6.84645871 Z M5.22488459,7.86786472 C4.75346643,8.6928465 3.77134526,9.24283435 2.7892241,9.24283435 C1.25711509,9.24283435 -1.1630367e-15,8.0250041 -1.1630367e-15,6.53217994 C-1.1630367e-15,6.49289509 -1.1630367e-15,6.4143254 0.982121162,1.73942866 C0.982121162,0.757307487 1.80710294,0.0108954128 2.82850896,0.0108954128 L12.8461448,0.0108954128 C13.828266,0.0108954128 14.6532478,0.796592339 14.6925326,1.73942866 C15.7139386,6.4143254 15.7139386,6.49289509 15.7139386,6.53217994 C15.7139386,8.06428895 14.5746781,9.24283435 13.0818539,9.24283435 C11.9033085,9.24283435 11.2354661,8.77141619 10.7247631,7.86786472 L10.3319146,7.86786472 C9.86049648,8.73213134 9.07479956,9.24283435 8.09267839,9.24283435 C6.95341785,9.24283435 6.04986637,8.73213135 5.61773306,7.86786472 L5.22488459,7.86786472 Z" id="形状" stroke="#333333" stroke-width="0.3"></path>
                        <path d="M3.65349073,4.90367099 C3.4570665,4.90367099 3.29992712,4.58059406 3.29992712,4.30367098 C3.29992712,4.02674791 3.49635135,3.70367099 3.65349073,3.70367099 L12.0604479,3.70367099 C12.2568721,3.70367099 12.4140115,4.02674791 12.4140115,4.30367098 C12.4140115,4.58059405 12.2568721,4.90367099 12.0604479,4.90367099 L3.65349073,4.90367099 Z" id="路径"></path>
                    </g>
                </g>
            </g>
        </g>
    </g>
</svg>