<?xml version="1.0" encoding="UTF-8"?>
<svg width="20px" height="20px" viewBox="0 0 20 20" version="1.1" xmlns="http://www.w3.org/2000/svg" xmlns:xlink="http://www.w3.org/1999/xlink">
    <title>矩形</title>
    <g id="页面-1" stroke="none" stroke-width="1" fill="none" fill-rule="evenodd">
        <g id="智享生活" transform="translate(-250.000000, -200.000000)">
            <g id="编组-4" transform="translate(235.000000, 64.000000)">
                <g id="编组" transform="translate(15.000000, 136.000000)">
                    <rect id="矩形" fill="#D8D8D8" opacity="0" x="0" y="0" width="20" height="20"></rect>
                    <g id="编组-5" transform="translate(2.004825, 2.015000)" fill="#333333" fill-rule="nonzero">
                        <path d="M3.17892506,4.79886023 L12.1564251,4.79886023 C12.3083001,4.81000206 12.4489251,4.73869438 12.5501751,4.61836269 C12.6514251,4.51140118 12.7114251,4.35541565 12.7114251,4.19943012 C12.7114251,3.86294704 12.4601751,3.6 12.1470501,3.6 L3.16767506,3.6 C2.85455006,3.6 2.60330006,3.86294704 2.60330006,4.19943012 C2.62392506,4.522543 2.87517506,4.79886023 3.17892506,4.79886023 L3.17892506,4.79886023 Z" id="路径"></path>
                        <path d="M1.63580006,8.0475 C2.05017506,8.259375 2.54330006,8.38125 3.08892506,8.38125 C3.99642506,8.38125 4.85330006,7.9875 5.43830006,7.291875 C6.01392506,7.966875 6.85955006,8.360625 7.77830006,8.371875 C8.67642506,8.371875 9.52392506,7.978125 10.1089251,7.291875 C10.6939251,7.978125 11.5414251,8.371875 12.4695501,8.371875 C13.0245501,8.371875 13.5289251,8.25 13.9414251,8.02875 C14.9295501,7.494375 15.5445501,6.47625 15.5445501,5.356875 C15.5445501,5.034375 15.5033001,4.72125 15.4039251,4.42875 C15.3945501,4.3875 15.3833001,4.348125 15.3626751,4.306875 L14.0520501,1.08 C13.8195501,0.414375 13.1745501,-1.77635684e-14 12.4076751,-1.77635684e-14 L3.17892506,-1.77635684e-14 C2.40267506,-1.77635684e-14 1.79705006,0.403125 1.58517506,1.048125 L0.173300057,4.335 C0.163925057,4.365 0.152675057,4.385625 0.152675057,4.415625 C-0.312324943,5.829375 0.313925057,7.36125 1.63580006,8.0475 Z M1.09955006,4.75875 L1.12017506,4.6875 L2.50205006,1.47 L2.52267506,1.42875 L2.53205006,1.3875 C2.64267506,1.065 3.01580006,1.02375 3.16767506,1.02375 L12.4076751,1.02375 L12.4076751,1.003125 C12.6795501,1.003125 13.0020501,1.104375 13.1033001,1.40625 L13.1126751,1.43625 L13.1220501,1.46625 L14.4233001,4.663125 L14.4326751,4.693125 L14.4533001,4.753125 C14.5133001,4.935 14.5433001,5.146875 14.5433001,5.35875 C14.5433001,6.105 14.1289251,6.79125 13.4633001,7.14375 L13.4426751,7.14375 C13.1914251,7.284375 12.8576751,7.355625 12.4545501,7.365 C11.8395501,7.365 11.2639251,7.1025 10.8608001,6.639375 L10.0939251,5.74125 L9.32705006,6.64875 C8.94455006,7.1025 8.36892506,7.365 7.77455006,7.374375 C7.15955006,7.365 6.58392506,7.1025 6.19017506,6.64875 L5.42330006,5.750625 L4.65642506,6.64875 C4.26267506,7.111875 3.67767506,7.385625 3.07205006,7.385625 C2.68955006,7.385625 2.35580006,7.314375 2.08392506,7.17375 C1.20080006,6.71625 0.788300057,5.698125 1.09955006,4.75875 L1.09955006,4.75875 Z M15.1883001,14.61875 L15.1376751,14.639375 C15.1470501,14.680625 15.1583001,14.72 15.1583001,14.770625 C15.1583001,15.05375 14.9370501,15.275 14.6539251,15.275 C14.3708001,15.275 14.1495501,15.05375 14.1495501,14.770625 C14.1495501,14.75 14.1589251,14.729375 14.1589251,14.710625 C13.7351751,13.6925 12.7564251,13.015625 11.6276751,13.015625 C10.4070501,13.015625 9.35892506,13.7825 9.00455006,14.931875 C8.93330006,15.134375 8.74205006,15.284375 8.52080006,15.284375 C8.49080006,15.284375 8.47017506,15.275 8.44017506,15.275 L8.44017506,15.284375 L2.79267506,15.284375 C1.95642506,15.284375 1.27955006,14.609375 1.27955006,13.77125 L1.27955006,10.205625 C1.27955006,9.9225 1.50080006,9.70125 1.78392506,9.70125 C2.06705006,9.70125 2.28830006,9.9225 2.28830006,10.205625 L2.28830006,13.77125 C2.28830006,14.054375 2.50955006,14.275625 2.79267506,14.275625 L8.17955006,14.275625 C8.57330006,13.356875 9.29892506,12.651875 10.1970501,12.288125 C9.89517506,11.945 9.71330006,11.511875 9.71330006,11.028125 C9.71330006,9.989375 10.5608001,9.141875 11.5995501,9.141875 C12.6476751,9.141875 13.4858001,9.989375 13.4858001,11.028125 C13.4839251,11.5025 13.3020501,11.935625 13.0095501,12.269375 C14.0276751,12.6725 14.8358001,13.52 15.1883001,14.61875 Z M11.5976751,10.150625 C11.1139251,10.150625 10.7201751,10.544375 10.7201751,11.028125 C10.7201751,11.511875 11.1139251,11.905625 11.5976751,11.905625 C12.0814251,11.905625 12.4751751,11.511875 12.4751751,11.028125 C12.4751751,10.544375 12.0814251,10.150625 11.5976751,10.150625 Z" id="形状" stroke="#333333" stroke-width="0.3"></path>
                    </g>
                </g>
            </g>
        </g>
    </g>
</svg>