<?xml version="1.0" encoding="UTF-8"?>
<svg width="52px" height="53px" viewBox="0 0 52 53" version="1.1" xmlns="http://www.w3.org/2000/svg" xmlns:xlink="http://www.w3.org/1999/xlink">
    <title>椭圆形</title>
    <defs>
        <linearGradient x1="10.0517756%" y1="34.2795623%" x2="93.1167905%" y2="78.125%" id="linearGradient-1">
            <stop stop-color="#6D95E3" offset="0%"></stop>
            <stop stop-color="#3B5CC3" offset="100%"></stop>
        </linearGradient>
    </defs>
    <g id="页面-1" stroke="none" stroke-width="1" fill="none" fill-rule="evenodd">
        <g id="智享生活-公共服务-社会保障" transform="translate(-30.000000, -136.000000)" fill-rule="nonzero">
            <g id="编组-10" transform="translate(15.000000, 128.000000)">
                <g id="编组-4" transform="translate(15.000000, 8.500000)">
                    <circle id="椭圆形" fill="#DEE6FF" opacity="0.449999988" cx="26" cy="26" r="26"></circle>
                    <g id="shebaohao" transform="translate(11.000000, 15.500000)" fill="url(#linearGradient-1)">
                        <path d="M26.0770068,21.7311481 L2.89785734,21.7311481 C1.29706386,21.7311481 0,20.4340557 0,18.8332908 L0,2.89688723 C0,1.29706386 1.29703533,0 2.89785734,0 L26.0770068,0 C27.6768872,0 28.9748641,1.29706386 28.9748641,2.89688723 L28.9748641,18.8332622 C28.9748641,20.4340557 27.6768872,21.7311481 26.0770068,21.7311481 Z M14.7213709,15.8844457 C14.7213709,13.5450285 13.0196291,11.5885761 10.7518859,11.1084579 C12.0781957,10.6395815 13.0346943,9.4198981 13.0346943,7.9785163 C13.0346943,6.12869022 11.4801236,4.62881658 9.5746019,4.62881658 C7.66722554,4.62881658 6.11265489,6.12869022 6.11265489,7.9785163 C6.11265489,9.4500856 7.11069701,10.6886576 8.48225951,11.133909 C6.26168071,11.6517758 4.60898641,13.580894 4.60898641,15.8844457 L4.60898641,16.4985245 L14.7213709,16.4985245 L14.7213709,15.8844457 L14.7213709,15.8844457 Z M24.2545149,6.41450136 L16.7306372,6.41450136 L16.7306372,7.84270109 L24.2545149,7.84270109 L24.2545149,6.41450136 L24.2545149,6.41450136 Z M24.2545149,9.98498641 L16.7306372,9.98498641 L16.7306372,11.4131576 L24.2545149,11.4131576 L24.2545149,9.98498641 L24.2545149,9.98498641 Z M24.2545149,13.556356 L18.7549973,13.556356 L18.7549973,14.9845557 L24.2545149,14.9845557 L24.2545149,13.556356 L24.2545149,13.556356 Z" id="形状"></path>
                    </g>
                </g>
            </g>
        </g>
    </g>
</svg>