<?xml version="1.0" encoding="UTF-8"?>
<svg width="22px" height="4px" viewBox="0 0 22 4" version="1.1" xmlns="http://www.w3.org/2000/svg" xmlns:xlink="http://www.w3.org/1999/xlink">
    <title>直线 2备份 6</title>
    <g id="页面-1" stroke="none" stroke-width="1" fill="none" fill-rule="evenodd">
        <g id="首页" transform="translate(-40.000000, -375.000000)" fill="#206CFE" fill-rule="nonzero">
            <g id="编组-10" transform="translate(15.000000, 345.000000)">
                <path d="M46.6693016,31.365713 L46.6892005,31.5571026 C46.7777232,32.4085202 46.1657276,33.1730693 45.3155874,33.2731192 L45.3155874,33.2731192 L45.3155874,33.2731192 C42.1603103,33.644452 39.0046482,33.830141 35.8488554,33.830141 C33.0875367,33.830141 30.326318,33.6879728 27.5653698,33.4036668 L26.3821233,33.2731192 C25.5319832,33.1730693 24.9199875,32.4085202 25.0085102,31.5571026 L25.0284092,31.365713 C25.1153975,30.5290532 25.8641622,29.9213243 26.700822,30.0083126 C26.7076637,30.009024 26.7145006,30.0097816 26.721332,30.0105856 L26.721332,30.0105856 L26.721332,30.0105856 C29.76414,30.3686824 32.806563,30.5477081 35.8488554,30.5477081 C38.5108612,30.5477081 41.172967,30.4106415 43.8353433,30.136478 L44.9763787,30.0105856 C45.8117832,29.91227 46.5687129,30.5097985 46.6670286,31.345203 C46.6678325,31.3520345 46.6685902,31.3588713 46.6693016,31.365713 Z" id="直线-2备份-6"></path>
            </g>
        </g>
    </g>
</svg>