<?xml version="1.0" encoding="UTF-8"?>
<svg width="68px" height="67px" viewBox="0 0 68 67" version="1.1" xmlns="http://www.w3.org/2000/svg" xmlns:xlink="http://www.w3.org/1999/xlink">
    <title>编组 4</title>
    <defs>
        <linearGradient x1="50%" y1="0.729348776%" x2="50%" y2="100%" id="linearGradient-1">
            <stop stop-color="#FFD193" offset="0%"></stop>
            <stop stop-color="#FF8A71" offset="100%"></stop>
        </linearGradient>
        <filter x="-33.3%" y="-33.3%" width="166.7%" height="166.7%" filterUnits="objectBoundingBox" id="filter-2">
            <feOffset dx="0" dy="0" in="SourceAlpha" result="shadowOffsetOuter1"></feOffset>
            <feGaussianBlur stdDeviation="2" in="shadowOffsetOuter1" result="shadowBlurOuter1"></feGaussianBlur>
            <feColorMatrix values="0 0 0 0 0.882133152   0 0 0 0 0.574067728   0 0 0 0 0.472348013  0 0 0 1 0" type="matrix" in="shadowBlurOuter1" result="shadowMatrixOuter1"></feColorMatrix>
            <feMerge>
                <feMergeNode in="shadowMatrixOuter1"></feMergeNode>
                <feMergeNode in="SourceGraphic"></feMergeNode>
            </feMerge>
        </filter>
    </defs>
    <g id="页面-1" stroke="none" stroke-width="1" fill="none" fill-rule="evenodd">
        <g id="智享生活" transform="translate(-23.000000, -198.000000)">
            <g id="编组" transform="translate(9.500000, 183.000000)">
                <g id="编组-7" transform="translate(13.000000, 15.000000)">
                    <g id="编组-4" transform="translate(1.000000, 0.000000)">
                        <rect id="矩形" fill-opacity="0.146279502" fill="#FF9D1A" transform="translate(33.500000, 33.500000) rotate(-345.000000) translate(-33.500000, -33.500000) " x="6.5" y="6.5" width="54" height="54" rx="16"></rect>
                        <rect id="矩形" fill="url(#linearGradient-1)" x="9" y="9" width="50" height="50" rx="16"></rect>
                        <g id="jiaotongfuwu" filter="url(#filter-2)" transform="translate(22.000000, 22.000000)" fill="#FFFFFF" fill-rule="nonzero">
                            <path d="M12,0 C15.2806154,0 18.0258462,0.357230769 20.2356923,1.07076921 C21.3791143,1.44005356 22.153924,2.50457786 22.1538462,3.70615384 L22.1538462,4.6153846 L23.0769231,4.6153846 C23.3217383,4.6153846 23.5565265,4.71263707 23.729637,4.88574758 C23.9027475,5.05885809 24,5.29364632 24,5.53846154 L24,10.1538461 C24,10.3986614 23.9027475,10.6334496 23.729637,10.8065601 C23.5565265,10.9796706 23.3217383,11.0769231 23.0769231,11.0769231 L22.1538462,11.0769231 L22.1538462,22.1538462 C22.1538462,23.1734488 21.3272949,24 20.3076923,24 L19.3846154,24 C18.3650128,24 17.5384616,23.1734488 17.5384615,22.1538462 L17.5384615,21.2307692 L6.46153846,21.2307692 L6.46153846,22.1538462 C6.46153844,23.1734488 5.63498721,24 4.6153846,24 L3.69230769,24 C2.67270508,24 1.84615384,23.1734488 1.84615383,22.1538462 L1.84615383,11.0769231 L0.923076915,11.0769231 C0.678261691,11.0769231 0.443473462,10.9796706 0.270362959,10.8065601 C0.0972524568,10.6334496 0,10.3986614 0,10.1538461 L0,5.53846154 C0,5.29364632 0.0972524568,5.05885809 0.270362959,4.88574758 C0.443473462,4.71263707 0.678261691,4.6153846 0.923076915,4.6153846 L1.84615383,4.6153846 L1.84615383,3.70615384 C1.84607603,2.50457786 2.62088567,1.44005356 3.76430769,1.07076921 C5.97415384,0.357230769 8.7193846,0 12,0 Z M19.3846154,16.0098462 C19.3248028,16.0099066 19.2651377,16.0157803 19.2064615,16.0273846 L19.1196923,16.0486154 L16.3504615,16.8793846 L16.2470769,16.9172308 C15.9452885,17.0489576 15.7364065,17.3313352 15.6987692,17.6584615 L15.6923077,17.7692308 L15.6987692,17.8633846 C15.7410064,18.1709813 15.9828649,18.4128397 16.2904615,18.4550769 L16.3846154,18.4615385 L19.3846154,18.4615385 L19.4926154,18.4550769 C19.9167609,18.4050576 20.2512115,18.0706071 20.3012308,17.6464615 L20.3076923,17.5384615 L20.3076923,16.9329231 L20.3012308,16.8249231 C20.2464775,16.3601604 19.8525922,16.0099079 19.3846154,16.0098462 L19.3846154,16.0098462 Z M4.6153846,16.0098462 C4.14740784,16.0099079 3.75352249,16.3601604 3.69876922,16.8249231 L3.69230769,16.9329231 L3.69230769,17.5384615 C3.69236941,18.0064383 4.04262194,18.4003236 4.5073846,18.4550769 L4.6153846,18.4615385 L7.61538462,18.4615385 C7.96134072,18.4615385 8.25418073,18.2061264 8.30123076,17.8633846 L8.30769231,17.7692308 C8.30769231,17.3935384 8.08615385,17.0621538 7.75384616,16.9172308 L7.64953846,16.8803077 L4.88030769,16.0495385 C4.79444619,16.0231836 4.70519796,16.009501 4.6153846,16.0089231 L4.6153846,16.0098462 Z M19.3883077,3.69692308 L15.7735385,3.69323075 L6.64061539,3.71261537 L4.61907693,3.708 C4.14276923,3.708 3.75138463,4.0643077 3.69876922,4.52307692 L3.69230769,4.63107692 L3.69230769,12.9230769 C3.69230769,13.3910537 4.04262194,13.784939 4.5073846,13.8396923 L4.6153846,13.8461539 L19.3846154,13.8461539 C19.8525922,13.8461539 20.2464775,13.4958396 20.3012308,13.0310769 L20.3076923,12.9230769 L20.3076923,4.61999999 C20.3076923,4.11163715 19.8966665,3.69895653 19.3883077,3.69692308 Z" id="形状"></path>
                        </g>
                    </g>
                </g>
            </g>
        </g>
    </g>
</svg>