<?xml version="1.0" encoding="UTF-8"?>
<svg width="29px" height="28px" viewBox="0 0 29 28" version="1.1" xmlns="http://www.w3.org/2000/svg" xmlns:xlink="http://www.w3.org/1999/xlink">
    <title>矩形备份 22</title>
    <defs>
        <linearGradient x1="7.04688493%" y1="40.8734723%" x2="100%" y2="59.1265277%" id="linearGradient-1">
            <stop stop-color="#FECE72" offset="0%"></stop>
            <stop stop-color="#F5A716" offset="100%"></stop>
        </linearGradient>
        <linearGradient x1="-17.7296082%" y1="50%" x2="100%" y2="50%" id="linearGradient-2">
            <stop stop-color="#FEE6B8" offset="0%"></stop>
            <stop stop-color="#FDD68A" offset="100%"></stop>
        </linearGradient>
    </defs>
    <g id="页面-1" stroke="none" stroke-width="1" fill="none" fill-rule="evenodd">
        <g id="智享生活" transform="translate(-137.000000, -396.000000)" fill-rule="nonzero">
            <g id="图标" transform="translate(31.500000, 322.000000)">
                <g id="jiajiao" transform="translate(110.000000, 76.000000)">
                    <path d="M10.8751584,15.2235612 L10.9113888,15.899862 L10.5128544,16.564086 L11.080464,20.2595868 L13.3871328,15.3080988 L16.9014816,15.1873308 C18.7130016,16.9022364 19.8723744,20.9358876 19.594608,23.56863 L0.0181152,23.56863 C0.0664224,21.2498844 0.4891104,17.3007708 2.7957792,15.296022 L5.9719776,15.3201756 L8.9428704,20.2233564 L9.4984032,16.564086 L9.087792,15.899862 L9.1240224,15.2235612 C9.8848608,15.175254 10.11432,15.175254 10.8751584,15.2235612 L10.8751584,15.2235612 Z" id="形状" fill="url(#linearGradient-1)"></path>
                    <path d="M15.3918816,6.6248796 C15.4643424,6.66111 15.5368032,6.7094172 15.609264,6.7577244 L15.8266464,6.902646 L15.8266464,7.1562588 C15.8387232,7.8929436 15.7541856,8.5209372 15.5609568,9.0040092 C15.3798048,9.4508508 15.1141152,9.7769244 14.763888,9.9701532 C14.522352,10.827606 14.2325088,11.6367516 13.8339744,12.3009756 C13.375056,13.0738908 12.7591392,13.665654 11.9016864,13.9917276 C11.5152288,14.1366492 10.5249312,14.1970332 9.5829408,14.1849564 C8.665104,14.1728796 7.7472672,14.0762652 7.3849632,13.90719 C6.5999712,13.544886 6.0444384,12.941046 5.6338272,12.1802076 C5.2715232,11.5401372 5.0179104,10.7792988 4.800528,9.98223 C4.438224,9.7890012 4.1604576,9.4629276 3.9672288,9.016086 C3.7619232,8.533014 3.6653088,7.8929436 3.6773856,7.1321052 L3.6773856,6.8784924 L3.894768,6.7335708 C3.955152,6.6973404 4.0034592,6.66111 4.0638432,6.6369564 C3.8223072,3.6660636 3.9189216,2.5670748 5.0179104,1.3110876 C7.155504,-0.4400484 12.0828384,-0.3796644 14.2687392,1.22655 C15.7541856,2.6274588 15.8508,4.1974428 15.3918816,6.6248796 L15.3918816,6.6248796 Z M13.495824,5.574198 C12.106992,5.8519644 10.0297824,6.0814236 8.3873376,5.1635868 C7.759344,4.8133596 6.8294304,5.5379676 6.0806688,5.4655068 C5.8512096,5.9244252 5.6700576,6.4316508 5.5734432,6.9751068 L5.4889056,7.4219484 L5.042064,7.3736412 C4.9575264,7.3615644 4.8729888,7.3736412 4.7763744,7.4098716 C4.740144,7.4219484 4.6918368,7.4340252 4.6556064,7.4581788 C4.6676832,7.9533276 4.740144,8.3639388 4.860912,8.6658588 C4.9696032,8.9315484 5.1266016,9.1127004 5.3319072,9.1730844 L5.5975968,9.257622 L5.6700576,9.5233116 C5.88744,10.344534 6.1410528,11.1053724 6.4792032,11.733366 C6.8052768,12.3130524 7.215888,12.7719708 7.7834976,13.0376604 C8.0250336,13.1463516 8.785872,13.2067356 9.5829408,13.2188124 C10.4283168,13.2308892 11.2736928,13.182582 11.5514592,13.0859676 C12.1794528,12.8565084 12.6262944,12.4096668 12.9765216,11.8179036 C13.3509024,11.18991 13.616592,10.3928412 13.858128,9.5112348 L13.9305888,9.257622 L14.1842016,9.1730844 C14.3774304,9.1006236 14.5344288,8.9194716 14.64312,8.653782 C14.763888,8.351862 14.8363488,7.9412508 14.8484256,7.4581788 C14.8121952,7.4340252 14.7759648,7.4219484 14.7397344,7.4098716 C14.6551968,7.385718 14.5706592,7.3615644 14.4861216,7.3736412 L14.0513568,7.3977948 L13.9668192,6.96303 C13.858128,6.4678812 13.7132064,5.996886 13.495824,5.574198 Z" id="形状" fill="url(#linearGradient-2)"></path>
                </g>
            </g>
        </g>
    </g>
</svg>