<?xml version="1.0" encoding="UTF-8"?>
<svg width="24px" height="24px" viewBox="0 0 24 24" version="1.1" xmlns="http://www.w3.org/2000/svg" xmlns:xlink="http://www.w3.org/1999/xlink">
    <title>编组 4备份</title>
    <defs>
        <linearGradient x1="50%" y1="0%" x2="50%" y2="100%" id="linearGradient-1">
            <stop stop-color="#97FAEC" offset="0%"></stop>
            <stop stop-color="#5ACBDB" offset="100%"></stop>
        </linearGradient>
    </defs>
    <g id="页面-1" stroke="none" stroke-width="1" fill="none" fill-rule="evenodd">
        <g id="商家中心-我的钱包" transform="translate(-30.000000, -320.000000)" fill="url(#linearGradient-1)">
            <g id="编组-5" transform="translate(15.000000, 304.000000)">
                <g id="编组-4备份" transform="translate(15.000000, 16.000000)">
                    <g id="编组" transform="translate(1.000000, 1.000000)">
                        <path d="M10.2263679,3.98735899 C6.34944482,3.98735899 3.19621406,7.14012822 3.19621406,11.0454103 C3.19621406,14.9377179 6.33652175,18.1034615 10.2263679,18.1034615 C14.103291,18.1034615 17.2565217,14.9506923 17.2565217,11.0454103 C17.2565217,7.15310256 14.116214,3.98735899 10.2263679,3.98735899 Z M12.9789833,11.4605898 C13.2503679,11.4605898 13.4829833,11.6811539 13.4829833,11.9665898 C13.4829833,12.2390513 13.263291,12.4725898 12.9789833,12.4725898 L10.7303679,12.4725898 L10.7303679,14.9636667 C10.7303679,15.2361282 10.5106756,15.4696667 10.2263679,15.4696667 C9.95498328,15.4696667 9.72236789,15.2491026 9.72236789,14.9636667 L9.72236789,12.4725898 L7.47375251,12.4725898 C7.20236789,12.4725898 6.96975251,12.2520256 6.96975251,11.9665898 C6.96975251,11.6941282 7.18944483,11.4605898 7.47375251,11.4605898 L9.72236789,11.4605898 L9.72236789,10.2799231 L7.47375251,10.2799231 C7.20236789,10.2799231 6.96975251,10.0593589 6.96975251,9.77392306 C6.96975251,9.50146153 7.18944483,9.26792306 7.47375251,9.26792306 L9.72236789,9.26792306 L9.72236789,9.13817949 L8.11990637,7.50341026 L8.10698326,7.49043591 C7.92606018,7.29582053 7.93898328,6.98443591 8.11990637,6.80279487 C8.31375252,6.60817949 8.6109833,6.62115383 8.80482942,6.78982053 L8.81775252,6.80279487 L10.2005217,8.21699999 L11.596214,6.78982053 C11.7900602,6.59520514 12.100214,6.59520514 12.3069833,6.78982053 C12.5008294,6.98443591 12.5008294,7.29582053 12.3069833,7.50341026 L10.7174448,9.12520514 L10.7174448,9.28089745 L12.9660602,9.28089745 C13.2374448,9.28089745 13.4700602,9.50146156 13.4700602,9.78689745 C13.4700602,10.059359 13.2503679,10.2928974 12.9660602,10.2928974 L10.7174448,10.2928974 L10.7174448,11.4735641 L12.9789833,11.4605898 L12.9789833,11.4605898 Z M10.2263679,0.458333333 C6.73713712,0.458333333 3.66144483,2.15797437 1.73590635,4.77879487 L1.1026756,4.41551283 C0.89590638,4.31171795 0.637444829,4.37658976 0.521137136,4.58417949 C0.482367906,4.64905129 0.469444841,4.72689745 0.469444803,4.79176922 L0.456521739,4.79176922 L0.689137124,7.17905129 L0.702060188,7.17905129 C0.714983252,7.32176926 0.77959865,7.45151283 0.908829444,7.52935899 C1.0380602,7.60720514 1.18021406,7.59423079 1.30944482,7.54233333 L1.32236788,7.55530768 L3.45467557,6.58223076 L3.45467557,6.56925641 C3.53221403,6.53033333 3.59682943,6.47843591 3.64852173,6.40058976 C3.76482942,6.20597437 3.70021402,5.95946156 3.51929097,5.82971795 L3.51929097,5.8167436 L2.88606021,5.45346153 C4.5660602,3.23484614 7.22821406,1.7946923 10.2134448,1.7946923 C15.3051371,1.7946923 19.4405218,5.94648718 19.4405218,11.0583846 C19.4405218,16.170282 15.3051371,20.3220769 10.2134448,20.3220769 C6.711291,20.3220769 3.66144483,18.3629487 2.0977525,15.4696667 L0.895906342,16.0145898 C2.66636789,19.3619744 6.16852173,21.6454615 10.2005217,21.6454615 C16.0159063,21.6454615 20.7458582,16.9098205 20.7458582,11.0583846 C20.7715987,5.20694872 16.0546756,0.458333333 10.2263679,0.458333333 L10.2263679,0.458333333 Z" id="形状"></path>
                    </g>
                </g>
            </g>
        </g>
    </g>
</svg>