<?xml version="1.0" encoding="UTF-8"?>
<svg width="24px" height="24px" viewBox="0 0 24 24" version="1.1" xmlns="http://www.w3.org/2000/svg" xmlns:xlink="http://www.w3.org/1999/xlink">
    <title>编组 4</title>
    <defs>
        <linearGradient x1="50%" y1="0%" x2="50%" y2="100%" id="linearGradient-1">
            <stop stop-color="#A4CCFF" offset="0%"></stop>
            <stop stop-color="#8387FE" offset="100%"></stop>
        </linearGradient>
    </defs>
    <g id="页面-1" stroke="none" stroke-width="1" fill="none" fill-rule="evenodd">
        <g id="商家中心-我的钱包" transform="translate(-30.000000, -249.000000)" fill="url(#linearGradient-1)">
            <g id="编组-3" transform="translate(15.000000, 232.000000)">
                <g id="编组-4" transform="translate(15.000000, 16.500000)">
                    <g id="编组" transform="translate(1.000000, 1.000000)">
                        <path d="M8.461875,1.50234375 C9.68203125,0.42328125 11.5153125,0.42328125 12.7354687,1.50234375 C12.8048437,1.546875 12.8446875,1.5271875 12.909375,1.50234375 C13.7528467,1.10578218 14.7499026,1.2356977 15.4635937,1.83515625 C16.0551562,2.29734375 16.2042187,2.86875 16.0551562,3.78796875 C15.9928125,4.04015625 15.9164062,4.2890625 15.8264062,4.53328125 C15.5583287,5.17961767 15.139096,5.75220463 14.6039062,6.20296875 L14.6039062,6.20296875 L14.4496875,6.3421875 C14.743125,6.49125 15.0459375,6.6253125 15.339375,6.789375 C17.7381007,8.06800458 19.4956343,10.2882347 20.1895312,12.9164062 L20.1895312,12.9164062 C20.5664062,14.3203125 20.6395312,15.7898437 20.3990625,17.2246875 C20.3251257,17.8499518 20.1054878,18.4491396 19.7578125,18.9740625 C19.086638,19.9949137 17.9380331,20.5993121 16.7165625,20.574375 L16.7165625,20.574375 L4.5215625,20.574375 C2.840625,20.5751178 1.370625,19.441875 0.94359375,17.81625 C0.69328125,16.8229687 0.60796875,15.7959375 0.69,14.775 C0.965625,11.1032812 3.24890625,7.8853125 6.62390625,6.41203125 L6.62390625,6.41203125 L6.733125,6.36234375 C6.58875,6.21328125 6.4396875,6.07453125 6.305625,5.93015625 C5.65749868,5.24964875 5.24619278,4.37821287 5.1328125,3.4453125 C5.03296875,2.409375 5.77078125,1.4803125 6.8025,1.3434375 C7.30359375,1.24171875 7.824375,1.29703125 8.293125,1.50234375 C8.34140625,1.54453125 8.41359375,1.54453125 8.461875,1.50234375 Z M8.8246875,10.4685937 C8.62716549,10.299506 8.3479891,10.2641252 8.11453125,10.3785937 C7.88119775,10.4930686 7.73836852,10.7354175 7.75125,10.995 C7.7601844,11.1458732 7.81962334,11.2893522 7.92,11.4023437 L7.92,11.4023437 L9.94265625,13.3898437 L9.94265625,13.8867187 L8.2678125,13.8867187 C7.963125,13.8989062 7.70625,14.11875 7.64671875,14.4182812 C7.6115625,14.5903125 7.6471875,14.7698437 7.74609375,14.9151562 C7.8609375,15.054375 8.02828125,15.140625 8.20828125,15.15375 L8.20828125,15.15375 L9.94265625,15.15375 L9.94265625,15.8545312 L8.23828125,15.8545312 C7.92984375,15.8690625 7.67296875,16.0964062 7.621875,16.4010937 C7.59948989,16.5538841 7.62921221,16.7097612 7.70625,16.8435937 C7.81125,17.0221875 7.99640625,17.1389062 8.203125,17.1567187 L8.203125,17.1567187 L9.9421875,17.1567187 L9.9421875,17.6535937 C9.96121684,17.9389726 10.1617935,18.1796646 10.4390625,18.2498437 C10.62375,18.290625 10.8173437,18.2498437 10.9696875,18.1373437 C11.1220312,18.0248437 11.2185937,17.851875 11.2340625,17.6634375 L11.2340625,17.6634375 L11.2340625,17.1665625 L12.94875,17.1665625 C13.2726562,17.1417187 13.5323437,16.888125 13.5651562,16.5651562 C13.5876562,16.3054687 13.4526562,16.0570312 13.2229687,15.935625 C13.14,15.8915625 13.048125,15.86625 12.954375,15.8610937 L12.954375,15.8610937 L11.2298437,15.8610937 L11.2298437,15.1654687 L12.9590625,15.1654687 C13.1900336,15.163917 13.4016838,15.0362435 13.5107812,14.8326562 C13.6064062,14.64375 13.6064062,14.4201562 13.5107812,14.23125 C13.4142187,14.0353125 13.2290625,13.8984375 13.0139062,13.8632812 L13.0139062,13.8632812 L11.2495312,13.8632812 L11.2495312,13.5351562 L13.3814062,11.4379687 C13.5079687,11.2875 13.5642187,11.090625 13.535625,10.8960937 C13.4859375,10.606875 13.250625,10.385625 12.9590625,10.3542187 C12.7812187,10.3285247 12.6007901,10.3790788 12.4621875,10.4934375 L12.4621875,10.4934375 L10.6879687,12.3121875 Z" id="形状结合"></path>
                    </g>
                </g>
            </g>
        </g>
    </g>
</svg>