<?xml version="1.0" encoding="UTF-8"?>
<svg width="52px" height="52px" viewBox="0 0 52 52" version="1.1" xmlns="http://www.w3.org/2000/svg" xmlns:xlink="http://www.w3.org/1999/xlink">
    <title>椭圆形</title>
    <defs>
        <linearGradient x1="11.5860924%" y1="13.2653061%" x2="89.9252621%" y2="86.7346939%" id="linearGradient-1">
            <stop stop-color="#8E9EED" offset="0%"></stop>
            <stop stop-color="#5068E4" offset="100%"></stop>
        </linearGradient>
    </defs>
    <g id="页面-1" stroke="none" stroke-width="1" fill="none" fill-rule="evenodd">
        <g id="智享生活-公共服务-其他" transform="translate(-30.000000, -137.000000)">
            <g id="编组-9" transform="translate(15.000000, 128.000000)">
                <g id="编组-4" transform="translate(15.000000, 9.000000)">
                    <circle id="椭圆形" fill="#E9ECFD" cx="26" cy="26" r="26"></circle>
                    <path d="M36.7843374,15.7770163 C32.0397698,12.5127926 27.546118,16.5365864 27.546118,16.5365864 L27.394401,16.698917 L32.78675,22.4968413 C33.6946542,23.480542 33.8352256,24.9433686 33.1310738,26.0799731 L36.3291389,29.465974 C36.8485317,28.8861816 37.2745638,28.364366 37.5896739,27.9469277 C37.823123,27.6396196 38.0507104,27.332335 38.2783214,27.0192269 C40.1166292,24.5029264 41.5289049,19.0528869 36.7843137,15.7886398 L36.7843374,15.7770163 Z M30.2422807,27.7091731 L30.143082,27.7091731 C29.2266494,27.6858464 28.3606947,27.2871585 27.7503771,26.6075651 L24.0912991,22.5490181 C23.8330017,22.2761704 23.7416897,21.886726 23.8520357,21.5285637 C23.9693997,21.1870681 24.2604913,20.9331954 24.6165299,20.8618177 C24.9815133,20.7821498 25.360939,20.9092902 25.6027972,21.1923024 L28.8008623,24.7290339 L29.4311298,25.5001571 C29.8258865,25.9461949 30.4960532,26.0237871 30.9834702,25.6798879 C31.4736973,25.3427562 31.6485819,24.7040336 31.3978027,24.1666416 C31.3741428,24.1272701 31.3527191,24.0866141 31.333632,24.0448643 L31.304442,23.9694873 L31.2577616,23.9115339 L31.1993816,23.8419569 L31.1585393,23.8013566 L29.991365,22.525818 L24.3947569,16.484386 C23.8578737,16.032124 19.6502129,12.7447002 15.2149175,15.7770163 C10.4703736,19.0470634 11.8885109,24.4739497 13.7093047,27.0076503 L14.3920906,27.9411042 C15.956107,30.0283663 20.6131518,34.6551057 23.5369256,37.501891 C24.880763,38.8145102 27.0292448,38.8350068 28.3982058,37.5482678 L22.8249261,31.6517898 C22.4341122,31.236566 22.4496856,30.5869647 22.8599541,30.1906969 C23.0554785,30.0025722 23.3188377,29.9003093 23.5909445,29.9068521 C23.8630512,29.9133949 24.1211227,30.0281955 24.3072578,30.2254971 L29.8746759,36.1103985 C30.4582631,35.5306061 31.0943686,34.9044134 31.7246361,34.2724676 L26.3147966,28.5556499 C25.9698536,28.1361181 26.0053451,27.5241296 26.396505,27.1467338 C26.7874704,26.7726944 27.4061393,26.7726944 27.7971047,27.1467338 L33.1719161,32.8229513 C33.7555033,32.1909585 34.3799328,31.5763893 34.9226776,30.9849968 L31.5728954,27.4424653 C31.1519594,27.6271894 30.6966603,27.7220059 30.23649,27.7207732 L30.2422807,27.7091731 Z" id="形状" fill="url(#linearGradient-1)" fill-rule="nonzero"></path>
                </g>
            </g>
        </g>
    </g>
</svg>