<?xml version="1.0" encoding="UTF-8"?>
<svg width="56px" height="56px" viewBox="0 0 56 56" version="1.1" xmlns="http://www.w3.org/2000/svg" xmlns:xlink="http://www.w3.org/1999/xlink">
    <title>编组 4备份</title>
    <defs>
        <linearGradient x1="50%" y1="0%" x2="50%" y2="100%" id="linearGradient-1">
            <stop stop-color="#97FAEC" offset="0%"></stop>
            <stop stop-color="#5ACBDB" offset="100%"></stop>
        </linearGradient>
        <filter x="-34.8%" y="-32.3%" width="169.6%" height="164.6%" filterUnits="objectBoundingBox" id="filter-2">
            <feOffset dx="0" dy="0" in="SourceAlpha" result="shadowOffsetOuter1"></feOffset>
            <feGaussianBlur stdDeviation="2" in="shadowOffsetOuter1" result="shadowBlurOuter1"></feGaussianBlur>
            <feColorMatrix values="0 0 0 0 0.271439346   0 0 0 0 0.734665485   0 0 0 0 0.773267663  0 0 0 1 0" type="matrix" in="shadowBlurOuter1" result="shadowMatrixOuter1"></feColorMatrix>
            <feMerge>
                <feMergeNode in="shadowMatrixOuter1"></feMergeNode>
                <feMergeNode in="SourceGraphic"></feMergeNode>
            </feMerge>
        </filter>
    </defs>
    <g id="页面-1" stroke="none" stroke-width="1" fill="none" fill-rule="evenodd">
        <g id="智享生活-商家中心" transform="translate(-190.000000, -505.000000)">
            <g id="编组-20" transform="translate(15.000000, 492.000000)">
                <g id="编组-4备份" transform="translate(175.000000, 13.000000)">
                    <rect id="矩形备份-3" fill-opacity="0.15" fill="#4DC5D3" transform="translate(28.000000, 28.000000) rotate(-345.000000) translate(-28.000000, -28.000000) " x="5.5" y="5.5" width="45" height="45" rx="16"></rect>
                    <rect id="矩形" fill="url(#linearGradient-1)" x="7.5587281" y="7.5587281" width="40.8825438" height="40.8825438" rx="12"></rect>
                    <g id="编组" filter="url(#filter-2)" transform="translate(16.500000, 16.500000)" fill="#FFFFFF" fill-rule="nonzero">
                        <path d="M11.2550721,3.97999521 C7.00891827,3.97999521 3.55537982,7.41937982 3.55537982,11.6796875 C3.55537982,15.9258413 6.99476444,19.3793798 11.2550721,19.3793798 C15.501226,19.3793798 18.9547644,15.9399952 18.9547644,11.6796875 C18.9547644,7.43353365 15.5153798,3.97999521 11.2550721,3.97999521 Z M14.2698413,12.1326106 C14.5670721,12.1326106 14.8218413,12.373226 14.8218413,12.6846106 C14.8218413,12.9818414 14.5812259,13.2366106 14.2698413,13.2366106 L11.8070721,13.2366106 L11.8070721,15.9541491 C11.8070721,16.2513798 11.5664567,16.5061491 11.2550721,16.5061491 C10.9578413,16.5061491 10.7030721,16.2655337 10.7030721,15.9541491 L10.7030721,13.2366106 L8.24030288,13.2366106 C7.94307212,13.2366106 7.68830288,12.9959952 7.68830288,12.6846106 C7.68830288,12.3873798 7.92891828,12.1326106 8.24030288,12.1326106 L10.7030721,12.1326106 L10.7030721,10.8446106 L8.24030288,10.8446106 C7.94307212,10.8446106 7.68830288,10.6039952 7.68830288,10.2926106 C7.68830288,9.99537979 7.92891828,9.74061056 8.24030288,9.74061056 L10.7030721,9.74061056 L10.7030721,9.59907212 L8.94799521,7.8156875 L8.93384133,7.80153367 C8.73568747,7.58922598 8.74984135,7.24953367 8.94799521,7.05137981 C9.1603029,6.83907212 9.48584137,6.85322595 9.69814902,7.03722598 L9.7123029,7.05137981 L11.2267644,8.59414902 L12.7553798,7.03722598 C12.9676875,6.82491828 13.3073798,6.82491828 13.5338414,7.03722598 C13.7461491,7.24953367 13.7461491,7.58922598 13.5338414,7.8156875 L11.7929183,9.58491828 L11.7929183,9.75476444 L14.2556875,9.75476444 C14.5529183,9.75476444 14.8076875,9.99537984 14.8076875,10.3067644 C14.8076875,10.6039952 14.5670721,10.8587644 14.2556875,10.8587644 L11.7929183,10.8587644 L11.7929183,12.1467644 L14.2698413,12.1326106 L14.2698413,12.1326106 Z M11.2550721,0.130149038 C7.43353365,0.130149038 4.06491828,1.9843029 1.95599519,4.84337981 L1.26245674,4.44707213 C1.03599522,4.33384135 0.752918283,4.40461059 0.625533668,4.63107212 C0.583072129,4.70184136 0.568918297,4.78676444 0.568918255,4.85753364 L0.554764423,4.85753364 L0.809533654,7.46184136 L0.823687486,7.46184136 C0.837841319,7.61753368 0.908610563,7.75907213 1.05014905,7.84399521 C1.1916875,7.92891828 1.34737982,7.91476445 1.48891827,7.85814904 L1.5030721,7.87230287 L3.83845672,6.81076441 L3.83845672,6.79661058 C3.92337979,6.75414904 3.99414904,6.69753367 4.05076441,6.61261059 C4.17814902,6.4003029 4.10737978,6.13137984 3.90922596,5.98984135 L3.90922596,5.97568751 L3.21568751,5.57937979 C5.0556875,3.1590721 7.97137982,1.58799518 11.2409183,1.58799518 C16.8175337,1.58799518 21.3467644,6.11722596 21.3467644,11.6938413 C21.3467644,17.2704567 16.8175337,21.7996875 11.2409183,21.7996875 C7.40522599,21.7996875 4.06491828,19.6624567 2.35230287,16.5061491 L1.03599518,17.1006106 C2.97507212,20.7523029 6.81076441,23.2433798 11.2267644,23.2433798 C17.5959952,23.2433798 22.7764187,18.0772259 22.7764187,11.6938413 C22.8046106,5.31045673 17.6384567,0.130149038 11.2550721,0.130149038 L11.2550721,0.130149038 Z" id="形状"></path>
                    </g>
                </g>
            </g>
        </g>
    </g>
</svg>