<?xml version="1.0" encoding="UTF-8"?>
<svg width="29px" height="28px" viewBox="0 0 29 28" version="1.1" xmlns="http://www.w3.org/2000/svg" xmlns:xlink="http://www.w3.org/1999/xlink">
    <title>矩形备份 21</title>
    <defs>
        <linearGradient x1="11.5860924%" y1="15.9172359%" x2="89.9252621%" y2="84.0827641%" id="linearGradient-1">
            <stop stop-color="#8E9EED" offset="0%"></stop>
            <stop stop-color="#5068E4" offset="100%"></stop>
        </linearGradient>
        <linearGradient x1="11.5860924%" y1="40.7405502%" x2="89.9252621%" y2="59.2594498%" id="linearGradient-2">
            <stop stop-color="#8E9EED" offset="0%"></stop>
            <stop stop-color="#5068E4" offset="100%"></stop>
        </linearGradient>
    </defs>
    <g id="页面-1" stroke="none" stroke-width="1" fill="none" fill-rule="evenodd">
        <g id="智享生活" transform="translate(-45.000000, -396.000000)" fill-rule="nonzero">
            <g id="图标" transform="translate(31.500000, 322.000000)">
                <g id="编组" transform="translate(14.000000, 74.000000)">
                    <g id="编组-3" transform="translate(4.015191, 3.000000)">
                        <path d="M7.53523714,10.7354182 C7.52785497,10.8211653 7.52018883,10.9069124 7.52018883,10.9949309 C7.53602544,12.605323 8.84598827,13.902467 10.4564583,13.902467 C12.0669283,13.902467 13.3768911,12.605323 13.3927277,10.9949309 C13.3927277,10.9057766 13.3853455,10.8205974 13.3776794,10.7354182 L13.3776794,10.7354182 L20.9134844,10.7354182 L20.9134844,19.3688994 C20.9102094,20.5136688 19.9830042,21.4408739 18.8382348,21.4441489 L18.8382348,21.4441489 L2.07524957,21.4441489 C0.930480184,21.4408739 0.00327502984,20.5136688 1.38555833e-13,19.3688994 L1.38555833e-13,19.3688994 L1.38555833e-13,10.7354182 Z M12.0994233,10.7354182 C12.0993225,11.6426531 11.3638351,12.3780588 10.4566002,12.3780588 C9.5493654,12.3780588 8.81387798,11.6426531 8.81377715,10.7354182 L12.0994233,10.7354182 Z M18.8382348,4.17747058 C19.9825616,4.18105565 20.9093315,5.10782549 20.9129165,6.25215228 L20.9129165,6.25215228 L20.9129165,8.65988473 L-8.8817842e-14,8.65988473 L-8.8817842e-14,6.25272014 C0.00327502984,5.10795076 0.930480184,4.18074561 2.07524957,4.17747058 L2.07524957,4.17747058 Z" id="形状结合" fill="url(#linearGradient-1)"></path>
                        <path d="M5.02186399,4.68098986 C5.00711373,4.56318342 4.99986115,4.44455903 5.00014176,4.32583311 L5.00014176,2.91502198 C5.00211678,1.30591515 6.30606519,0.00196673576 7.91517201,-5.77315973e-15 L12.9626218,-5.77315973e-15 C14.5717286,0.00196672392 15.875677,1.30591514 15.8776518,2.91502198 L15.8776518,4.32404841 C15.8779283,4.44257647 15.8706757,4.56100269 15.8559298,4.67861026 L13.6988136,4.40911945 C13.7020066,4.38087518 13.7035955,4.35247258 13.7035728,4.32404841 L13.7035728,2.91502198 C13.698129,2.50775368 13.3692952,2.17891984 12.9620269,2.17347607 L7.91695673,2.17347607 C7.50887555,2.17779987 7.17879668,2.50695453 7.17332867,2.91502198 L7.17332867,4.32404841 C7.17331499,4.35257125 7.1749039,4.38107233 7.1780879,4.4094169 L5.02186399,4.68098986 Z" id="形状备份" fill="url(#linearGradient-2)" opacity="0.5"></path>
                    </g>
                </g>
            </g>
        </g>
    </g>
</svg>